<?xml version="1.0" encoding="UTF-8" standalone="no"?>
<!-- Created with Inkscape (http://www.inkscape.org/) -->
<svg xmlns:dc="http://purl.org/dc/elements/1.1/" xmlns:cc="http://creativecommons.org/ns#" xmlns:rdf="http://www.w3.org/1999/02/22-rdf-syntax-ns#" xmlns:svg="http://www.w3.org/2000/svg" xmlns="http://www.w3.org/2000/svg" xmlns:sodipodi="http://sodipodi.sourceforge.net/DTD/sodipodi-0.dtd" xmlns:inkscape="http://www.inkscape.org/namespaces/inkscape" version="1.1" id="svg2" xml:space="preserve" width="180.36092" height="220.87132" viewBox="0 0 180.36091 220.87132" sodipodi:docname="logo douanes.svg" inkscape:version="0.92.2 5c3e80d, 2017-08-06"><metadata id="metadata8"><rdf:RDF><cc:Work rdf:about=""><dc:format>image/svg+xml</dc:format><dc:type rdf:resource="http://purl.org/dc/dcmitype/StillImage"/><dc:title/></cc:Work></rdf:RDF></metadata><defs id="defs6"><clipPath clipPathUnits="userSpaceOnUse" id="clipPath290"><path d="M 0,0 H 566.929 V 779.528 H 0 Z" id="path288" inkscape:connector-curvature="0"/></clipPath></defs><sodipodi:namedview pagecolor="#ffffff" bordercolor="#666666" borderopacity="1" objecttolerance="10" gridtolerance="10" guidetolerance="10" inkscape:pageopacity="0" inkscape:pageshadow="2" inkscape:window-width="1280" inkscape:window-height="679" id="namedview4" showgrid="false" fit-margin-top="2" fit-margin-left="2" fit-margin-bottom="2" fit-margin-right="2" inkscape:zoom="0.64222398" inkscape:cx="353.40264" inkscape:cy="146.88355" inkscape:window-x="0" inkscape:window-y="1" inkscape:window-maximized="1" inkscape:current-layer="g10"/><g id="g10" inkscape:groupmode="layer" inkscape:label="douane-resultats-2018" transform="matrix(1.3333333,0,0,-1.3333333,-324.73026,265.23173)"><g id="g477" transform="matrix(1.8709302,0,0,1.8686176,-213.85516,-30.636141)" style="stroke-width:0.53482413"><path inkscape:connector-curvature="0" id="path282" style="fill:#1d4e9e;fill-opacity:1;fill-rule:nonzero;stroke:#ffffff;stroke-width:0.53482413;stroke-linecap:butt;stroke-linejoin:miter;stroke-miterlimit:10;stroke-dasharray:none;stroke-opacity:1" d="m 315.711,35.27 h -70.163 v 86.51 h 70.163 z"/><g id="g284" style="stroke-width:0.53482413"><g clip-path="url(#clipPath290)" id="g286" style="stroke-width:0.53482413"><g transform="translate(251.872,78.1519)" id="g292" style="stroke-width:0.53482413"><path inkscape:connector-curvature="0" id="path294" style="fill:#ffffff;fill-opacity:1;fill-rule:nonzero;stroke:none;stroke-width:0.53482413" d="m 0,0 c 0,1.05 -0.111,1.211 -0.421,1.211 h -0.288 c -0.211,0 -0.266,0.067 -0.266,0.215 v 0.095 c 0,0.093 0.023,0.147 0.067,0.188 0.376,0.255 2.657,0.403 3.189,0.403 2.725,0 5.217,-1.157 5.217,-4.965 0,-3.176 -2.26,-4.75 -4.619,-4.75 -0.952,0 -1.916,0.067 -2.38,0.067 -0.444,0 -1.031,-0.067 -1.33,-0.067 -0.121,0 -0.188,0 -0.188,0.107 v 0.256 c 0,0.109 0.055,0.175 0.144,0.175 0.609,0 0.875,0.229 0.875,1.158 z m 1.473,-5.786 c 0,-0.929 0.598,-1.212 1.429,-1.212 1.894,0 2.99,1.938 2.99,4.118 0,2.356 -1.041,4.387 -3.112,4.387 -0.643,0 -1.307,-0.027 -1.307,-0.956 z"/></g><g transform="translate(264.6972,79.3729)" id="g296" style="stroke-width:0.53482413"><path inkscape:connector-curvature="0" id="path298" style="fill:#ffffff;fill-opacity:1;fill-rule:nonzero;stroke:none;stroke-width:0.53482413" d="m 0,0 c 2.414,0 4.463,-1.711 4.463,-4.302 0,-2.934 -2.115,-4.717 -4.685,-4.717 -2.259,0 -4.175,1.711 -4.175,4.388 C -4.397,-1.869 -2.414,0 0,0 m 0.177,-8.408 c 1.75,0 2.68,1.539 2.68,3.336 0,2.115 -0.808,4.461 -3.012,4.461 -1.994,0 -2.636,-1.527 -2.636,-3.507 0,-1.87 1.008,-4.29 2.968,-4.29"/></g><g transform="translate(272.4831,73.2384)" id="g300" style="stroke-width:0.53482413"><path inkscape:connector-curvature="0" id="path302" style="fill:#ffffff;fill-opacity:1;fill-rule:nonzero;stroke:none;stroke-width:0.53482413" d="m 0,0 c 0,-1.467 0.776,-1.98 1.983,-1.98 1.572,0 2.514,0.659 2.514,2.468 v 4.07 C 4.497,5.34 4.275,5.45 3.633,5.45 3.544,5.45 3.467,5.499 3.467,5.585 v 0.244 c 0,0.061 0.044,0.11 0.1,0.11 0.343,0 0.653,-0.061 1.107,-0.061 0.687,0 1.019,0.061 1.418,0.061 0.055,0 0.099,-0.013 0.099,-0.085 V 5.621 C 6.191,5.475 6.18,5.45 6.036,5.45 5.206,5.45 5.161,5.157 5.161,4.351 V 0.732 c 0,-1.063 -0.089,-1.967 -0.852,-2.688 -0.654,-0.611 -1.573,-0.929 -2.426,-0.929 -1.839,0 -3.356,0.561 -3.356,2.835 v 4.779 c 0,0.684 -0.277,0.721 -0.897,0.721 -0.056,0 -0.133,0.012 -0.133,0.086 v 0.281 c 0,0.085 0.056,0.122 0.144,0.122 0.509,0 1.385,-0.061 1.916,-0.061 0.543,0 0.875,0.061 1.384,0.061 0.078,0 0.1,-0.024 0.1,-0.11 V 5.548 C 1.041,5.462 0.986,5.45 0.886,5.45 0.233,5.45 0,5.328 0,4.582 Z"/></g><g transform="translate(281.6423,73.8973)" id="g304" style="stroke-width:0.53482413"><path inkscape:connector-curvature="0" id="path306" style="fill:#ffffff;fill-opacity:1;fill-rule:nonzero;stroke:none;stroke-width:0.53482413" d="m 0,0 c -0.055,0 -0.1,0 -0.132,-0.036 l -0.411,-1.296 c -0.132,-0.403 -0.254,-0.794 -0.254,-1.027 0,-0.402 0.277,-0.501 0.819,-0.501 0.111,0 0.122,-0.072 0.122,-0.146 v -0.245 c 0,-0.085 -0.055,-0.097 -0.199,-0.097 -0.366,0 -0.742,0.06 -1.185,0.06 -0.709,0 -1.019,-0.06 -1.23,-0.06 -0.033,0 -0.088,0.025 -0.088,0.097 v 0.221 c 0,0.085 0.055,0.158 0.144,0.158 0.432,0 0.72,0.122 0.908,0.648 0.233,0.648 0.455,1.308 0.676,1.967 l 1.174,3.789 c 0.099,0.318 0.199,0.673 0.332,1.174 0.066,0.22 0.144,0.317 0.543,0.623 0.232,0.172 0.387,0.317 0.432,0.317 0.055,0 0.088,-0.158 0.122,-0.231 l 2.636,-7.187 c 0.32,-0.88 0.398,-0.989 0.807,-1.088 0.312,-0.061 0.343,-0.061 0.343,-0.146 v -0.196 c 0,-0.049 0,-0.146 -0.132,-0.146 -0.309,0 -0.952,0.06 -1.44,0.06 -0.631,0 -1.207,-0.06 -1.706,-0.06 -0.043,0 -0.088,0.012 -0.088,0.06 v 0.282 c 0,0.134 0.066,0.146 0.144,0.146 0.576,0 0.709,0.221 0.709,0.477 0,0.281 -0.631,1.821 -0.83,2.383 z M 1.972,0.611 0.919,3.398 H 0.897 L 0.056,0.611 Z"/></g><g transform="translate(291.5773,77.7594)" id="g308" style="stroke-width:0.53482413"><path inkscape:connector-curvature="0" id="path310" style="fill:#ffffff;fill-opacity:1;fill-rule:nonzero;stroke:none;stroke-width:0.53482413" d="m 0,0 c 0.387,-0.513 0.776,-1.027 1.185,-1.54 l 2.381,-3.043 c 0.067,-0.098 0.111,-0.159 0.145,-0.159 0.032,0 0.054,0.563 0.054,0.843 v 3.765 c 0,0.783 -0.054,1.063 -0.83,1.063 -0.1,0 -0.21,0.025 -0.21,0.147 v 0.208 c 0,0.11 0.067,0.134 0.165,0.134 0.566,0 1.075,-0.061 1.441,-0.061 0.465,0 0.752,0.061 1.052,0.061 0.077,0 0.132,-0.013 0.132,-0.122 V 1.052 C 5.515,0.966 5.427,0.929 5.128,0.929 4.575,0.905 4.408,0.66 4.43,-0.573 v -4.682 c 0,-0.929 0.011,-1.663 0.011,-2.054 0,-0.073 -0.011,-0.097 -0.11,-0.097 -0.399,0 -0.444,0.012 -0.609,0.16 C 3.4,-6.88 3.234,-6.661 3.057,-6.441 l -4.486,5.744 c -0.144,0.184 -0.232,0.319 -0.299,0.319 -0.077,0 -0.055,-0.477 -0.055,-0.551 v -4.424 c 0,-1.295 0.21,-1.369 0.886,-1.369 0.111,0 0.199,0 0.199,-0.109 v -0.27 c 0,-0.084 -0.044,-0.109 -0.166,-0.109 -0.465,0 -0.653,0.06 -1.063,0.06 -0.42,0 -0.942,-0.06 -1.463,-0.06 -0.154,0 -0.198,0.049 -0.198,0.146 v 0.208 c 0,0.073 0.033,0.134 0.111,0.134 0.653,0 1.03,0.05 1.03,1.272 v 4.277 c 0,1.992 -0.144,2.102 -1.262,2.102 -0.068,0 -0.112,0.049 -0.112,0.11 v 0.257 c 0,0.061 0.033,0.122 0.122,0.122 0.399,0 0.776,-0.061 1.151,-0.061 0.487,0 0.92,0.061 1.408,0.061 0.143,0 0.209,-0.195 0.276,-0.281 z"/></g><g transform="translate(300.1936,72.0764)" id="g312" style="stroke-width:0.53482413"><path inkscape:connector-curvature="0" id="path314" style="fill:#ffffff;fill-opacity:1;fill-rule:nonzero;stroke:none;stroke-width:0.53482413" d="m 0,0 c 0,-0.673 0.134,-0.978 0.875,-0.978 h 1.517 c 0.499,0 0.588,0.22 0.82,0.611 l 0.344,0.575 c 0.098,0.159 0.143,0.183 0.199,0.183 0.088,0 0.409,-0.048 0.409,-0.183 0,-0.062 -0.01,-0.122 -0.032,-0.183 -0.133,-0.477 -0.278,-0.941 -0.455,-1.552 -0.675,0 -1.362,0.012 -2.05,0.036 -0.686,0.013 -1.361,0.024 -2.048,0.024 -0.331,0 -0.665,-0.011 -0.985,-0.024 -0.332,-0.024 -0.665,-0.036 -0.997,-0.036 -0.034,0 -0.089,0.025 -0.089,0.097 v 0.22 c 0,0.122 0.067,0.147 0.378,0.171 0.32,0.026 0.641,0.147 0.641,0.954 v 4.852 1.21 c 0,0.635 -0.443,0.635 -0.786,0.635 -0.111,0 -0.188,0 -0.188,0.123 v 0.244 c 0,0.122 0.099,0.122 0.21,0.122 0.443,0 1.318,-0.049 1.883,-0.061 1.186,0 2.381,0.061 3.566,0.061 0.1,0 0.1,-0.085 0.1,-0.146 0,-0.269 -0.011,-0.551 -0.011,-0.82 0,-0.256 0.011,-0.525 0.011,-0.782 0,-0.085 -0.056,-0.134 -0.144,-0.134 H 2.946 C 2.891,5.219 2.88,5.28 2.869,5.463 2.802,6.404 2.515,6.551 1.784,6.551 H 0.732 C 0.134,6.551 0,6.49 0,5.5 V 3.361 h 0.753 c 0.82,0 1.185,-0.048 1.352,0.954 C 2.116,4.376 2.138,4.4 2.193,4.4 h 0.188 c 0.1,0 0.123,-0.036 0.123,-0.085 0,-0.453 -0.013,-0.905 -0.013,-1.357 0,-0.33 0.013,-0.721 0.013,-1.1 0,-0.11 -0.033,-0.184 -0.089,-0.184 H 2.161 c -0.067,0 -0.1,0.025 -0.1,0.099 0,0.195 0,0.451 -0.089,0.708 C 1.85,2.824 1.529,2.811 1.064,2.811 H 0 Z"/></g><g transform="translate(305.82,72.5043)" id="g316" style="stroke-width:0.53482413"><path inkscape:connector-curvature="0" id="path318" style="fill:#ffffff;fill-opacity:1;fill-rule:nonzero;stroke:none;stroke-width:0.53482413" d="m 0,0 c 0.277,-0.758 0.676,-1.601 1.794,-1.601 0.898,0 1.617,0.489 1.617,1.406 0,2.126 -3.81,1.613 -3.81,4.473 0,1.687 1.186,2.591 2.615,2.591 0.708,0 1.694,-0.367 1.882,-0.673 V 4.682 H 3.6 C 3.456,5.659 3.013,6.319 2.116,6.319 c -0.742,0 -1.351,-0.44 -1.351,-1.333 0,-2.09 3.81,-1.466 3.81,-4.46 0,-1.723 -1.329,-2.677 -2.792,-2.677 -0.708,0 -1.416,0.134 -2.059,0.501 -0.045,0.549 -0.112,1.099 -0.167,1.65 z"/></g><g transform="translate(253.4753,63.4612)" id="g320" style="stroke-width:0.53482413"><path inkscape:connector-curvature="0" id="path322" style="fill:#ffffff;fill-opacity:1;fill-rule:nonzero;stroke:none;stroke-width:0.53482413" d="m 0,0 c -0.577,0.404 -1.116,0.892 -1.116,1.637 0,1.149 0.936,1.871 2.104,1.871 0.898,0 1.822,-0.379 1.822,-1.417 0,-0.723 -0.719,-1.248 -1.322,-1.541 0.975,-0.501 1.783,-1.247 2.399,-2.09 0.411,0.599 1.142,1.381 1.142,2.126 0,0.453 -0.36,0.465 -0.834,0.465 -0.077,0 -0.09,0.111 -0.09,0.184 v 0.183 c 0,0.073 0.013,0.122 0.116,0.122 0.423,0 1.116,-0.062 1.77,-0.062 0.462,0 0.962,0.062 1.386,0.062 0.064,0 0.077,-0.036 0.077,-0.099 V 1.162 C 7.441,1.076 7.402,1.051 7.299,1.051 6.658,1.051 6.363,0.905 5.953,0.354 5.388,-0.403 4.798,-1.173 4.233,-1.931 c 0.436,-0.782 0.976,-1.906 2.053,-1.906 0.603,0 0.809,0.195 1.18,0.635 C 7.582,-3.263 7.71,-3.336 7.838,-3.386 7.774,-3.52 7.71,-3.655 7.633,-3.777 7.184,-4.473 6.414,-4.889 5.568,-4.889 c -0.398,0 -0.667,0.049 -1.091,0.147 -0.423,0.097 -0.462,0.172 -0.77,0.733 -0.166,0.306 -0.281,0.611 -0.41,0.916 -0.885,-1.025 -1.462,-1.796 -2.963,-1.796 -1.412,0 -2.45,0.806 -2.45,2.212 0,1.284 1.025,2.126 2.116,2.677 m -0.667,-1.882 c 0,-1.039 0.936,-1.845 1.989,-1.845 0.743,0 1.269,0.634 1.719,1.111 -0.655,1.002 -1.668,1.711 -2.695,2.347 -0.667,-0.378 -1.013,-0.855 -1.013,-1.613 M 1.655,1.76 C 1.655,2.432 1.476,3.08 0.77,3.08 0.269,3.08 0.039,2.64 0.039,2.187 0.039,1.54 0.667,1.125 1.168,0.795 1.501,1.088 1.655,1.308 1.655,1.76"/></g><g transform="translate(266.1646,66.271)" id="g324" style="stroke-width:0.53482413"><path inkscape:connector-curvature="0" id="path326" style="fill:#ffffff;fill-opacity:1;fill-rule:nonzero;stroke:none;stroke-width:0.53482413" d="m 0,0 c 0,1.035 -0.111,1.194 -0.421,1.194 h -0.288 c -0.21,0 -0.265,0.068 -0.265,0.214 v 0.093 c 0,0.093 0.022,0.147 0.066,0.185 0.377,0.253 2.658,0.399 3.19,0.399 2.725,0 5.216,-1.142 5.216,-4.9 0,-3.134 -2.259,-4.688 -4.618,-4.688 -0.953,0 -1.916,0.066 -2.381,0.066 -0.444,0 -1.03,-0.066 -1.329,-0.066 -0.122,0 -0.189,0 -0.189,0.106 v 0.253 c 0,0.106 0.056,0.172 0.144,0.172 0.609,0 0.875,0.225 0.875,1.142 z m 1.473,-5.71 c 0,-0.917 0.598,-1.196 1.429,-1.196 1.894,0 2.99,1.913 2.99,4.064 0,2.324 -1.041,4.329 -3.112,4.329 -0.642,0 -1.307,-0.027 -1.307,-0.943 z"/></g><g transform="translate(277.218,60.4791)" id="g328" style="stroke-width:0.53482413"><path inkscape:connector-curvature="0" id="path330" style="fill:#ffffff;fill-opacity:1;fill-rule:nonzero;stroke:none;stroke-width:0.53482413" d="m 0,0 c 0,-1.027 0.355,-1.223 0.853,-1.223 0.066,0 0.088,-0.036 0.088,-0.097 v -0.293 c 0,-0.085 -0.055,-0.099 -0.122,-0.099 -0.443,0 -0.886,0.062 -1.329,0.062 -0.465,0 -1.484,-0.062 -1.871,-0.062 -0.122,0 -0.144,0.014 -0.144,0.086 v 0.233 c 0,0.06 0.022,0.159 0.133,0.17 0.83,0.062 0.919,0.221 0.919,1.357 v 4.718 c 0,1.235 -0.1,1.576 -0.609,1.576 h -0.354 c -0.045,0 -0.067,0.038 -0.067,0.086 v 0.293 c 0,0.074 0.022,0.111 0.078,0.111 0.498,0 1.306,-0.061 2.148,-0.061 1.241,0.061 0.853,0.035 1.784,0.061 0.708,0 2.214,-0.441 2.214,-2.066 C 3.721,3.777 2.857,3.238 1.949,3.067 2.404,2.714 2.747,2.162 3.035,1.65 l 1.119,-1.98 c 0.298,-0.538 0.642,-0.893 1.239,-0.893 0.045,-0.011 0.068,-0.036 0.068,-0.073 v -0.416 c -0.444,0.014 -0.887,0.062 -1.33,0.062 -0.277,0 -0.564,-0.062 -0.786,-0.062 -0.244,0 -0.344,0.208 -0.665,0.82 L 1.23,1.895 C 0.93,2.431 0.83,2.628 0,2.628 Z M 0,3.19 C 0.144,3.177 0.299,3.177 0.443,3.177 c 0.92,0 1.673,0.502 1.673,1.577 0,0.917 -0.432,1.614 -1.385,1.614 C 0.033,6.368 0,5.916 0,5.366 Z"/></g><g transform="translate(287.7178,67.5919)" id="g332" style="stroke-width:0.53482413"><path inkscape:connector-curvature="0" id="path334" style="fill:#ffffff;fill-opacity:1;fill-rule:nonzero;stroke:none;stroke-width:0.53482413" d="m 0,0 c 2.414,0 4.463,-1.71 4.463,-4.302 0,-2.933 -2.115,-4.718 -4.685,-4.718 -2.259,0 -4.175,1.711 -4.175,4.388 C -4.397,-1.87 -2.415,0 0,0 m 0.177,-8.409 c 1.75,0 2.68,1.541 2.68,3.337 0,2.114 -0.809,4.461 -3.013,4.461 -1.992,0 -2.635,-1.528 -2.635,-3.507 0,-1.87 1.008,-4.291 2.968,-4.291"/></g><g transform="translate(294.1196,66.1747)" id="g336" style="stroke-width:0.53482413"><path inkscape:connector-curvature="0" id="path338" style="fill:#ffffff;fill-opacity:1;fill-rule:nonzero;stroke:none;stroke-width:0.53482413" d="m 0,0 c 0,0.66 -0.288,0.733 -0.82,0.733 -0.089,0 -0.166,0.025 -0.166,0.086 v 0.282 c 0,0.071 0.011,0.122 0.088,0.122 0.156,0 0.798,-0.062 1.562,-0.062 0.754,0 1.407,0.062 1.684,0.062 0.088,0 0.144,-0.014 0.144,-0.074 V 0.806 C 2.492,0.745 2.391,0.733 2.269,0.733 1.761,0.733 1.472,0.55 1.472,0 v -6.147 c 0,-0.685 0.367,-0.771 0.919,-0.771 0.09,0 0.122,-0.037 0.122,-0.11 v -0.245 c 0,-0.109 -0.055,-0.134 -0.143,-0.134 -0.521,0 -1.041,0.062 -1.562,0.062 -0.576,0 -1.163,-0.062 -1.739,-0.062 -0.033,0 -0.077,0.025 -0.077,0.074 v 0.317 c 0,0.061 0.044,0.098 0.154,0.098 0.521,0 0.854,0.11 0.854,0.771 z"/></g><g transform="translate(301.5952,60.4051)" id="g340" style="stroke-width:0.53482413"><path inkscape:connector-curvature="0" id="path342" style="fill:#ffffff;fill-opacity:1;fill-rule:nonzero;stroke:none;stroke-width:0.53482413" d="m 0,0 c 0,-0.903 0.299,-1.149 0.908,-1.149 0.1,0 0.155,-0.036 0.155,-0.11 v -0.293 c 0,-0.072 -0.055,-0.085 -0.144,-0.085 -0.266,0 -1.295,0.061 -1.893,0.061 -0.677,0 -1.042,-0.061 -1.363,-0.061 -0.122,0 -0.2,0.013 -0.2,0.098 v 0.232 c 0,0.097 0.023,0.158 0.1,0.158 0.82,0 0.964,0.197 0.964,1.076 V 6.38 h -1.34 C -3.467,6.38 -3.71,5.587 -3.909,5.244 -3.943,5.183 -3.977,5.158 -4.031,5.158 c -0.278,0 -0.321,0.036 -0.321,0.196 0,0.098 0.221,1.466 0.276,2.09 0,0.061 0.034,0.086 0.077,0.086 h 0.366 C -3.511,7.248 -3.278,6.992 -2.88,6.992 h 4.142 c 0.699,0 0.986,0.219 1.086,0.538 h 0.299 c 0.111,0 0.166,-0.037 0.166,-0.148 0,-0.134 -0.222,-1.002 -0.289,-1.98 0,-0.073 -0.011,-0.11 -0.077,-0.11 -0.11,0 -0.432,0.05 -0.432,0.135 0,0.098 0.012,0.208 0.012,0.428 0,0.489 -0.465,0.525 -0.82,0.525 L 0,6.38 Z"/></g><g transform="translate(305.6266,60.7239)" id="g344" style="stroke-width:0.53482413"><path inkscape:connector-curvature="0" id="path346" style="fill:#ffffff;fill-opacity:1;fill-rule:nonzero;stroke:none;stroke-width:0.53482413" d="m 0,0 c 0.276,-0.759 0.675,-1.601 1.794,-1.601 0.897,0 1.617,0.488 1.617,1.406 0,2.126 -3.809,1.613 -3.809,4.472 0,1.686 1.184,2.591 2.613,2.591 0.709,0 1.694,-0.367 1.883,-0.672 V 4.68 H 3.6 C 3.455,5.658 3.013,6.317 2.115,6.317 c -0.742,0 -1.35,-0.438 -1.35,-1.332 0,-2.089 3.81,-1.466 3.81,-4.46 0,-1.723 -1.329,-2.677 -2.792,-2.677 -0.709,0 -1.417,0.135 -2.06,0.501 C -0.321,-1.1 -0.388,-0.55 -0.442,0 Z"/></g><g transform="translate(251.8627,55.0272)" id="g348" style="stroke-width:0.53482413"><path inkscape:connector-curvature="0" id="path350" style="fill:#ffffff;fill-opacity:1;fill-rule:nonzero;stroke:none;stroke-width:0.53482413" d="m 0,0 c 0,0.717 -0.265,0.797 -0.756,0.797 -0.082,0 -0.153,0.027 -0.153,0.092 v 0.306 c 0,0.079 0.01,0.133 0.082,0.133 0.142,0 0.735,-0.066 1.44,-0.066 0.694,0 1.298,0.066 1.552,0.066 0.082,0 0.133,-0.014 0.133,-0.08 V 0.877 C 2.298,0.81 2.206,0.797 2.094,0.797 1.624,0.797 1.358,0.597 1.358,0 v -6.673 c 0,-0.743 0.338,-0.836 0.848,-0.836 0.082,0 0.112,-0.038 0.112,-0.119 v -0.265 c 0,-0.12 -0.051,-0.146 -0.132,-0.146 -0.48,0 -0.96,0.066 -1.44,0.066 -0.531,0 -1.072,-0.066 -1.604,-0.066 -0.03,0 -0.071,0.026 -0.071,0.079 v 0.346 c 0,0.067 0.041,0.105 0.143,0.105 0.48,0 0.786,0.119 0.786,0.836 z"/></g><g transform="translate(258.2463,54.0803)" id="g352" style="stroke-width:0.53482413"><path inkscape:connector-curvature="0" id="path354" style="fill:#ffffff;fill-opacity:1;fill-rule:nonzero;stroke:none;stroke-width:0.53482413" d="m 0,0 c 0.358,-0.506 0.715,-1.011 1.093,-1.515 l 2.196,-2.993 c 0.061,-0.097 0.102,-0.157 0.133,-0.157 0.03,0 0.051,0.554 0.051,0.83 v 3.702 c 0,0.77 -0.051,1.046 -0.766,1.046 -0.093,0 -0.194,0.024 -0.194,0.144 v 0.205 c 0,0.107 0.061,0.132 0.153,0.132 0.521,0 0.99,-0.06 1.327,-0.06 0.429,0 0.695,0.06 0.971,0.06 0.071,0 0.122,-0.013 0.122,-0.12 V 1.033 C 5.086,0.95 5.005,0.913 4.729,0.913 4.218,0.889 4.065,0.649 4.086,-0.565 v -4.603 c 0,-0.915 0.009,-1.636 0.009,-2.02 0,-0.073 -0.009,-0.097 -0.102,-0.097 -0.367,0 -0.408,0.013 -0.561,0.157 -0.297,0.361 -0.449,0.576 -0.613,0.793 l -4.136,5.649 c -0.133,0.18 -0.215,0.313 -0.276,0.313 -0.072,0 -0.052,-0.469 -0.052,-0.541 v -4.352 c 0,-1.273 0.195,-1.346 0.818,-1.346 0.102,0 0.184,0 0.184,-0.108 v -0.264 c 0,-0.085 -0.041,-0.108 -0.154,-0.108 -0.429,0 -0.602,0.06 -0.98,0.06 -0.388,0 -0.868,-0.06 -1.348,-0.06 -0.143,0 -0.184,0.048 -0.184,0.144 v 0.205 c 0,0.071 0.03,0.131 0.102,0.131 0.603,0 0.95,0.048 0.95,1.251 v 4.206 c 0,1.96 -0.133,2.068 -1.165,2.068 -0.061,0 -0.101,0.048 -0.101,0.108 v 0.253 c 0,0.06 0.03,0.12 0.112,0.12 0.367,0 0.715,-0.06 1.062,-0.06 0.45,0 0.847,0.06 1.297,0.06 0.133,0 0.194,-0.193 0.255,-0.276 z"/></g><g transform="translate(264.6808,53.7789)" id="g356" style="stroke-width:0.53482413"><path inkscape:connector-curvature="0" id="path358" style="fill:#ffffff;fill-opacity:1;fill-rule:nonzero;stroke:none;stroke-width:0.53482413" d="m 0,0 c 0,0.938 -0.102,1.083 -0.388,1.083 h -0.266 c -0.194,0 -0.245,0.059 -0.245,0.191 v 0.085 c 0,0.084 0.021,0.132 0.061,0.168 0.347,0.228 2.451,0.36 2.942,0.36 2.512,0 4.81,-1.033 4.81,-4.435 0,-2.837 -2.083,-4.243 -4.259,-4.243 -0.878,0 -1.767,0.06 -2.195,0.06 -0.409,0 -0.951,-0.06 -1.226,-0.06 -0.112,0 -0.174,0 -0.174,0.097 v 0.228 c 0,0.095 0.052,0.156 0.132,0.156 0.562,0 0.808,0.205 0.808,1.033 z m 1.358,-5.168 c 0,-0.829 0.552,-1.083 1.318,-1.083 1.746,0 2.758,1.731 2.758,3.679 0,2.103 -0.96,3.918 -2.87,3.918 -0.593,0 -1.206,-0.023 -1.206,-0.854 z"/></g><g transform="translate(273.2094,54.2711)" id="g360" style="stroke-width:0.53482413"><path inkscape:connector-curvature="0" id="path362" style="fill:#ffffff;fill-opacity:1;fill-rule:nonzero;stroke:none;stroke-width:0.53482413" d="m 0,0 c 0,0.65 -0.266,0.722 -0.756,0.722 -0.082,0 -0.153,0.024 -0.153,0.084 v 0.277 c 0,0.072 0.01,0.12 0.081,0.12 0.143,0 0.735,-0.06 1.44,-0.06 0.694,0 1.297,0.06 1.553,0.06 0.081,0 0.132,-0.012 0.132,-0.073 V 0.794 C 2.297,0.734 2.205,0.722 2.093,0.722 1.623,0.722 1.358,0.541 1.358,0 v -6.045 c 0,-0.673 0.337,-0.757 0.847,-0.757 0.082,0 0.113,-0.036 0.113,-0.109 v -0.241 c 0,-0.107 -0.051,-0.131 -0.133,-0.131 -0.48,0 -0.96,0.06 -1.44,0.06 -0.531,0 -1.072,-0.06 -1.604,-0.06 -0.03,0 -0.071,0.024 -0.071,0.072 v 0.312 c 0,0.061 0.041,0.097 0.143,0.097 0.48,0 0.787,0.107 0.787,0.757 z"/></g><g transform="translate(278.6524,48.6711)" id="g364" style="stroke-width:0.53482413"><path inkscape:connector-curvature="0" id="path366" style="fill:#ffffff;fill-opacity:1;fill-rule:nonzero;stroke:none;stroke-width:0.53482413" d="m 0,0 c 0,-1.01 0.327,-1.202 0.787,-1.202 0.061,0 0.081,-0.036 0.081,-0.097 v -0.288 c 0,-0.085 -0.051,-0.096 -0.112,-0.096 -0.409,0 -0.817,0.06 -1.226,0.06 -0.429,0 -1.368,-0.06 -1.726,-0.06 -0.113,0 -0.133,0.011 -0.133,0.084 v 0.228 c 0,0.06 0.02,0.156 0.123,0.169 0.766,0.059 0.848,0.215 0.848,1.333 v 4.641 c 0,1.214 -0.092,1.55 -0.562,1.55 h -0.327 c -0.04,0 -0.062,0.037 -0.062,0.084 v 0.288 c 0,0.073 0.022,0.109 0.073,0.109 0.459,0 1.205,-0.06 1.98,-0.06 1.145,0.06 0.787,0.035 1.645,0.06 0.654,0 2.043,-0.433 2.043,-2.031 0,-1.059 -0.797,-1.587 -1.634,-1.755 0.418,-0.349 0.735,-0.89 1,-1.394 L 3.83,-0.325 c 0.276,-0.528 0.592,-0.877 1.144,-0.877 0.041,-0.013 0.062,-0.036 0.062,-0.072 v -0.409 c -0.409,0.011 -0.818,0.06 -1.226,0.06 -0.256,0 -0.521,-0.06 -0.725,-0.06 -0.225,0 -0.317,0.204 -0.614,0.806 L 1.134,1.863 C 0.858,2.392 0.766,2.584 0,2.584 Z M 0,3.137 C 0.133,3.125 0.276,3.125 0.409,3.125 c 0.847,0 1.542,0.492 1.542,1.55 0,0.903 -0.398,1.587 -1.277,1.587 C 0.031,6.262 0,5.817 0,5.276 Z"/></g><g transform="translate(286.333,48.4907)" id="g368" style="stroke-width:0.53482413"><path inkscape:connector-curvature="0" id="path370" style="fill:#ffffff;fill-opacity:1;fill-rule:nonzero;stroke:none;stroke-width:0.53482413" d="m 0,0 c 0,-0.662 0.123,-0.963 0.807,-0.963 h 1.399 c 0.46,0 0.541,0.218 0.755,0.602 l 0.318,0.565 c 0.092,0.156 0.132,0.18 0.183,0.18 0.083,0 0.378,-0.048 0.378,-0.18 0,-0.06 -0.01,-0.121 -0.03,-0.18 -0.123,-0.469 -0.256,-0.926 -0.419,-1.527 -0.623,0 -1.257,0.011 -1.889,0.036 -0.635,0.013 -1.257,0.024 -1.89,0.024 -0.307,0 -0.613,-0.011 -0.909,-0.024 -0.306,-0.025 -0.612,-0.036 -0.919,-0.036 -0.031,0 -0.082,0.024 -0.082,0.097 v 0.216 c 0,0.12 0.062,0.144 0.347,0.168 0.296,0.024 0.593,0.144 0.593,0.938 v 4.772 1.19 c 0,0.625 -0.409,0.625 -0.726,0.625 -0.102,0 -0.173,0 -0.173,0.119 v 0.241 c 0,0.12 0.092,0.12 0.194,0.12 0.408,0 1.215,-0.048 1.736,-0.06 1.093,0 2.196,0.06 3.288,0.06 0.094,0 0.094,-0.084 0.094,-0.144 0,-0.265 -0.011,-0.54 -0.011,-0.806 0,-0.253 0.011,-0.516 0.011,-0.769 0,-0.083 -0.052,-0.131 -0.134,-0.131 H 2.716 c -0.05,0 -0.061,0.06 -0.071,0.24 -0.061,0.926 -0.327,1.07 -1,1.07 H 0.675 C 0.123,6.443 0,6.382 0,5.409 V 3.305 h 0.694 c 0.756,0 1.093,-0.048 1.246,0.938 0.011,0.06 0.032,0.083 0.083,0.083 h 0.173 c 0.092,0 0.112,-0.035 0.112,-0.083 0,-0.445 -0.009,-0.89 -0.009,-1.335 0,-0.324 0.009,-0.709 0.009,-1.08 0,-0.109 -0.03,-0.182 -0.082,-0.182 H 1.992 c -0.061,0 -0.093,0.024 -0.093,0.096 0,0.193 0,0.446 -0.081,0.698 C 1.705,2.776 1.41,2.764 0.98,2.764 H 0 Z"/></g><g transform="translate(297.6186,47.4084)" id="g372" style="stroke-width:0.53482413"><path inkscape:connector-curvature="0" id="path374" style="fill:#ffffff;fill-opacity:1;fill-rule:nonzero;stroke:none;stroke-width:0.53482413" d="m 0,0 c -0.797,-0.409 -1.594,-0.613 -2.461,-0.613 -2.411,0 -4.32,1.586 -4.32,4.592 0,2.645 2.195,4.279 4.258,4.279 0.746,0 1.604,-0.205 2.268,-0.637 C -0.143,7.549 -0.061,7.477 -0.051,7.417 0.01,6.912 0.122,5.963 0.122,5.878 0.122,5.842 0.113,5.818 0.062,5.805 L -0.255,5.71 c -0.551,1.117 -0.98,1.947 -2.196,1.947 -1.808,0 -2.799,-1.804 -2.799,-3.775 0,-1.958 1.114,-3.893 2.901,-3.893 1.164,0 1.654,0.408 2.145,1.61 0.031,0.073 0.082,0.312 0.163,0.312 0.082,0 0.399,-0.095 0.399,-0.204 0,-0.035 -0.02,-0.156 -0.051,-0.289 z"/></g><g transform="translate(302.4703,48.599)" id="g376" style="stroke-width:0.53482413"><path inkscape:connector-curvature="0" id="path378" style="fill:#ffffff;fill-opacity:1;fill-rule:nonzero;stroke:none;stroke-width:0.53482413" d="m 0,0 c 0,-0.89 0.276,-1.13 0.838,-1.13 0.091,0 0.143,-0.036 0.143,-0.109 v -0.288 c 0,-0.073 -0.052,-0.084 -0.133,-0.084 -0.245,0 -1.196,0.06 -1.747,0.06 -0.623,0 -0.959,-0.06 -1.257,-0.06 -0.111,0 -0.183,0.011 -0.183,0.097 v 0.228 c 0,0.095 0.02,0.156 0.091,0.156 0.757,0 0.89,0.192 0.89,1.057 v 6.347 h -1.237 c -0.602,0 -0.827,-0.781 -1.01,-1.118 -0.031,-0.06 -0.062,-0.084 -0.113,-0.084 -0.255,0 -0.296,0.037 -0.296,0.193 0,0.096 0.204,1.442 0.255,2.055 0,0.06 0.031,0.084 0.071,0.084 h 0.338 c 0.112,-0.276 0.327,-0.529 0.694,-0.529 h 3.821 c 0.643,0 0.908,0.216 1,0.529 h 0.276 c 0.102,0 0.153,-0.036 0.153,-0.144 0,-0.132 -0.204,-0.986 -0.265,-1.947 0,-0.072 -0.011,-0.109 -0.072,-0.109 -0.102,0 -0.398,0.048 -0.398,0.133 0,0.096 0.009,0.203 0.009,0.42 0,0.481 -0.428,0.517 -0.755,0.517 H 0 Z"/></g><g transform="translate(306.0652,48.9118)" id="g380" style="stroke-width:0.53482413"><path inkscape:connector-curvature="0" id="path382" style="fill:#ffffff;fill-opacity:1;fill-rule:nonzero;stroke:none;stroke-width:0.53482413" d="m 0,0 c 0.256,-0.746 0.623,-1.575 1.655,-1.575 0.827,0 1.491,0.481 1.491,1.383 0,2.09 -3.514,1.586 -3.514,4.398 0,1.659 1.094,2.548 2.41,2.548 0.654,0 1.562,-0.36 1.737,-0.661 V 4.603 H 3.32 C 3.186,5.565 2.777,6.213 1.951,6.213 1.266,6.213 0.705,5.78 0.705,4.902 c 0,-2.054 3.512,-1.441 3.512,-4.386 0,-1.694 -1.224,-2.632 -2.573,-2.632 -0.654,0 -1.307,0.131 -1.899,0.492 -0.041,0.541 -0.102,1.083 -0.154,1.624 z"/></g><g transform="translate(279.4497,110.2951)" id="g384" style="stroke-width:0.53482413"><path inkscape:connector-curvature="0" id="path386" style="fill:#ffffff;fill-opacity:1;fill-rule:nonzero;stroke:none;stroke-width:0.53482413" d="m 0,0 c 0,0 2.031,-4.641 1.975,-6.463 0,0 1.523,2.321 -0.762,6.757 0,0 -1.467,3.261 -0.311,5.17 0,0 0.847,1.88 2.794,2.379 0,0 0.169,-0.088 -0.113,-0.411 0,0 -1.297,-1.997 0.508,-3.789 0,0 2.313,-2.527 2.172,-4.73 0,0 0.254,-3.643 -3.753,-7.168 L 1.552,-8.284 c 0,0 -1.658,2.428 -2.539,4.054 0,0 -1.405,2.522 -0.763,4.524 0,0 0.567,2.256 1.442,3.007 0,0 0.101,0.035 0.084,-0.089 0,0 -0.161,-2.304 0.224,-3.212"/></g><g transform="translate(289.6641,97.4424)" id="g388" style="stroke-width:0.53482413"><path inkscape:connector-curvature="0" id="path390" style="fill:#ffffff;fill-opacity:1;fill-rule:nonzero;stroke:none;stroke-width:0.53482413" d="m 0,0 c 0.432,-1.107 0.673,-2.314 0.673,-3.58 0,-5.304 -4.179,-9.604 -9.334,-9.604 l -1.081,0.064 c -5.421,0.266 -8.948,4.45 -8.948,4.45 -3.587,4.088 -4.898,9.883 -4.898,9.883 h 6.838 2.343 c -1.01,-1.332 -1.613,-3.005 -1.613,-4.824 0,-3.648 2.42,-6.714 5.698,-7.594 0.616,-0.166 1.263,-0.255 1.93,-0.255 4.213,0 7.629,3.514 7.629,7.849 0,1.287 -0.304,2.5 -0.837,3.571 -0.184,0.37 -0.394,0.722 -0.63,1.054 h 1.768 z"/></g><g transform="translate(282.3563,42.4122)" id="g392" style="stroke-width:0.53482413"><path inkscape:connector-curvature="0" id="path394" style="fill:#ed1639;fill-opacity:1;fill-rule:nonzero;stroke:none;stroke-width:0.53482413" d="m 0,0 c 0,-0.998 -0.801,-1.806 -1.79,-1.806 -0.989,0 -1.79,0.808 -1.79,1.806 0,0.996 0.801,1.806 1.79,1.806 C -0.801,1.806 0,0.996 0,0"/></g><g transform="translate(286.3784,93.614)" id="g396" style="stroke-width:0.53482413"><path inkscape:connector-curvature="0" id="path398" style="fill:#ed1639;fill-opacity:1;fill-rule:nonzero;stroke:none;stroke-width:0.53482413" d="m 0,0 c 0,-2.778 -2.296,-5.031 -5.129,-5.031 -2.833,0 -5.13,2.253 -5.13,5.031 0,2.779 2.297,5.032 5.13,5.032 C -2.296,5.032 0,2.779 0,0"/></g></g></g></g></g></svg>