<?xml version="1.0" encoding="UTF-8"?>
<svg width="333px" height="104px" viewBox="0 0 333 104" version="1.1" xmlns="http://www.w3.org/2000/svg" xmlns:xlink="http://www.w3.org/1999/xlink">
    <title>mes-parcelles</title>
    <g id="Page-1" stroke="none" stroke-width="1" fill="none" fill-rule="evenodd">
        <g id="mes-parcelles" fill-rule="nonzero">
            <path d="M28.08,0 L38.08,0 L38.08,9.18 L28.08,9.18 C17.6447703,9.19653182 9.19101199,17.654763 9.18,28.09 L9.18,36.23 L0,36.23 L0,28.09 C0.0165237321,12.587074 12.5770808,0.022043733 28.08,0 Z" id="Path" fill="#E5232A"></path>
            <path d="M28.09,94.58 L38.09,94.58 L38.09,103.76 L28.09,103.76 C12.5792753,103.743456 0.0110229933,91.1707296 0,75.66 L0,67.52 L9.18,67.52 L9.18,75.66 C9.18551084,86.1030402 17.6469642,94.5689681 28.09,94.58 L28.09,94.58 Z" id="Path" fill="#E5232A"></path>
            <path d="M106.12,28.09 L106.12,29.22 L96.94,29.22 L96.94,28.09 C96.9289766,17.6508648 88.4691352,9.19102338 78.03,9.18 L68.03,9.18 L68.03,0 L78.03,0 C93.5368245,0.0165347479 106.103465,12.5831755 106.12,28.09 L106.12,28.09 Z" id="Path" fill="#E5232A"></path>
            <path d="M118.98,42.14 C122.839615,40.4851975 127.01212,39.6868605 131.21,39.8 C138.492345,39.8165487 144.385536,45.7276379 144.380004,53.01 L144.380004,56.67 C144.385536,63.9523621 138.492345,69.8634513 131.21,69.88 L130.12,69.88 C128.322284,69.8705087 126.544428,69.5033796 124.89,68.8 L124.89,80.8 C124.89,81.7 118.98,81.7 118.98,80.8 L118.98,42.14 Z M138.470007,53.01 C138.475546,48.9916295 135.22834,45.7265327 131.21,45.71 L130.12,45.71 C128.31855,45.8063803 126.548162,46.2193579 124.89,46.93 L124.89,61.76 C126.268864,63.1646357 128.151708,63.9602546 130.12,63.97 L131.21,63.97 C135.22834,63.9534673 138.475546,60.6883705 138.470007,56.67 L138.470007,53.01 Z" id="Shape" fill="#717071"></path>
            <path d="M177.07,42.19 C181.699035,40.0823705 186.835442,39.3466148 191.87,40.07 C193.36,40.43 191.64,46.02 190.61,45.84 C190.162301,45.7503007 189.706585,45.7067396 189.25,45.71 L188.25,45.71 C186.447864,45.8015385 184.676634,46.2147125 183.02,46.93 L183.02,69.21 C183.02,70.11 177.11,70.11 177.11,69.21 L177.07,42.19 Z" id="Path" fill="#717071"></path>
            <path d="M207.47,69.8800502 C200.1818,69.8580661 194.277449,63.9581816 194.249996,56.67 L194.249996,53.06 C194.244365,45.7694555 200.129586,39.8440162 207.42,39.8 L208.55,39.8 C213.248081,39.8258693 217.584522,42.326639 219.96,46.38 C220.78,47.78 215.68,50.76 214.87,49.32 C213.553656,47.1044694 211.176947,45.736061 208.6,45.71 L207.47,45.71 C205.525961,45.7152971 203.66365,46.4926475 202.292757,47.8710415 C200.921865,49.2494354 200.154688,51.1159609 200.16,53.06 L200.16,56.67 C200.186946,60.6749133 203.415295,63.9210498 207.42,63.97 L208.6,63.97 C211.168462,63.9603822 213.545591,62.6106887 214.87,60.41 C215.68,58.97 220.78,61.94 219.96,63.34 C217.596701,67.4003837 213.248056,69.8929463 208.55,69.8800502 L207.47,69.8800502 Z" id="Path" fill="#717071"></path>
            <path d="M236.87,69.88 C229.608706,69.8092773 223.744213,63.9314358 223.689996,56.67 L223.689996,53.01 C223.687344,49.5056767 225.078255,46.1441182 227.556187,43.6661867 C230.034118,41.1882552 233.395677,39.7973442 236.9,39.7999962 L237.13,39.7999962 C240.634323,39.7973442 243.995882,41.1882552 246.473813,43.6661867 C248.951745,46.1441182 250.342656,49.5056767 250.340004,53.01 L250.340004,54.46 C250.340004,55.95 250.03,57.57 249.13,57.57 L229.61,57.57 C230.126145,61.1987871 233.205132,63.9130457 236.87,63.97 L238,63.97 C240.569152,63.9249473 242.935877,62.5660621 244.27,60.37 C245.08,58.97 250.18,61.9 249.37,63.37 C246.982703,67.411045 242.64351,69.8960116 237.95,69.91 L236.87,69.88 Z M236.87,45.71 C233.153302,45.7164956 230.031424,48.5072654 229.61,52.2 L244.36,52.2 C243.938576,48.5072654 240.816698,45.7164956 237.1,45.71 L236.87,45.71 Z" id="Shape" fill="#717071"></path>
            <path d="M254.82,28.02 C254.82,27.3 260.72,27.3 260.72,28.02 L260.72,59.19 C260.72,62.19 261.04,62.89 261.36,63.3 C261.81,63.89 263.48,63.93 263.84,63.93 C265.42,63.93 265.55,69.93 263.75,69.93 C261.54,69.93 258.38,70.16 256.58,68.63 C255.330209,67.2007445 254.697392,65.3346549 254.82,63.44 L254.82,28.02 Z" id="Path" fill="#717071"></path>
            <path d="M268.21,28.02 C268.21,27.3 274.12,27.3 274.12,28.02 L274.12,59.19 C274.12,62.19 274.43,62.89 274.75,63.3 C275.2,63.89 276.87,63.93 277.23,63.93 C278.81,63.93 278.94,69.93 277.14,69.93 C274.93,69.93 271.77,70.16 269.97,68.63 C268.720209,67.2007445 268.087392,65.3346549 268.21,63.44 L268.21,28.02 Z" id="Path" fill="#717071"></path>
            <path d="M293.92,69.88 C286.641423,69.8310662 280.749945,63.9484944 280.69,56.67 L280.69,53.01 C280.69,49.5047569 282.083135,46.1432253 284.562654,43.6655821 C287.042173,41.1879389 290.404758,39.7973465 293.91,39.7999962 L294.13,39.7999962 C297.635242,39.7973465 300.997827,41.1879389 303.477346,43.6655821 C305.956865,46.1432253 307.35,49.5047569 307.35,53.01 L307.35,54.46 C307.35,55.95 307.03,57.57 306.13,57.57 L286.69,57.57 C287.202193,61.2009179 290.283514,63.9172336 293.95,63.97 L295.07,63.97 C297.640715,63.930622 300.00999,62.5702731 301.34,60.37 C302.16,58.97 307.25,61.9 306.44,63.37 C304.054525,67.4079874 299.719939,69.8924916 295.03,69.91 L293.92,69.88 Z M293.92,45.71 C290.213033,45.7271767 287.105794,48.5163856 286.69,52.2 L301.43,52.2 C301.012885,48.5050375 297.888431,45.7119649 294.17,45.71 L293.92,45.71 Z" id="Shape" fill="#717071"></path>
            <path d="M319.69,57.12 L319.6,57.12 C317.985243,57.0194245 316.419666,56.5250318 315.04,55.68 C312.748955,54.1986885 311.387132,51.6377053 311.44,48.91 C311.377426,45.8755002 312.96638,43.0460146 315.59,41.52 C317.653788,40.3696936 319.987971,39.7930536 322.35,39.85 C325.479721,39.8522965 328.577292,40.4813312 331.46,41.7 C332.95,42.37 330.56,47.83 329.07,47.15 C326.939202,46.2621588 324.658169,45.790338 322.35,45.76 C321.053426,45.7413967 319.771168,46.0328188 318.61,46.61 C317.786694,47.0703109 317.309359,47.9702039 317.39,48.91 C317.307009,49.6145038 317.643212,50.3025474 318.25,50.67 C318.738048,50.9496267 319.27381,51.1361259 319.83,51.22 L320.01,51.22 C322.354474,51.1865033 324.691624,51.4895919 326.95,52.12 C330.16,53.2 332.73,55.82 332.73,60.64 C332.773749,64.6945386 330.059496,68.2613716 326.14,69.3 C322.35,70.43 317.25,69.98 311.14,68.3 C309.56,67.84 311.19,62.12 312.76,62.57 C318.49,64.19 322.28,64.24 324.4,63.57 C326.16,63.03 326.79,62.09 326.79,60.57 C326.85968,59.8655684 326.68298,59.1587666 326.29,58.57 C325.978402,58.1500667 325.534604,57.8471567 325.03,57.71 C324.209938,57.4642682 323.364427,57.313284 322.51,57.26 C321.97,57.26 321.51,57.26 321.02,57.17 L319.69,57.12 Z" id="Path" fill="#717071"></path>
            <path d="M20.48,43.11 C24.48,41.53 24.4,40.76 29.9,40.76 C32.42,40.76 33.16,41.44 34.83,42.7 C38.26,41.39 38.2,40.76 43.21,40.76 C50.47,40.76 52.93,46.67 52.93,53.97 L52.93,70.16 C52.93,71.07 47.02,71.07 47.02,70.16 L47.02,53.97 C47.02,49.97 47.22,46.67 43.21,46.67 L42.13,46.67 C40.69,46.67 39.69,47.58 39.69,48.29 L39.69,70.16 C39.69,71.07 33.78,71.07 33.78,70.16 L33.78,53.97 C33.78,49.97 33.99,46.67 29.93,46.67 L28.93,46.67 C27.03,46.67 26.46,47.9 26.46,48.29 L26.46,70.16 C26.46,71.07 20.55,71.07 20.55,70.16 L20.48,43.11 Z" id="Path" fill="#717071"></path>
            <path d="M70.69,70.8400357 C63.3997139,70.8074085 57.4901328,64.9201109 57.43,57.63 L57.43,53.97 C57.43,50.4578099 58.8286002,47.0901951 61.3167803,44.6113972 C63.8049605,42.1325993 67.177835,40.7467063 70.69,40.7599052 L70.91,40.7599052 C78.1923454,40.7765487 84.0855357,46.6876379 84.0800039,53.97 L84.0800039,55.42 C84.0800039,56.91 83.77,58.53 82.87,58.53 L63.39,58.53 C63.9045215,62.1757473 67.008274,64.8968454 70.69,64.93 L71.81,64.93 C74.3821838,64.8865889 76.7510432,63.5227002 78.08,61.32 C78.89,59.93 83.99,62.86 83.18,64.32 C80.7720596,68.3718674 76.403352,70.8508903 71.69,70.8400357 L70.69,70.8400357 Z M70.69,46.67 C66.971569,46.6719649 63.8471149,49.4650375 63.43,53.16 L78.13,53.16 C77.7085761,49.4672654 74.5866981,46.6764956 70.87,46.67 L70.69,46.67 Z" id="Shape" fill="#717071"></path>
            <path d="M96.44,58.08 L96.35,58.08 C94.7329979,57.9620816 93.1701043,57.4468419 91.8,56.58 C89.5081976,55.1029568 88.1427918,52.5461302 88.19,49.82 C88.1280605,46.7830279 89.716364,43.9508723 92.34,42.42 C94.4037875,41.2696936 96.737971,40.6930536 99.1,40.75 C102.227381,40.7557921 105.322985,41.3776314 108.21,42.58 C109.7,43.26 107.31,48.71 105.82,48.04 C103.691518,47.1434576 101.409424,46.6680213 99.1,46.64 C97.8020225,46.6189788 96.5184266,46.9141372 95.36,47.5 C94.5328732,47.956564 94.0541142,48.8591424 94.14,49.8 C94.0585268,50.5015347 94.3948414,51.1858958 95,51.55 C95.4864313,51.831272 96.0231684,52.0147138 96.58,52.09 L96.76,52.09 C99.1051922,52.0557016 101.442931,52.3622351 103.7,53 C106.9,54.08 109.47,56.69 109.47,61.52 C109.514929,65.5716685 106.805523,69.1375434 102.89,70.18 C99.1,71.31 94.01,70.85 87.89,69.18 C86.31,68.73 87.89,63 89.52,63.45 C95.24,65.08 99.03,65.12 101.15,64.45 C102.601071,64.2159103 103.63612,62.9166853 103.54,61.45 C103.614819,60.7452009 103.437687,60.0366726 103.04,59.45 C102.731206,59.027161 102.286288,58.7234867 101.78,58.59 C100.959938,58.3442682 100.114427,58.193284 99.26,58.14 C98.72,58.09 98.26,58.09 97.77,58.05 L96.44,58.08 Z" id="Path" fill="#717071"></path>
            <path d="M164.69,40.42 C161.93738,39.7840971 159.095598,39.6284757 156.29,39.96 C153.612141,40.30593 151.114425,41.4969865 149.16,43.36 C149.032922,43.5062856 148.968294,43.6965803 148.98,43.89 C149.117872,44.75321 149.592605,45.5264504 150.3,46.04 C151.93,47.56 152.88,47.52 153.17,47.26 C154.37448,46.1478604 155.901354,45.4474595 157.53,45.26 C158.716817,45.1654959 159.910359,45.1990223 161.09,45.36 C163.77,45.76 165.35,47.42 165.44,49.91 L165.44,50.18 C165.44,51.23 165.5,51.71 165.16,52.04 C164.757395,52.3085715 164.264401,52.405731 163.79,52.31 C163.74,52.31 159.21,52.31 157.63,52.31 L157.41,52.31 C156.38463,52.3133842 155.361242,52.4003387 154.35,52.57 C151.033372,53.0609274 148.374708,55.5678957 147.69,58.85 C147.470405,60.0308407 147.436665,61.2387422 147.59,62.43 C147.7943,65.6910033 150.042061,68.4645797 153.19,69.34 C155.555545,69.9667167 158.03484,70.031781 160.43,69.53 C162.320684,69.0530913 164.047908,68.0754824 165.43,66.7 L165.43,69.17 C165.43,69.17 165.43,69.27 165.48,69.28 C165.74,69.72 167.23,69.88 168.56,69.88 C168.84,69.88 169.12,69.88 169.37,69.88 C170.05,69.88 171.64,69.7 171.64,69.16 L171.64,49.28 C171.55,44.58 169.21,41.58 164.69,40.42 Z M165.44,57.74 L165.44,59.93 C165.44,63.59 161.65,64.93 158.44,64.93 C153.58,64.93 153.21,61.93 153.21,61.03 C153.21,56.85 157.92,56.85 159.47,56.85 L164.4,56.85 C164.919641,56.8364687 165.362996,57.2233179 165.42,57.74 L165.44,57.74 Z" id="Shape" fill="#E5232A"></path>
        </g>
    </g>
</svg>
