<svg width="125" height="69" viewBox="0 0 125 69" fill="none" xmlns="http://www.w3.org/2000/svg">
<path d="M124.669 62.6043L114.553 57.0366L114.789 68.5812L124.669 62.6043ZM50.8648 59.2283L51.173 58.277L50.8648 59.2283ZM13.9339 36.897L13.2186 37.5958L13.9339 36.897ZM122.584 61.6468C122.032 61.6596 121.595 62.1176 121.608 62.6698C121.621 63.2219 122.079 63.6591 122.631 63.6462L122.584 61.6468ZM118.518 63.7613C119.07 63.7436 119.503 63.2817 119.485 62.7297C119.467 62.1777 119.005 61.7446 118.453 61.7623L118.518 63.7613ZM114.326 61.907C113.774 61.9277 113.343 62.3919 113.364 62.9438C113.385 63.4957 113.849 63.9263 114.401 63.9056L114.326 61.907ZM110.281 64.066C110.833 64.044 111.262 63.5788 111.24 63.027C111.218 62.4751 110.753 62.0456 110.201 62.0676L110.281 64.066ZM106.08 62.2315C105.528 62.2531 105.098 62.718 105.12 63.2699C105.142 63.8218 105.606 64.2516 106.158 64.2299L106.08 62.2315ZM102.033 64.3856C102.585 64.3658 103.017 63.9024 102.997 63.3505C102.977 62.7985 102.514 62.3671 101.962 62.3869L102.033 64.3856ZM97.8453 62.5222C97.2933 62.5385 96.859 62.9992 96.8753 63.5513C96.8916 64.1033 97.3523 64.5376 97.9043 64.5213L97.8453 62.5222ZM93.7719 64.6255C94.324 64.6143 94.7625 64.1575 94.7512 63.6053C94.74 63.0531 94.2832 62.6147 93.731 62.626L93.7719 64.6255ZM89.6186 62.6862C89.0663 62.6909 88.6223 63.1423 88.627 63.6946C88.6316 64.2469 89.0831 64.6908 89.6353 64.6862L89.6186 62.6862ZM85.495 64.6907C86.0473 64.6944 86.498 64.2497 86.5017 63.6975C86.5055 63.1452 86.0608 62.6945 85.5085 62.6908L85.495 64.6907ZM81.4029 62.6264C80.8508 62.6125 80.3919 63.0487 80.378 63.6008C80.3641 64.153 80.8004 64.6118 81.3525 64.6257L81.4029 62.6264ZM77.2096 64.4768C77.7612 64.5029 78.2296 64.0769 78.2557 63.5252C78.2818 62.9735 77.8558 62.5051 77.3041 62.479L77.2096 64.4768ZM73.2119 62.2331C72.6611 62.1926 72.1817 62.6063 72.1412 63.1571C72.1007 63.7079 72.5144 64.1872 73.0651 64.2278L73.2119 62.2331ZM68.9255 63.8611C69.4747 63.9185 69.9665 63.5197 70.0239 62.9704C70.0812 62.4211 69.6824 61.9293 69.1331 61.8719L68.9255 63.8611ZM65.0743 61.3768C64.5274 61.2999 64.0217 61.6809 63.9448 62.2278C63.8679 62.7747 64.249 63.2804 64.7959 63.3573L65.0743 61.3768ZM60.6838 62.6945C61.227 62.7939 61.748 62.434 61.8474 61.8908C61.9468 61.3475 61.5869 60.8265 61.0436 60.7272L60.6838 62.6945ZM57.0523 59.9008C56.5144 59.7757 55.9769 60.1103 55.8518 60.6482C55.7267 61.1862 56.0613 61.7237 56.5993 61.8488L57.0523 59.9008ZM52.5565 60.794C53.0868 60.9483 53.6418 60.6434 53.7961 60.1132C53.9504 59.5829 53.6455 59.0279 53.1153 58.8736L52.5565 60.794ZM49.1263 57.5897C48.6046 57.4082 48.0347 57.684 47.8532 58.2056C47.6718 58.7273 47.9476 59.2972 48.4692 59.4787L49.1263 57.5897ZM44.3454 57.9431C44.8586 58.1471 45.4401 57.8964 45.6441 57.3832C45.8481 56.87 45.5974 56.2886 45.0841 56.0846L44.3454 57.9431ZM41.1131 54.4032C40.6095 54.1765 40.0174 54.401 39.7908 54.9047C39.5641 55.4083 39.7887 56.0003 40.2923 56.227L41.1131 54.4032ZM36.3194 54.3295C36.8122 54.5788 37.4138 54.3815 37.6632 53.8887C37.9125 53.3959 37.7152 52.7943 37.2224 52.5449L36.3194 54.3295ZM33.422 50.5099C32.9413 50.2379 32.3311 50.407 32.0591 50.8877C31.7871 51.3683 31.9562 51.9785 32.4369 52.2505L33.422 50.5099ZM28.6556 49.9904C29.1227 50.285 29.7402 50.1451 30.0348 49.678C30.3295 49.2108 30.1896 48.5933 29.7224 48.2987L28.6556 49.9904ZM26.1354 45.9125C25.6832 45.5954 25.0596 45.7049 24.7425 46.1571C24.4254 46.6093 24.5349 47.2329 24.9871 47.55L26.1354 45.9125ZM21.444 44.9305C21.8797 45.2699 22.508 45.192 22.8475 44.7564C23.1869 44.3207 23.109 43.6924 22.6734 43.3529L21.444 44.9305ZM19.3463 40.6187C18.929 40.2569 18.2974 40.302 17.9357 40.7193C17.574 41.1366 17.619 41.7682 18.0363 42.1299L19.3463 40.6187ZM14.7828 39.1518C15.1798 39.5358 15.8128 39.5252 16.1968 39.1282C16.5807 38.7312 16.5702 38.0981 16.1732 37.7142L14.7828 39.1518ZM13.2925 34.76C12.9208 34.3515 12.2884 34.3216 11.8799 34.6933C11.4714 35.065 11.4415 35.6974 11.8132 36.106L13.2925 34.76ZM9.17984 32.9739C9.51755 33.4109 10.1456 33.4914 10.5826 33.1537C11.0196 32.816 11.1001 32.1879 10.7624 31.7509L9.17984 32.9739ZM8.50766 28.5424C8.21187 28.076 7.59399 27.9377 7.1276 28.2335C6.6612 28.5293 6.52291 29.1472 6.81871 29.6136L8.50766 28.5424ZM4.79197 26.029C5.03854 26.5232 5.63905 26.7239 6.13324 26.4773C6.62742 26.2308 6.82814 25.6302 6.58157 25.1361L4.79197 26.029ZM5.02412 21.5513C4.83112 21.0338 4.25516 20.7708 3.73771 20.9638C3.22024 21.1568 2.95722 21.7328 3.15023 22.2502L5.02412 21.5513ZM1.91114 18.3274C2.05124 18.8616 2.59789 19.1811 3.1321 19.041C3.66632 18.9009 3.98582 18.3542 3.84571 17.82L1.91114 18.3274ZM3.02096 13.98C2.92777 13.4356 2.41093 13.0699 1.86657 13.1631C1.3222 13.2563 0.956445 13.7731 1.04963 14.3175L3.02096 13.98ZM0.504764 10.2707C0.560702 10.8201 1.05146 11.2202 1.60091 11.1643C2.15035 11.1083 2.55041 10.6176 2.49448 10.0681L0.504764 10.2707ZM2.19356 6.1116C2.16388 5.56011 1.69275 5.1371 1.14126 5.16679C0.589779 5.19647 0.166765 5.66759 0.196444 6.21908L2.19356 6.1116ZM0.0427047 2.17841C0.056668 2.73051 0.515565 3.16676 1.06767 3.1528C1.61978 3.13883 2.05603 2.67994 2.04206 2.12783L0.0427047 2.17841ZM118.453 61.7623C117.085 61.8062 115.708 61.8552 114.326 61.907L114.401 63.9056C115.781 63.8539 117.154 63.805 118.518 63.7613L118.453 61.7623ZM110.201 62.0676C108.831 62.1222 107.457 62.1775 106.08 62.2315L106.158 64.2299C107.537 64.1759 108.912 64.1205 110.281 64.066L110.201 62.0676ZM101.962 62.3869C100.59 62.4359 99.2178 62.4817 97.8453 62.5222L97.9043 64.5213C99.2818 64.4807 100.659 64.4348 102.033 64.3856L101.962 62.3869ZM93.731 62.626C92.3578 62.654 90.9865 62.6748 89.6186 62.6862L89.6353 64.6862C91.0123 64.6746 92.3917 64.6537 93.7719 64.6255L93.731 62.626ZM85.5085 62.6908C84.1343 62.6815 82.7653 62.6607 81.4029 62.6264L81.3525 64.6257C82.7283 64.6604 84.1097 64.6814 85.495 64.6907L85.5085 62.6908ZM77.3041 62.479C75.9308 62.414 74.5661 62.3328 73.2119 62.2331L73.0651 64.2278C74.4381 64.3288 75.8201 64.411 77.2096 64.4768L77.3041 62.479ZM69.1331 61.8719C67.7667 61.7293 66.4132 61.565 65.0743 61.3768L64.7959 63.3573C66.1599 63.549 67.537 63.7161 68.9255 63.8611L69.1331 61.8719ZM61.0436 60.7272C59.6949 60.4804 58.3638 60.2058 57.0523 59.9008L56.5993 61.8488C57.9435 62.1614 59.3057 62.4424 60.6838 62.6945L61.0436 60.7272ZM53.1153 58.8736C52.462 58.6835 51.8145 58.4848 51.173 58.277L50.5566 60.1796C51.2178 60.3938 51.8845 60.5984 52.5565 60.794L53.1153 58.8736ZM51.173 58.277C50.4839 58.0537 49.8017 57.8246 49.1263 57.5897L48.4692 59.4787C49.1581 59.7183 49.8539 59.952 50.5566 60.1796L51.173 58.277ZM45.0841 56.0846C43.7304 55.5465 42.4067 54.9854 41.1131 54.4032L40.2923 56.227C41.613 56.8213 42.964 57.3941 44.3454 57.9431L45.0841 56.0846ZM37.2224 52.5449C35.9219 51.8869 34.6551 51.2078 33.422 50.5099L32.4369 52.2505C33.697 52.9636 34.9912 53.6574 36.3194 54.3295L37.2224 52.5449ZM29.7224 48.2987C28.4887 47.5206 27.2929 46.7242 26.1354 45.9125L24.9871 47.55C26.1713 48.3804 27.3941 49.1948 28.6556 49.9904L29.7224 48.2987ZM22.6734 43.3529C21.5204 42.4545 20.4114 41.5419 19.3463 40.6187L18.0363 42.1299C19.1277 43.076 20.2637 44.0107 21.444 44.9305L22.6734 43.3529ZM16.1732 37.7142C15.6525 37.2107 15.1445 36.7051 14.6492 36.1981L13.2186 37.5958C13.7272 38.1164 14.2486 38.6352 14.7828 39.1518L16.1732 37.7142ZM14.6492 36.1981C14.1793 35.7172 13.7273 35.2379 13.2925 34.76L11.8132 36.106C12.2643 36.6018 12.7325 37.0983 13.2186 37.5958L14.6492 36.1981ZM10.7624 31.7509C9.93284 30.6775 9.184 29.6088 8.50766 28.5424L6.81871 29.6136C7.52909 30.7336 8.31358 31.8529 9.17984 32.9739L10.7624 31.7509ZM6.58157 25.1361C5.98715 23.9448 5.47164 22.7511 5.02412 21.5513L3.15023 22.2502C3.62185 23.5147 4.16534 24.7731 4.79197 26.029L6.58157 25.1361ZM3.84571 17.82C3.51374 16.5542 3.24276 15.2757 3.02096 13.98L1.04963 14.3175C1.28024 15.6646 1.56306 17.0002 1.91114 18.3274L3.84571 17.82ZM2.49448 10.0681C2.36241 8.77086 2.26578 7.45357 2.19356 6.1116L0.196444 6.21908C0.270022 7.58616 0.368866 8.93581 0.504764 10.2707L2.49448 10.0681ZM2.04206 2.12783C2.02534 1.46698 2.0117 0.800061 1.99991 0.126435L0.000219691 0.161422C0.0120724 0.838869 0.0258261 1.51114 0.0427047 2.17841L2.04206 2.12783Z" fill="black"/>
</svg>
