<svg width="206" height="99" viewBox="0 0 206 99" fill="none" xmlns="http://www.w3.org/2000/svg">
<path d="M1.94507 58.8553C1.39278 58.8553 0.945068 59.303 0.945068 59.8553C0.945068 60.4076 1.39278 60.8553 1.94507 60.8553V58.8553ZM64.386 59.8553L64.3961 60.8552L64.386 59.8553ZM98.9278 44.8263L98.1559 44.1906L98.9278 44.8263ZM97.5993 3.22666L97.941 2.28687L97.5993 3.22666ZM77.007 6.04979L77.7988 6.66059L77.007 6.04979ZM81.2417 44.9093L80.4491 45.519L81.2417 44.9093ZM205.21 92.7364L195.311 86.792L195.113 98.3373L205.21 92.7364ZM1.94507 60.8553C22.7414 60.8553 43.5808 61.0655 64.3961 60.8552L64.3759 58.8553C43.5723 59.0655 22.77 58.8553 1.94507 58.8553V60.8553ZM64.3961 60.8552C77.5859 60.722 91.0088 56.0152 99.6997 45.462L98.1559 44.1906C89.9366 54.1711 77.1453 58.7263 64.3759 58.8553L64.3961 60.8552ZM99.6997 45.462C101.462 43.3221 103.073 39.8834 104.305 35.9317C105.543 31.9589 106.425 27.3776 106.678 22.8902C106.931 18.4127 106.561 13.9643 105.243 10.2919C103.919 6.60571 101.604 3.61889 97.941 2.28687L97.2575 4.16646C100.196 5.23514 102.17 7.6509 103.36 10.9676C104.556 14.2981 104.926 18.4529 104.682 22.7775C104.438 27.092 103.588 31.5115 102.395 35.3367C101.197 39.183 99.6802 42.3396 98.1559 44.1906L99.6997 45.462ZM97.941 2.28687C94.5002 1.03567 90.4122 0.142026 86.5245 0.385082C82.6207 0.629148 78.8453 2.02969 76.2153 5.43899L77.7988 6.66059C79.9797 3.83358 83.14 2.60059 86.6493 2.38119C90.1748 2.16077 93.9775 2.97373 97.2575 4.16646L97.941 2.28687ZM76.2153 5.43899C66.509 18.0212 71.9071 34.4144 80.4491 45.519L82.0343 44.2996C73.6631 33.417 68.9548 18.1251 77.7988 6.66059L76.2153 5.43899ZM80.4491 45.519C107.231 80.3358 154.413 92.1388 196.173 93.5811L196.242 91.5823C154.671 90.1465 108.261 78.3948 82.0343 44.2996L80.4491 45.519Z" fill="black"/>
</svg>
