<svg width="116" height="81" viewBox="0 0 116 81" fill="none" xmlns="http://www.w3.org/2000/svg">
<path d="M1 78.2136C0.447715 78.2136 0 78.6613 0 79.2136C0 79.7659 0.447715 80.2136 1 80.2136L1 78.2136ZM38.3649 78.7985L38.4921 79.7903L38.3649 78.7985ZM88.0187 49.5708L88.6851 50.3164L88.0187 49.5708ZM111.6 0L103.939 8.63946L115.252 10.9545L111.6 0ZM2.86113 80.2219C3.4134 80.2267 3.86495 79.7828 3.8697 79.2305C3.87446 78.6783 3.43061 78.2267 2.87835 78.222L2.86113 80.2219ZM6.63051 78.2793C6.07835 78.2678 5.6214 78.706 5.60989 79.2582C5.59838 79.8104 6.03667 80.2673 6.58883 80.2788L6.63051 78.2793ZM10.3222 80.3695C10.8743 80.3843 11.3338 79.9487 11.3485 79.3966C11.3633 78.8445 10.9277 78.385 10.3756 78.3702L10.3222 80.3695ZM14.1141 78.4715C13.562 78.4569 13.1026 78.8926 13.0881 79.4447C13.0735 79.9968 13.5092 80.4562 14.0613 80.4708L14.1141 78.4715ZM17.8068 80.5598C18.3589 80.571 18.8156 80.1323 18.8267 79.5802C18.8378 79.028 18.3992 78.5714 17.847 78.5603L17.8068 80.5598ZM21.5746 78.6142C21.0223 78.6099 20.5711 79.0541 20.5668 79.6064C20.5625 80.1586 21.0067 80.6098 21.559 80.6141L21.5746 78.6142ZM25.3177 80.6105C25.8699 80.6046 26.3128 80.1521 26.3069 79.5999C26.301 79.0476 25.8485 78.6047 25.2962 78.6106L25.3177 80.6105ZM29.0104 78.5266C28.4585 78.5463 28.027 79.0096 28.0467 79.5616C28.0663 80.1135 28.5297 80.545 29.0816 80.5253L29.0104 78.5266ZM32.8484 80.3338C33.3995 80.2967 33.8162 79.82 33.7791 79.269C33.7421 78.7179 33.2653 78.3012 32.7143 78.3383L32.8484 80.3338ZM36.4023 78.0212C35.8531 78.0794 35.4551 78.5718 35.5133 79.121C35.5715 79.6702 36.0639 80.0683 36.6131 80.0101L36.4023 78.0212ZM40.6021 79.474C41.1465 79.3806 41.512 78.8636 41.4186 78.3193C41.3252 77.775 40.8082 77.4094 40.2638 77.5028L40.6021 79.474ZM44.2715 76.6434C43.7366 76.781 43.4145 77.3261 43.5521 77.861C43.6896 78.3959 44.2347 78.7179 44.7696 78.5804L44.2715 76.6434ZM48.8478 77.362C49.3707 77.1842 49.6504 76.6161 49.4725 76.0932C49.2946 75.5704 48.7266 75.2907 48.2037 75.4686L48.8478 77.362ZM52.0466 74.0078C51.5373 74.2216 51.2978 74.8077 51.5115 75.3169C51.7253 75.8262 52.3114 76.0657 52.8206 75.852L52.0466 74.0078ZM56.6787 74.0864C57.1736 73.8414 57.3762 73.2415 57.1311 72.7466C56.8861 72.2516 56.2862 72.049 55.7913 72.2941L56.6787 74.0864ZM59.4359 70.3602C58.9552 70.6321 58.7859 71.2422 59.0578 71.7229C59.3296 72.2037 59.9398 72.373 60.4205 72.1011L59.4359 70.3602ZM64.0496 69.9294C64.5167 69.6348 64.6566 69.0172 64.362 68.5501C64.0674 68.0829 63.4499 67.9431 62.9828 68.2377L64.0496 69.9294ZM66.4371 65.9558C65.9825 66.2694 65.8682 66.8921 66.1817 67.3467C66.4953 67.8014 67.1181 67.9157 67.5727 67.6021L66.4371 65.9558ZM70.9998 65.1464C71.4433 64.8172 71.5358 64.1908 71.2066 63.7474C70.8774 63.304 70.251 63.2114 69.8076 63.5406L70.9998 65.1464ZM73.1043 61.0156C72.6706 61.3576 72.5962 61.9863 72.9381 62.4201C73.28 62.8538 73.9088 62.9282 74.3425 62.5863L73.1043 61.0156ZM77.6127 59.9436C78.0384 59.5916 78.0982 58.9613 77.7463 58.5357C77.3943 58.11 76.764 58.0502 76.3384 58.4022L77.6127 59.9436ZM79.5226 55.7189C79.1033 56.0784 79.0548 56.7097 79.4142 57.129C79.7736 57.5483 80.4049 57.5968 80.8242 57.2374L79.5226 55.7189ZM83.9905 54.4863C84.4053 54.1217 84.4459 53.4899 84.0813 53.0751C83.7167 52.6603 83.0848 52.6196 82.67 52.9842L83.9905 54.4863ZM85.7943 50.216C85.382 50.5835 85.3457 51.2156 85.7132 51.6279C86.0807 52.0402 86.7128 52.0765 87.1251 51.709L85.7943 50.216ZM90.1752 48.9318C90.5725 48.5481 90.5835 47.9151 90.1998 47.5178C89.8161 47.1206 89.183 47.1096 88.7858 47.4932L90.1752 48.9318ZM91.4969 44.6694C91.1294 45.0817 91.1657 45.7138 91.578 46.0813C91.9903 46.4487 92.6225 46.4124 92.9899 46.0001L91.4969 44.6694ZM95.5814 42.8753C95.9189 42.4382 95.8382 41.8102 95.4011 41.4726C94.964 41.1351 94.336 41.2158 93.9984 41.6529L95.5814 42.8753ZM96.2927 38.4693C95.9844 38.9275 96.106 39.5489 96.5642 39.8572C97.0224 40.1655 97.6438 40.044 97.9521 39.5858L96.2927 38.4693ZM100.109 36.1589C100.39 35.6831 100.231 35.0701 99.7553 34.7898C99.2794 34.5094 98.6664 34.668 98.3861 35.1438L100.109 36.1589ZM100.289 31.6991C100.035 32.1896 100.226 32.793 100.717 33.047C101.207 33.301 101.811 33.1093 102.065 32.6189L100.289 31.6991ZM103.832 28.9867C104.061 28.4844 103.84 27.8911 103.338 27.6616C102.836 27.432 102.242 27.6531 102.013 28.1555L103.832 28.9867ZM103.572 24.5307C103.364 25.0427 103.612 25.6257 104.124 25.8328C104.636 26.0399 105.218 25.7928 105.426 25.2808L103.572 24.5307ZM106.861 21.5157C107.048 20.996 106.778 20.4232 106.258 20.2365C105.738 20.0498 105.166 20.3198 104.979 20.8395L106.861 21.5157ZM106.249 17.0941C106.081 17.6201 106.371 18.183 106.897 18.3513C107.423 18.5196 107.986 18.2296 108.154 17.7036L106.249 17.0941ZM109.318 13.8546C109.47 13.3236 109.163 12.7701 108.632 12.6183C108.101 12.4665 107.547 12.7739 107.395 13.3049L109.318 13.8546ZM108.431 9.47964C108.294 10.0146 108.616 10.5595 109.151 10.6967C109.686 10.8338 110.231 10.5114 110.368 9.97638L108.431 9.47964ZM111.318 6.07579C111.442 5.53768 111.107 5.00067 110.568 4.87636C110.03 4.75204 109.493 5.08749 109.369 5.62561L111.318 6.07579ZM110.222 1.74896C110.108 2.28952 110.455 2.8195 110.995 2.93271C111.536 3.04592 112.066 2.69949 112.179 2.15893L110.222 1.74896ZM1 80.2136C1.61878 80.2136 2.23919 80.2165 2.86113 80.2219L2.87835 78.222C2.25124 78.2166 1.62506 78.2136 1 78.2136L1 80.2136ZM6.58883 80.2788C7.82917 80.3047 9.07375 80.3362 10.3222 80.3695L10.3756 78.3702C9.12558 78.3369 7.87655 78.3052 6.63051 78.2793L6.58883 80.2788ZM14.0613 80.4708C15.3078 80.5037 16.5569 80.5347 17.8068 80.5598L17.847 78.5603C16.6031 78.5352 15.3587 78.5044 14.1141 78.4715L14.0613 80.4708ZM21.559 80.6141C22.8122 80.6239 24.0656 80.624 25.3177 80.6105L25.2962 78.6106C24.0585 78.6239 22.8176 78.6238 21.5746 78.6142L21.559 80.6141ZM29.0816 80.5253C30.3399 80.4805 31.596 80.418 32.8484 80.3338L32.7143 78.3383C31.4849 78.421 30.25 78.4825 29.0104 78.5266L29.0816 80.5253ZM36.6131 80.0101C37.2407 79.9435 37.867 79.8705 38.4921 79.7903L38.2378 77.8066C37.6278 77.8848 37.0159 77.9562 36.4023 78.0212L36.6131 80.0101ZM38.4921 79.7903C39.2002 79.6996 39.9035 79.5939 40.6021 79.474L40.2638 77.5028C39.5927 77.618 38.9174 77.7195 38.2378 77.8066L38.4921 79.7903ZM44.7696 78.5804C46.1477 78.226 47.5069 77.8182 48.8478 77.362L48.2037 75.4686C46.9088 75.9091 45.5983 76.3022 44.2715 76.6434L44.7696 78.5804ZM52.8206 75.852C54.124 75.3049 55.4098 74.7147 56.6787 74.0864L55.7913 72.2941C54.5575 72.9049 53.3095 73.4777 52.0466 74.0078L52.8206 75.852ZM60.4205 72.1011C61.6458 71.4081 62.8553 70.6825 64.0496 69.9294L62.9828 68.2377C61.8136 68.975 60.6315 69.684 59.4359 70.3602L60.4205 72.1011ZM67.5727 67.6021C68.729 66.8046 69.8712 65.9844 70.9998 65.1464L69.8076 63.5406C68.696 64.366 67.5727 65.1725 66.4371 65.9558L67.5727 67.6021ZM74.3425 62.5863C75.4451 61.7171 76.535 60.8346 77.6127 59.9436L76.3384 58.4022C75.2711 59.2845 74.1933 60.1572 73.1043 61.0156L74.3425 62.5863ZM80.8242 57.2374C81.8911 56.3228 82.9464 55.4041 83.9905 54.4863L82.67 52.9842C81.6307 53.8978 80.5818 54.8109 79.5226 55.7189L80.8242 57.2374ZM87.1251 51.709C87.6478 51.2432 88.1678 50.7787 88.6851 50.3164L87.3524 48.8251C86.8353 49.2872 86.316 49.751 85.7943 50.216L87.1251 51.709ZM88.6851 50.3164C89.192 49.8634 89.6887 49.4017 90.1752 48.9318L88.7858 47.4932C88.3176 47.9455 87.8399 48.3895 87.3524 48.8251L88.6851 50.3164ZM92.9899 46.0001C93.8921 44.9878 94.7553 43.9451 95.5814 42.8753L93.9984 41.6529C93.2 42.6869 92.3668 43.6934 91.4969 44.6694L92.9899 46.0001ZM97.9521 39.5858C98.7053 38.4664 99.4236 37.323 100.109 36.1589L98.3861 35.1438C97.7198 36.2751 97.0226 37.3845 96.2927 38.4693L97.9521 39.5858ZM102.065 32.6189C102.683 31.4247 103.272 30.2129 103.832 28.9867L102.013 28.1555C101.465 29.3533 100.891 30.5355 100.289 31.6991L102.065 32.6189ZM105.426 25.2808C105.929 24.0362 106.407 22.7802 106.861 21.5157L104.979 20.8395C104.533 22.0806 104.065 23.312 103.572 24.5307L105.426 25.2808ZM108.154 17.7036C108.563 16.4253 108.95 15.1413 109.318 13.8546L107.395 13.3049C107.033 14.5728 106.651 15.8368 106.249 17.0941L108.154 17.7036ZM110.368 9.97638C110.702 8.6751 111.018 7.37389 111.318 6.07579L109.369 5.62561C109.072 6.90933 108.76 8.19497 108.431 9.47964L110.368 9.97638Z" fill="black"/>
</svg>
