<svg width="142" height="15" viewBox="0 0 142 15" fill="none" xmlns="http://www.w3.org/2000/svg">
<path d="M1 0C0.447715 0 0 0.447715 0 1C0 1.55228 0.447715 2 1 2V0ZM31.5801 8.12413L31.3472 9.09663L31.5801 8.12413ZM142 3.98219L130.454 3.85854L136.12 13.9198L142 3.98219ZM1 2C6.28157 2 11.1969 3.1223 16.1407 4.57921C21.0364 6.02196 26.0756 7.8342 31.3472 9.09663L31.813 7.15162C26.5943 5.90187 21.7663 4.15204 16.706 2.66078C11.6937 1.18367 6.56418 0 1 0V2ZM31.3472 9.09663C51.2692 13.8675 71.5567 13.9288 91.6859 13.9288V11.9288C71.524 11.9288 51.4697 11.8589 31.813 7.15162L31.3472 9.09663ZM91.6859 13.9288C105.108 13.9288 121.206 14.9546 134.548 9.31933L133.77 7.47693C120.902 12.9118 105.349 11.9288 91.6859 11.9288V13.9288Z" fill="black"/>
</svg>
