<svg width="131" height="122" viewBox="0 0 131 122" fill="none" xmlns="http://www.w3.org/2000/svg">
<path d="M1.89746 1.38231C1.34518 1.38231 0.897461 1.83003 0.897461 2.38231C0.897461 2.9346 1.34518 3.38231 1.89746 3.38231V1.38231ZM75.6309 11.0178L75.0946 11.8618L75.6309 11.0178ZM112.165 53.5307L113.056 53.0765L112.165 53.5307ZM124.454 121.95L130.168 111.916L118.622 111.985L124.454 121.95ZM1.89746 3.38231C8.00345 3.38231 14.34 3.06904 20.703 2.81466C27.0779 2.55981 33.4915 2.36334 39.8071 2.58969C52.4422 3.04253 64.5891 5.18642 75.0946 11.8618L76.1672 10.1737C65.2287 3.22322 52.6692 1.04938 39.8787 0.590972C33.4815 0.361695 27.0026 0.561218 20.6231 0.816259C14.2315 1.07178 7.95179 1.38231 1.89746 1.38231V3.38231ZM75.0946 11.8618C90.7735 21.8244 102.876 37.5107 111.275 53.9849L113.056 53.0765C104.553 36.3959 92.239 20.386 76.1672 10.1737L75.0946 11.8618ZM111.275 53.9849C121.259 73.5694 123.102 91.7882 123.401 112.963L125.401 112.935C125.1 91.6522 123.248 73.0679 113.056 53.0765L111.275 53.9849Z" fill="black"/>
</svg>
