<svg width="131" height="122" viewBox="0 0 131 122" fill="none" xmlns="http://www.w3.org/2000/svg">
<path d="M1.89746 1.38231C1.34518 1.38231 0.897461 1.83003 0.897461 2.38231C0.897461 2.9346 1.34518 3.38231 1.89746 3.38231V1.38231ZM75.6309 11.0178L75.0946 11.8618L75.6309 11.0178ZM112.165 53.5307L113.056 53.0765L112.165 53.5307ZM124.454 121.95L130.219 111.945L118.672 111.955L124.454 121.95ZM4.0025 3.37057C4.55475 3.36458 4.99758 2.91204 4.99159 2.35978C4.9856 1.80753 4.53306 1.3647 3.9808 1.37069L4.0025 3.37057ZM8.15266 1.2888C7.60058 1.30386 7.16525 1.76362 7.18031 2.3157C7.19537 2.86778 7.65513 3.30312 8.20721 3.28805L8.15266 1.2888ZM12.405 3.15039C12.9569 3.12981 13.3876 2.66572 13.3671 2.11382C13.3465 1.56192 12.8824 1.1312 12.3305 1.15178L12.405 3.15039ZM16.5138 0.985225C15.962 1.00806 15.5332 1.47391 15.556 2.02572C15.5789 2.57753 16.0447 3.00635 16.5965 2.98352L16.5138 0.985225ZM20.7824 2.81149C21.3342 2.78947 21.7638 2.32426 21.7417 1.77242C21.7197 1.22057 21.2545 0.791062 20.7027 0.81308L20.7824 2.81149ZM24.8965 0.658309C24.3446 0.676535 23.9119 1.13878 23.9301 1.69077C23.9483 2.24275 24.4106 2.67545 24.9625 2.65722L24.8965 0.658309ZM29.1391 2.54299C29.6913 2.53151 30.1296 2.07459 30.1181 1.52242C30.1066 0.970257 29.6497 0.531942 29.0975 0.543419L29.1391 2.54299ZM33.3052 0.491218C32.7529 0.492937 32.3066 0.942043 32.3083 1.49433C32.31 2.04661 32.7591 2.49293 33.3114 2.49121L33.3052 0.491218ZM37.4776 2.52479C38.0298 2.53594 38.4865 2.09736 38.4976 1.54519C38.5088 0.993018 38.0702 0.536351 37.518 0.525195L37.4776 2.52479ZM41.7353 0.670002C41.1837 0.642698 40.7144 1.06773 40.6871 1.61934C40.6598 2.17095 41.0848 2.64025 41.6364 2.66756L41.7353 0.670002ZM45.782 2.94444C46.3323 2.99134 46.8164 2.58326 46.8633 2.03297C46.9102 1.48268 46.5021 0.998562 45.9518 0.951664L45.782 2.94444ZM50.1602 1.39763C49.6124 1.32753 49.1114 1.71479 49.0413 2.26261C48.9712 2.81043 49.3585 3.31135 49.9063 3.38145L50.1602 1.39763ZM53.9989 4.00546C54.5426 4.10246 55.062 3.74034 55.159 3.19664C55.256 2.65295 54.8939 2.13355 54.3502 2.03655L53.9989 4.00546ZM58.508 2.89775C57.9706 2.77016 57.4316 3.10233 57.304 3.63968C57.1764 4.17703 57.5086 4.71606 58.046 4.84365L58.508 2.89775ZM62.0283 5.92189C62.5564 6.08347 63.1155 5.78634 63.2771 5.25822C63.4387 4.7301 63.1415 4.17099 62.6134 4.0094L62.0283 5.92189ZM66.6405 5.39637C66.1251 5.19794 65.5465 5.45491 65.348 5.97032C65.1496 6.48572 65.4066 7.0644 65.922 7.26283L66.6405 5.39637ZM69.701 8.88408C70.1997 9.12127 70.7963 8.90924 71.0335 8.41048C71.2707 7.91172 71.0587 7.31512 70.5599 7.07793L69.701 8.88408ZM74.3396 9.06498C73.8616 8.78833 73.2499 8.95155 72.9732 9.42955C72.6966 9.90755 72.8598 10.5193 73.3378 10.796L74.3396 9.06498ZM76.7683 12.9559C77.2266 13.264 77.848 13.1422 78.1561 12.6839C78.4642 12.2255 78.3424 11.6042 77.884 11.2961L76.7683 12.9559ZM81.2284 13.6681C80.7859 13.3376 80.1593 13.4283 79.8288 13.8707C79.4982 14.3132 79.5889 14.9398 80.0314 15.2704L81.2284 13.6681ZM83.1801 17.7422C83.6064 18.0933 84.2367 18.0324 84.5878 17.6061C84.9389 17.1798 84.878 16.5496 84.4518 16.1985L83.1801 17.7422ZM87.553 18.8737C87.143 18.5037 86.5107 18.5362 86.1407 18.9462C85.7707 19.3562 85.8031 19.9885 86.2131 20.3586L87.553 18.8737ZM89.1297 23.1071C89.5235 23.4943 90.1566 23.489 90.5438 23.0952C90.9311 22.7014 90.9257 22.0682 90.5319 21.681L89.1297 23.1071ZM93.3897 24.6087C93.012 24.2058 92.3791 24.1854 91.9762 24.5631C91.5733 24.9408 91.5529 25.5737 91.9306 25.9766L93.3897 24.6087ZM94.6169 28.9565C94.9787 29.3738 95.6103 29.4187 96.0275 29.0568C96.4448 28.695 96.4897 28.0634 96.1278 27.6461L94.6169 28.9565ZM98.7481 30.7833C98.4019 30.353 97.7724 30.2849 97.3421 30.6311C96.9118 30.9774 96.8437 31.6069 97.1899 32.0371L98.7481 30.7833ZM99.6516 35.2097C99.9824 35.6519 100.609 35.7421 101.051 35.4112C101.494 35.0803 101.584 34.4536 101.253 34.0114L99.6516 35.2097ZM103.644 37.3225C103.328 36.8694 102.705 36.7582 102.252 37.074C101.799 37.3898 101.688 38.0132 102.004 38.4662L103.644 37.3225ZM104.248 41.7995C104.549 42.2625 105.168 42.3938 105.631 42.0928C106.094 41.7918 106.225 41.1724 105.924 40.7093L104.248 41.7995ZM108.096 44.1661C107.809 43.6939 107.194 43.5434 106.722 43.8299C106.25 44.1163 106.099 44.7313 106.386 45.2035L108.096 44.1661ZM108.419 48.6723C108.691 49.1529 109.301 49.3219 109.782 49.0497C110.262 48.7776 110.431 48.1674 110.159 47.6868L108.419 48.6723ZM112.117 51.2663C111.859 50.7779 111.254 50.5911 110.766 50.849C110.277 51.1069 110.091 51.7119 110.349 52.2003L112.117 51.2663ZM112.139 55.7179C112.381 56.2143 112.979 56.4206 113.476 56.1786C113.972 55.9366 114.178 55.338 113.936 54.8416L112.139 55.7179ZM115.598 58.4156C115.375 57.9106 114.784 57.6824 114.279 57.906C113.774 58.1295 113.546 58.7202 113.77 59.2252L115.598 58.4156ZM115.267 62.7874C115.471 63.3005 116.053 63.5509 116.566 63.3465C117.079 63.1422 117.329 62.5606 117.125 62.0475L115.267 62.7874ZM118.512 65.7348C118.328 65.2142 117.756 64.9418 117.235 65.1263C116.715 65.3108 116.442 65.8823 116.627 66.4029L118.512 65.7348ZM117.848 70.0712C118.013 70.5985 118.573 70.8927 119.1 70.7283C119.628 70.564 119.922 70.0033 119.758 69.476L117.848 70.0712ZM120.859 73.2604C120.715 72.7273 120.165 72.4121 119.632 72.5564C119.099 72.7007 118.784 73.2498 118.928 73.7829L120.859 73.2604ZM119.869 77.5329C119.994 78.0709 120.531 78.406 121.069 78.2814C121.607 78.1567 121.942 77.6195 121.818 77.0815L119.869 77.5329ZM122.639 80.9327C122.533 80.3906 122.008 80.037 121.466 80.1428C120.924 80.2486 120.57 80.7738 120.676 81.3158L122.639 80.9327ZM121.354 85.1263C121.442 85.6716 121.956 86.0422 122.501 85.9542C123.046 85.8661 123.417 85.3528 123.329 84.8076L121.354 85.1263ZM123.897 88.6999C123.825 88.1523 123.323 87.7665 122.775 87.8381C122.228 87.9097 121.842 88.4117 121.913 88.9593L123.897 88.6999ZM122.363 92.8092C122.42 93.3585 122.911 93.7578 123.461 93.701C124.01 93.6442 124.409 93.1528 124.353 92.6034L122.363 92.8092ZM124.709 96.5139C124.665 95.9633 124.183 95.5525 123.633 95.5962C123.082 95.6399 122.671 96.1216 122.715 96.6722L124.709 96.5139ZM122.981 100.545C123.014 101.097 123.487 101.518 124.038 101.485C124.59 101.453 125.01 100.98 124.978 100.428L122.981 100.545ZM125.173 104.344C125.15 103.793 124.684 103.364 124.132 103.387C123.581 103.409 123.152 103.875 123.175 104.427L125.173 104.344ZM123.307 108.316C123.322 108.868 123.781 109.303 124.333 109.288C124.886 109.273 125.321 108.813 125.306 108.261L123.307 108.316ZM125.389 112.174C125.381 111.621 124.926 111.181 124.373 111.19C123.821 111.198 123.381 111.653 123.39 112.206L125.389 112.174ZM123.435 116.099C123.439 116.652 123.89 117.096 124.442 117.092C124.995 117.088 125.439 116.636 125.435 116.084L123.435 116.099ZM125.453 119.995C125.452 119.442 125.003 118.995 124.451 118.996C123.898 118.998 123.452 119.446 123.453 119.998L125.453 119.995ZM1.89746 3.38231C2.59653 3.38231 3.2983 3.37821 4.0025 3.37057L3.9808 1.37069C3.28324 1.37826 2.58872 1.38231 1.89746 1.38231V3.38231ZM8.20721 3.28805C9.59933 3.25007 10.9993 3.2028 12.405 3.15039L12.3305 1.15178C10.9293 1.20402 9.53626 1.25105 8.15266 1.2888L8.20721 3.28805ZM16.5965 2.98352C17.9887 2.9259 19.3837 2.8673 20.7824 2.81149L20.7027 0.81308C19.302 0.868964 17.9044 0.92768 16.5138 0.985225L16.5965 2.98352ZM24.9625 2.65722C26.3546 2.61125 27.7473 2.57192 29.1391 2.54299L29.0975 0.543419C27.6958 0.572553 26.2949 0.612137 24.8965 0.658309L24.9625 2.65722ZM33.3114 2.49121C34.7034 2.48688 36.0926 2.49681 37.4776 2.52479L37.518 0.525195C36.1156 0.496864 34.7107 0.486844 33.3052 0.491218L33.3114 2.49121ZM41.6364 2.66756C43.025 2.73629 44.4074 2.82729 45.782 2.94444L45.9518 0.951664C44.5516 0.832331 43.1455 0.739801 41.7353 0.670002L41.6364 2.66756ZM49.9063 3.38145C51.281 3.55735 52.6457 3.76403 53.9989 4.00546L54.3502 2.03655C52.9624 1.78895 51.5651 1.5774 50.1602 1.39763L49.9063 3.38145ZM58.046 4.84365C59.3876 5.1622 60.7156 5.52025 62.0283 5.92189L62.6134 4.0094C61.2579 3.59466 59.8887 3.22558 58.508 2.89775L58.046 4.84365ZM65.922 7.26283C67.199 7.75445 68.4592 8.29351 69.701 8.88408L70.5599 7.07793C69.2704 6.46468 67.9633 5.90562 66.6405 5.39637L65.922 7.26283ZM73.3378 10.796C73.9282 11.1377 74.5139 11.4928 75.0946 11.8618L76.1672 10.1737C75.563 9.78979 74.9537 9.42037 74.3396 9.06498L73.3378 10.796ZM75.0946 11.8618C75.6571 12.2192 76.215 12.584 76.7683 12.9559L77.884 11.2961C77.3166 10.9147 76.7443 10.5405 76.1672 10.1737L75.0946 11.8618ZM80.0314 15.2704C81.0993 16.0682 82.1489 16.8927 83.1801 17.7422L84.4518 16.1985C83.3967 15.3294 82.3223 14.4853 81.2284 13.6681L80.0314 15.2704ZM86.2131 20.3586C87.2037 21.2524 88.1758 22.1692 89.1297 23.1071L90.5319 21.681C89.5582 20.7236 88.5653 19.7872 87.553 18.8737L86.2131 20.3586ZM91.9306 25.9766C92.8444 26.9513 93.7398 27.9452 94.6169 28.9565L96.1278 27.6461C95.2342 26.6158 94.3215 25.6027 93.3897 24.6087L91.9306 25.9766ZM97.1899 32.0371C98.0289 33.0797 98.8494 34.1378 99.6516 35.2097L101.253 34.0114C100.437 32.9212 99.6021 31.8445 98.7481 30.7833L97.1899 32.0371ZM102.004 38.4662C102.77 39.5659 103.518 40.6776 104.248 41.7995L105.924 40.7093C105.183 39.5698 104.423 38.4402 103.644 37.3225L102.004 38.4662ZM106.386 45.2035C107.082 46.3519 107.76 47.5088 108.419 48.6723L110.159 47.6868C109.491 46.5062 108.803 45.332 108.096 44.1661L106.386 45.2035ZM110.349 52.2003C110.662 52.794 110.971 53.389 111.275 53.9849L113.056 53.0765C112.748 52.4721 112.435 51.8686 112.117 51.2663L110.349 52.2003ZM111.275 53.9849C111.57 54.5638 111.858 55.1414 112.139 55.7179L113.936 54.8416C113.65 54.2543 113.357 53.666 113.056 53.0765L111.275 53.9849ZM113.77 59.2252C114.297 60.4162 114.795 61.6033 115.267 62.7874L117.125 62.0475C116.644 60.84 116.136 59.6296 115.598 58.4156L113.77 59.2252ZM116.627 66.4029C117.061 67.6272 117.467 68.8497 117.848 70.0712L119.758 69.476C119.369 68.2303 118.955 66.9835 118.512 65.7348L116.627 66.4029ZM118.928 73.7829C119.266 75.0321 119.58 76.2816 119.869 77.5329L121.818 77.0815C121.523 75.807 121.204 74.5337 120.859 73.2604L118.928 73.7829ZM120.676 81.3158C120.923 82.5826 121.149 83.8523 121.354 85.1263L123.329 84.8076C123.12 83.5129 122.89 82.2217 122.639 80.9327L120.676 81.3158ZM121.913 88.9593C122.08 90.2368 122.23 91.5196 122.363 92.8092L124.353 92.6034C124.217 91.297 124.066 89.9962 123.897 88.6999L121.913 88.9593ZM122.715 96.6722C122.817 97.9553 122.905 99.246 122.981 100.545L124.978 100.428C124.901 99.1161 124.812 97.8117 124.709 96.5139L122.715 96.6722ZM123.175 104.427C123.228 105.713 123.271 107.009 123.307 108.316L125.306 108.261C125.27 106.947 125.226 105.641 125.173 104.344L123.175 104.427ZM123.39 112.206C123.41 113.492 123.425 114.79 123.435 116.099L125.435 116.084C125.425 114.77 125.41 113.467 125.389 112.174L123.39 112.206Z" fill="black"/>
</svg>
