<svg width="116" height="81" viewBox="0 0 116 81" fill="none" xmlns="http://www.w3.org/2000/svg">
<path d="M1 78.2136C0.447715 78.2136 0 78.6613 0 79.2136C0 79.7659 0.447715 80.2136 1 80.2136L1 78.2136ZM38.3649 78.7985L38.4921 79.7903L38.3649 78.7985ZM88.0187 49.5708L88.6851 50.3164L88.0187 49.5708ZM111.6 0L103.786 8.5014L115.056 11.0179L111.6 0ZM1 80.2136C13.1805 80.2136 26.1975 81.3666 38.4921 79.7903L38.2378 77.8066C26.1076 79.3617 13.4333 78.2136 1 78.2136L1 80.2136ZM38.4921 79.7903C58.4057 77.2373 74.5984 62.9046 88.6851 50.3164L87.3524 48.8251C73.1651 61.5032 57.4297 75.3461 38.2378 77.8066L38.4921 79.7903ZM88.6851 50.3164C100.604 39.6659 106.807 24.2427 110.609 9.02514L108.669 8.54037C104.901 23.623 98.8232 38.5746 87.3524 48.8251L88.6851 50.3164Z" fill="black"/>
</svg>
