<svg width="116" height="81" viewBox="0 0 116 81" fill="none" xmlns="http://www.w3.org/2000/svg">
<path d="M1.44788 78.4961C0.895591 78.4961 0.447876 78.9438 0.447876 79.4961C0.447876 80.0484 0.895591 80.4961 1.44788 80.4961L1.44788 78.4961ZM38.8128 79.0809L38.94 80.0728L38.8128 79.0809ZM88.4666 49.8533L89.1329 50.5989L88.4666 49.8533ZM112.048 0.282471L104.234 8.78387L115.503 11.3003L112.048 0.282471ZM1.44788 80.4961C13.6284 80.4961 26.6454 81.649 38.94 80.0728L38.6856 78.0891C26.5555 79.6442 13.8812 78.4961 1.44788 78.4961L1.44788 80.4961ZM38.94 80.0728C58.8535 77.5198 75.0462 63.187 89.1329 50.5989L87.8003 49.1076C73.613 61.7856 57.8776 75.6285 38.6856 78.0891L38.94 80.0728ZM89.1329 50.5989C101.051 39.9483 107.255 24.5252 111.057 9.30761L109.117 8.82284C105.348 23.9055 99.2711 38.8571 87.8003 49.1076L89.1329 50.5989Z" fill="black"/>
</svg>
