<?xml version="1.0" encoding="UTF-8"?>
<svg width="220px" height="266px" viewBox="0 0 220 266" version="1.1" xmlns="http://www.w3.org/2000/svg" xmlns:xlink="http://www.w3.org/1999/xlink">
    <!-- Generator: Sketch 55.2 (78181) - https://sketchapp.com -->
    <title>AB</title>
    <desc>Created with Sketch.</desc>
    <g id="AB" stroke="none" stroke-width="1" fill="none" fill-rule="evenodd">
        <polygon id="Fill-1" fill="#FFFFFE" points="0.812 265.125 219.687 265.125 219.687 0.997 0.812 0.997"></polygon>
        <path d="M6.75,256.728 L213.562,256.728" id="Stroke-2" stroke="#2CAA55" stroke-width="4.25"></path>
        <path d="M15.067,205.065 L17.59,212.302 L12.727,212.302 L15.067,205.065 Z M17.304,200.614 L12.805,200.614 L6.198,219.206 L10.177,219.206 L11.504,215.489 L18.527,215.489 L19.827,219.206 L23.807,219.206 L17.304,200.614 L17.304,200.614 Z" id="Fill-3" fill="#2CAA55"></path>
        <path d="M37.414,209.239 L45.008,209.239 L45.008,219.272 L42.667,219.272 L42.199,216.931 C41.289,218.055 39.703,219.972 35.958,219.769 C32.526,219.589 31.33,218.209 30.445,217.39 C26.046,213.186 26.645,203.688 33.02,200.964 C33.801,200.633 34.997,200.302 36.635,200.302 C38.429,200.302 40.925,200.48 42.85,202.339 C45.008,204.452 44.93,206.106 45.008,206.515 L41.445,206.515 C40.769,204.299 38.845,203.459 36.817,203.459 C35.517,203.459 34.581,203.79 33.489,204.502 C31.096,206.464 30.966,211.199 32.006,213.313 C32.761,214.841 34.165,216.419 36.349,216.648 C37.675,216.776 39.547,216.318 40.665,214.943 C41.705,213.746 41.705,212.88 41.731,212.397 L37.415,212.397 L37.414,209.239" id="Fill-4" fill="#2CAA55"></path>
        <path d="M54.955,203.802 L60.223,203.802 C61.961,203.802 62.584,204.568 62.584,205.895 C62.818,207.732 61.183,208.677 60.275,208.677 L54.955,208.677 L54.955,203.802 Z M51.054,219.209 L54.955,219.209 L54.955,211.864 L59.526,211.864 C60.876,211.864 61.811,212.477 61.863,213.727 C61.811,215.078 61.811,216.557 61.863,217.475 C61.915,218.088 62.071,218.647 62.382,219.209 L66.56,219.209 L66.56,218.522 C66.144,218.266 65.832,218.036 65.832,216.99 C65.806,216.047 65.754,213.599 65.65,212.834 C65.443,211.15 64.198,210.691 63.549,210.258 C64.821,209.519 65.654,208.932 66.122,207.324 C66.59,205.717 66.2,204.39 65.94,203.573 C65.394,201.559 63.469,200.69 61.572,200.614 L51.054,200.614 L51.054,219.209 L51.054,219.209 Z" id="Fill-5" fill="#2CAA55"></path>
        <polygon id="Fill-6" fill="#2CAA55" points="71.575 219.206 75.476 219.206 75.476 200.618 71.575 200.618"></polygon>
        <path d="M97.202,212.846 C97.175,214.731 96.083,216.871 94.653,217.965 C93.535,218.83 91.401,219.694 89.059,219.772 C84.844,219.898 81.899,217.253 80.882,213.33 C80.673,212.463 80.517,211.291 80.517,210.067 C80.517,208.818 80.647,207.544 80.96,206.5 C82.029,203.033 84.297,200.306 89.215,200.306 C90.568,200.306 92.468,200.458 94.315,201.758 C97.045,203.569 97.175,205.965 97.202,206.908 L93.483,206.908 C93.378,205.863 92.494,203.237 88.695,203.519 C86.926,203.646 85.546,204.895 84.922,206.474 C84.662,207.137 84.402,208.36 84.324,209.685 C84.271,211.011 84.402,212.437 84.922,213.585 C85.546,214.935 86.405,215.75 87.368,216.184 C87.862,216.388 88.356,216.489 88.903,216.489 C89.423,216.515 89.996,216.439 90.542,216.285 C93.248,215.547 93.327,213.66 93.483,212.846 L97.202,212.846" id="Fill-7" fill="#2CAA55"></path>
        <path d="M117.377,200.618 L117.377,213.43 C117.377,215.059 116.96,217.503 113.813,219.006 C112.644,219.516 111.267,219.772 109.941,219.772 C108.616,219.772 107.317,219.541 106.278,219.159 C103.13,217.452 102.35,215.262 102.35,213.43 L102.35,200.618 L106.252,200.618 L106.252,213.48 C106.304,214.651 106.667,216.459 109.837,216.459 C112.929,216.459 113.475,214.651 113.475,213.48 L113.475,200.618 L117.377,200.618" id="Fill-8" fill="#2CAA55"></path>
        <polyline id="Fill-9" fill="#2CAA55" points="127.367 200.618 127.367 216.022 136.444 216.022 136.444 219.209 123.465 219.209 123.465 200.618 127.367 200.618"></polyline>
        <polyline id="Fill-10" fill="#2CAA55" points="153.117 200.614 153.117 203.802 147.577 203.802 147.577 219.206 143.676 219.206 143.676 203.802 137.927 203.802 137.927 200.614 153.117 200.614"></polyline>
        <path d="M172.648,200.618 L172.648,213.43 C172.648,215.059 172.232,217.503 169.085,219.006 C167.915,219.516 166.538,219.772 165.214,219.772 C163.889,219.772 162.589,219.541 161.55,219.159 C158.402,217.452 157.622,215.262 157.622,213.43 L157.622,200.618 L161.523,200.618 L161.523,213.48 C161.576,214.651 161.94,216.459 165.109,216.459 C168.201,216.459 168.747,214.651 168.747,213.48 L168.747,200.618 L172.648,200.618" id="Fill-11" fill="#2CAA55"></path>
        <path d="M182.639,203.802 L187.906,203.802 C189.644,203.802 190.269,204.568 190.269,205.895 C190.502,207.732 188.867,208.677 187.959,208.677 L182.639,208.677 L182.639,203.802 Z M178.736,219.209 L182.639,219.209 L182.639,211.864 L187.21,211.864 C188.56,211.864 189.495,212.477 189.547,213.727 C189.495,215.078 189.495,216.557 189.547,217.475 C189.599,218.088 189.754,218.647 190.065,219.209 L194.244,219.209 L194.244,218.522 C193.828,218.266 193.516,218.036 193.516,216.99 C193.489,216.047 193.437,213.599 193.334,212.834 C193.127,211.15 191.882,210.691 191.232,210.258 C192.505,209.519 193.338,208.932 193.806,207.324 C194.273,205.717 193.883,204.39 193.623,203.573 C193.077,201.559 191.152,200.69 189.256,200.614 L178.736,200.614 L178.736,219.209 L178.736,219.209 Z" id="Fill-12" fill="#2CAA55"></path>
        <polyline id="Fill-13" fill="#2CAA55" points="213.43 200.614 213.43 203.802 203.598 203.802 203.598 208.052 212.675 208.052 212.675 211.239 203.598 211.239 203.598 216.022 213.871 216.022 213.871 219.209 199.695 219.209 199.695 200.614 213.43 200.614"></polyline>
        <path d="M12.591,234.627 L17.231,234.627 C18.587,234.627 19.656,235.14 19.656,236.752 C19.656,238.237 18.691,238.877 17.023,238.877 L12.591,238.877 L12.591,234.627 Z M8.689,250.033 L17.257,250.033 C18.456,250.033 20.567,249.855 21.867,248.758 C23.558,247.331 23.844,245.803 23.844,244.837 C23.844,242.624 22.699,240.994 21.581,240.152 C22.958,239.03 23.374,237.443 23.374,236.316 C23.374,235.549 23.011,231.44 16.528,231.44 L8.689,231.44 L8.689,250.033 Z M12.591,242.065 L17.909,242.065 C18.639,242.065 20.125,242.166 20.125,244.252 C20.125,246.795 18.352,246.846 17.179,246.846 L12.591,246.846 L12.591,242.065 L12.591,242.065 Z" id="Fill-14" fill="#2CAA55"></path>
        <polygon id="Fill-15" fill="#2CAA55" points="31.728 250.03 35.629 250.03 35.629 231.442 31.728 231.442"></polygon>
        <path d="M52.266,247.254 C51.016,247.254 49.766,246.897 48.776,246.006 C47.526,244.886 46.901,242.873 46.875,240.861 C46.901,238.85 47.526,236.838 48.776,235.717 C49.766,234.826 51.016,234.469 52.266,234.469 C53.516,234.469 54.766,234.826 55.755,235.717 C57.005,236.838 57.63,238.85 57.656,240.861 C57.63,242.873 57.005,244.886 55.755,246.006 C54.766,246.897 53.516,247.254 52.266,247.254 Z M61.402,240.861 C61.402,238.06 60.361,235.26 58.593,233.449 C57.005,231.843 54.687,231.129 52.266,231.129 C49.844,231.129 47.526,231.843 45.938,233.449 C44.167,235.26 43.126,238.06 43.126,240.861 C43.126,243.663 44.167,246.465 45.938,248.273 C47.526,249.881 49.844,250.594 52.266,250.594 C54.687,250.594 57.005,249.881 58.593,248.273 C60.361,246.465 61.402,243.663 61.402,240.861 L61.402,240.861 Z" id="Fill-16" fill="#2CAA55"></path>
        <polyline id="Fill-17" fill="#2CAA55" points="73.085 231.442 73.085 246.846 82.163 246.846 82.163 250.033 69.184 250.033 69.184 231.442 73.085 231.442"></polyline>
        <path d="M97.913,247.254 C96.663,247.254 95.413,246.897 94.424,246.006 C93.174,244.886 92.549,242.873 92.522,240.861 C92.549,238.85 93.174,236.838 94.424,235.717 C95.413,234.826 96.663,234.469 97.913,234.469 C99.163,234.469 100.413,234.826 101.402,235.717 C102.652,236.838 103.277,238.85 103.304,240.861 C103.277,242.873 102.652,244.886 101.402,246.006 C100.413,246.897 99.163,247.254 97.913,247.254 Z M107.049,240.861 C107.049,238.06 106.009,235.26 104.24,233.449 C102.652,231.843 100.335,231.129 97.913,231.129 C95.491,231.129 93.174,231.843 91.585,233.449 C89.815,235.26 88.773,238.06 88.773,240.861 C88.773,243.663 89.815,246.465 91.585,248.273 C93.174,249.881 95.491,250.594 97.913,250.594 C100.335,250.594 102.652,249.881 104.24,248.273 C106.009,246.465 107.049,243.663 107.049,240.861 L107.049,240.861 Z" id="Fill-18" fill="#2CAA55"></path>
        <path d="M123.638,240.065 L131.232,240.065 L131.232,250.096 L128.892,250.096 L128.424,247.755 C127.514,248.88 125.927,250.797 122.184,250.593 C118.751,250.414 117.555,249.033 116.669,248.215 C112.271,244.011 112.869,234.513 119.245,231.789 C120.025,231.458 121.221,231.127 122.859,231.127 C124.653,231.127 127.149,231.306 129.073,233.164 C131.232,235.277 131.154,236.932 131.232,237.34 L127.669,237.34 C126.993,235.124 125.069,234.283 123.041,234.283 C121.741,234.283 120.806,234.614 119.713,235.327 C117.32,237.289 117.19,242.024 118.231,244.139 C118.985,245.666 120.39,247.244 122.573,247.474 C123.899,247.602 125.772,247.143 126.89,245.768 C127.93,244.57 127.93,243.705 127.956,243.221 L123.64,243.221 L123.638,240.065" id="Fill-19" fill="#2CAA55"></path>
        <polygon id="Fill-20" fill="#2CAA55" points="139.357 250.03 143.259 250.03 143.259 231.442 139.357 231.442"></polygon>
        <path d="M162.153,246.795 C161.477,247.127 160.725,247.254 159.971,247.254 C158.724,247.254 157.478,246.897 156.49,246.006 C155.243,244.886 154.62,242.873 154.594,240.861 C154.62,238.85 155.243,236.838 156.49,235.717 C157.478,234.826 158.724,234.469 159.971,234.469 C161.218,234.469 162.465,234.826 163.452,235.717 C164.698,236.838 165.322,238.85 165.348,240.861 C165.322,242.314 165.011,243.765 164.335,244.886 L162.205,242.898 L160.205,244.987 L162.153,246.795 Z M167.039,247.406 C168.34,245.649 169.094,243.256 169.094,240.861 C169.094,238.06 168.053,235.26 166.285,233.449 C164.698,231.843 162.387,231.129 159.971,231.129 C157.556,231.129 155.243,231.843 153.658,233.449 C151.889,235.26 150.849,238.06 150.849,240.861 C150.849,243.663 151.889,246.465 153.658,248.273 C155.243,249.881 157.556,250.594 159.971,250.594 C161.737,250.594 163.452,250.212 164.906,249.345 L167.091,251.385 L169.094,249.319 L167.039,247.406 L167.039,247.406 Z" id="Fill-21" fill="#2CAA55"></path>
        <path d="M191.715,231.442 L191.715,244.254 C191.715,245.883 191.298,248.328 188.151,249.831 C186.981,250.342 185.603,250.596 184.279,250.596 C182.954,250.596 181.654,250.367 180.615,249.984 C177.469,248.277 176.688,246.087 176.688,244.254 L176.688,231.442 L180.59,231.442 L180.59,244.306 C180.642,245.477 181.006,247.283 184.176,247.283 C187.268,247.283 187.812,245.477 187.812,244.306 L187.812,231.442 L191.715,231.442" id="Fill-22" fill="#2CAA55"></path>
        <polyline id="Fill-23" fill="#2CAA55" points="214.054 231.44 214.054 234.627 204.223 234.627 204.223 238.877 213.299 238.877 213.299 242.065 204.223 242.065 204.223 246.846 214.496 246.846 214.496 250.033 200.32 250.033 200.32 231.44 214.054 231.44"></polyline>
        <polygon id="Fill-24" fill="#2CAA55" points="6.687 191.625 213.312 191.625 213.312 6.875 6.687 6.875"></polygon>
        <path d="M129.019,78.583 L132.865,78.583 C145.887,78.583 156.541,81.339 156.541,97.562 C156.541,114.091 145.739,116.846 132.569,116.846 L129.019,116.846 L129.019,78.583 Z M129.019,128.32 L137.601,128.32 C150.06,128.32 166.065,131.694 166.065,147.944 C166.065,164.348 152.58,168.334 139.688,168.334 L129.019,168.334 L129.019,128.32 Z M115.065,181.084 L141.169,181.084 C160.878,181.084 180.019,171.977 180.019,148.864 C180.019,135.373 170.814,122.048 157.618,119.6 L157.618,119.294 C165.109,115.622 169.541,105.827 169.541,97.409 C169.541,71.45 149.734,65.833 128.721,65.833 L115.065,65.833 L115.065,181.084 L115.065,181.084 Z" id="Fill-25" fill="#FFFFFE"></path>
        <path d="M100.817,69.204 C99.208,67.587 96.331,65.675 91.755,65.751 C79.141,65.96 61.106,83.741 48.827,101.271 C38.715,115.708 21.75,145.256 21.75,180.937 L36.25,180.937 C36.25,171.425 37.574,162.278 39.813,153.639 L90.125,153.639 L90.125,181.188 L104.625,181.188 C104.625,181.188 104.631,82.365 104.638,82.056 C104.705,78.974 104.83,73.238 100.817,69.204 Z M44.362,139.639 C57.126,107.029 81.347,84.155 90.156,80.707 C90.155,81.099 90.125,139.639 90.125,139.639 L44.362,139.639 L44.362,139.639 Z" id="Fill-26" fill="#FFFFFE"></path>
        <path d="M156.625,59.5 C160.584,39.25 148.584,20.5 135.334,15.25 C125.166,30.583 132.25,65.625 164,65.625 C182.625,65.625 194.875,49.125 195.375,43.375 C176.666,39.084 158.25,54.917 156.625,59.5" id="Fill-27" fill="#FFFFFE"></path>
    </g>
</svg>