<svg viewBox="0 0 220 266" xmlns="http://www.w3.org/2000/svg">
  <g fill="none" fill-rule="evenodd">
    <path fill="#FFFFFE" d="M1 265h219V1H1z"/>
    <path d="M7 257h207" stroke="#2CAA55" stroke-width="4.3"/>
    <path d="M15 205l3 7h-5l2-7zm2-4h-4l-7 18h4l2-4h7l1 4h4l-7-18zM37 209h8v10h-2l-1-2c-1 1-2 3-6 3-3 0-5-2-6-3-4-4-3-13 3-16l4-1c1 0 4 0 6 2s2 4 2 5h-4c0-3-2-4-4-4l-4 2c-2 1-2 6-1 8l4 4 5-2 1-3h-5v-3M55 204h5c2 0 3 1 3 2 0 2-2 3-3 3h-5v-5zm-4 15h4v-7h5c1 0 2 0 2 2v5h5l-1-2v-4l-2-3c1 0 2-1 2-3v-3l-4-3H51v18zM72 219h3v-18h-3zM97 213l-2 5-6 2c-4 0-7-3-8-7a14 14 0 010-6c1-4 3-7 8-7 2 0 3 0 5 2 3 2 3 4 3 5h-4c0-1-1-4-4-3l-4 2-1 4 1 4 2 2h4c2 0 2-2 2-3h4M117 201v12c0 2 0 5-3 6l-4 1-4-1c-3-2-4-4-4-6v-12h4v12c0 2 1 3 4 3s3-1 3-3v-12h4M127 201v15h9v3h-13v-18h4M153 201v3h-5v15h-4v-15h-6v-3h15M173 201v12c0 2-1 5-4 6l-4 1-3-1c-4-2-4-4-4-6v-12h4v12c0 2 0 3 3 3s4-1 4-3v-12h4M183 204h5c2 0 2 1 2 2 1 2-1 3-2 3h-5v-5zm-4 15h4v-7h4c2 0 2 0 3 2v5h4v-2l-1-4c0-2-1-2-2-3 2 0 2-1 3-3v-3c-1-2-3-3-5-3h-10v18zM213 201v3h-9v4h9v3h-9v5h10v3h-14v-18h13M13 235h4c2 0 3 0 3 2 0 1-1 2-3 2h-4v-4zm-4 15h8l5-1 2-4-2-5 1-4s0-5-6-5H9v19zm4-8h5c1 0 2 0 2 2 0 3-2 3-3 3h-4v-5zM32 250h4v-19h-4zM52 247l-3-1-2-5 2-5 3-2 4 2 2 5-2 5-4 1zm9-6l-2-8-7-2-6 2c-2 2-3 5-3 8s1 5 3 7l6 3c3 0 5-1 7-3l2-7zM73 231v16h9v3H69v-19h4M98 247l-4-1-1-5 1-5 4-2 3 2c2 1 2 3 2 5s0 4-2 5l-3 1zm9-6c0-3-1-6-3-8l-6-2-6 2c-2 2-3 5-3 8s1 5 3 7c1 2 3 3 6 3 2 0 5-1 6-3 2-2 3-4 3-7zM124 240h7v10h-2l-1-2c0 1-2 3-6 3l-5-3c-5-4-4-13 2-16l4-1c2 0 4 0 6 2l2 4h-3c-1-2-3-3-5-3l-3 1c-3 2-3 7-2 9s2 3 5 3c1 1 3 0 4-1l1-3h-4v-3M139 250h4v-19h-4zM162 247h-2l-4-1-1-5 1-5 4-2 3 2c2 1 2 3 2 5l-1 4-2-2-2 2 2 2zm5 0l2-6c0-3-1-6-3-8l-6-2-6 2c-2 2-3 5-3 8s1 5 3 7c1 2 4 3 6 3l5-2 2 2 2-2-2-2zM192 231v13c0 2-1 4-4 6l-4 1-3-1c-4-2-4-4-4-6v-13h4v13c0 1 0 3 3 3s4-2 4-3v-13h4M214 231v4h-10v4h9v3h-9v5h10v3h-14v-19h14M7 192h206V7H7z" fill="#2CAA55"/>
    <path d="M129 79h4c13 0 24 2 24 19 0 16-11 19-24 19h-4V79zm0 49h9c12 0 28 4 28 20s-13 20-26 20h-11v-40zm-14 53h26c20 0 39-9 39-32 0-14-9-27-22-29v-1c7-3 12-13 12-22 0-26-20-31-41-31h-14v115zM101 69c-2-1-5-3-9-3-13 0-31 18-43 35-10 15-27 44-27 80h14c0-10 2-19 4-27h50v27h15V82c0-3 0-9-4-13zm-57 71c13-33 37-56 46-59v59H44zM157 60c4-21-8-39-22-45-10 16-3 51 29 51 19 0 31-17 31-23-18-4-37 12-38 17" fill="#FFFFFE"/>
  </g>
</svg>
