<svg viewBox="0 0 1162 255" xmlns="http://www.w3.org/2000/svg">
  <g transform="translate(5 5)" fill="none" fill-rule="evenodd">
    <path d="M759 215c-7-2-14-5-20-11-23-23-9-64 24-69 8-1 17 1 26 5 9 5 9 5 4 12l-4 6-5-3c-10-7-23-6-31 2-12 12-9 35 6 41 5 3 14 3 20 1l5-2v-22h17v28l-3 3c-5 4-14 8-21 9h-18zm76 0c-10-3-16-8-20-16-4-7-4-21 0-27 2-7 8-12 15-15 5-3 6-3 14-3 12 1 20 5 25 14 2 4 2 6 3 14v9h-22l-22 1c0 1 4 7 7 8 5 3 13 3 19 0l4-3 5 5 4 5-5 3c-5 3-14 6-19 6l-8-1zm20-39c-2-8-11-11-20-7-3 2-6 6-6 9l13 1h14l-1-3zm121 39c-6-2-10-4-14-9-6-6-8-11-8-21 0-8 0-9 3-14 2-6 7-11 14-14 3-2 5-2 13-2 9 0 11 0 15 2 10 5 14 12 15 26l1 8h-46l1 3c3 8 18 11 27 5l3-2 4 5 5 5-3 2c-8 6-21 8-30 6zm22-37l-2-4c-3-6-12-9-19-5-3 2-7 6-7 9l14 1 14-1zm87 37c-9-2-14-7-15-15-3-10 2-18 12-21l15-1h10v-3c-1-4-4-7-8-8s-11 1-16 3l-4 2-4-5-3-5 4-2c8-5 15-6 24-6 10 1 15 3 19 8 4 4 4 8 4 31v22h-15v-8l-4 4c-3 3-9 5-13 5l-6-1zm17-15c3-1 5-6 5-9 0-2 0-2-9-2-7 0-9 1-10 2-3 2-3 7 0 9 2 3 11 3 14 0zm36-27v-42h19v85h-19v-43zm-253 12v-30h16v6l6-4c5-3 6-3 13-3 6 1 8 1 11 4l7 8 3 5v44h-17v-20l-1-24c-5-8-18-5-21 5l-1 22v17h-16v-30zm142 0v-30h16v8l3-2c3-4 10-7 13-7 2 0 2 0 2 8v7h-3c-5 0-10 3-12 8-2 3-3 5-3 21v17h-16v-30zm-190-46l7-9 2-3 8 3 7 4-7 6-6 6h-16l5-7zm139 4l7-10c5-7 4-7 15-2l5 3-7 6-6 6h-16l2-3z" fill="#EB1C24" fill-rule="nonzero"/>
    <path d="M247 215c-6-2-14-10-17-17-2-5-3-7-3-14s1-9 3-14 5-8 8-10c6-5 10-6 18-6 6 1 8 1 11 4l5 3 1-15v-14h16v83h-16v-4l-1-3-4 3c-4 3-10 5-14 5l-7-1zm19-16c9-6 9-23 0-29-4-3-12-3-16 0-6 4-8 15-5 23 2 4 5 7 9 8 2 1 9 0 12-2zm68-23v-41h18v81h-18v-40zm123 39c-5-2-10-6-12-10l-2-21v-18h-7v-11h7v-19h17v19h14v11h-14v16c0 14 0 16 2 18 2 1 7 2 10 0 2-2 2-2 5 2l2 6c0 2-9 7-14 8l-8-1zm52 0c-14-4-22-13-22-28-1-14 5-24 17-30 15-7 36 0 41 15l1 11v8h-22l-22 1c0 2 5 7 8 8 5 3 13 3 18 0l5-3 4 5 5 5-5 3c-6 3-14 6-20 6l-8-1zm20-38c0-5-6-10-12-10s-14 6-14 10c0 1 2 2 13 2 12 0 13-1 13-2zm97 38c-8-2-16-8-20-15-3-5-3-6-3-15 0-10 0-11 3-16 3-6 10-11 16-13s17-2 22 0c12 4 18 12 18 26l1 9h-22c-25 0-25 0-20 5 3 4 7 6 13 6 5 0 9-1 13-4 1-1 2-1 6 3l4 5-2 2c-5 6-20 9-29 7zm19-39c-2-11-22-11-25 0l-1 3h27l-1-3zm47 39c-5-2-8-4-10-8-3-4-3-5-3-22l-1-19h-7v-11h8v-19h15v19h15v11h-15v14c0 14 1 19 4 20 1 2 7 1 9 0 2-2 2-2 5 4 3 5 3 5 2 6-7 5-16 7-22 5zm-323-30v-30h16v3c0 3 1 4 2 2l6-3c11-6 25-1 30 11 2 3 2 7 2 25l1 22h-17v-20c0-22-1-25-7-27-6-3-14 1-16 8l-1 21v18h-16v-30zm190 0v-30h16v8l6-4c3-3 7-4 9-5h4v15h-5c-5 1-8 3-11 8-2 4-2 5-2 21l-1 17h-16v-30zm-256-25l2-6-1-3c-5-6 0-15 7-15l6 3c2 2 2 3 2 6 0 4 0 6-4 12-5 7-5 7-10 7l-4 1 2-5zm205-15l13-18 8 3 8 4-7 6-8 6h-7l-7-1zm103 0l5-9 6-7h20l6 8 6 8-6 1h-6l-5-4-5-5-5 5c-4 4-4 4-11 4l-5-1zm-60-53V54h12v9l3-3c5-5 9-7 16-7 17 0 29 16 26 34-2 14-13 23-25 23-7 0-11-1-16-6l-4-2v28h-12V92zm36 6c13-6 13-25 2-33-6-4-14-3-20 1-10 8-7 29 5 33 2 1 11 1 13-1zm-174 11c-4-2-8-7-10-10l-1-20V62h-8v-8h8V36h11v18h15v8h-15v33l3 3c2 3 3 3 6 2l5-2c2-1 2-1 4 3l3 4-5 3c-5 2-12 3-16 1zm88 0c-12-5-18-14-18-27s4-21 15-26c6-3 7-3 14-3 17 1 26 11 26 28v6h-22l-22 1c0 3 4 8 8 10 6 3 15 3 21 0l5-3 3 3 3 3-2 2c-6 5-11 7-19 7l-12-1zm25-35c-1-7-7-11-14-11-4-1-6 0-10 1-4 3-8 8-8 11v2h33l-1-3zm154 35c-12-5-19-15-18-30 0-8 2-13 8-18 5-5 10-7 18-8 9 0 15 1 21 6 5 5 8 11 8 20v8h-44v2c1 4 4 7 9 9 7 4 16 3 22-1l3-3 3 4 3 4-4 2-8 5h-21zm25-35c0-5-3-8-8-10-8-4-20 0-23 7-2 7-3 6 15 6h17l-1-3zm109 35c-6-2-13-9-15-15-3-7-4-14-2-21 2-6 3-7 7-12 6-6 12-8 20-8 12 0 21 6 25 15l3 11v8h-45l5 9c7 6 20 6 27 1l2-3 3 4c3 3 3 3 2 5l-7 4c-6 3-19 4-25 2zm26-34c0-7-8-13-16-13-6 0-13 4-15 9l-2 5 16 1h17v-2zm35 33c-5-3-9-8-10-15l-1-22V54h12v18c0 21 1 24 6 27 4 2 13 1 17-2 5-4 5-6 5-26V54h12v55h-12V99l-2 4c-6 7-18 9-27 5zM263 73V36h52v11h-40v20h36v11h-36v20h42v11h-54V73zm69 9V54h11v9l3-3c4-5 10-7 18-7 8 1 13 4 16 11 3 4 3 5 3 25v20h-12V91c0-21-1-24-6-26-4-3-12-2-16 0-5 4-6 7-6 27v17h-11V82zm111 0V54h12v10l4-4c4-4 9-7 12-7 2 0 2 1 2 6s0 5-2 5c-6 0-11 4-14 10-1 3-2 6-2 19v16h-12V82zm180 0V54h11v11l4-4c3-4 10-8 13-8l1 5v6l-3 1c-5 0-10 4-12 8-2 3-2 6-2 20l-1 16h-11V82zm108 0V54h11v10l3-4c4-4 10-7 16-7 9 0 15 3 19 11 2 3 2 5 2 24l1 21h-12V91c0-17 0-19-2-22-3-4-5-6-11-6-7 0-11 3-14 8-2 4-2 5-2 21v17h-11V82zm203 0V54h12v10l3-4c4-4 9-7 13-7 1 0 2 1 2 6s-1 5-3 5c-5 0-11 4-14 10l-1 19v16h-12V82zm70-14l-5-4-6-1-7 1c-2 1-2 3-2 5l1 4 4 2 4 2a469 469 0 0111 2l5 3 3 5 1 6a15 15 0 01-7 13c-2 2-4 3-7 3a35 35 0 01-20-1c-3-1-6-4-9-7l8-7 6 5 7 2 4-1 4-1 2-2 1-3-1-4-4-2-4-2-4-1-6-1-5-3a13 13 0 01-5-11 15 15 0 016-13l7-3a28 28 0 0118 1l8 7-8 6z" fill="#1C419B" fill-rule="nonzero"/>
    <circle stroke="#EB1C24" stroke-width="10" stroke-linecap="square" transform="matrix(1 0 0 -1 0 228)" cx="151.7" cy="113.8" r="20.5"/>
    <circle stroke="#1C419B" stroke-width="10" stroke-linecap="square" transform="matrix(1 0 0 -1 0 261)" cx="74.8" cy="130.6" r="20.5"/>
    <path stroke="#1C419B" stroke-width="10" stroke-linecap="round" d="M76 70V45l75-44 75 43v87l-75 44-58-34"/>
    <path stroke="#EB1C24" stroke-width="10" stroke-linecap="round" d="M134 102L76 69 0 113v87l75 43 76-43v-26"/>
    <path d="M76 70V45" stroke="#1C419B" stroke-width="10" stroke-linecap="round"/>
  </g>
</svg>
