<svg xmlns="http://www.w3.org/2000/svg" viewBox="0 0 600 660">
  <path d="M0 273h52V9H0v264zM552 9v158L402 0h-8v273h48V117l150 164h8V9h-48zM285 196h-2v28c-18 6-31 9-47 9-56 0-92-38-92-96 0-56 34-90 89-90 31 0 57 11 77 34l4 5 4-60-2-1a141 141 0 00-83-25c-39 0-75 14-101 39-26 26-40 61-40 101 0 82 59 141 139 141a216 216 0 00101-25l2-1v-67l-4 2c-14 5-29 7-45 6" fill="#676c70"/>
  <path d="M275 112c-33-9-66-4-91 12a114 114 0 0073 55c33 9 67 4 91-12-13-27-40-47-73-55" fill="#80cc28"/>
  <g fill="#676c70">
    <path d="M53 381l-2 4-4 1-4-1-2-3-16-28v32h-7v-34c0-4 2-6 6-6l4 2 2 3 16 27v-31h7v34zM94 352H76l-6 2-1 5 2 3 5 1h7l8 2 2 6v6l-2 6c-2 2-5 3-8 3H62v-6h18l6-2 1-5c0-3-2-4-6-4h-8l-7-2c-3-2-4-4-4-6v-6c0-3 2-5 4-7l7-2h21v6zM133 352h-12v34h-7v-34h-12v-6h31v6zM147 386h-7v-40h7v40zM185 352h-12v34h-7v-34h-11v-6h30v6zM228 376l-1 4-2 3-4 2-5 1h-11l-5-1-4-2-3-3v-34h7v29l1 4 6 1h7l5-1 2-4v-29h7v30zM266 352h-12v34h-7v-34h-12v-6h31v6zM326 381l-2 4-4 1-4-1-2-3-16-28v32h-7v-34c0-4 2-6 6-6l3 2 3 3 16 27v-31h7v34zM361 371l-8-18-7 18h15zm14 15h-8l-4-10h-19l-4 10h-8l16-36c1-2 3-4 6-4 2 0 4 2 5 4l16 36zM406 352h-12v34h-7v-34h-12v-6h31v6zM420 386h-7v-40h7v40zM458 375v-18l-1-4-5-1h-8l-4 1-2 4v18l2 4 4 1h8l5-1 1-4m7 2c0 6-4 9-12 9h-10l-9-2c-2-2-3-4-3-7v-22c0-3 1-5 4-7l8-2h10c8 0 12 3 12 9v22zM511 381l-2 4-4 1-4-1-2-3-16-28v32h-7v-34c0-4 2-6 6-6l4 2 2 3 16 27v-31h7v34zM546 371l-8-18-7 18h15zm14 15h-8l-4-10h-19l-4 10h-7l15-36c1-2 3-4 6-4 2 0 4 2 5 4l16 36zM598 386h-18c-5 0-8-1-10-3-2-1-3-3-3-7v-30h7v29c0 2 0 3 2 4l5 1h17v6zM28 466v-18c0-3-2-5-6-5H7v28h15c4 0 6-1 6-5m7 2c0 3-1 5-3 7l-8 2H0v-39h24c7 0 11 3 11 9v21zM76 460H53v7c0 3 2 4 6 4h18v6H57l-8-2c-2-1-3-4-3-6v-22c0-3 1-5 3-7l8-2h20v6H59c-4 0-6 1-6 4v7h23v5zM146 477h-18l-10-2c-2-1-3-4-3-7v-30h7v28l2 4 5 1h17v6zM153 436l-1 3-3 7h-3l2-6-2-4 1-3 3-1 2 1 1 3M173 477h-7v-39h7v39zM219 472l-2 4-4 2-4-2-2-3-16-27v31h-7v-33c0-4 2-6 6-6l4 1 2 3 16 28v-32h7v34zM261 460h-24v17h-7v-31c0-3 1-5 3-6l8-2h20v6h-18c-4 0-6 1-6 4v7h24v5zM301 467v-19l-2-3-5-1h-7l-5 1-1 3v19l1 3 5 1h7l5-1 2-3m6 1c0 6-3 9-11 9h-11l-8-2c-2-1-3-4-3-7v-21c0-3 1-5 3-7l8-2h11c8 0 11 3 11 9v21zM353 477h-9l-17-15-1-2c0-3 2-4 5-4h10c3 0 5-1 5-4v-4c0-3-2-4-6-4h-14v33h-7v-39h23c7 0 11 3 11 8v7l-3 6-7 2h-8l18 16zM412 477h-7v-31l-12 28c-2 3-3 4-6 4l-3-1-1-3-13-28v31h-7v-34l2-4 4-1c3 0 5 1 6 4l12 27 13-27c1-3 3-4 6-4l4 1 2 4v34zM447 462l-7-17-7 17h14zm14 15h-7l-4-10h-19l-5 10h-7l16-36c1-2 2-3 5-3s5 1 6 3l15 36zM493 443h-12v34h-7v-34h-12v-5h31v5zM507 477h-7v-39h7v39zM545 467v-19l-1-3-5-1h-7l-5 1-1 3v19l1 3 5 1h7l5-1 1-3m7 1c0 6-3 9-11 9h-11l-8-2c-2-1-3-4-3-7v-21c0-3 1-5 3-7l8-2h11c8 0 11 3 11 9v21zM598 472l-1 4-4 2-4-2-2-3-17-27v31h-6v-33c0-4 2-6 5-6l4 1 3 3 16 28v-32h6v34zM34 559l-2 7c-2 2-5 3-8 3H12c-4 0-7-1-9-3l-3-3v-24l1-5 3-3 8-2h20v6H13l-4 1-2 3v19l2 4 4 1h9c4 0 5-2 5-5v-11h7v12zM78 519l-6 7h-5l5-7h6zm8 50H66c-4 0-6-1-8-3-2-1-4-3-4-6v-22c0-3 1-5 3-6 2-2 5-3 8-3h21v6H68c-4 0-7 1-7 4v7h25v6H61v6c0 3 3 5 7 5h18v6zM132 558v-18l-1-4-5-1h-8l-4 1-2 4v18l2 4 4 1h8l5-1 1-4m7 2c0 6-4 9-12 9h-10l-8-2c-3-2-4-4-4-7v-22c0-3 1-5 4-7l8-2h11c7 0 11 3 11 9v22zM193 559c0 3 0 5-2 7s-5 3-8 3h-12c-4 0-7-1-9-3l-3-3v-24l1-5 3-3 8-2h20v6h-19l-4 1-2 3v19l2 4 4 1h9c4 0 6-2 6-5v-11h6v12zM248 569h-9l-17-16-1-2c0-2 2-3 4-3h11c3 0 5-2 5-4v-5c0-3-2-4-6-4h-14v34h-7v-40h23c7 0 11 3 11 9v6c0 3-1 5-3 6-2 2-4 3-7 3h-8l18 16zM292 554l-8-18-7 18h15zm13 15h-7l-4-10h-19l-4 10h-8l16-36c1-2 3-4 5-4 3 0 5 2 6 4l15 36zM349 544v-5c0-3-2-4-5-4h-15v13h14c4 0 6-2 6-4m7 1c0 3-1 5-3 7l-7 2h-17v15h-7v-40h23l8 2c2 2 3 3 3 6v8M411 569h-7v-17h-21v17h-7v-40h7v17h21v-17h7v40zM438 569h-7v-40h7v40zM485 559v-19l-1-4-5-1h-8l-4 1-2 4v18l2 4 4 1h8l5-1 1-3m7 1c0 5-2 7-7 8l7 6h-10l-6-5h-6l-9-2c-2-2-3-4-3-7v-22c0-3 1-5 3-7l9-2h11l8 2c2 2 3 4 3 7v22zM547 559v4l-3 3-4 2-5 1h-11l-4-1-4-2-3-3-1-4v-30h7v29l2 4 5 1h7l6-1 1-4v-29h7v30zM597 552h-23v6c0 3 2 5 6 5h18v6h-20l-8-2c-2-2-3-4-3-7v-22c0-3 1-5 3-6 2-2 4-3 8-3h20v6h-18c-4 0-6 2-6 4v7h23v6zM30 643H7v7c0 3 2 4 6 4h18v6H11l-8-2c-2-1-3-4-3-6v-22c0-3 1-5 3-7l8-2h20v6H13c-4 0-6 1-6 4v7h23v5zM80 626H68v34h-7v-34H49v-5h31v5zM161 643h-24v17h-7v-31c0-3 1-5 3-6 2-2 5-2 8-2h20v6h-18c-4 0-6 1-6 4v7h24v5zM209 650v-19l-1-3-5-1h-7l-5 1-2 3v19l2 3 5 1h7l5-1 1-3m7 1c0 6-4 9-11 9h-11l-8-2c-3-2-4-4-4-7v-21c0-3 1-6 4-7 2-2 4-2 8-2h11c7 0 11 3 11 9v21zM270 660h-8l-17-15-1-3c0-2 1-3 4-3h10c4 0 5-1 5-4v-4c0-3-2-4-5-4h-15v33h-7v-39h24c7 0 10 3 10 8v7l-2 6-8 2h-8l18 16zM319 643h-23v7c0 3 2 4 6 4h19v6h-21l-8-2c-2-1-3-4-3-6v-22c0-3 1-5 3-7l8-2h21v6h-19c-4 0-6 1-6 4v7h23v5zM372 627h-18l-6 1v5l1 3 5 1h7l8 2 3 6v7l-3 6-8 2h-20v-6h18c3 0 5 0 5-2l1-5c0-3-2-4-6-4h-7l-8-2c-2-1-3-3-3-6v-6c0-3 1-5 3-6 2-2 4-2 8-2h20v6zM420 626h-12v34h-7v-34h-12v-5h31v5zM443 660h-7v-39h7v39zM487 618h-6l-5-7h6l5 7zm7 42h-20l-8-2-3-6v-23l3-6 8-2h20v6h-18c-4 0-6 1-6 4v7h24v5h-24v7c0 3 2 4 6 4h18v6zM548 660h-9l-17-15-1-3c0-2 2-3 5-3h10c3 0 5-1 5-4v-4c0-3-2-4-6-4h-14v33h-7v-39h23c7 0 11 3 11 8v7l-3 6-7 2h-8l18 16zM597 643h-23v7c0 3 2 4 6 4h18v6h-20l-8-2c-2-1-3-4-3-6v-22c0-3 1-5 3-7l8-2h20v6h-18c-4 0-6 1-6 4v7h23v5zM7 386H0v-40h7v40z"/>
  </g>
</svg>
