<svg viewBox="0 0 354 180" xmlns="http://www.w3.org/2000/svg">
  <g fill="none" fill-rule="evenodd">
    <path fill="#F4E7CF" d="M132.696 179.94h221.102v-79.31H132.696z"/>
    <path fill="#1A1919" d="M162.346 125.385h1.663v-14.921h-1.663zM166.934 109.832l11.635 12.19v-11.558h1.661v15.594l-11.635-12.17v11.497h-1.661v-15.553M189.901 113.374c-.594-1.029-1.306-1.622-2.575-1.622-1.325 0-2.472.949-2.472 2.315 0 1.286 1.327 1.878 2.334 2.334l.991.436c1.939.85 3.581 1.821 3.581 4.193 0 2.614-2.097 4.611-4.69 4.611-2.395 0-4.175-1.542-4.65-3.857l1.623-.455c.218 1.523 1.385 2.77 2.988 2.77s3.068-1.228 3.068-2.908c0-1.744-1.365-2.337-2.751-2.969l-.91-.398c-1.741-.791-3.245-1.679-3.245-3.818 0-2.314 1.959-3.799 4.174-3.799 1.662 0 3.066.853 3.858 2.315l-1.324.852M197.946 125.385h-1.662v-13.376h-3.6v-1.545h8.904v1.545h-3.642v13.376M203.124 125.385h1.664v-14.921h-1.664zM211.573 125.385h-1.662v-13.376h-3.6v-1.545h8.904v1.545h-3.642v13.376M218.335 119.351c0 1.106-.038 2.373.655 3.321.65.911 1.919 1.427 3.006 1.427 1.069 0 2.236-.494 2.928-1.327.792-.95.734-2.254.734-3.421v-8.887h1.661v9.342c0 1.622-.119 2.908-1.305 4.133-1.029 1.109-2.514 1.702-4.018 1.702-1.404 0-2.849-.532-3.859-1.523-1.306-1.247-1.463-2.613-1.463-4.312v-9.342h1.661v8.887M234.018 125.385h-1.661v-13.376h-3.601v-1.545h8.903v1.545h-3.641v13.376M245.151 109.832l11.634 12.19v-11.558h1.662v15.594l-11.635-12.17v11.497h-1.661v-15.553M266.81 113.631l-2.553 5.977h5.047l-2.494-5.977zm-3.226 7.519l-1.799 4.235h-1.821l6.887-15.633 6.707 15.633h-1.84l-1.761-4.235h-6.373zM277.349 125.385h-1.661v-13.376h-3.601v-1.545h8.905v1.545h-3.643v13.376M282.528 125.385h1.664v-14.921h-1.664zM287.93 117.924c0 3.363 2.731 6.175 6.114 6.175s6.114-2.812 6.114-6.175c0-3.383-2.69-6.172-6.114-6.172s-6.114 2.789-6.114 6.172zm13.892.019c0 4.296-3.523 7.698-7.778 7.698-4.255 0-7.775-3.402-7.775-7.698 0-4.273 3.52-7.736 7.775-7.736 4.255 0 7.778 3.463 7.778 7.736zM303.969 109.832l11.635 12.19v-11.558h1.661v15.594l-11.636-12.17v11.497h-1.66v-15.553M325.627 113.631l-2.554 5.977h5.045l-2.491-5.977zm-3.227 7.519l-1.8 4.235h-1.82l6.886-15.633 6.707 15.633h-1.84l-1.76-4.235H322.4zM335.455 123.842h4.114v1.543h-5.778v-14.921h1.664v13.378M165.176 146.605c1.821 0 3.344-.26 4.71-1.545 1.228-1.148 1.859-2.71 1.859-4.373 0-1.703-.653-3.344-1.939-4.473-1.366-1.206-2.869-1.443-4.63-1.443h-1.208v11.834h1.208zm-2.869-13.379h2.809c2.237 0 4.058.298 5.818 1.801 1.703 1.465 2.473 3.463 2.473 5.679 0 2.177-.79 4.097-2.434 5.562-1.779 1.581-3.562 1.879-5.896 1.879h-2.77v-14.921zM175.796 133.226h7.737v1.545h-6.073v4.431h5.896v1.545h-5.896v5.858h6.073v1.542h-7.737v-14.921M194.268 146.605h4.114v1.542h-5.778v-14.921h1.664v13.379M201.921 133.505l-2.254 5.046-1.07-.417 1.859-5.165 1.465.536M205.618 140.687c0 3.363 2.732 6.174 6.115 6.174s6.114-2.811 6.114-6.174c0-3.383-2.69-6.172-6.114-6.172s-6.115 2.789-6.115 6.172zm13.893.019c0 4.296-3.523 7.697-7.778 7.697-4.254 0-7.775-3.401-7.775-7.697 0-4.274 3.521-7.737 7.775-7.737 4.255 0 7.778 3.463 7.778 7.737zM223.497 140.132h.517c1.879 0 3.779-.356 3.779-2.671 0-2.453-1.801-2.69-3.799-2.69h-.497v5.361zm0 8.015h-1.661v-14.921h2.158c2.829 0 5.46.754 5.46 4.117 0 2.295-1.443 3.917-3.738 4.116l4.748 6.688h-2.039l-4.511-6.55h-.417v6.55zM232.671 148.147h1.664v-14.921h-1.664zM251.312 140.648c.039 2.017-.18 3.68-1.545 5.264-1.366 1.581-3.443 2.491-5.522 2.491-4.193 0-7.675-3.481-7.675-7.675 0-4.277 3.482-7.759 7.775-7.759 2.613 0 4.73 1.168 6.313 3.225l-1.208 1.129c-1.245-1.76-2.928-2.808-5.125-2.808-3.404 0-6.094 2.866-6.094 6.232 0 1.581.632 3.087 1.741 4.213 1.09 1.09 2.671 1.901 4.235 1.901 2.591 0 5.323-1.901 5.323-4.67h-4.432v-1.543h6.214M253.773 148.147h1.664v-14.921h-1.664zM258.64 132.594l11.635 12.189v-11.557h1.661v15.594l-11.635-12.17v11.497h-1.661v-15.553M275.115 133.226h7.736v1.545h-6.075v4.431h5.898v1.545h-5.898v5.858h6.075v1.542h-7.736v-14.921M291.925 133.226h7.736v1.545h-6.072v4.431h5.897v1.545h-5.897v5.858h6.072v1.542h-7.736v-14.921M306.521 148.147h-1.661v-13.376h-3.601v-1.545h8.903v1.545h-3.641v13.376M320.978 146.605c1.821 0 3.345-.26 4.71-1.545 1.228-1.148 1.86-2.71 1.86-4.373 0-1.703-.654-3.344-1.94-4.473-1.366-1.206-2.869-1.443-4.63-1.443h-1.205v11.834h1.205zm-2.869-13.379h2.808c2.239 0 4.059.298 5.82 1.801 1.702 1.465 2.471 3.463 2.471 5.679 0 2.177-.789 4.097-2.433 5.562-1.78 1.581-3.562 1.879-5.896 1.879h-2.77v-14.921zM331.832 133.226h7.737v1.545h-6.076v4.431h5.899v1.545h-5.899v5.858h6.076v1.542h-7.737v-14.921M163.968 169.364h4.116v1.542h-5.777v-14.921h1.661v13.379M177.813 159.152l-2.555 5.977h5.046l-2.491-5.977zm-3.228 7.519l-1.799 4.235h-1.821l6.886-15.632 6.708 15.632h-1.841l-1.76-4.235h-6.373zM203.367 167.582c1.11-1.167 1.642-2.533 1.642-4.136 0-3.402-2.69-6.172-6.114-6.172s-6.114 2.79-6.114 6.172c0 3.364 2.731 6.175 6.114 6.175 1.109 0 2.414-.417 3.325-1.109l-3.601-3.62h2.177l2.571 2.69zm.02 2.119c-1.229.93-2.988 1.462-4.492 1.462-4.255 0-7.776-3.402-7.776-7.698 0-4.273 3.521-7.736 7.776-7.736 4.315 0 7.778 3.504 7.778 7.778 0 2.077-.754 3.758-2.158 5.262l2.235 2.275h-2.116l-1.247-1.343zM210.342 164.872c0 1.107-.038 2.373.654 3.322.654.911 1.917 1.427 3.007 1.427 1.069 0 2.236-.494 2.928-1.327.792-.949.734-2.255.734-3.422v-8.887h1.66v9.342c0 1.623-.118 2.908-1.304 4.134-1.029 1.108-2.514 1.702-4.018 1.702-1.404 0-2.849-.532-3.859-1.523-1.306-1.247-1.463-2.613-1.463-4.313v-9.342h1.661v8.887M227.532 159.152l-2.553 5.977h5.047l-2.494-5.977zm-3.226 7.519l-1.799 4.235h-1.821l6.887-15.632 6.707 15.632h-1.84l-1.761-4.235h-6.373zM238.242 169.364h4.114v1.542h-5.778v-14.921h1.664v13.379M244.544 170.906h1.663v-14.921h-1.663zM253.696 170.906h-1.662V157.53h-3.6v-1.545h8.903v1.545h-3.641v13.376M259.895 155.985h7.737v1.545h-6.076v4.432h5.899v1.545h-5.899v5.857h6.076v1.542h-7.737v-14.921"/>
    <path d="M149.364 65.423c-6.693-3.601-14.289-5.633-22.338-5.633-26.934 0-48.775 22.773-48.775 50.865 0 16.043 7.124 30.346 18.249 39.671h52.907l-.043-84.903" fill="#F6BD46"/>
    <path d="M149.364 65.423c-6.693-3.601-14.289-5.633-22.338-5.633-26.934 0-48.775 22.773-48.775 50.865 0 16.043 7.124 30.346 18.249 39.671l-50.137-.076V2.922h102.634l.367 62.501" fill="#009A4F"/>
    <path fill="#00ADD9" d="M3.149 152.455h41.968V2.922H3.149z"/>
    <path d="M38.445 3.359c1.131 4.173.715 9.289-1.503 14.11-4.064 8.842-12.632 13.376-19.126 10.124-6.503-3.247-8.473-13.05-4.413-21.893.34-.73.703-1.429 1.093-2.097l23.949-.244" fill="#770B45"/>
    <path d="M5.153 109.577c2.193.303 5.377-.411 9.948-2.548 16.472-7.696 23.254-27.984 21.383-28.474-1.352-.351-12.163 20.033-15.458 17.659-4.505-3.258 9.03-29.27 13.971-43.704 9.332-27.245-13.396-16.076-17.57-13.03-5.687 4.162-10.036 8.106-12.274 10.253V5.486h37.68v143.929H5.153v-39.838zm0-55.16c3.779-3.664 9.782-9.737 11.434-6.988 1.58 2.639-6.527 21.044-11.434 34.603V54.417zm112.719-25.581v5.872c0 5.616-7.641 9.069-15.169 9.069-3.277 0-7.887-1.3-7.887-5.53 0-5.008 5.215-6.132 11.528-6.906 7.041-.779 9.834-1.557 11.528-2.505zM50.274 5.486h12.88v91.389L50.274 5.486zm13.307 143.929H50.452V65.972l13.129 83.443zm84.24-91.703c-5.861-2.218-12.183-3.435-18.786-3.435-30.415 0-55.085 25.725-55.085 57.443 0 14.43 5.119 27.606 13.542 37.695h-17.14V5.486h26.049c-8.236 1.892-15.43 5.988-16.516 13.855h16.387c.485-2.677 1.944-6.399 10.438-6.399 4.37 0 11.162.26 11.162 5.357 0 2.595-3.274 5.03-5.94 5.287L96.636 25.23c-10.802 1.121-18.81 4.043-18.81 13.02 0 9.502 9.948 13.387 19.659 13.387 11.528 0 16.989-3.797 20.874-6.649.364 2.591.611 3.282 1.577 5.441l15.608-.132-.632-1.986c-.355-1.274-.412-1.422-.412-6.863V16.576c0-5.871-6.876-9.351-14.004-11.09h27.325v52.226zm-66.648 53.686c0-27.471 21.355-49.738 47.697-49.738 6.734 0 13.144 1.456 18.951 4.089v83.666H98.128c-10.363-9.127-16.955-22.766-16.955-38.017zM0 153.949h153.071V.878H0v153.071z" fill="#121417"/>
    <path fill="#1A1919" d="M266.907 151.256l-4.338 3.424-.755-.866 4.044-3.712 1.049 1.154"/>
  </g>
</svg>
