<svg viewBox="0 0 268 268" xmlns="http://www.w3.org/2000/svg">
  <g fill="none" fill-rule="evenodd">
    <path d="M134 39a94 94 0 110 189 94 94 0 010-189" fill="#D8232A"/>
    <path d="M134 47a87 87 0 110 174 87 87 0 010-174" fill="#FFFFFE"/>
    <path d="M134 81a53 53 0 100 106 53 53 0 000-106" fill="#174489"/>
    <path d="M93 168l-3-3 12-2 2-1 2-2c2-1 3-2 3-4l-7 5c-4 2-8 2-11 2h1v-1h1l1-1h-3l1-1h1l7-4h-1v-1l5-2h-2 1v-1h1-1 1v-1l2-1h-1 1-1v-1l2-4h-1c-1 2-4 3-6 3h-4l-2-1-4-2-9-2v-1l2-1c3-1 6-2 9-1h-2c-2-1-5 0-7 1h-2v-2l1-1 8 1 7 1 1 1 3 1v-1h2c2-1-1-2-1-4 1 1 2 3 4 3h2l-4-5v-1l-1-2v-3l-1-3-2-8c0-3 2-5 4-8l4-5 4-6 5-3c12-6 28-4 40 0l4 3v2l-1 2-4 1-2-1 7 5h1v2l2-2 1 3-2 1v2l1 2 1 3 1 8v4l2 3 1 3c1 1 3 3 2 5l-3 2v3c1 1-1 2-2 3h1l1 2c-1 1-3 2-2 3v4l-3 2-3 1-1-1-9-1-2 1c-3 2-4 5-5 8l-2 7h-7c-6 0-17-2-25-7h1l7-7 1-1-3 1 2-2v0l-6 3c-3 0-5 3-7 4v-1l-3 1-4 1h-4zm-8-12l-3-8c5 1 9 2 13 5-3 2-6 2-10 3zm-5-20h0zm80-10h-3l-4 1 3-1 3-1h3l2 1-2 2 1 1-1 1-1 1v3h-4l2-1h-1v-1l-3-1h2l1-1 3-3-1-1z" fill="#FFFFFE"/>
    <path d="M84 97l-10-8 2-2 10 8-2 2zm8-9l-8-9 2-2 9 2 1 1h1a11 11 0 01-2-2l-4-5 2-2 8 10-2 2-9-3h-1l-1-1a11 11 0 011 2l4 6-1 1zm19-12l-8-10 3-1 5 6a21 21 0 011 2 18 18 0 010-2l-1-8 3-1v13l-3 1zm14-4l-1-12 8-1v3h-5v3l5-1v2l-4 1v3l4-1 1 3h-8zm16-2l2-1v1l1 1h2l1-1-2-2-1-1-1-2-1-2 2-2 3-1 2 1 1 2-2 1v-1l-1-1-2 1 1 3h1l2 2v2l-1 3h-4l-2-1-1-2zm24-1l-4 9-3-1 4-9-2-2 1-2 8 4-1 2-3-1zm5 14l7-10 2 2-7 10-2-2zm15 14l-2-2 2-6-4 4-2-2 9-8 3 3 1 3-1 2-2 1-2-1-2 6zm1-9l2 2 1-1 1-1-1-2h-1l-2 2zM81 188l9-9 1 2-7 7 3 3-1 1-5-4zm14 3l5-4 2 1-5 3h-2zm15 10v-5-1a47 47 0 01-1 1l-2 3 3 2zm-9 1l9-10 3 1-1 14-2-2v-2l-5-2-2 2-2-1zm21 7l-3-13h3l2 8a24 24 0 010 2 19 19 0 011-2l3-7h3l-6 12h-3zm15 0l-1-12h7v2h-4v3l4-1 1 3h-5v3h5v2h-7zm16-2l-4-11 2-1 8 5 1 1a11 11 0 01-1-2l-2-6 3-1 4 12h-3l-8-5-1-1a11 11 0 011 2l2 7h-2zm18-8l-6-10 2-1 7 10-3 1zm17-12l-3 2-6-2 4 4-2 2-8-9 3-3 3-1 2 1 1 2-1 2 7 2zm-10-1h1l1-2v-1l-2-1-1 1h-1l2 3z" fill="#174489"/>
  </g>
</svg>
