<?xml version="1.0" encoding="UTF-8"?>
<svg width="268px" height="268px" viewBox="0 0 268 268" version="1.1" xmlns="http://www.w3.org/2000/svg" xmlns:xlink="http://www.w3.org/1999/xlink">
    <!-- Generator: Sketch 55.2 (78181) - https://sketchapp.com -->
    <title>LOGO_Investirlavenir_CMJN</title>
    <desc>Created with Sketch.</desc>
    <g id="LOGO_Investirlavenir_CMJN" stroke="none" stroke-width="1" fill="none" fill-rule="evenodd">
        <path d="M133.956,39.42 C186.147,39.42 228.456,81.729 228.456,133.92 C228.456,186.11 186.147,228.42 133.956,228.42 C81.765,228.42 39.456,186.11 39.456,133.92 C39.456,81.729 81.765,39.42 133.956,39.42" id="Fill-1" fill="#D8232A"></path>
        <path d="M133.956,47.337 C181.774,47.337 220.538,86.102 220.538,133.92 C220.538,181.738 181.774,220.502 133.956,220.502 C86.138,220.502 47.374,181.738 47.374,133.92 C47.374,86.102 86.138,47.337 133.956,47.337" id="Fill-2" fill="#FFFFFE"></path>
        <path d="M133.956,80.535 C104.472,80.535 80.571,104.436 80.571,133.92 C80.571,163.403 104.472,187.305 133.956,187.305 C163.44,187.305 187.341,163.403 187.341,133.92 C187.341,104.436 163.44,80.535 133.956,80.535" id="Fill-3" fill="#174489"></path>
        <path d="M92.764,168.174 C91.895,167.13 91.063,166.054 90.274,164.945 C94.23,164.041 98.499,163.922 102.317,162.581 C102.812,162.248 103.309,161.92 103.803,161.591 C104.632,161.258 105.293,160.432 106.285,159.937 C107.606,158.943 108.599,157.785 109.096,156.133 C109.096,155.968 108.929,155.803 108.929,155.803 C106.781,158.119 104.298,159.937 101.654,161.258 C98.183,163.077 94.381,162.749 90.743,163.242 C90.908,162.912 91.239,162.912 91.571,162.912 C91.571,162.415 91.903,162.248 92.231,161.92 C92.397,161.92 92.561,161.92 92.729,161.92 C92.893,161.92 92.893,161.591 93.058,161.591 C93.389,161.591 93.885,161.424 93.719,161.424 C93.225,160.763 92.231,161.92 91.405,161.424 C91.736,161.094 91.571,160.598 91.903,160.432 C92.065,160.432 92.397,160.432 92.561,160.432 C92.561,160.101 92.893,159.772 92.893,159.772 C95.371,158.284 97.689,157.124 100.002,155.803 C99.506,155.803 99.175,156.299 98.68,155.968 C99.01,155.968 98.68,155.472 99.01,155.472 C100.829,154.976 102.317,153.988 104.136,153.324 C103.474,153.324 102.977,153.82 102.317,153.324 C102.646,153.155 102.812,152.828 103.309,152.828 C103.309,152.663 103.309,152.499 103.309,152.332 C103.309,152.167 103.474,152.167 103.639,152.167 C103.474,152.167 103.309,151.999 103.309,151.999 C103.474,151.669 103.97,151.836 104.298,151.506 C104.136,151.506 103.803,151.506 103.803,151.34 C104.298,150.679 105.127,150.511 105.952,150.346 C105.789,150.016 105.293,150.346 105.293,150.016 C105.293,149.851 105.457,149.851 105.623,149.851 C105.457,149.851 105.457,149.851 105.293,149.851 C104.962,149.687 105.127,149.354 105.127,149.193 C106.12,148.032 106.12,146.545 106.613,145.223 C106.452,145.223 106.285,145.223 106.285,145.055 C104.632,146.876 101.986,147.537 99.506,148.198 C99.341,148.198 98.845,148.198 98.68,148.198 C97.852,148.53 96.696,148.53 95.869,148.032 C95.206,147.702 94.878,147.206 94.215,146.713 C92.893,145.885 91.571,145.223 90.083,144.725 C87.168,143.792 84.169,143.189 81.147,142.973 C81.079,142.571 81.014,142.168 80.954,141.764 C81.681,141.614 82.413,141.468 83.139,141.255 C85.951,140.428 88.596,139.436 91.571,139.599 C91.074,139.436 90.414,139.599 89.918,139.599 C87.604,139.436 85.289,140.095 82.808,140.594 C82.139,140.727 81.498,140.914 80.863,141.113 C80.752,140.285 80.661,139.452 80.588,138.613 C80.93,138.525 81.284,138.467 81.651,138.444 C84.627,137.949 87.438,138.444 90.414,138.775 C92.561,138.941 94.547,139.436 96.696,139.935 C97.521,139.935 97.689,141.255 98.349,141.419 C99.341,141.75 100.332,141.419 101.325,142.08 C101.325,141.75 101.16,141.419 101.325,141.092 C101.986,140.428 102.812,141.255 103.474,140.924 C104.798,140.095 102.317,138.607 101.654,137.451 C101.654,137.288 101.821,137.12 101.821,137.12 C103.142,138.279 104.136,139.599 105.789,140.428 C106.613,140.759 108.599,141.255 108.267,140.263 C107.442,138.444 105.789,136.957 104.466,135.302 C104.466,135.139 104.466,134.809 104.466,134.641 C104.136,134.641 104.136,134.476 103.97,134.308 C103.97,134.145 103.97,133.815 103.97,133.652 C103.309,133.319 103.474,132.655 103.142,132.162 C102.646,131.336 102.977,130.176 102.646,129.184 C102.317,128.195 102.15,127.367 101.986,126.375 C101.491,123.566 100.829,121.086 100.499,118.44 C100.168,115.3 102.317,112.819 103.803,110.009 C104.962,108.026 106.285,106.043 108.432,104.718 C108.929,102.735 110.252,101.082 111.575,99.43 C112.894,97.815 114.863,96.983 116.675,96.121 C129.282,90.433 145,91.594 157.362,96.121 C158.574,96.756 159.751,97.552 160.51,98.769 C160.842,99.261 161.337,100.254 161.007,100.915 C160.676,101.743 160.51,103.063 159.684,103.396 C158.693,103.895 157.369,103.895 156.211,103.727 C155.55,103.727 154.89,103.561 154.229,103.396 C156.707,104.388 159.022,105.544 160.676,107.861 C160.842,108.189 161.503,108.356 162.163,108.356 C162.33,108.356 162.33,108.687 162.33,108.85 C161.997,109.183 161.667,109.348 161.833,109.841 C161.997,109.841 162.163,109.841 162.33,109.841 C163.155,109.51 162.99,107.861 164.147,108.356 C164.974,108.85 165.304,110.009 164.808,110.835 C164.147,111.496 163.487,111.992 162.825,112.488 C162.659,112.819 162.659,113.314 162.825,113.647 C163.321,114.306 163.487,114.967 163.65,115.628 C164.147,116.787 164.312,118.109 164.808,119.267 C165.471,121.745 166.132,124.224 165.965,126.708 C165.965,128.028 165.304,129.184 165.801,130.508 C166.132,131.832 166.958,132.823 167.619,133.982 C168.281,134.972 168.942,135.635 169.44,136.627 C170.43,138.279 172.248,139.935 171.422,141.915 C170.928,143.075 169.107,142.907 167.951,143.568 C166.958,144.397 167.786,145.719 168.281,146.545 C169.107,148.032 167.288,149.024 166.132,149.52 C166.461,150.016 167.122,149.851 167.288,150.181 C167.453,151.01 168.281,151.506 167.786,152.332 C167.122,153.324 165.14,153.82 166.132,155.307 C166.794,156.465 166.364,157.75 165.965,158.943 C165.471,160.432 164.147,161.094 162.99,161.424 C161.997,161.753 160.842,161.753 159.85,161.591 C159.52,161.424 159.188,161.258 158.857,161.258 C156.047,160.928 153.237,160.101 150.427,160.101 C149.598,160.267 148.772,160.432 148.112,160.763 C145.318,162.782 143.541,165.678 142.515,168.762 C141.988,171.328 141.613,173.58 141.367,175.541 C138.937,175.933 139.704,176.141 133.904,176.141 C128.104,176.141 116.628,173.543 109.486,169.053 C109.59,168.953 109.691,168.856 109.787,168.762 C112.072,166.173 114.277,163.739 117.196,161.591 C117.36,161.424 117.36,161.094 117.527,160.928 C116.7,161.258 116.203,161.92 115.377,162.248 C115.21,162.248 115.049,162.085 115.21,161.92 C115.874,161.424 116.536,160.928 117.196,160.432 C117.196,160.598 117.031,160.598 116.863,160.598 C116.7,160.598 116.7,160.432 116.7,160.267 C114.55,159.937 112.898,161.424 111.409,162.749 C111.079,162.912 110.749,162.581 110.583,162.581 C108.103,163.407 106.285,165.558 103.803,166.547 C103.803,166.384 103.803,166.384 103.803,166.219 C102.812,166.547 101.85,167.149 100.829,167.376 C99.341,167.707 98.017,167.541 96.696,167.541 C95.385,167.673 94.074,167.907 92.764,168.174 Z M85.178,156.104 C83.947,153.4 82.934,150.576 82.162,147.654 C86.625,148.895 91.178,150.15 94.878,152.994 C91.764,154.549 88.532,155.378 85.178,156.104 Z M80.421,135.878 L80.408,135.546 C80.493,135.574 80.577,135.604 80.659,135.635 C80.586,135.733 80.506,135.812 80.421,135.878 Z M159.684,126.375 C158.708,126.131 157.865,126.375 156.873,126.375 C155.55,126.708 154.394,126.871 153.237,127.367 C154.229,126.708 155.22,126.045 156.377,125.715 C157.204,125.546 158.03,125.053 158.857,125.053 C159.85,124.888 160.842,124.558 161.667,124.888 C162.493,125.219 163.817,125.219 163.984,125.715 C164.312,126.708 163.487,127.698 162.493,128.359 C162.33,128.69 162.99,128.854 162.99,129.184 C162.825,129.518 162.33,129.683 161.997,129.683 C161.667,129.847 161.337,130.344 161.007,130.675 C161.337,130.675 161.007,131.171 161.337,131.171 C160.676,131.997 161.667,133.652 160.676,133.982 C159.52,134.308 158.198,134.308 156.873,133.982 C157.534,133.815 158.361,134.145 158.857,133.484 C158.857,133.319 158.857,132.988 158.857,132.823 C158.857,132.655 158.693,132.655 158.526,132.655 C158.361,132.823 158.198,132.823 158.198,132.823 C158.198,132.496 157.865,132.162 157.7,132.162 C156.707,132.328 155.88,131.832 155.22,131.171 C155.715,131.003 156.211,130.843 156.707,131.003 C157.204,131.003 157.038,130.176 157.534,129.847 C157.7,129.847 157.865,129.847 158.03,129.847 C159.022,128.524 161.007,128.195 161.337,126.871 C161.337,126.541 160.345,126.541 159.684,126.375 L159.684,126.375 Z" id="Fill-4" fill="#FFFFFE"></path>
        <path d="M83.974,96.967 L74.307,89.369 L75.932,87.301 L85.6,94.898 L83.974,96.967 Z M91.514,88.254 L83.916,78.585 L86.064,76.898 L94.765,79.163 C95.011,79.225 95.322,79.341 95.697,79.513 C96.07,79.686 96.491,79.906 96.959,80.173 C96.685,79.925 96.425,79.669 96.184,79.404 C95.94,79.14 95.651,78.795 95.32,78.374 L91.069,72.965 L93.043,71.414 L100.641,81.081 L98.613,82.675 L89.708,80.399 C89.463,80.337 89.152,80.22 88.781,80.044 C88.407,79.872 87.984,79.647 87.506,79.374 C87.773,79.616 88.028,79.867 88.272,80.134 C88.518,80.401 88.81,80.75 89.148,81.181 L93.488,86.702 L91.514,88.254 Z M111.442,75.935 L103.199,65.744 L105.949,64.813 L110.677,71.307 C110.768,71.443 110.93,71.696 111.155,72.068 C111.382,72.442 111.635,72.868 111.909,73.347 C111.808,72.824 111.734,72.356 111.688,71.942 C111.638,71.526 111.612,71.181 111.606,70.905 L111.474,62.943 L114.194,62.022 L113.804,75.136 L111.442,75.935 Z M125.421,72.263 L124.488,60.002 L131.707,59.452 L131.876,61.665 L127.28,62.015 L127.472,64.535 L132.067,64.185 L132.236,66.415 L127.642,66.764 L127.874,69.834 L132.47,69.484 L132.64,71.714 L125.421,72.263 Z M140.79,70.435 L142.523,69.065 C142.627,69.543 142.854,69.948 143.211,70.277 C143.566,70.605 143.995,70.813 144.497,70.902 C145.101,71.01 145.607,70.953 146.01,70.73 C146.414,70.505 146.658,70.15 146.745,69.665 C146.848,69.092 146.362,68.417 145.293,67.638 C144.947,67.39 144.672,67.187 144.473,67.032 C143.513,66.293 142.875,65.623 142.564,65.022 C142.248,64.425 142.156,63.761 142.287,63.034 C142.465,62.035 143.005,61.287 143.911,60.785 C144.816,60.286 145.9,60.147 147.161,60.373 C147.892,60.503 148.502,60.743 148.989,61.095 C149.473,61.447 149.873,61.931 150.182,62.548 L148.392,63.737 C148.274,63.352 148.078,63.046 147.811,62.818 C147.542,62.592 147.197,62.44 146.773,62.364 C146.26,62.273 145.825,62.326 145.467,62.527 C145.107,62.728 144.89,63.033 144.817,63.439 C144.703,64.08 145.219,64.775 146.369,65.527 C146.598,65.676 146.773,65.791 146.894,65.878 C147.835,66.529 148.5,67.192 148.888,67.869 C149.277,68.547 149.402,69.266 149.267,70.019 C149.064,71.156 148.516,71.993 147.62,72.529 C146.725,73.065 145.624,73.217 144.318,72.984 C143.392,72.819 142.628,72.516 142.022,72.079 C141.419,71.643 141.007,71.094 140.79,70.435 Z M164.838,68.644 L160.693,77.81 L158.296,76.726 L162.44,67.56 L159.697,66.319 L160.619,64.282 L168.501,67.846 L167.58,69.883 L164.838,68.644 Z M170.024,83.328 L177.149,73.307 L179.294,74.832 L172.169,84.852 L170.024,83.328 Z M184.604,97.498 L182.619,95.205 L184.845,89.007 L180.506,92.766 L178.783,90.778 L188.077,82.727 L190.543,85.573 C191.521,86.701 192.034,87.736 192.082,88.68 C192.13,89.62 191.716,90.473 190.834,91.236 C190.195,91.79 189.481,92.07 188.697,92.078 C187.908,92.087 187.214,91.821 186.611,91.277 L184.604,97.498 Z M185.836,88.15 L186.094,88.449 C186.789,89.25 187.337,89.704 187.736,89.81 C188.135,89.916 188.551,89.779 188.987,89.401 C189.443,89.005 189.648,88.585 189.601,88.141 C189.555,87.699 189.201,87.096 188.538,86.331 L188.279,86.033 L185.836,88.15 L185.836,88.15 Z" id="Fill-5" fill="#174489"></path>
        <path d="M81.002,187.737 L89.522,178.872 L91.419,180.695 L84.448,187.948 L87.474,190.856 L85.924,192.468 L81.002,187.737 Z M95.425,190.526 L99.654,187 L101.813,188.406 L96.768,191.4 L95.425,190.526 Z M109.82,200.542 L110.032,196.342 C110.041,196.219 110.07,196.011 110.12,195.725 C110.169,195.436 110.242,195.089 110.334,194.677 C110.118,195.019 109.917,195.325 109.739,195.593 C109.558,195.863 109.432,196.037 109.359,196.123 L106.658,199.263 L109.82,200.542 Z M100.807,201.942 L109.757,192.298 L112.544,193.425 L112.333,206.604 L109.562,205.483 L109.615,202.684 L105.199,200.898 L103.424,203 L100.807,201.942 Z M122.358,208.551 L119.292,195.807 L122.175,196.147 L123.656,204.043 C123.679,204.204 123.716,204.503 123.76,204.935 C123.805,205.37 123.85,205.864 123.891,206.414 C124.025,205.899 124.159,205.444 124.295,205.05 C124.429,204.654 124.554,204.33 124.667,204.079 L127.967,196.831 L130.82,197.168 L124.835,208.843 L122.358,208.551 Z M136.785,209.377 L135.851,197.117 L143.069,196.566 L143.238,198.778 L138.643,199.129 L138.835,201.649 L143.43,201.299 L143.6,203.528 L139.005,203.879 L139.239,206.947 L143.834,206.598 L144.004,208.827 L136.785,209.377 Z M152.558,207.331 L148.574,195.697 L151.158,194.812 L158.626,199.821 C158.838,199.96 159.092,200.173 159.39,200.459 C159.685,200.746 160.01,201.092 160.364,201.498 C160.187,201.174 160.026,200.847 159.885,200.516 C159.742,200.187 159.584,199.765 159.41,199.259 L157.181,192.751 L159.556,191.937 L163.54,203.57 L161.1,204.406 L153.444,199.32 C153.233,199.18 152.978,198.968 152.686,198.68 C152.39,198.393 152.064,198.042 151.703,197.625 C151.875,197.943 152.034,198.263 152.176,198.597 C152.32,198.929 152.481,199.356 152.658,199.873 L154.933,206.518 L152.558,207.331 Z M171.408,199.459 L165.189,188.851 L167.459,187.52 L173.678,198.128 L171.408,199.459 Z M187.696,187.252 L185.39,189.221 L179.208,186.95 L182.935,191.317 L180.934,193.025 L172.95,183.673 L175.815,181.227 C176.95,180.258 177.989,179.753 178.933,179.712 C179.873,179.669 180.723,180.09 181.48,180.977 C182.029,181.621 182.304,182.336 182.307,183.121 C182.31,183.91 182.038,184.602 181.49,185.201 L187.696,187.252 Z M178.357,185.954 L178.658,185.697 C179.464,185.008 179.922,184.463 180.031,184.065 C180.14,183.667 180.006,183.25 179.631,182.812 C179.239,182.352 178.821,182.144 178.376,182.188 C177.934,182.23 177.328,182.581 176.559,183.238 L176.258,183.495 L178.357,185.954 L178.357,185.954 Z" id="Fill-6" fill="#174489"></path>
    </g>
</svg>