<svg viewBox="0 0 348 313" xmlns="http://www.w3.org/2000/svg">
  <g fill="none" fill-rule="evenodd">
    <path d="M178.124 1.9c-.178.275-.324 55.381-.324 122.458v121.958l-2 .56c-25.109 7.039-33.45 37.433-15.311 55.79 2.099 2.123 7.751 6.334 8.502 6.334.12 0 .981.341 1.913.757 6.294 2.809 15.131 3.49 21.696 1.673 30.53-8.451 33.633-49.624 4.737-62.859-1.406-.644-2.814-1.171-3.128-1.171-.995 0-2.587-.897-2.771-1.561-.097-.351-.3-55.359-.45-122.239-.15-66.88-.355-121.735-.454-121.9-.329-.546-12.05-.357-12.41.2m12.592 258.264c18.092 6.656 17.988 31.608-.16 38.1-10.517 3.762-21.406-1.833-25.816-13.264-.808-2.094-.699-9.693.174-12.12 3.841-10.682 15.591-16.472 25.802-12.716" fill="#24449C"/>
    <path d="M335.6 48.586c-1.87.625-7.99 2.608-13.6 4.408-5.61 1.8-11.73 3.777-13.6 4.395-1.87.617-6.91 2.239-11.2 3.603-4.29 1.365-9.33 2.988-11.2 3.608-1.87.62-6.91 2.24-11.2 3.6-4.29 1.36-9.33 2.982-11.2 3.604-1.87.623-6.91 2.243-11.2 3.601-4.29 1.358-9.33 2.978-11.2 3.6-1.87.622-6.91 2.237-11.2 3.589-9.47 2.985-9.909 3.145-11.328 4.123-.875.603-12.672 23.409-12.672 24.497 0 .053-3.285 6.732-7.3 14.841l-7.3 14.745-.113 15.236-.114 15.236 32.164.284c17.691.156 32.682.157 33.314.001 2.077-.512 2.77-1.277 11.601-12.814 4.812-6.285 10.458-13.638 12.548-16.341 2.09-2.703 8.03-10.442 13.2-17.198s11.11-14.496 13.2-17.2c2.09-2.704 8.03-10.444 13.2-17.2 5.17-6.756 11.11-14.497 13.2-17.203 13.922-18.023 13.594-17.54 13.598182-20.007C347.206 48.12 342.752 46.197 335.6 48.586M3.55 61.176C1.843 62.336.8009993 64.341.8009993 66.46.8009993 68.246.784 68.21 10.51 85.8c3.954 7.15 7.684 13.9 8.29 15 .606 1.1 4.386 7.94 8.4 15.2 4.014 7.26 7.794 14.1 8.4 15.2.606 1.1 4.386 7.94 8.4 15.2 4.014 7.26 7.794 14.1 8.4 15.2.606 1.1 4.386 7.94 8.4 15.2 9.075 16.415 8.351 15.103 12.753 23.088 5.35 9.702 3.213 8.643 22.447 11.125 1.87.241 4.66.601 6.2.8 1.54.199 4.285.547 6.1.774 5.273.66 9.702 1.231 12.5 1.613 2.799.382 7.284.961 12.4 1.6 1.76.22 4.685.592 6.5.826 1.815.234 4.56.588 6.1.787 1.54.199 4.33.559 6.2.8s4.66.601 6.2.8c1.54.199 4.33.557 6.2.797 1.87.239 4.57.598 6 .797 1.43.198 3.725.476 5.1.616l2.5.256v-28.645c0-18.044-.146-28.902-.393-29.339-.217-.382-1.119-3.305-2.004-6.495-.886-3.19-1.789-6.43-2.006-7.2-.563-1.996-4.472-16.026-7.021-25.2-3.347-12.047-3.362-12.09-4.751-13.4-.7-.66-2.432-1.59-3.849-2.066-1.417-.477-10.946-3.6-21.176-6.942-10.23-3.341-20.67-6.759-23.2-7.595-6.457-2.133-29.53-9.702-41.2-13.514-13.672-4.466-45.338-14.829-55.397-18.128-9.435-3.096-11.177-3.326-13.453-1.779M299.597024 74.1c-.001024.165-3.891024 3.09-8.644024 6.5-17.168 12.317-39.813 28.584-52.481 37.698-7.11 5.116-14.076 10.112-15.48 11.102-1.404.99-5.61 4.005-9.347 6.7-3.737 2.695-6.985 4.9-7.219 4.9-.844 0-1.775 2.028 12.848-28 2.732-5.61 5.586-11.512 6.342-13.115l1.375-2.915 10.004-3.222c5.503-1.773 11.535-3.726 13.405-4.341 1.87-.615 6.91-2.236 11.2-3.601 4.29-1.365 10.5-3.356 13.8-4.425 3.3-1.068 8.34-2.692 11.2-3.609 2.86-.916 6.73-2.173 8.6-2.794 3.62-1.2 4.402-1.356 4.397024-.878m9.710976 10c-.147.385-1.896 2.794-3.887 5.353-1.992 2.56-7.851 10.183-13.021 16.94-5.17 6.758-11.11 14.499-13.2 17.203-2.09 2.704-8.03 10.446-13.2 17.205-5.17 6.759-10.439 13.619-11.708 15.244L251.983 159l-12.291-.001c-18.306-.001-34.543-.447-34.377-.945.077-.229 6.877-5.251 15.112-11.158 8.235-5.908 18.303-13.13 22.373-16.049 4.07-2.919 11.99-8.608 17.6-12.643 5.61-4.035 14.97-10.757 20.8-14.938 16.33-11.711 19.858-14.253 23.774-17.129 3.768-2.768 4.797-3.251 4.334-2.037m-254.72 4.538c7.487 2.44 17.302 5.661 21.812 7.157 4.51 1.496 12.16 4.009 17 5.585 4.84 1.576 18.16 5.933 29.6 9.684 11.44 3.75 22.51 7.375 24.6 8.056 2.09.68 3.995 1.379 4.234 1.553.58.422.703.838 7.771 26.327 1.373 4.95 3.532 12.69 4.8 17.2 1.267 4.51 3.425 12.25 4.797 17.2 1.371 4.95 3.012 10.827 3.646 13.06 1.219 4.294 1.374 5.34.795 5.34-.299 0-10.978-9.145-32.443-27.784-2.09-1.815-11.45-9.913-20.8-17.996-9.35-8.084-18.8-16.264-21-18.179-2.2-1.915-13.45-11.653-25-21.64-18.653-16.129-31.102-26.923-33.271-28.848-1.98-1.757-2.076-1.78 13.459 3.285M37.563 99.2c11.399 9.819 35.892 30.994 44.399 38.384 2.289 1.989 6.352 5.506 9.027 7.816 8.125 7.015 28.149 24.341 32.573 28.184 2.289 1.989 6.351 5.506 9.025 7.816 28.25 24.398 29.868 25.893 27.113 25.036-.385-.119-2.14-.389-3.9-.598-3.193-.381-19.135-2.429-25.2-3.238-1.76-.235-7.34-.955-12.4-1.6-5.06-.645-10.64-1.366-12.4-1.602-1.76-.237-4.55-.594-6.2-.795-8.511-1.037-13.025-1.697-13.246-1.937-.135-.146-.926-1.526-1.759-3.066-.832-1.54-4.748-8.65-8.703-15.8-3.955-7.15-7.686-13.9-8.292-15-.606-1.1-4.386-7.94-8.4-15.2-4.014-7.26-7.794-14.1-8.4-15.2-.606-1.1-4.386-7.94-8.4-15.2-4.014-7.26-7.795-14.1-8.401-15.2-.607-1.1-1.935-3.507-2.951-5.349-1.016-1.841-1.848-3.618-1.848-3.949 0-.747-.498-1.134 8.363 6.498" fill="#EC262E"/>
    <path d="M177.625 1.57c-.362.436-.42 19.132-.247 79.7.199 69.544.155 78.985-.358 77.93-.321-.66-.592-1.041-.602-.846-.034.676.919 3.649 1.298 4.046.242.254.303-28.968.167-79.879-.175-65.584-.119-80.359.305-80.711.335-.278 2.64-.392 6.466-.321l5.946.111.241 65.8c.292 79.452.201 72.629.959 72 .625-.519.85-1.402.266-1.041-.419.259-.865-51.053-.866-99.426 0-20.167-.109-36.952-.243-37.3-.342-.893-12.595-.951-13.332-.063M338.71 46.93c-.38.151.547.273 2.06.272 1.512-.001 2.543-.134 2.29-.296-.568-.363-3.414-.347-4.35.024m-2.91.87l-.8.344.8.022c.44.012 1.07-.153 1.4-.366.795-.514-.204-.514-1.4 0m8.4-.143c2.037 1.807 2.787 2.334 2.002 1.406-.436-.515-1.155-1.122-1.598-1.349-.442-.227-.624-.252-.404-.057M323.6 51.8c-.533.345-.533.388 0 .388.33 0 .87-.175 1.2-.388.533-.345.533-.388 0-.388-.33 0-.87.175-1.2.388m24.101 1.8c.004.88.086 1.193.182.695.096-.497.092-1.217-.008-1.6-.1-.382-.179.025-.174.905M311 55.8c-.504.217-.578.344-.2.344.33 0 .96-.155 1.4-.344.504-.217.578-.344.2-.344-.33 0-.96.155-1.4.344m36.015.353c-.203.64-3.662 5.432-6.313 8.747-.22.275-.294.5-.166.5.68 0 7.332-9.466 6.933-9.864-.108-.108-.312.169-.454.617M4.94 59.706c-.253.162.778.295 2.29.296 1.513.001 2.44-.121 2.06-.272-.936-.371-3.782-.387-4.35-.024M2.487 61.3c-.957.935-.973.981-.106.306 1.707-1.33 1.788-1.406 1.505-1.406-.15 0-.78.495-1.399 1.1m10.713.1c.33.213.87.388 1.2.388.533 0 .533-.043 0-.388-.33-.213-.87-.388-1.2-.388-.533 0-.533.043 0 .388m2.4.8c.33.213.96.378 1.4.366l.8-.022-.8-.344c-1.196-.514-2.195-.514-1.4 0m271.8 1.2c-1.1.406-1.764.752-1.475.769.609.036 4.475-1.186 4.475-1.415 0-.303-1.031-.081-3 .646M.101 66.4c.004.88.086 1.193.182.695.096-.497.092-1.217-.008-1.6-.1-.382-.179.025-.174.905m278.699-.2c-.533.345-.533.388 0 .388.33 0 .87-.175 1.2-.388.533-.345.533-.388 0-.388-.33 0-.87.175-1.2.388m59.777 1.5c-2.16 2.7-2.301 2.9-2.049 2.9.124 0 1.056-1.08 2.072-2.4 2.187-2.842 2.168-3.24-.023-.5M276.2 67c-.504.217-.578.344-.2.344.33 0 .96-.155 1.4-.344.504-.217.578-.344.2-.344-.33 0-.96.155-1.4.344M37.6 69.4c.33.213.87.388 1.2.388.533 0 .533-.043 0-.388-.33-.213-.87-.388-1.2-.388-.533 0-.533.043 0 .388M265 70.6c-1.1.406-1.764.752-1.475.769.609.036 4.475-1.186 4.475-1.415 0-.303-1.031-.081-3 .646M2.22 72.24c.569 1.122 1.114 1.959 1.213 1.861.19-.191-1.782-3.901-2.074-3.901-.095 0 .293.918.861 2.04m332.357.66c-2.16 2.7-2.301 2.9-2.049 2.9.124 0 1.056-1.08 2.072-2.4 2.187-2.842 2.168-3.24-.023-.5M253.8 74.2l-.8.344.8.022c.44.012 1.07-.153 1.4-.366.795-.514-.204-.514-1.4 0M4.909 77c.763 1.43 1.605 3.02 1.871 3.534.267.514.568.851.671.749.102-.102-.363-1.116-1.033-2.252-.67-1.136-1.222-2.193-1.227-2.349-.005-.155-.382-.732-.839-1.282-.487-.587-.257.073.557 1.6M54.8 75c.33.213.87.388 1.2.388.533 0 .533-.043 0-.388-.33-.213-.87-.388-1.2-.388-.533 0-.533.043 0 .388m241.722-.143c-.262.107-.381.445-.264.75.17.443.367.459.978.078 1.28-.8.745-1.421-.714-.828M57.2 75.8c.33.213.87.388 1.2.388.533 0 .533-.043 0-.388-.33-.213-.87-.388-1.2-.388-.533 0-.533.043 0 .388m2.4.8c.33.213.87.388 1.2.388.533 0 .533-.043 0-.388-.33-.213-.87-.388-1.2-.388-.533 0-.533.043 0 .388m271.917.3c-1.298 1.497-7.147 9.3-6.972 9.3.102 0 1.757-2.025 3.676-4.5 1.92-2.475 3.668-4.725 3.884-5 .601-.765.101-.595-.588.2M63.4 77.8c1.1.406 2.27.738 2.6.738.33 0-.3-.332-1.4-.738-1.1-.406-2.27-.738-2.6-.738-.33 0 .3.332 1.4.738m179.2 0c-1.1.406-1.764.752-1.475.769.609.036 4.475-1.186 4.475-1.415 0-.303-1.031-.081-3 .646m50.4.432c-2.37 1.792-2.673 2.27-.52.822 1.033-.695 1.989-1.442 2.123-1.659.371-.601.136-.478-1.603.837M281.2 79.8c-.795.514.204.514 1.4 0l.8-.344-.8-.022c-.44-.012-1.07.153-1.4.366m-2.4.8c-.533.345-.533.388 0 .388.33 0 .87-.175 1.2-.388.533-.345.533-.388 0-.388-.33 0-.87.175-1.2.388m9.8.832c-2.37 1.792-2.673 2.27-.52.822 1.033-.695 1.989-1.442 2.123-1.659.371-.601.136-.478-1.603.837m-57.2-.032l-.8.344.8.022c.44.012 1.07-.153 1.4-.366.795-.514-.204-.514-1.4 0M8.64 83.802c.599 1.101 1.153 1.938 1.231 1.861.172-.173-1.863-3.863-2.13-3.863-.105 0 .299.901.899 2.002m275.017 1.174c-3.1 2.243-3.507 2.86-.535.814 2.158-1.486 3.265-2.425 2.802-2.377-.068.007-1.088.71-2.267 1.563m-62.587-.195c-.841.3-1.651.68-1.8.846-.148.165.09.162.53-.007.44-.169 1.385-.476 2.1-.682.715-.207 1.3-.457 1.3-.557 0-.28-.471-.192-2.13.4m85.23.845c-1.045.76-1.9 1.491-1.9 1.625 0 .134.618-.227 1.373-.804 1.588-1.21 2.153-1.351 1.399-.347-.302.402-.132.335.399-.158 1.629-1.514.695-1.747-1.271-.316m-264.7-.501c0 .069.582.654 1.294 1.3.711.646.953.77.538.275-.742-.883-.741-.9.006-.906.638-.005.665-.069.162-.394-.557-.36-2-.558-2-.275m175.816 1.928c-1.048 1.246-2.304 3.475-3.021 5.361-.727 1.911-.014.956 1.13-1.514.636-1.375 1.65-3.085 2.252-3.8.602-.715 1.004-1.3.894-1.3-.11 0-.674.564-1.255 1.253M10.6 87.4c.341.66.711 1.2.821 1.2.11 0-.08-.54-.421-1.2-.341-.66-.711-1.2-.821-1.2-.11 0 .08.54.421 1.2m248.2-.4c-.795.514.204.514 1.4 0l.8-.344-.8-.022c-.44-.012-1.07.153-1.4.366m64.744.3c-1.269 1.532-1.725 2.242-1.263 1.965.512-.307 2.288-2.665 2.008-2.665-.091 0-.426.315-.745.7m-18.951 2.2c-1.02 1.375-1.287 1.87-.594 1.1 1.532-1.703 2.93-3.6 2.652-3.6-.113 0-1.039 1.125-2.058 2.5M44.4279391 87.681C44.443 87.856 47.084 90.239 50.297 92.975c3.213 2.736 5.726 4.787 5.585 4.557-.423-.684-11.484-10.198-11.4540609-9.851M278 89.042c-3.14 2.293-3.469 2.808-.478.748 2.144-1.476 3.284-2.442 2.802-2.372-.068.01-1.114.741-2.324 1.624m23.657-.066c-1.179.852-2.349 1.778-2.6 2.056-.502.557 3.586-2.241 4.529-3.099 1.072-.976.239-.525-1.929 1.043M12.64 91.002c.599 1.101 1.153 1.938 1.231 1.861.172-.173-1.863-3.863-2.13-3.863-.105 0 .299.901.899 2.002m88.56-.802c.33.213.87.388 1.2.388.533 0 .533-.043 0-.388-.33-.213-.87-.388-1.2-.388-.533 0-.533.043 0 .388m217.2 3.656c-1.65 2.205-3.344 4.49-3.765 5.077L313.87 100l.8-.8c1.292-1.291 7.383-9.402 7.042-9.376062C321.54 89.837 320.05 91.651 318.4 93.856M103.6 91c.33.213.87.388 1.2.388.533 0 .533-.043 0-.388-.33-.213-.87-.388-1.2-.388-.533 0-.533.043 0 .388m2.4.8c.33.213.87.388 1.2.388.533 0 .533-.043 0-.388-.33-.213-.87-.388-1.2-.388-.533 0-.533.043 0 .388m166.4 1.242c-3.136 2.29-3.442 2.766-.525.816 1.362-.91 2.587-1.835 2.724-2.056.375-.608.183-.499-2.199 1.24m23.657-.066c-1.179.852-2.349 1.778-2.6 2.056-.502.557 3.586-2.241 4.529-3.099 1.072-.976.239-.525-1.929 1.043M108.6 92.6c.44.189 1.07.344 1.4.344.378 0 .304-.127-.2-.344-.44-.189-1.07-.344-1.4-.344-.378 0-.304.127.2.344m192 2c-1.016 1.32-1.701 2.398-1.523 2.395006.177-.003006.721-.588006 1.206-1.300006.486-.712 1.266-1.79 1.734-2.395.467-.605.755-1.1.64-1.1-.116 0-1.041 1.08-2.057 2.4m-286 0c.341.66.711 1.2.821 1.2.11 0-.08-.54-.421-1.2-.341-.66-.711-1.2-.821-1.2-.11 0 .08.54.421 1.2m15.4-.85c0 .432 2.003 4.05 2.242 4.05.096 0-.193-.72-.642-1.6-1.141-2.236-.831-2.073 3.855 2.029 2.28 1.996 4.136 3.481 4.1260402 3.3C39.57 101.348 38.625 100.431 37.481 99.492c-1.145-.94-3.161-2.689-4.481-3.888-2.367-2.149-3-2.54-3-1.854m206.6.45c-.504.217-.578.344-.2.344.33 0 .96-.155 1.4-.344.504-.217.578-.344.2-.344-.33 0-.96.155-1.4.344m-2.6.8c-.533.345-.533.388 0 .388.33 0 .87-.175 1.2-.388.533-.345.533-.388 0-.388-.33 0-.87.175-1.2.388M77.993 97.033c2.527.864 4.772 1.512 4.99 1.439.42-.14-8.5-3.095-9.183-3.042-.22.017 1.667.738 4.193 1.603m189.407-.401c-2.37 1.792-2.673 2.27-.52.822 1.033-.695 1.989-1.442 2.123-1.659.371-.601.136-.478-1.603.837m23.3.182c-1.045.766-1.9 1.482-1.9 1.589 0 .108.9-.451 2-1.241 1.709-1.228 2.323-1.794 1.9-1.752-.055.005-.955.637-2 1.404m5.85 3.086c-1.043 1.375-2.779 3.625-3.858 5-1.078 1.375-1.81 2.489-1.626 2.476.184-.013 1.684-1.827 3.334-4.032 1.65-2.205 3.33-4.445 3.733-4.977.404-.532.639-.967.524-.967-.116 0-1.064 1.125-2.107 2.5m-279.564-1c.349.715.72 1.3.824 1.3.398 0 .142-.637-.643-1.6l-.815-1 .634 1.3m39.441-.84c.015.187 1.221 1.326 2.68 2.531s2.528 1.989 2.375 1.741c-.449-.727-5.085-4.644-5.055-4.272m-24.027.29c0 .291 2.071 3.85 2.241 3.85.095 0-.284-.9-.841-2-.869-1.714-1.4-2.417-1.4-1.85m177.481 3.271c-.815 1.646-1.472 3.124-1.461 3.286.011.161.742-1.121 1.626-2.848.883-1.728 1.54-3.206 1.46-3.286-.079-.08-.811 1.202-1.625 2.848m50.352.176c-2.402 1.748-4.562 3.395-4.8 3.661-.238.266.557-.213 1.767-1.064 1.21-.852 3.321-2.335 4.692-3.297 2.122-1.488 3.303-2.525 2.832-2.487-.068.006-2.089 1.44-4.491 3.187m24.867-.983c-1.045.766-1.9 1.493-1.9 1.615 0 .258 3.574-2.263 3.857-2.72.317-.514.024-.349-1.957 1.105m27.077 1.286c-2.16 2.7-2.301 2.9-2.049 2.9.124 0 1.056-1.08 2.072-2.4 2.187-2.842 2.168-3.24-.023-.5m-293.157.54c.569 1.122 1.114 1.959 1.213 1.861.19-.191-1.782-3.901-2.074-3.901-.095 0 .293.918.861 2.04m22.58.768c3.562 3.34 15.599 13.629 15.5770301 13.314C57.164 116.545 54.869 114.463 52.077 112.095c-2.792-2.367-5.797-4.944-6.677-5.725-.88-.782-2.5-2.147-3.6-3.035l-2-1.614 1.8 1.687m-6.791-.508c.005.165.376.75.824 1.3l.815 1-.634-1.3c-.603-1.235-1.025-1.655-1.005-1m27.2189391-.019c.0150609.175 2.6560609 2.558 5.8690609 5.294 3.213 2.736 5.726 4.787 5.585 4.557-.423-.684-11.484-10.198-11.4540609-9.851M280.707 103.926c-1.041.7-1.896 1.42-1.90001 1.599-.00699.331 3.50201-2.054 3.85001-2.616.285-.462.112-.372-1.95 1.017m-58.867 4.514c-2.696 5.585-2.928 6.586-.361 1.56 2.021-3.958 3.021-6.2 2.766-6.2-.091 0-1.173 2.088-2.405 4.64M21.709 107.4c.763 1.43 1.605 3.02 1.871 3.534.267.514.568.851.671.749.102-.102-.363-1.116-1.033-2.252-.67-1.136-1.222-2.193-1.227-2.349-.005-.155-.382-.732-.839-1.282-.487-.587-.257.073.557 1.6m81.691-2c1.196.514 2.195.514 1.4 0-.33-.213-.96-.378-1.4-.366l-.8.022.8.344m44.2 0c.33.213.87.388 1.2.388.533 0 .533-.043 0-.388-.33-.213-.87-.388-1.2-.388-.533 0-.533.043 0 .388m160.577 1.9c-2.16 2.7-2.301 2.9-2.049 2.9.124 0 1.056-1.08 2.072-2.4 2.187-2.842 2.168-3.24-.023-.5M150 106.2c.33.213.87.388 1.2.388.533 0 .533-.043 0-.388-.33-.213-.87-.388-1.2-.388-.533 0-.533.043 0 .388m102.457 1.176c-3.1 2.243-3.507 2.86-.535.814 2.158-1.486 3.265-2.425 2.802-2.377-.068.007-1.088.71-2.267 1.563m23.772-.168c-1.085.75-2.255 1.67-2.6 2.045-.633.686 3.266-1.927 4.357-2.92.977-.889.32-.562-1.757.875M152.4 107c.33.213.87.388 1.2.388.533 0 .533-.043 0-.388-.33-.213-.87-.388-1.2-.388-.533 0-.533.043 0 .388m-114.6 1.2c.341.66.711 1.2.821 1.2.11 0-.08-.54-.421-1.2-.341-.66-.711-1.2-.821-1.2-.11 0 .08.54.421 1.2m117-.4c.33.213.96.378 1.4.366l.8-.022-.8-.344c-1.196-.514-2.195-.514-1.4 0m134.575 1.468c-.616.808-.916 1.343-.666 1.188.512-.316 2.244-2.656 1.966-2.656-.099 0-.684.661-1.3 1.468m-130.617-.231c.967.429 1.83.708 1.917.621.173-.172-2.91-1.476-3.383-1.43-.161.016.499.38 1.466.809m-119.952.813c-.009.355 2.027 3.95 2.236 3.95.096 0-.182-.675-.618-1.5-.946-1.789-1.609-2.794-1.618-2.45m123.483 1.35c.677.88 1.355 2.019 1.507 2.53.152.512.361.846.464.743.372-.372-.983-2.896-2.078-3.873-1.121-.999-1.121-.999.107.6m84.511.242c-3.14 2.293-3.469 2.808-.478.748 2.144-1.476 3.284-2.442 2.802-2.372-.068.01-1.114.741-2.324 1.624m23.657-.066c-1.179.852-2.349 1.778-2.6 2.056-.502.557 3.586-2.241 4.529-3.099 1.072-.976.239-.525-1.929 1.043m34.66-.076c-1.298 1.497-7.147 9.3-6.972 9.3.102 0 1.757-2.025 3.676-4.5 1.92-2.475 3.668-4.725 3.884-5 .601-.765.101-.595-.588.2m-19.757 3.2c-1.488 1.925-3.258 4.213-3.933 5.085-.675.872-1.026 1.461-.781 1.31.515-.318 7.872-9.895 7.601-9.895-.099 0-1.398 1.575-2.887 3.5m-259.92-.298c.599 1.101 1.153 1.938 1.231 1.861.172-.173-1.863-3.863-2.13-3.863-.105 0 .299.901.899 2.002m48.587939-.921c.015061.175 2.656061 2.558 5.869061 5.294 3.213 2.736 5.726 4.787 5.585 4.557-.423-.684-11.484-10.198-11.454061-9.851M202.427 116.915c-1.998 4.01-2.909 6.085-2.672 6.085.231 0 4.691-9.287 4.535-9.443-.07-.07-.908 1.441-1.863 3.358M130.2 114.2c1.196.514 2.195.514 1.4 0-.33-.213-.96-.378-1.4-.366l-.8.022.8.344m111.6.832c-2.37 1.792-2.673 2.27-.52.822 1.033-.695 1.989-1.442 2.123-1.659.371-.601.136-.478-1.603.837m23.3.182c-1.045.766-1.9 1.482-1.9 1.589 0 .108.9-.451 2-1.241 1.709-1.228 2.323-1.794 1.9-1.752-.055.005-.955.637-2 1.404m-223.3.186c.341.66.711 1.2.821 1.2.11 0-.08-.54-.421-1.2-.341-.66-.711-1.2-.821-1.2-.11 0 .08.54.421 1.2m122.606.233c.003.422.189 1.037.412 1.367.297.438.334.276.138-.6-.329-1.471-.558-1.79-.55-.767M27.4 117.8c.341.66.711 1.2.821 1.2.11 0-.08-.54-.421-1.2-.341-.66-.711-1.2-.821-1.2-.11 0 .08.54.421 1.2m15.406-.75c-.009.355 2.027 3.95 2.236 3.95.096 0-.182-.675-.618-1.5-.946-1.789-1.609-2.794-1.618-2.45m14.912.218c.423.684 11.484 10.198 11.4540609 9.851C69.157 126.944 66.516 124.561 63.303 121.825c-3.213-2.736-5.726-4.787-5.585-4.557m107.488 1.165c.003.422.189 1.037.412 1.367.297.438.334.276.138-.6-.329-1.471-.558-1.79-.55-.767m70.994.599c-2.37 1.792-2.673 2.27-.52.822 1.033-.695 1.989-1.442 2.123-1.659.371-.601.136-.478-1.603.837m23.3.182c-1.045.766-1.9 1.482-1.9 1.589 0 .108.9-.451 2-1.241 1.709-1.228 2.323-1.794 1.9-1.752-.055.005-.955.637-2 1.404m-230.06 2.188c.599 1.101 1.153 1.938 1.231 1.861.172-.173-1.863-3.863-2.13-3.863-.105 0 .299.901.899 2.002m121.037-.548c.922.383 1.54.938 1.645 1.479l.169.867.055-.89c.054-.884-1.64-2.136-2.826-2.089-.286.011.144.296.957.633m63.781 3.173c-2.469 5.108-2.341 5.403.187.431 1.103-2.168 1.93-4.017 1.838-4.108-.091-.092-1.003 1.563-2.025 3.677m-48.202-2.627c0 .33.155.96.344 1.4.217.504.344.578.344.2 0-.33-.155-.96-.344-1.4-.217-.504-.344-.578-.344-.2m65.744.832c-2.37 1.792-2.673 2.27-.52.822 1.033-.695 1.989-1.442 2.123-1.659.371-.601.136-.478-1.603.837m23 .396c-1.21.874-3.321 2.35-4.692 3.28-1.37.931-2.495 1.848-2.500021 2.039-.003979.192.577021-.089 1.292021-.623.715-.534 2.875-2.106 4.8-3.494 2.98-2.148 3.899-2.908 3.4-2.811-.055.011-1.09.735-2.3 1.609m42.344-.928c-1.269 1.532-1.725 2.242-1.263 1.965.512-.307 2.288-2.665 2.008-2.665-.091 0-.426.315-.745.7m-251.894-.091c.327.891 3.619 6.591 3.806 6.591.245 0-3.018-6.042-3.564-6.6-.261-.266-.342-.264-.242.009m232.943 2.291c-1.02 1.375-1.287 1.87-.594 1.1 1.532-1.703 2.93-3.6 2.652-3.6-.113 0-1.039 1.125-2.058 2.5m-192.165061-.219c.015061.175 2.656061 2.558 5.869061 5.294 3.213 2.736 5.726 4.787 5.585 4.557-.423-.684-11.484-10.198-11.454061-9.851m66.616061.719c.329 1.471.558 1.79.55.767-.003-.422-.189-1.037-.412-1.367-.297-.438-.334-.276-.138.6M31.4 125c.341.66.711 1.2.821 1.2.11 0-.08-.54-.421-1.2-.341-.66-.711-1.2-.821-1.2-.11 0 .08.54.421 1.2m135.456-.8c0 .33.155.96.344 1.4.217.504.344.578.344.2 0-.33-.155-.96-.344-1.4-.217-.504-.344-.578-.344-.2m60.001 1.576c-3.1 2.243-3.507 2.86-.535.814 2.158-1.486 3.265-2.425 2.802-2.377-.068.007-1.088.71-2.267 1.563m65.143 2.48c-1.65 2.205-3.344 4.49-3.765 5.077l-.765 1.067.8-.8c1.292-1.291 7.383-9.402 7.042-9.376062-.172.013062-1.662 1.827062-3.312 4.032062M153.234 126.6c.012.33.177.96.366 1.4l.344.8.022-.8c.012-.44-.153-1.07-.366-1.4-.345-.533-.385-.533-.366 0m14.422.4c0 .33.155.96.344 1.4.217.504.344.578.344.2 0-.33-.155-.96-.344-1.4-.217-.504-.344-.578-.344-.2m106.544 2c-1.016 1.32-1.701 2.398-1.523 2.395006.177-.003006.721-.588006 1.206-1.300006.486-.712 1.266-1.79 1.734-2.395.467-.605.755-1.1.64-1.1-.116 0-1.041 1.08-2.057 2.4m-203.16-.139c3.505 3.29 10.159 8.981 10.13407 8.668-.01407-.181-.86907-1.028-1.90007-1.881-1.03-.854-3.044-2.587-4.474-3.85-3.524-3.114-6.055-5.091-3.76-2.937m-37.254.439c.349.715.72 1.3.824 1.3.398 0 .142-.637-.643-1.6l-.815-1 .634 1.3m161.695 1.921c-.815 1.646-1.472 3.124-1.461 3.286.011.161.742-1.121 1.626-2.848.883-1.728 1.54-3.206 1.46-3.286-.079-.08-.811 1.202-1.625 2.848m25.719-1.379c-3.14 2.293-3.469 2.808-.478.748 2.144-1.476 3.284-2.442 2.802-2.372-.068.01-1.114.741-2.324 1.624m23.829-.234c-1.085.75-2.255 1.67-2.6 2.045-.633.686 3.266-1.927 4.357-2.92.977-.889.32-.562-1.757.875M49.2 128.75c0 .291 2.071 3.85 2.241 3.85.095 0-.284-.9-.841-2-.869-1.714-1.4-2.417-1.4-1.85m104.856.65c0 .33.155.96.344 1.4.217.504.344.578.344.2 0-.33-.155-.96-.344-1.4-.217-.504-.344-.578-.344-.2m14.378.6c-.012.44.153 1.07.366 1.4.514.795.514-.204 0-1.4l-.344-.8-.022.8M35.82 133.04c.569 1.122 1.114 1.959 1.213 1.861.19-.191-1.782-3.901-2.074-3.901-.095 0 .293.918.861 2.04m119.036-.84c0 .33.155.96.344 1.4.217.504.344.578.344.2 0-.33-.155-.96-.344-1.4-.217-.504-.344-.578-.344-.2m115.294 2.1c-1.043 1.375-2.779 3.625-3.858 5-1.078 1.375-1.81 2.489-1.626 2.476.184-.013 1.684-1.827 3.334-4.032 1.65-2.205 3.33-4.445 3.733-4.977.404-.532.639-.967.524-.967-.116 0-1.064 1.125-2.107 2.5m-100.944-1.467c.003.422.189 1.037.412 1.367.297.438.334.276.138-.6-.329-1.471-.558-1.79-.55-.767m46.394 1.009c-3.14 2.293-3.469 2.808-.478.748 2.144-1.476 3.284-2.442 2.802-2.372-.068.01-1.114.741-2.324 1.624m23.657-.066c-1.179.852-2.349 1.778-2.6 2.056-.502.557 3.586-2.241 4.529-3.099 1.072-.976.239-.525-1.929 1.043M51.609 133.3c.005.165.376.75.824 1.3l.815 1-.634-1.3c-.603-1.235-1.025-1.655-1.005-1m156.613 3.136c-.782 1.669-1.422 3.199-1.422 3.4 0 .517.699.452 1.038-.098.177-.286.11-.353-.176-.176-.674.416-.579.043.557-2.2 1.175-2.319 1.836-3.962 1.593-3.962-.093 0-.809 1.366-1.59 3.036M98 133.978c0 .238 1.179 1.328 3.9 3.605 2.358 1.973 1.352.761-1.3-1.568-1.43-1.255-2.6-2.172-2.6-2.037m187.777 2.522c-2.16 2.7-2.301 2.9-2.049 2.9.124 0 1.056-1.08 2.072-2.4 2.187-2.842 2.168-3.24-.023-.5m-129.933-.5c.329 1.471.558 1.79.55.767-.003-.422-.189-1.037-.412-1.367-.297-.438-.334-.276-.138.6m14.162-.367c.003.422.189 1.037.412 1.367.297.438.334.276.138-.6-.329-1.471-.558-1.79-.55-.767M38.509 137.8c.763 1.43 1.605 3.02 1.871 3.534.267.514.568.851.671.749.102-.102-.363-1.116-1.033-2.252-.67-1.136-1.222-2.193-1.227-2.349-.005-.155-.382-.732-.839-1.282-.487-.587-.257.073.557 1.6m172.091-.368c-2.37 1.792-2.673 2.27-.52.822 1.033-.695 1.989-1.442 2.123-1.659.371-.601.136-.478-1.603.837m23.3.182c-1.045.766-1.9 1.482-1.9 1.589 0 .108.9-.451 2-1.241 1.709-1.228 2.323-1.794 1.9-1.752-.055.005-.955.637-2 1.404m-179.3.986c.341.66.711 1.2.821 1.2.11 0-.08-.54-.421-1.2-.341-.66-.711-1.2-.821-1.2-.11 0 .08.54.421 1.2m28.6.808c3.562 3.34 15.599 13.629 15.57703 13.314-.01303-.177-2.30803-2.259-5.10003-4.627-2.792-2.367-5.797-4.944-6.677-5.725-.88-.782-2.5-2.147-3.6-3.035l-2-1.614 1.8 1.687m73.444-.608c.329 1.471.558 1.79.55.767-.003-.422-.189-1.037-.412-1.367-.297-.438-.334-.276-.138.6m14.212-.2c0 .33.155.96.344 1.4.217.504.344.578.344.2 0-.33-.155-.96-.344-1.4-.217-.504-.344-.578-.344-.2m-67.228061.281c.015061.175 2.656061 2.558 5.869061 5.294 3.213 2.736 5.726 4.787 5.585 4.557-.423-.684-11.484-10.198-11.454061-9.851M281.777 141.7c-2.16 2.7-2.301 2.9-2.049 2.9.124 0 1.056-1.08 2.072-2.4 2.187-2.842 2.168-3.24-.023-.5m-226.168-1.2c.005.165.376.75.824 1.3l.815 1-.634-1.3c-.603-1.235-1.025-1.655-1.005-1m172.691 1.114c-1.045.766-1.9 1.493-1.9 1.615 0 .258 3.574-2.263 3.857-2.72.317-.514.024-.349-1.957 1.105M157.234 141c.012.33.177.96.366 1.4l.344.8.022-.8c.012-.44-.153-1.07-.366-1.4-.345-.533-.385-.533-.366 0m14.422.4c0 .33.155.96.344 1.4.217.504.344.578.344.2 0-.33-.155-.96-.344-1.4-.217-.504-.344-.578-.344-.2m91.319 2.268c-.616.808-.916 1.343-.666 1.188.512-.316 2.244-2.656 1.966-2.656-.099 0-.684.661-1.3 1.468m-220.735.934c.599 1.101 1.153 1.938 1.231 1.861.172-.173-1.863-3.863-2.13-3.863-.105 0 .299.901.899 2.002m115.816-.802c0 .33.155.96.344 1.4.217.504.344.578.344.2 0-.33-.155-.96-.344-1.4-.217-.504-.344-.578-.344-.2m65.851.926c-1.041.7-1.896 1.42-1.90001 1.599-.00699.331 3.50201-2.054 3.85001-2.616.285-.462.112-.372-1.95 1.017m-51.473-.326c-.012.44.153 1.07.366 1.4.514.795.514-.204 0-1.4l-.344-.8-.022.8M58.6 145.8c.341.66.711 1.2.821 1.2.11 0-.08-.54-.421-1.2-.341-.66-.711-1.2-.821-1.2-.11 0 .08.54.421 1.2m220.117-.1c-1.298 1.497-7.147 9.3-6.972 9.3.102 0 1.757-2.025 3.676-4.5 1.92-2.475 3.668-4.725 3.884-5 .601-.765.101-.595-.588.2m-19.757 3.2c-1.488 1.925-3.258 4.213-3.933 5.085-.675.872-1.026 1.461-.781 1.31.515-.318 7.872-9.895 7.601-9.895-.099 0-1.398 1.575-2.887 3.5m-100.104-2.3c0 .33.155.96.344 1.4.217.504.344.578.344.2 0-.33-.155-.96-.344-1.4-.217-.504-.344-.578-.344-.2m14.378.6c-.012.44.153 1.07.366 1.4.514.795.514-.204 0-1.4l-.344-.8-.022.8m46.195.808c-1.085.75-2.255 1.67-2.6 2.045-.633.686 3.266-1.927 4.357-2.92.977-.889.32-.562-1.757.875M44.2 148.2c.341.66.711 1.2.821 1.2.11 0-.08-.54-.421-1.2-.341-.66-.711-1.2-.821-1.2-.11 0 .08.54.421 1.2m15.406-.75c-.009.355 2.027 3.95 2.236 3.95.096 0-.182-.675-.618-1.5-.946-1.789-1.609-2.794-1.618-2.45m56.021939 1.831c.015061.175 2.656061 2.558 5.869061 5.294 3.213 2.736 5.726 4.787 5.585 4.557-.423-.684-11.484-10.198-11.454061-9.851m44.028061.119c0 .33.155.96.344 1.4.217.504.344.578.344.2 0-.33-.155-.96-.344-1.4-.217-.504-.344-.578-.344-.2m14.35.633c.003.422.189 1.037.412 1.367.297.438.334.276.138-.6-.329-1.471-.558-1.79-.55-.767M46.24 151.802c.599 1.101 1.153 1.938 1.231 1.861.172-.173-1.863-3.863-2.13-3.863-.105 0 .299.901.899 2.002m167.417.374c-1.179.852-2.349 1.778-2.6 2.056-.502.557 3.586-2.241 4.529-3.099 1.072-.976.239-.525-1.929 1.043m-151.607-.167c.327.891 3.619 6.591 3.806 6.591.245 0-3.018-6.042-3.564-6.6-.261-.266-.342-.264-.242.009m37.292 1.298c.435.703 11.462 10.165 11.43007 9.808-.01507-.173-2.65607-2.554-5.86907-5.29-3.213-2.736-5.716-4.769-5.561-4.518M48.2 155.4c.341.66.711 1.2.821 1.2.11 0-.08-.54-.421-1.2-.341-.66-.711-1.2-.821-1.2-.11 0 .08.54.421 1.2m160.03.702c-3.458 2.63-4.363 2.508 17.837 2.402l20.133-.096-19.7-.108c-11.99-.065-19.7-.255-19.7-.485 0-.207.81-.934 1.8-1.615 1.534-1.055 2.12-1.606 1.7-1.598-.055.001-.986.676-2.07 1.5M161.444 156c.329 1.471.558 1.79.55.767-.003-.422-.189-1.037-.412-1.367-.297-.438-.334-.276-.138.6m14.212-.2c0 .33.155.96.344 1.4.217.504.344.578.344.2 0-.33-.155-.96-.344-1.4-.217-.504-.344-.578-.344-.2m95.088.3c-1.269 1.532-1.725 2.242-1.263 1.965.512-.307 2.288-2.665 2.008-2.665-.091 0-.426.315-.745.7m-18.264 1.131c-.697.787-1.06 1.362-.808 1.278.461-.153 2.586-2.709 2.253-2.709-.098 0-.748.644-1.445 1.431m-90.446.969c.012.33.177.96.366 1.4l.344.8.022-.8c.012-.44-.153-1.07-.366-1.4-.345-.533-.385-.533-.366 0m-111.448 1.5c.349.715.72 1.3.824 1.3.398 0 .142-.637-.643-1.6l-.815-1 .634 1.3m215.014 2.956c-1.65 2.205-3.344 4.49-3.765 5.077l-.765 1.067.8-.8c1.292-1.291 7.383-9.402 7.042-9.376062-.172.013062-1.662 1.827062-3.312 4.032062M66 159.15c0 .291 2.071 3.85 2.241 3.85.095 0-.284-.9-.841-2-.869-1.714-1.4-2.417-1.4-1.85m61.627939.531c.015061.175 2.656061 2.558 5.869061 5.294 3.213 2.736 5.726 4.787 5.585 4.557-.423-.684-11.484-10.198-11.454061-9.851M162.856 161c0 .33.155.96.344 1.4.217.504.344.578.344.2 0-.33-.155-.96-.344-1.4-.217-.504-.344-.578-.344-.2M52.62 163.44c.569 1.122 1.114 1.959 1.213 1.861.19-.191-1.782-3.901-2.074-3.901-.095 0 .293.918.861 2.04m15.789.26c.005.165.376.75.824 1.3l.815 1-.634-1.3c-.603-1.235-1.025-1.655-1.005-1m42.897-.058c.426.699 11.497 10.233 11.468057 9.877-.014057-.175-.869057-1.018-1.900057-1.871-1.03-.854-3.044-2.587-4.474-3.85-3.742-3.307-5.403-4.662-5.094-4.156m52.35.158c0 .33.155.96.344 1.4.217.504.344.578.344.2 0-.33-.155-.96-.344-1.4-.217-.504-.344-.578-.344-.2m-108.347 4.4c.763 1.43 1.605 3.02 1.871 3.534.267.514.568.851.671.749.102-.102-.363-1.116-1.033-2.252-.67-1.136-1.222-2.193-1.227-2.349-.005-.155-.382-.732-.839-1.282-.487-.587-.257.073.557 1.6m16.091.8c.341.66.711 1.2.821 1.2.11 0-.08-.54-.421-1.2-.341-.66-.711-1.2-.821-1.2-.11 0 .08.54.421 1.2m188.375 1.3l-1.175 1.3 1.3-1.175c.715-.646 1.3-1.231 1.3-1.3 0-.309-.33-.037-1.425 1.175m-94.331.1c.329 1.471.558 1.79.55.767-.003-.422-.189-1.037-.412-1.367-.297-.438-.334-.276-.138.6m-25.817041-.32c.015041.176 3.913041 3.634 8.663041 7.685 4.75 4.05 8.519 7.172 8.374 6.938-.427-.691-17.067-14.972-17.037041-14.623m-67.2119711.72c.0020121.22.3710121.85.8210121 1.4.543.664.679.731.404.2-.674-1.305-1.228-2.028-1.2250121-1.6M191.298 208.9l.098 37.1.104-36.896.104-36.895 16.298-.109 16.298-.109-16.5-.096-16.5-.095.098 37.1m-25.054-35.7c.329 1.471.558 1.79.55.767-.003-.422-.189-1.037-.412-1.367-.297-.438-.334-.276-.138.6m80.475-.702c1.825.074 4.705.074 6.4-.001 1.695-.075.201-.136-3.319-.135-3.52 0-4.906.062-3.081.136M59.04 175.002c.599 1.101 1.153 1.938 1.231 1.861.172-.173-1.863-3.863-2.13-3.863-.105 0 .299.901.899 2.002m65.76.406c3.562 3.34 15.599 13.629 15.57703 13.314-.01303-.177-2.30803-2.259-5.10003-4.627-2.792-2.367-5.797-4.944-6.677-5.725-.88-.782-2.5-2.147-3.6-3.035l-2-1.614 1.8 1.687m-49.4.792c.341.66.711 1.2.821 1.2.11 0-.08-.54-.421-1.2-.341-.66-.711-1.2-.821-1.2-.11 0 .08.54.421 1.2m91.434-.8c.012.33.177.96.366 1.4l.344.8.022-.8c.012-.44-.153-1.07-.366-1.4-.345-.533-.385-.533-.366 0M61 178.6c.341.66.711 1.2.821 1.2.11 0-.08-.54-.421-1.2-.341-.66-.711-1.2-.821-1.2-.11 0 .08.54.421 1.2m15.406-.75c-.009.355 2.027 3.95 2.236 3.95.096 0-.182-.675-.618-1.5-.946-1.789-1.609-2.794-1.618-2.45m91.25.35c0 .33.155.96.344 1.4.217.504.344.578.344.2 0-.33-.155-.96-.344-1.4-.217-.504-.344-.578-.344-.2M63.04 182.202c.599 1.101 1.153 1.938 1.231 1.861.172-.173-1.863-3.863-2.13-3.863-.105 0 .299.901.899 2.002M168.456 181c0 .33.155.96.344 1.4.217.504.344.578.344.2 0-.33-.155-.96-.344-1.4-.217-.504-.344-.578-.344-.2m-89.606 1.409c.327.891 3.619 6.591 3.806 6.591.245 0-3.018-6.042-3.564-6.6-.261-.266-.342-.264-.242.009m90.594 2.391c.329 1.471.558 1.79.55.767-.003-.422-.189-1.037-.412-1.367-.297-.438-.334-.276-.138.6M65 185.8c.341.66.711 1.2.821 1.2.11 0-.08-.54-.421-1.2-.341-.66-.711-1.2-.821-1.2-.11 0 .08.54.421 1.2m92.227939-.519c.015061.175 2.656061 2.558 5.869061 5.294 3.213 2.736 5.726 4.787 5.585 4.557-.423-.684-11.484-10.198-11.454061-9.851M170.244 187.6c.329 1.471.558 1.79.55.767-.003-.422-.189-1.037-.412-1.367-.297-.438-.334-.276-.138.6m-102.858 2.5c.349.715.72 1.3.824 1.3.398 0 .142-.637-.643-1.6l-.815-1 .634 1.3m73.556-.793c.435.703 11.462 10.165 11.43007 9.808-.01507-.173-2.65607-2.554-5.86907-5.29-3.213-2.736-5.716-4.769-5.561-4.518m-58.142.243c0 .291 2.071 3.85 2.241 3.85.095 0-.284-.9-.841-2-.869-1.714-1.4-2.417-1.4-1.85m88.244.85c.329 1.471.558 1.79.55.767-.003-.422-.189-1.037-.412-1.367-.297-.438-.334-.276-.138.6M69.42 193.84c.569 1.122 1.114 1.959 1.213 1.861.19-.191-1.782-3.901-2.074-3.901-.095 0 .293.918.861 2.04m102.214-1.24c.012.33.177.96.366 1.4l.344.8.022-.8c.012-.44-.153-1.07-.366-1.4-.345-.533-.385-.533-.366 0m-86.421 1.362c-.05 1.407 2.084 3.036 3.907 2.985l1.88-.054-1.973-.273c-1.242-.172-2.131-.536-2.4-.981-.799-1.326-1.402-2.04-1.414-1.677m87.243 1.438c0 .33.155.96.344 1.4.217.504.344.578.344.2 0-.33-.155-.96-.344-1.4-.217-.504-.344-.578-.344-.2m-3.256.166c0 .269 2.376 2.448 3.661 3.357.647.458.739.422.739-.288 0-.534-.193-.736-.566-.593-.316.122-1.287-.434-2.2-1.259-.899-.812-1.634-1.36-1.634-1.217M72.43 199.3c1.514 2.783 2.734 4.619 2.32 3.491-.327-.891-3.619-6.591-3.806-6.591-.11 0 .559 1.395 1.486 3.1m20.17-1.9c.66.168 1.92.304 2.8.303l1.6-.003-1.8-.32c-2.443-.435-4.33-.42-2.6.02m6.4.823c.88.182 2.23.319 3 .304 1.305-.025 1.278-.049-.4-.347-2.55-.454-4.821-.416-2.6.043m6 .777c.66.168 1.92.304 2.8.303l1.6-.003-1.8-.32c-2.443-.435-4.33-.42-2.6.02m6.4.802c1.617.356 4.474.525 4.167.247-.092-.083-1.427-.251-2.967-.375-2.152-.172-2.43-.143-1.2.128m42.8 1.051c.88.852 2.41 2.246 3.4 3.096l1.8 1.546-3-.218c-2.237-.163-2.593-.13-1.4.129 4.767 1.037 5.378.485 2.375-2.149-3.4-2.981-5.098-4.268-3.175-2.404m-36.8-.253c.66.168 1.92.304 2.8.303l1.6-.003-1.8-.32c-2.443-.435-4.33-.42-2.6.02m6.4.8c.66.168 1.92.304 2.8.303l1.6-.003-1.8-.32c-2.443-.435-4.33-.42-2.6.02m6 .8c.66.168 1.92.304 2.8.303l1.6-.003-1.8-.32c-2.443-.435-4.33-.42-2.6.02m6.4.785c1.222.326 4.47.535 4.167.268-.092-.081-1.337-.246-2.767-.368-1.638-.139-2.156-.103-1.4.1m-60.358 2.422C76.993 207.52 78 208.66 78 207.849c0-.247-.151-.449-.336-.449-.185 0-.827-.9-1.425-2-.599-1.1-1.179-2-1.289-2-.11 0 .292.903.892 2.007m66.758-1.605c1.617.356 4.474.525 4.167.247-.092-.083-1.427-.251-2.967-.375-2.152-.172-2.43-.143-1.2.128m6 .798c.66.168 1.83.306 2.6.307l1.4.001-1.6-.331c-2.155-.446-4.166-.426-2.4.023M80 209.4c.33.213.96.378 1.4.366l.8-.022-.8-.344c-1.196-.514-2.195-.514-1.4 0m3.233.55c.092.082 1.247.25 2.567.373 1.578.147 1.989.112 1.2-.103-1.234-.335-4.064-.538-3.767-.27m7.567 1.07c2.443.435 4.33.42 2.6-.02-.66-.168-1.92-.304-2.8-.303l-1.6.003 1.8.32m4.833.53c.092.082 1.247.25 2.567.373 1.578.147 1.989.112 1.2-.103-1.234-.335-4.064-.538-3.767-.27m7.567 1.07c2.443.435 4.33.42 2.6-.02-.66-.168-1.92-.304-2.8-.303l-1.6.003 1.8.32m6.4.8c2.443.435 4.33.42 2.6-.02-.66-.168-1.92-.304-2.8-.303l-1.6.003 1.8.32m6.2.803c.88.182 2.05.32 2.6.307 1.588-.039-1.035-.635-2.8-.637l-1.4-.001 1.6.331m6.2.797c2.414.43 4.306.393 2.2-.043-.88-.182-2.14-.319-2.8-.304-.9.02-.75.107.6.347m4.433.527c.092.081 1.337.246 2.767.368 1.638.139 2.156.103 1.4-.1-1.222-.326-4.47-.535-4.167-.268m7.967 1.073c2.414.43 4.306.393 2.2-.043-.88-.182-2.14-.319-2.8-.304-.9.02-.75.107.6.347m4.833.53c.092.082 1.247.25 2.567.373 1.578.147 1.989.112 1.2-.103-1.234-.335-4.064-.538-3.767-.27m7.567 1.07c2.443.435 4.33.42 2.6-.02-.66-.168-1.92-.304-2.8-.303l-1.6.003 1.8.32m4.833.53c.092.082 1.247.25 2.567.373 1.578.147 1.989.112 1.2-.103-1.234-.335-4.064-.538-3.767-.27m7.567 1.07c2.443.435 4.33.42 2.6-.02-.66-.168-1.92-.304-2.8-.303l-1.6.003 1.8.32m4.833.53c.092.082 1.247.25 2.567.373 1.578.147 1.989.112 1.2-.103-1.234-.335-4.064-.538-3.767-.27m7.567 1.07c2.443.435 4.33.42 2.6-.02-.66-.168-1.92-.304-2.8-.303l-1.6.003 1.8.32m2.6 25.58c-.504.217-.578.344-.2.344.33 0 .96-.155 1.4-.344.504-.217.578-.344.2-.344-.33 0-.96.155-1.4.344m18.6 0c.33.213.87.388 1.2.388.533 0 .533-.043 0-.388-.33-.213-.87-.388-1.2-.388-.533 0-.533.043 0 .388m-24.9 2.629c-1.495.811-1.404 1.149.1.371.66-.341 1.2-.706 1.2-.81 0-.258-.043-.243-1.3.439m32.72.507c.861.762 4.214 2.842 3.986 2.473-.31-.502-3.643-2.809-4.058-2.809-.169 0-.137.151.072.336m7.155 5.664c3.958 4.278 4.067 4.387 3.384 3.356-.768-1.158-3.541-4.144-4.976-5.356-.651-.55.066.35 1.592 2m-47.582-.393c-.856.876-1.444 1.593-1.309 1.593.375 0 3.215-2.835 3.027-3.022-.089-.09-.863.553-1.718 1.429m22.507 3.882c.715.089 1.885.089 2.6 0 .715-.088.13-.161-1.3-.161-1.43 0-2.015.073-1.3.161m-4.3.511c-.795.514.204.514 1.4 0l.8-.344-.8-.022c-.44-.012-1.07.153-1.4.366m14.4 1.29c.465.547 4.4 3.032 4.4 2.779 0-.285-.769-.816-3.2-2.21-.77-.442-1.31-.698-1.2-.569m20.2 1.51c.341.66.711 1.2.821 1.2.11 0-.08-.54-.421-1.2-.341-.66-.711-1.2-.821-1.2-.11 0 .08.54.421 1.2m-43.219 2.5l-1.581 1.7 1.7-1.581c1.581-1.471 1.884-1.819 1.581-1.819-.065 0-.83.765-1.7 1.7m29.243.9c1.868 2.47 2.398 3.04 1.86 2-.228-.44-1.08-1.52-1.893-2.4l-1.479-1.6 1.512 2m-46.424 1c-.15.473-.183.95-.073 1.06.11.11.323-.187.473-.66.15-.473.183-.95.073-1.06-.11-.11-.323.187-.473.66m14.909.7c-.889 1.011-2.405 4.137-2.137 4.405.125.126.228.053.228-.162 0-.214.617-1.414 1.371-2.667 1.438-2.388 1.557-2.735.538-1.576m34.369 2.695c.366.767.736 1.324.823 1.237.183-.183-1.031-2.632-1.305-2.632-.101 0 .116.628.482 1.395m14.59.605c.02 1.039.65 2.746.664 1.8.006-.44-.143-1.16-.332-1.6-.211-.49-.339-.568-.332-.2m-65.49 1.778c-.151.803-.184 1.549-.074 1.659.11.11.323-.456.474-1.259.15-.803.184-1.55.074-1.66-.11-.11-.324.457-.474 1.26m66.343 6.422c-.003 4.223.037 4.513.335 2.41.186-1.315.187-3.475.003-4.8-.295-2.127-.335-1.846-.338 2.39m-13.521 0c0 2.336.117 3.832.26 3.324.143-.508.26-2.004.26-3.324 0-1.32-.117-2.816-.26-3.324-.143-.508-.26.988-.26 3.324m-39.663 0c.002 1.76.072 2.43.156 1.489.085-.94.084-2.38-.002-3.2-.086-.819-.155-.049-.154 1.711m-13.606 0c.002 1.54.074 2.121.161 1.291.087-.83.085-2.09-.003-2.8-.089-.71-.16-.031-.158 1.509m.337 5.4c-.006.55.143 1.36.332 1.8l.344.8-.012-.8c-.006-.44-.156-1.25-.332-1.8l-.32-1-.012 1m65.782 1.65c-.141.703-.181 1.352-.091 1.442.091.091.289-.401.441-1.092.152-.691.193-1.341.091-1.442-.102-.102-.3.389-.441 1.092m-14.772 1.755c-.366.767-.583 1.395-.482 1.395.274 0 1.488-2.449 1.305-2.632-.087-.087-.457.47-.823 1.237m-50.266.195c0 .33.175.87.388 1.2.345.533.388.533.388 0 0-.33-.175-.87-.388-1.2-.345-.533-.388-.533-.388 0m.8 2.4c0 .33.175.87.388 1.2.345.533.388.533.388 0 0-.33-.175-.87-.388-1.2-.345-.533-.388-.533-.388 0m17.19 2.538c1.389 1.528 4.449 3.862 5.063 3.862.176 0-.396-.474-1.272-1.054-.876-.579-2.402-1.794-3.391-2.7l-1.798-1.646 1.398 1.538M197 294.277l-1.2 1.231 1.288-.872c1.333-.904 2-1.653 1.436-1.613-.178.012-.864.577-1.524 1.254m15.986 1.623l-.634 1.3.815-1c.785-.963 1.041-1.6.643-1.6-.104 0-.475.585-.824 1.3m-32.671 3.172c.865.343 6.378.335 7.609-.012.508-.143-1.151-.26-3.685-.26-2.535 0-4.301.122-3.924.272m27.252 3.545c-2.108 2.168-3.368 3.605-2.8 3.193 1.531-1.111 7.413-7.331 6.782-7.172-.082.02-1.874 1.811-3.982 3.979m-49.954-2.622c2.05 2.779 5.714 5.999 9.287 8.162 2.556 1.547 1.649.651-1.2-1.187-1.485-.957-4.044-3.097-5.687-4.755-1.643-1.658-2.723-2.657-2.4-2.22m12.525 9.852c.846.446 1.63.718 1.743.605.195-.195-2.501-1.472-3.03-1.434-.138.009.441.382 1.287.829m5.662 1.953c.44.189 1.07.344 1.4.344.378 0 .304-.127-.2-.344-.44-.189-1.07-.344-1.4-.344-.378 0-.304.127.2.344m15.2 0l-.8.344h.8c.44 0 1.16-.155 1.6-.344l.8-.344h-.8c-.44 0-1.16.155-1.6.344m-11.2.837c1.531.342 6.831.348 8.4.01.66-.143-1.23-.263-4.2-.268-2.97-.005-4.86.111-4.2.258" fill="#F4A5AB"/>
  </g>
</svg>
