<svg xmlns="http://www.w3.org/2000/svg">
  <symbol id="undraw_job_hunt" viewBox="0 0 726.42275 705.12037">
    <path d="M745.61757,799.92245c-.76025.8-1.55029,1.59-2.3501,2.38H652.04726c-.75-.77-1.48975-1.56-2.23-2.38-.02979-.03-.06006-.07-.08984-.1-9.91016-10.98-16.14991-26.93994-20.04-43.77-.25-1.02-.46973-2.05-.68994-3.09-1.02-4.73-1.8501-9.51-2.52979-14.25-.12012-.82-.24023-1.64-.34033-2.46-.91992-6.81-1.54-13.51-1.93994-19.80005-.04981-.81-.1001-1.6-.14991-2.39a324.8295,324.8295,0,0,1-.02-37.6s.12012,0,.3501.01c.66992.03,2.27979.1,4.6499.24,6.52979.4,18.8501,1.4,33.33985,3.76.79.13,1.59033.27,2.39014.41a252.14865,252.14865,0,0,1,36.16992,8.76c.74023.25,1.47021.5,2.21.75l.01025.05,9.06983,45.51,3.76025-40.51c2.98975,1.35,5.8999,2.79,8.68994,4.33.77979.43,1.54.86005,2.29,1.3a72.11071,72.11071,0,0,1,17.16992,13.54C773.86757,747.58242,767.49746,777.05245,745.61757,799.92245Z" transform="translate(-235.82471 -97.18208)" fill="#f2f2f2"/>
    <path d="M707.49693,742.2145l1.5815,1.75191c18.27934,20.45824,29.18828,39.44763,32.54919,56.71924.05337.2509.09022.501.14354.75191l-1.16948.22151-1.127.19878c-3.43017-18.83043-16.201-38.29556-32.14012-56.144-.50808-.58029-1.024-1.1692-1.55719-1.74244-6.81415-7.496-14.14013-14.68731-21.548-21.41127-.5688-.52547-1.15407-1.05174-1.73934-1.578-9.82363-8.82461-19.70679-16.80843-28.52071-23.53807-.62084-.4785-1.25031-.94911-1.872-1.41109-14.96533-11.32935-26.57692-18.839-29.1649-20.48522-.312-.20626-.48855-.3145-.52853-.34134l.61254-.978.00084-.01652.62122-.98582c.04.02689.63374.38817,1.70647,1.08831,4.02842,2.59673,14.85613,9.74364,28.3259,19.90458.60516.46114,1.23468.9318,1.85547,1.41025,7.1584,5.45372,14.98763,11.70282,22.89414,18.54316q2.9832,2.57238,5.8179,5.137c.5939.51848,1.17917,1.04475,1.748,1.57022Q697.99967,731.78093,707.49693,742.2145Z" transform="translate(-235.82471 -97.18208)" fill="#fff"/>
    <path d="M663.21767,678.53243c-.27.65-.56006,1.3-.86035,1.94a62.38191,62.38191,0,0,1-8.68994,13.75c-.50977.6-1.02979,1.21-1.56983,1.81q-2.18994,2.415-4.66015,4.67a62.59536,62.59536,0,0,1-23.39991,13.36c-.28027.09-.5498.18-.83007.26.0498.79.10009,1.57.1499,2.38.28027-.08.55029-.16.83008-.25a64.84908,64.84908,0,0,0,24.81006-14.02,66.93793,66.93793,0,0,0,4.97021-4.99c.53955-.59,1.06006-1.2,1.56006-1.81a64.419,64.419,0,0,0,9.21973-14.75c.28027-.64.56-1.28.83007-1.93005C664.77773,678.81246,663.98769,678.67245,663.21767,678.53243Z" transform="translate(-235.82471 -97.18208)" fill="#fff"/>
    <path d="M701.32753,687.87246c-.12011.59-.26025,1.18-.41015,1.77a62.56419,62.56419,0,0,1-16.67969,29.67c-.57031.57-1.15039,1.13-1.75,1.67-.17041.17-.36035.35-.54.51a63.02385,63.02385,0,0,1-55.82031,14.76c-.23-.04-.46973-.1-.69971-.15.11963.82.23,1.65.35986,2.47.23.05005.4502.1.68018.14a65.35912,65.35912,0,0,0,57.03955-15.49c.24024-.22.49024-.43.72022-.66.60009-.56,1.18017-1.12,1.76025-1.68a65.0285,65.0285,0,0,0,17.1499-30.44q.22485-.90006.41992-1.8C702.81728,688.38247,702.07753,688.12246,701.32753,687.87246Z" transform="translate(-235.82471 -97.18208)" fill="#fff"/>
    <path d="M724.65761,698.08242c.00977.56.00977,1.13,0,1.69a62.703,62.703,0,0,1-17.16015,42.44c-.56006.6-1.14014,1.18-1.71973,1.76-.63037.61-1.26026,1.22-1.91016,1.8a63.16193,63.16193,0,0,1-74.87011,7.19,6.71349,6.71349,0,0,1-.58008-.34c.24023,1.06.48,2.1.74023,3.13995.17969.1.34961.2.52979.29a65.50483,65.50483,0,0,0,75.74023-8.54c.6499-.59,1.29981-1.18,1.90967-1.8.6001-.57,1.16992-1.15,1.74023-1.75a65.25122,65.25122,0,0,0,17.87012-42.89q.03-.81.02979-1.62C726.21767,698.98245,725.4374,698.53243,724.65761,698.08242Z" transform="translate(-235.82471 -97.18208)" fill="#fff"/>
    <path d="M522.49219,262.76025H346.70654a5.52372,5.52372,0,0,1-5.51758-5.51757V123.76758a5.52415,5.52415,0,0,1,5.51758-5.51807H562.47461a5.52415,5.52415,0,0,1,5.51758,5.51807v93.49267A45.55143,45.55143,0,0,1,522.49219,262.76025Z" transform="translate(-235.82471 -97.18208)" fill="#fff"/>
    <path d="M522.49219,263.26025H346.70654a6.02469,6.02469,0,0,1-6.01758-6.01757V123.76758a6.0248,6.0248,0,0,1,6.01758-6.01807H562.47461a6.02449,6.02449,0,0,1,6.01758,6.01807v93.49267A46.05239,46.05239,0,0,1,522.49219,263.26025ZM346.70654,119.74951a4.02251,4.02251,0,0,0-4.01758,4.01807v133.4751a4.02208,4.02208,0,0,0,4.01758,4.01757H522.49219a44.04978,44.04978,0,0,0,44-44V123.76758a4.02251,4.02251,0,0,0-4.01758-4.01807Z" transform="translate(-235.82471 -97.18208)" fill="#ccc"/>
    <path d="M519.82276,163.32654H389.35839a4.51607,4.51607,0,0,1,0-9.03215H519.82276a4.51608,4.51608,0,0,1,0,9.03215Z" transform="translate(-235.82471 -97.18208)" fill="#ccc"/>
    <path d="M519.82276,194.43727H389.35839a4.51607,4.51607,0,0,1,0-9.03214H519.82276a4.51607,4.51607,0,1,1,0,9.03214Z" transform="translate(-235.82471 -97.18208)" fill="#ccc"/>
    <path d="M519.82276,226.43727H389.35839a4.51607,4.51607,0,0,1,0-9.03214H519.82276a4.51607,4.51607,0,1,1,0,9.03214Z" transform="translate(-235.82471 -97.18208)" fill="#ccc"/>
    <circle cx="325.02994" cy="26.9685" r="26.96851" fill="currentColor"/>
    <path d="M557.17559,138.18644a2.999,2.999,0,0,1-2.39966-1.2002l-7.35742-9.81005a2.9998,2.9998,0,1,1,4.7998-3.59961l4.81348,6.41748,12.36279-18.54395a2.99993,2.99993,0,1,1,4.99219,3.32813L559.67192,136.8505a3.00113,3.00113,0,0,1-2.41284,1.335C557.23125,138.186,557.20342,138.18644,557.17559,138.18644Z" transform="translate(-235.82471 -97.18208)" fill="#fff"/>
    <path d="M457.61035,378.68945H281.82471a45.55142,45.55142,0,0,1-45.5-45.5V239.69629a5.52456,5.52456,0,0,1,5.51806-5.51807H457.61035a5.52457,5.52457,0,0,1,5.51807,5.51807v133.4751A5.52456,5.52456,0,0,1,457.61035,378.68945Z" transform="translate(-235.82471 -97.18208)" fill="#fff"/>
    <path d="M457.61035,379.18945H281.82471a46.05239,46.05239,0,0,1-46-46V239.69629a6.0249,6.0249,0,0,1,6.01806-6.01807H457.61035a6.02491,6.02491,0,0,1,6.01807,6.01807v133.4751A6.0249,6.0249,0,0,1,457.61035,379.18945ZM241.84277,235.67822a4.02292,4.02292,0,0,0-4.01806,4.01807v93.49316a44.04978,44.04978,0,0,0,44,44H457.61035a4.02261,4.02261,0,0,0,4.01807-4.01806V239.69629a4.02293,4.02293,0,0,0-4.01807-4.01807Z" transform="translate(-235.82471 -97.18208)" fill="#ccc"/>
    <path d="M414.95874,279.25533H284.49438a4.51607,4.51607,0,1,1,0-9.03214H414.95874a4.51607,4.51607,0,1,1,0,9.03214Z" transform="translate(-235.82471 -97.18208)" fill="#ccc"/>
    <path d="M414.95874,310.36607H284.49438a4.51607,4.51607,0,0,1,0-9.03215H414.95874a4.51607,4.51607,0,1,1,0,9.03215Z" transform="translate(-235.82471 -97.18208)" fill="#ccc"/>
    <path d="M414.95874,342.36607H284.49438a4.51607,4.51607,0,0,1,0-9.03215H414.95874a4.51607,4.51607,0,1,1,0,9.03215Z" transform="translate(-235.82471 -97.18208)" fill="#ccc"/>
    <circle cx="222.02994" cy="143.9685" r="26.96851" fill="currentColor"/>
    <path d="M454.17559,255.18644a2.999,2.999,0,0,1-2.39966-1.2002l-7.35742-9.81005a2.9998,2.9998,0,1,1,4.7998-3.59961l4.81348,6.41748,12.36279-18.54395a2.99993,2.99993,0,0,1,4.99219,3.32813L456.67192,253.8505a3.00113,3.00113,0,0,1-2.41284,1.335C454.23125,255.186,454.20342,255.18644,454.17559,255.18644Z" transform="translate(-235.82471 -97.18208)" fill="#fff"/>
    <path d="M676.63477,503.10254H430.6709a45.55142,45.55142,0,0,1-45.5-45.5V320.08887a7.121,7.121,0,0,1,7.11279-7.1128H676.63477a7.1206,7.1206,0,0,1,7.1123,7.1128V495.98926A7.121,7.121,0,0,1,676.63477,503.10254Z" transform="translate(-235.82471 -97.18208)" fill="#fff"/>
    <path d="M676.63477,503.60254H430.6709a46.05239,46.05239,0,0,1-46-46V320.08887a7.62136,7.62136,0,0,1,7.61279-7.6128H676.63477a7.62125,7.62125,0,0,1,7.6123,7.6128V495.98926A7.62136,7.62136,0,0,1,676.63477,503.60254ZM392.28369,314.47607a5.61938,5.61938,0,0,0-5.61279,5.6128V457.60254a44.04978,44.04978,0,0,0,44,44H676.63477a5.61938,5.61938,0,0,0,5.6123-5.61328V320.08887a5.619,5.619,0,0,0-5.6123-5.6128Z" transform="translate(-235.82471 -97.18208)" fill="#ccc"/>
    <path d="M620.4257,372.22184H448.49249a5.95154,5.95154,0,1,1,0-11.90307H620.4257a5.95154,5.95154,0,1,1,0,11.90307Z" transform="translate(-235.82471 -97.18208)" fill="#ccc"/>
    <path d="M620.4257,413.2213H448.49249a5.95154,5.95154,0,1,1,0-11.90307H620.4257a5.95153,5.95153,0,1,1,0,11.90307Z" transform="translate(-235.82471 -97.18208)" fill="#ccc"/>
    <path d="M620.4257,455.39268H448.49249a5.95153,5.95153,0,1,1,0-11.90307H620.4257a5.95154,5.95154,0,1,1,0,11.90307Z" transform="translate(-235.82471 -97.18208)" fill="#ccc"/>
    <circle cx="441.70332" cy="226.5592" r="34.13884" fill="currentColor"/>
    <path d="M672.87078,341.509a3.79638,3.79638,0,0,1-3.03767-1.5193l-9.3136-12.41834a3.79739,3.79739,0,1,1,6.076-4.55667l6.09327,8.12375L688.33854,307.664a3.79755,3.79755,0,0,1,6.3195,4.213l-18.6272,27.94079a3.79906,3.79906,0,0,1-3.05436,1.6899C672.94125,341.50834,672.906,341.509,672.87078,341.509Z" transform="translate(-235.82471 -97.18208)" fill="#fff"/>
    <polygon points="530.145 677.866 516.256 682.511 491.729 631.148 512.229 624.292 530.145 677.866" fill="#ffb6b6"/>
    <path d="M774.01508,787.32657l-44.78536,11.9776-.18946-.56645c-1.55706-4.6562-1.208-6.64056.98371-11.03388a18.26066,18.26066,0,0,1,10.61753-9.22769l.0011-.00037,6.10474-8.94234,17.33917,1.10206,3.90949-1.30744Z" transform="translate(-235.82471 -97.18208)" fill="#2f2e41"/>
    <polygon points="564.461 690.925 549.816 690.925 542.848 634.435 564.464 634.436 564.461 690.925" fill="#ffb6b6"/>
    <path d="M804.02078,799.30417l-47.22348-.00175v-.5973c.00029-4.90964,1.91235-6.52589,5.38445-9.99711a18.26064,18.26064,0,0,1,12.99624-5.38329h.00117l8.626-6.54413,16.09418,6.54513,4.12232.00017Z" transform="translate(-235.82471 -97.18208)" fill="#2f2e41"/>
    <path d="M688.824,335.49809a10.6963,10.6963,0,0,0,14.36963,7.9072l16.90763,17.65192,13.233-7.65842-24.22695-24.59257a10.75429,10.75429,0,0,0-20.28331,6.69187Z" transform="translate(-235.82471 -97.18208)" fill="#ffb6b6"/>
    <polygon points="562.421 327.072 570.043 319.186 525.965 278.363 481.602 238.751 469.315 256.113 515.804 299.507 562.421 327.072" fill="#e4e4e4"/>
    <path d="M771.16255,692.15579c0-9.91059.1962-16.97938.35372-22.65975.46114-16.62345.585-21.09175-5.77636-49.71884l-1.63393-7.35177-9.63462,28.90366a90.54051,90.54051,0,0,0-4.65708,28.59583l14.85545,89.1319H734.3073L712.07022,662.6966l-.01042-29.47522a10.87342,10.87342,0,0,1,0-15.11238l7.38785-44.15872,7.47782-59.51319h81.90719s14.45524,29.96182.09,59.68234l-.0016,118.07323-7.42191,81.63984H778.58607Z" transform="translate(-235.82471 -97.18208)" fill="#2f2e41"/>
    <path d="M803.82486,521.64056l-76.613-6.3842-.39781-.03286,6.11405-110.05371a34.61141,34.61141,0,0,1,23.45877-30.98589v-7.70169a7.198,7.198,0,0,1,7.19-7.18984h11.194a7.15113,7.15113,0,0,1,6.4309,3.9745l5.47374,10.94749,20.69855,16.55892c10.223,8.17865,1.99506,90.17642,1.55276,94.50283l5.006,25.031a9.50513,9.50513,0,0,1-9.29653,11.368Q804.2329,521.67383,803.82486,521.64056Z" transform="translate(-235.82471 -97.18208)" fill="#e4e4e4"/>
    <path d="M722.6923,550.69888a10.69629,10.69629,0,0,0,.20244-16.40029l7.60124-23.231-12.99078-8.06246-10.27365,32.95742a10.7543,10.7543,0,0,0,15.46075,14.73632Z" transform="translate(-235.82471 -97.18208)" fill="#ffb6b6"/>
    <polygon points="513.585 295.588 503.038 292.072 487.804 360.04 473.773 427.634 494.876 430.739 511.241 358.868 513.585 295.588" fill="#e4e4e4"/>
    <circle cx="525.10302" cy="229.91361" r="25.16214" fill="#ffb6b6"/>
    <path d="M727.072,314.77327a18.89379,18.89379,0,0,1,2.0137-6.83272c1.1764,2.55786,4.84547,3.00167,7.35658,1.72862,2.51152-1.27309,4.19414-3.691,5.9886-5.86028,4.73564-5.72421,11.2481-10.36746,18.62873-11.21318,7.381-.84568,15.5164,2.88,18.30528,9.76583,1.25134-1.73769,3.92158-1.93088,5.81023-.92112a10.45018,10.45018,0,0,1,4.0759,4.82878,30.766,30.766,0,0,1,1.02328,24.61653c-3.10793,7.86471-10.78276,18.46094-18.70128,21.42923-4.80739,1.80212-9.66288-.50442-14.77569,0,.26775-5.57981,1.34955-12.46448,1.61729-18.04429.1467-3.05577.168-6.47458-1.9191-8.71139a6.02518,6.02518,0,0,0-9.19152,1.07294,13.84224,13.84224,0,0,0-1.72632-4.921,4.708,4.708,0,0,0-4.4198-2.26421c-2.13474.34987-3.45343,2.54128-5.41262,3.459a5.8822,5.8822,0,0,1-6.53731-1.49925A8.8943,8.8943,0,0,1,727.072,314.77327Z" transform="translate(-235.82471 -97.18208)" fill="#2f2e41"/>
    <polygon points="528.36 358.563 498.809 417.665 520.973 417.665 528.36 358.563" opacity="0.1"/>
    <path d="M962.24746,801.11245a1.18633,1.18633,0,0,1-1.19,1.19h-564.29a1.19,1.19,0,0,1,0-2.38h564.29A1.18629,1.18629,0,0,1,962.24746,801.11245Z" transform="translate(-235.82471 -97.18208)" fill="#cacaca"/>
  </symbol>

  <symbol id="environment" viewBox="0 0 886 654.3011">
    <path d="M534.69721,566.28435s117.66268-14.11952,158.84462-36.47543,347.10492-32.94555,347.10492,36.47543S688.83533,666.29763,688.83533,666.29763L504.10491,655.708Z" transform="translate(-157 -122.59945)" fill="#fbbebe"/>
    <path d="M534.69721,566.28435s117.66268-14.11952,158.84462-36.47543,347.10492-32.94555,347.10492,36.47543S688.83533,666.29763,688.83533,666.29763L504.10491,655.708Z" transform="translate(-157 -122.59945)" opacity="0.1"/>
    <path d="M568.81939,553.34145l-24.70916,71.77424L157,629.8222V523.92578s148.255-34.12218,265.91766,38.82869C422.91766,562.75447,561.75963,546.28169,568.81939,553.34145Z" transform="translate(-157 -122.59945)" fill="#000091"/>
    <path d="M568.81939,553.22576,544.11023,625,157,629.70651V523.81009s148.255-34.12217,265.91766,38.82869C422.91766,562.63878,561.75963,546.166,568.81939,553.22576Z" transform="translate(-157 -122.59945)" opacity="0.1"/>
    <path d="M1011.40421,523.33747c0,4.01013-8.99291,6.98746-9.87713,10.85578-.877,3.837,4.466,9.67153,2.7754,13.33593a72.56315,72.56315,0,0,1-6.17161,10.73274c-2.21493,3.17137-9.05694,2.70824-11.86227,5.68227a94.31858,94.31858,0,0,1-8.71239,7.57632c-2.97685,2.47558-7.00983,2.995-10.3949,5.27405-3.21855,2.16694-2.82908,10.11566-6.38943,12.089-3.40209,1.88559-8.60988.3689-12.30036,2.0638-3.54222,1.6268-5.41036,7.51078-9.19734,8.94966-3.65224,1.38768-8.17251.79041-12.03369,1.99233-3.737,1.16328-7.91819.97444-11.834,1.95379-3.8025.951-6.70671,6.651-10.66232,7.41945-3.854.74876-8.3706-1.24829-12.35568-.68116-3.89167.55383-8.41763-4.37162-12.421-3.9988-3.91842.36491-7.61086,2.64509-11.62382,2.8293-3.93486.18062-7.825,1.91354-11.839,1.91354-4.01326,0-8.155,3.76516-12.0891,3.58461-4.01286-.18416-7.64576-5.89119-11.56409-6.25606-4.00373-.37281-8.7793,5.58855-12.67133,5.03469-3.98495-.56708-7.14123-6.40236-10.99514-7.15107-3.95666-.76866-9.06677,3.40179-12.87023,2.45052-3.9163-.97949-6.24086-7.76777-9.97832-8.93124-3.86105-1.20193-8.64707.42607-12.29918-.96161-3.78762-1.43918-8.40158-1.20794-11.94434-2.83511-3.69044-1.695-6.33948-5.70566-9.74152-7.59135-3.56035-1.97344-5.20212-6.86749-8.42064-9.03457-3.38534-2.2794-8.543-1.98843-11.52-4.46441-3.143-2.614-9.03152-2.75028-11.684-5.56266-2.80531-2.97446-3.94048-7.96872-6.15524-11.14054-2.3325-3.34045,2.24541-10.40268.61691-13.93333-1.68988-3.66373-8.75561-5.15233-9.63228-8.98856a56.43529,56.43529,0,0,1-1.38412-12.20727c0-4.01013,6.04275-7.07505,6.927-10.94337.87705-3.837-3.5706-9.34765-1.88-13.012,1.62909-3.53111,1.4209-8.95885,3.75419-12.29969,2.21492-3.17137,7.74247-4.41466,10.54781-7.38869,2.65244-2.81195,7.39972-3.59649,10.54257-6.21012,2.97685-2.47558,2.59756-9.94153,5.98263-12.22058,3.21855-2.16693,7.71233-3.15553,11.27269-5.12883,3.40209-1.88559,8.2166-1.568,11.90708-3.26286,3.54222-1.62681,9.09051,1.57878,12.87749.1399,3.65223-1.38768,6.61443-4.42066,10.47561-5.62258,3.737-1.16327,5.49295-10.03477,9.40878-11.01411,3.8025-.951,8.48123.62756,12.43684-.14094,3.854-.74875,9.03982,6.25065,13.0249,5.68353,3.89167-.55383,6.80233-9.89764,10.80568-10.27046,3.91843-.36492,8.33653,4.4746,12.34949,4.29039,3.93486-.18061,7.88586,2.65493,11.89989,2.65493,4.01325,0,8.012-3.89163,11.9461-3.71108,4.01286.18417,7.55113,5.3271,11.46946,5.692,4.00373.37281,8.91865-7.44985,12.81068-6.896,3.98495.56708,7.06419,6.61418,10.91811,7.36288,3.95665.76866,8.91232-2.98574,12.71579-2.03447,3.9163.97948,6.27257,7.40675,10.01,8.57021,3.861,1.20194,6.23986,5.73621,9.892,7.12389,3.78763,1.43917,10.82321-5.29424,14.366-3.66707,3.69044,1.695,6.878,4.62825,10.28005,6.51394,3.56035,1.97344,9.22033.981,12.43884,3.14809,3.38534,2.2794,4.21769,8.39757,7.1947,10.87355,3.143,2.614,8.32722,3.401,10.97967,6.21338,2.80531,2.97446,3.195,8.304,5.40974,11.47584,2.33251,3.34045,2.25969,7.96873,3.88819,11.49938,1.68988,3.66373,6.20167,6.43485,7.07833,10.27108C1008.78607,514.895,1011.40421,519.32831,1011.40421,523.33747Z" transform="translate(-157 -122.59945)" fill="#3f3d56"/>
    <path d="M587.64542,596.87665S720.60425,528.63229,806.498,554.51808s205.90969-18.826,220.02921-3.52988,34.12218,180.0239-135.31208,189.43692-314.15936-28.23905-314.15936-28.23905Z" transform="translate(-157 -122.59945)" fill="#fbbebe"/>
    <path d="M556.33394,589.60871S608.8247,586.287,606.47145,605.113s-4.70651,164.72776-18.826,168.25764-125.89907,3.52988-171.78752,3.52988H157V551.32636s183.55378-10.9278,275.33068,34.96064C432.33068,586.287,542.67187,584.694,556.33394,589.60871Z" transform="translate(-157 -122.59945)" fill="#000091"/>
    <path d="M802.23938,236.77869a27.04128,27.04128,0,0,0-23.30891,16.29741c-5.82841,14.08872,1.67611,30.638,12.94175,40.91165s25.737,16.146,38.88553,23.86474c17.6606,10.3676,33.5301,24.75954,42.36669,43.23381s9.77646,41.35854-.61056,59.00773c-9.64093,16.38147-27.17132,26.18572-43.89076,35.22786" transform="translate(-157 -122.59945)" fill="none" stroke="#3f3d56" stroke-miterlimit="10"/>
    <path d="M849.30446,150.88493a27.0413,27.0413,0,0,0-23.30892,16.29742c-5.82841,14.08871,1.67611,30.638,12.94175,40.91164s25.73705,16.146,38.88553,23.86474c17.66061,10.3676,33.5301,24.75955,42.3667,43.23382s9.77645,41.35853-.61057,59.00772c-9.64092,16.38147-27.17132,26.18572-43.89076,35.22786" transform="translate(-157 -122.59945)" fill="none" stroke="#3f3d56" stroke-miterlimit="10"/>
    <path d="M1004.05062,170.64a27.04127,27.04127,0,0,0-28.40774-1.38242c-13.23342,7.57224-17.43052,25.25222-14.81179,40.27235s10.46668,28.52256,16.13823,42.67515c7.61783,19.00927,11.35579,40.10422,7.03358,60.12177s-17.58823,38.688-36.60588,46.28493c-17.65163,7.05125-37.51521,4.072-56.271.98658" transform="translate(-157 -122.59945)" fill="none" stroke="#3f3d56" stroke-miterlimit="10"/>
    <ellipse cx="710.6826" cy="211.88941" rx="28.23904" ry="13.71611" fill="#57b894"/>
    <ellipse cx="707.15272" cy="209.53616" rx="28.23904" ry="13.71611" fill="none" stroke="#3f3d56" stroke-miterlimit="10"/>
    <ellipse cx="771.8672" cy="200.12315" rx="28.23904" ry="13.71611" fill="#57b894"/>
    <ellipse cx="768.33732" cy="197.76989" rx="28.23904" ry="13.71611" fill="none" stroke="#3f3d56" stroke-miterlimit="10"/>
    <ellipse cx="781.28021" cy="251.89473" rx="28.23904" ry="13.71611" fill="#57b894"/>
    <ellipse cx="777.75033" cy="249.54147" rx="28.23904" ry="13.71611" fill="none" stroke="#3f3d56" stroke-miterlimit="10"/>
    <ellipse cx="775.39708" cy="122.46577" rx="28.23904" ry="13.71611" fill="#57b894"/>
    <ellipse cx="771.8672" cy="120.11252" rx="28.23904" ry="13.71611" fill="none" stroke="#3f3d56" stroke-miterlimit="10"/>
    <ellipse cx="704.79947" cy="114.22939" rx="28.23904" ry="13.71611" fill="#57b894"/>
    <ellipse cx="701.26959" cy="111.87613" rx="28.23904" ry="13.71611" fill="none" stroke="#3f3d56" stroke-miterlimit="10"/>
    <ellipse cx="736.56839" cy="84.81372" rx="28.23904" ry="13.71611" fill="#57b894"/>
    <ellipse cx="733.03851" cy="82.46046" rx="28.23904" ry="13.71611" fill="none" stroke="#3f3d56" stroke-miterlimit="10"/>
    <ellipse cx="805.98938" cy="90.69685" rx="28.23904" ry="13.71611" fill="#57b894"/>
    <ellipse cx="802.4595" cy="88.3436" rx="28.23904" ry="13.71611" fill="none" stroke="#3f3d56" stroke-miterlimit="10"/>
    <ellipse cx="857.76096" cy="129.52554" rx="28.23904" ry="13.71611" fill="#57b894"/>
    <ellipse cx="854.23108" cy="127.17228" rx="28.23904" ry="13.71611" fill="none" stroke="#3f3d56" stroke-miterlimit="10"/>
    <ellipse cx="675.3838" cy="61.28118" rx="28.23904" ry="13.71611" fill="#57b894"/>
    <ellipse cx="671.85392" cy="58.92793" rx="28.23904" ry="13.71611" fill="none" stroke="#3f3d56" stroke-miterlimit="10"/>
    <ellipse cx="693.0332" cy="16.56936" rx="28.23904" ry="13.71611" fill="#57b894"/>
    <ellipse cx="689.50332" cy="14.21611" rx="28.23904" ry="13.71611" fill="none" stroke="#3f3d56" stroke-miterlimit="10"/>
    <ellipse cx="856.58433" cy="49.51491" rx="28.23904" ry="13.71611" fill="#57b894"/>
    <ellipse cx="853.05445" cy="47.16166" rx="28.23904" ry="13.71611" fill="none" stroke="#3f3d56" stroke-miterlimit="10"/>
    <ellipse cx="596.5498" cy="157.76458" rx="28.23904" ry="13.71611" fill="#57b894"/>
    <ellipse cx="593.01992" cy="155.41133" rx="28.23904" ry="13.71611" fill="none" stroke="#3f3d56" stroke-miterlimit="10"/>
    <ellipse cx="694.20983" cy="150.70482" rx="28.23904" ry="13.71611" fill="#57b894"/>
    <ellipse cx="690.67995" cy="148.35157" rx="28.23904" ry="13.71611" fill="none" stroke="#3f3d56" stroke-miterlimit="10"/>
    <ellipse cx="822.46215" cy="161.29446" rx="28.23904" ry="13.71611" fill="#57b894"/>
    <ellipse cx="818.93227" cy="158.94121" rx="28.23904" ry="13.71611" fill="none" stroke="#3f3d56" stroke-miterlimit="10"/>
    <ellipse cx="754.2178" cy="166.00097" rx="28.23904" ry="13.71611" fill="#57b894"/>
    <ellipse cx="750.68792" cy="163.64771" rx="28.23904" ry="13.71611" fill="none" stroke="#3f3d56" stroke-miterlimit="10"/>
    <ellipse cx="758.9243" cy="48.33828" rx="28.23904" ry="13.71611" fill="#57b894"/>
    <ellipse cx="755.39442" cy="45.98503" rx="28.23904" ry="13.71611" fill="none" stroke="#3f3d56" stroke-miterlimit="10"/>
    <ellipse cx="637.73174" cy="121.28915" rx="28.23904" ry="13.71611" fill="#57b894"/>
    <ellipse cx="634.20186" cy="118.93589" rx="28.23904" ry="13.71611" fill="none" stroke="#3f3d56" stroke-miterlimit="10"/>
    <ellipse cx="654.20452" cy="174.23736" rx="28.23904" ry="13.71611" fill="#57b894"/>
    <ellipse cx="650.67463" cy="171.8841" rx="28.23904" ry="13.71611" fill="none" stroke="#3f3d56" stroke-miterlimit="10"/>
    <g opacity="0.3">
      <ellipse cx="806.26874" cy="387.36508" rx="14.7942" ry="6.40684" transform="translate(-82.2221 779.58806) rotate(-60.79941)" fill="#57b894"/>
      <ellipse cx="804.40702" cy="388.44307" rx="14.7942" ry="6.40684" transform="translate(-84.11655 778.515) rotate(-60.79941)" fill="none" stroke="#3f3d56" stroke-miterlimit="10"/>
    </g>
    <g opacity="0.3">
      <ellipse cx="948.03219" cy="414.81604" rx="6.40684" ry="14.7942" transform="translate(-150.30628 722.00638) rotate(-48.17218)" fill="#57b894"/>
      <ellipse cx="947.38726" cy="412.76369" rx="6.40684" ry="14.7942" transform="translate(-148.99179 720.84216) rotate(-48.17218)" fill="none" stroke="#3f3d56" stroke-miterlimit="10"/>
    </g>
    <g opacity="0.3">
      <ellipse cx="816.24999" cy="340.68855" rx="6.40684" ry="14.7942" transform="translate(-138.9674 599.1163) rotate(-48.17218)" fill="#57b894"/>
      <ellipse cx="815.60505" cy="338.6362" rx="6.40684" ry="14.7942" transform="translate(-137.65292 597.95208) rotate(-48.17218)" fill="none" stroke="#3f3d56" stroke-miterlimit="10"/>
    </g>
  </symbol>
</svg>
