<svg width="0" height="0" class="hidden">
  <symbol viewBox="0 0 220 266" xmlns="http://www.w3.org/2000/svg" id="ab">
    <title>AB</title>
    <g fill="none" fill-rule="evenodd">
      <path fill="#FFFFFE" d="M.812 265.125h218.875V.997H.812z"></path>
      <path d="M6.75 256.728h206.812" stroke="#2CAA55" stroke-width="4.25"></path>
      <path d="M15.067 205.065l2.523 7.237h-4.863l2.34-7.237zm2.237-4.451h-4.499l-6.607 18.592h3.979l1.327-3.717h7.023l1.3 3.717h3.98l-6.503-18.592zm20.11 8.625h7.594v10.033h-2.341l-.468-2.341c-.91 1.124-2.496 3.041-6.241 2.838-3.432-.18-4.628-1.56-5.513-2.379-4.399-4.204-3.8-13.702 2.575-16.426.781-.331 1.977-.662 3.615-.662 1.794 0 4.29.178 6.215 2.037 2.158 2.113 2.08 3.767 2.158 4.176h-3.563c-.676-2.216-2.6-3.056-4.628-3.056-1.3 0-2.236.331-3.328 1.043-2.393 1.962-2.523 6.697-1.483 8.811.755 1.528 2.159 3.106 4.343 3.335 1.326.128 3.198-.33 4.316-1.705 1.04-1.197 1.04-2.063 1.066-2.546h-4.316l-.001-3.158m17.541-5.437h5.268c1.738 0 2.361.766 2.361 2.093.234 1.837-1.401 2.782-2.309 2.782h-5.32v-4.875zm-3.901 15.407h3.901v-7.345h4.571c1.35 0 2.285.613 2.337 1.863-.052 1.351-.052 2.83 0 3.748.052.613.208 1.172.519 1.734h4.178v-.687c-.416-.256-.728-.486-.728-1.532-.026-.943-.078-3.391-.182-4.156-.207-1.684-1.452-2.143-2.101-2.576 1.272-.739 2.105-1.326 2.573-2.934.468-1.607.078-2.934-.182-3.751-.546-2.014-2.471-2.883-4.368-2.959H51.054v18.595zm20.521-.003h3.901v-18.588h-3.901zm25.627-6.36c-.027 1.885-1.119 4.025-2.549 5.119-1.118.865-3.252 1.729-5.594 1.807-4.215.126-7.16-2.519-8.177-6.442a14.489 14.489 0 0 1-.365-3.263c0-1.249.13-2.523.443-3.567 1.069-3.467 3.337-6.194 8.255-6.194 1.353 0 3.253.152 5.1 1.452 2.73 1.811 2.86 4.207 2.887 5.15h-3.719c-.105-1.045-.989-3.671-4.788-3.389-1.769.127-3.149 1.376-3.773 2.955-.26.663-.52 1.886-.598 3.211-.053 1.326.078 2.752.598 3.9.624 1.35 1.483 2.165 2.446 2.599a3.92 3.92 0 0 0 1.535.305c.52.026 1.093-.05 1.639-.204 2.706-.738 2.785-2.625 2.941-3.439h3.719m20.175-12.228v12.812c0 1.629-.417 4.073-3.564 5.576-1.169.51-2.546.766-3.872.766-1.325 0-2.624-.231-3.663-.613-3.148-1.707-3.928-3.897-3.928-5.729v-12.812h3.902v12.862c.052 1.171.415 2.979 3.585 2.979 3.092 0 3.638-1.808 3.638-2.979v-12.862h3.902m9.99 0v15.404h9.077v3.187h-12.979v-18.591h3.902m25.75-.004v3.188h-5.54v15.404h-3.901v-15.404h-5.749v-3.188h15.19m19.531.004v12.812c0 1.629-.416 4.073-3.563 5.576-1.17.51-2.547.766-3.871.766-1.325 0-2.625-.231-3.664-.613-3.148-1.707-3.928-3.897-3.928-5.729v-12.812h3.901v12.862c.053 1.171.417 2.979 3.586 2.979 3.092 0 3.638-1.808 3.638-2.979v-12.862h3.901m9.991 3.184h5.267c1.738 0 2.363.766 2.363 2.093.233 1.837-1.402 2.782-2.31 2.782h-5.32v-4.875zm-3.903 15.407h3.903v-7.345h4.571c1.35 0 2.285.613 2.337 1.863-.052 1.351-.052 2.83 0 3.748.052.613.207 1.172.518 1.734h4.179v-.687c-.416-.256-.728-.486-.728-1.532-.027-.943-.079-3.391-.182-4.156-.207-1.684-1.452-2.143-2.102-2.576 1.273-.739 2.106-1.326 2.574-2.934.467-1.607.077-2.934-.183-3.751-.546-2.014-2.471-2.883-4.367-2.959h-10.52v18.595zm34.694-18.595v3.188h-9.832v4.25h9.077v3.187h-9.077v4.783h10.273v3.187h-14.176v-18.595h13.735M12.591 234.627h4.64c1.356 0 2.425.513 2.425 2.125 0 1.485-.965 2.125-2.633 2.125h-4.432v-4.25zm-3.902 15.406h8.568c1.199 0 3.31-.178 4.61-1.275 1.691-1.427 1.977-2.955 1.977-3.921 0-2.213-1.145-3.843-2.263-4.685 1.377-1.122 1.793-2.709 1.793-3.836 0-.767-.363-4.876-6.846-4.876H8.689v18.593zm3.902-7.968h5.318c.73 0 2.216.101 2.216 2.187 0 2.543-1.773 2.594-2.946 2.594h-4.588v-4.781zm19.137 7.965h3.901v-18.588h-3.901zm20.538-2.776c-1.25 0-2.5-.357-3.49-1.248-1.25-1.12-1.875-3.133-1.901-5.145.026-2.011.651-4.023 1.901-5.144.99-.891 2.24-1.248 3.49-1.248s2.5.357 3.489 1.248c1.25 1.121 1.875 3.133 1.901 5.144-.026 2.012-.651 4.025-1.901 5.145-.989.891-2.239 1.248-3.489 1.248zm9.136-6.393c0-2.801-1.041-5.601-2.809-7.412-1.588-1.606-3.906-2.32-6.327-2.32-2.422 0-4.74.714-6.328 2.32-1.771 1.811-2.812 4.611-2.812 7.412 0 2.802 1.041 5.604 2.812 7.412 1.588 1.608 3.906 2.321 6.328 2.321 2.421 0 4.739-.713 6.327-2.321 1.768-1.808 2.809-4.61 2.809-7.412zm11.683-9.419v15.404h9.078v3.187H69.184v-18.591h3.901m24.828 15.812c-1.25 0-2.5-.357-3.489-1.248-1.25-1.12-1.875-3.133-1.902-5.145.027-2.011.652-4.023 1.902-5.144.989-.891 2.239-1.248 3.489-1.248s2.5.357 3.489 1.248c1.25 1.121 1.875 3.133 1.902 5.144-.027 2.012-.652 4.025-1.902 5.145-.989.891-2.239 1.248-3.489 1.248zm9.136-6.393c0-2.801-1.04-5.601-2.809-7.412-1.588-1.606-3.905-2.32-6.327-2.32s-4.739.714-6.328 2.32c-1.77 1.811-2.812 4.611-2.812 7.412 0 2.802 1.042 5.604 2.812 7.412 1.589 1.608 3.906 2.321 6.328 2.321s4.739-.713 6.327-2.321c1.769-1.808 2.809-4.61 2.809-7.412zm16.589-.796h7.594v10.031h-2.34l-.468-2.341c-.91 1.125-2.497 3.042-6.24 2.838-3.433-.179-4.629-1.56-5.515-2.378-4.398-4.204-3.8-13.702 2.576-16.426.78-.331 1.976-.662 3.614-.662 1.794 0 4.29.179 6.214 2.037 2.159 2.113 2.081 3.768 2.159 4.176h-3.563c-.676-2.216-2.6-3.057-4.628-3.057-1.3 0-2.235.331-3.328 1.044-2.393 1.962-2.523 6.697-1.482 8.812.754 1.527 2.159 3.105 4.342 3.335 1.326.128 3.199-.331 4.317-1.706 1.04-1.198 1.04-2.063 1.066-2.547h-4.316l-.002-3.156m15.719 9.965h3.902v-18.588h-3.902zm22.796-3.235c-.676.332-1.428.459-2.182.459-1.247 0-2.493-.357-3.481-1.248-1.247-1.12-1.87-3.133-1.896-5.145.026-2.011.649-4.023 1.896-5.144.988-.891 2.234-1.248 3.481-1.248 1.247 0 2.494.357 3.481 1.248 1.246 1.121 1.87 3.133 1.896 5.144-.026 1.453-.337 2.904-1.013 4.025l-2.13-1.988-2 2.089 1.948 1.808zm4.886.611c1.301-1.757 2.055-4.15 2.055-6.545 0-2.801-1.041-5.601-2.809-7.412-1.587-1.606-3.898-2.32-6.314-2.32-2.415 0-4.728.714-6.313 2.32-1.769 1.811-2.809 4.611-2.809 7.412 0 2.802 1.04 5.604 2.809 7.412 1.585 1.608 3.898 2.321 6.313 2.321 1.766 0 3.481-.382 4.935-1.249l2.185 2.04 2.003-2.066-2.055-1.913zm24.676-15.964v12.812c0 1.629-.417 4.074-3.564 5.577-1.17.511-2.548.765-3.872.765-1.325 0-2.625-.229-3.664-.612-3.146-1.707-3.927-3.897-3.927-5.73v-12.812h3.902v12.864c.052 1.171.416 2.977 3.586 2.977 3.092 0 3.636-1.806 3.636-2.977v-12.864h3.903m22.339-.002v3.187h-9.831v4.25h9.076v3.188h-9.076v4.781h10.273v3.187H200.32V231.44h13.734M6.687 191.625h206.625V6.875H6.687z"
        fill="#2CAA55"></path>
      <path d="M129.019 78.583h3.846c13.022 0 23.676 2.756 23.676 18.979 0 16.529-10.802 19.284-23.972 19.284h-3.55V78.583zm0 49.737h8.582c12.459 0 28.464 3.374 28.464 19.624 0 16.404-13.485 20.39-26.377 20.39h-10.669V128.32zm-13.954 52.764h26.104c19.709 0 38.85-9.107 38.85-32.22 0-13.491-9.205-26.816-22.401-29.264v-.306c7.491-3.672 11.923-13.467 11.923-21.885 0-25.959-19.807-31.576-40.82-31.576h-13.656v115.251zm-14.248-111.88c-1.609-1.617-4.486-3.529-9.062-3.453-12.614.209-30.649 17.99-42.928 35.52-10.112 14.437-27.077 43.985-27.077 79.666h14.5c0-9.512 1.324-18.659 3.563-27.298h50.312v27.549h14.5s.006-98.823.013-99.132c.067-3.082.192-8.818-3.821-12.852zm-56.455 70.435c12.764-32.61 36.985-55.484 45.794-58.932l-.031 58.932H44.362zM156.625 59.5c3.959-20.25-8.041-39-21.291-44.25C125.166 30.583 132.25 65.625 164 65.625c18.625 0 30.875-16.5 31.375-22.25-18.709-4.291-37.125 11.542-38.75 16.125"
        fill="#FFFFFE"></path>
    </g>
  </symbol>
  <symbol viewBox="0 0 1162 255" xmlns="http://www.w3.org/2000/svg" id="eig">
    <title>LogoEIG</title>
    <g transform="translate(5 5)" fill="none" fill-rule="evenodd">
      <path d="M759.4 214.794c-7.849-1.705-13.975-5.098-19.953-11.05-23.11-23.011-9.51-63.335 23.072-68.408 8.698-1.354 17.725.253 26.242 4.673 9.044 4.693 9.227 5.19 4.49 12.164-2.156 3.175-4.094 5.773-4.307 5.773-.213 0-2.221-1.238-4.463-2.751-10.158-6.855-23.357-6.002-31.584 2.042-12.057 11.788-8.738 34.42 6.035 41.148 4.743 2.16 14.51 2.281 20.458.254l4.386-1.494v-22.324h16.875v28.03l-3.047 2.89c-4.367 4.14-13.32 8.25-20.39 9.36-7.56 1.186-11.232 1.123-17.813-.307zm75.217-.176c-9.594-2.583-15.84-7.584-19.899-15.93-3.237-6.658-3.335-20.314-.194-27.148 2.94-6.399 8.706-12.015 15.434-15.034 5.093-2.286 6.425-2.485 14.173-2.121 12.042.566 19.408 4.651 24.717 13.71 2.18 3.719 2.586 5.609 2.903 13.494l.368 9.17h-22.14c-12.177 0-22.14.36-22.14.799 0 1.899 4.484 7.12 7.485 8.715 4.827 2.565 12.623 2.311 18.37-.598l4.61-2.335 4.583 4.584 4.583 4.583-5.05 3.338c-5.343 3.53-14.017 6.267-19.544 6.165-1.825-.034-5.542-.66-8.26-1.392zm20.636-38.156c-2.063-8.133-11.489-11.564-19.933-7.257-3.332 1.7-6.544 5.814-6.544 8.382 0 .642 4.7.984 13.506.984h13.506l-.535-2.11zM976.04 214.64c-6.17-1.729-9.759-3.88-14.327-8.588-5.654-5.825-7.72-11.526-7.753-21.387-.024-7.362.304-9.114 2.578-13.744 2.862-5.828 7.786-10.792 13.992-14.106 3.464-1.85 5.403-2.15 13.87-2.15 8.86 0 10.314.25 14.532 2.494 9.812 5.221 14.008 12.296 15.065 25.397l.662 8.203h-45.16l.99 2.843c2.905 8.331 17.445 11.256 26.251 5.28l3.153-2.14 4.468 4.91 4.467 4.91-3.252 2.48c-7.607 5.802-20.257 8.2-29.536 5.598zm21.486-36.568c0-.274-.607-1.952-1.35-3.73-2.762-6.608-12.101-9.065-19.232-5.057-3.297 1.853-6.606 5.99-6.606 8.259 0 .697 4.365 1.027 13.594 1.027 7.477 0 13.594-.224 13.594-.499zm87.13 36.72c-8.191-2.21-13.267-7.275-14.986-14.955-2.193-9.798 2.637-17.861 12.442-20.773 3.036-.902 8.61-1.43 15.076-1.43h10.26l-.6-3.002c-.798-3.989-3.743-6.971-7.482-7.578-3.986-.647-11.236.745-16.072 3.086-2.123 1.028-4.09 1.869-4.369 1.869-.28 0-2.015-2.27-3.857-5.043l-3.348-5.043 4.387-2.374c7.64-4.134 14.49-5.61 23.976-5.163 9.592.45 14.567 2.393 18.695 7.298 3.831 4.553 4.362 8.402 4.368 31.653l.01 21.797h-15v-7.646l-3.805 3.256c-3.538 3.028-9.751 5.412-13.72 5.264-.932-.035-3.618-.582-5.97-1.216h-.005zm17.76-14.312c2.374-1.663 4.797-6.604 4.797-9.782 0-1.917-.345-1.983-8.81-1.67-7.042.26-9.204.683-10.78 2.11-2.502 2.266-2.548 6.545-.097 8.996 2.429 2.43 11.61 2.643 14.89.346zm35.735-27.065v-42.656h18.75v85.312h-18.75v-42.656zm-253.125 11.719v-30h15.937v2.812c0 1.547.16 2.813.356 2.813.195 0 2.832-1.506 5.859-3.347 5.233-3.18 5.858-3.331 12.682-3.044 6.284.265 7.677.665 11.194 3.213 2.24 1.623 5.286 5.147 6.885 7.966l2.868 5.055.309 22.266.309 22.266H924.4l-.004-20.39c-.003-18.727-.156-20.642-1.876-23.462-4.941-8.105-17.75-4.984-20.522 5-.574 2.068-1.028 11.437-1.03 21.274l-.006 17.578h-15.936v-30zm141.562 0v-30h16.875v7.851l2.579-2.416c3.371-3.16 9.852-6.373 12.853-6.373 2.351 0 2.38.094 2.38 7.5v7.5h-3.53c-5.114 0-9.664 2.813-12.149 7.512-1.994 3.772-2.133 5.147-2.133 21.23v17.196h-16.875v-30zm-189.414-46.172c2.611-3.738 5.704-7.995 6.872-9.46l2.125-2.661 7.55 3.13c4.152 1.723 7.543 3.553 7.536 4.069-.007.516-3.053 3.363-6.767 6.328l-6.753 5.39h-15.31l4.747-6.796zm138.957 3.75c1.246-1.676 4.332-5.897 6.858-9.38 5.134-7.079 4.2-6.917 14.519-2.515 3.361 1.434 5.936 2.957 5.72 3.384-.215.427-3.367 3.202-7.005 6.167l-6.613 5.39h-15.744l2.265-3.046z"
        fill="#EB1C24" fill-rule="nonzero"></path>
      <path d="M247.086 214.59c-6.34-1.95-13.874-9.173-17.239-16.527-2.315-5.06-2.696-7.046-2.682-13.972.016-7.215.346-8.74 3.101-14.337 2.185-4.438 4.423-7.322 7.68-9.896 6.035-4.771 9.88-5.933 18.239-5.51 5.96.3 7.483.76 11.2 3.38 2.365 1.667 4.499 3.03 4.741 3.03.243 0 .442-6.538.442-14.53v-14.532h15.938v83.438h-15.939v-3.75c0-2.063-.25-3.75-.554-3.75-.305 0-2.228 1.432-4.274 3.183-3.608 3.089-9.68 5.322-14.103 5.189-1.19-.036-4.138-.673-6.55-1.416zm18.792-15.111c8.749-6.368 8.648-23.325-.176-29.76-3.765-2.744-11.339-2.653-15.32.187-6.346 4.527-8.707 15.326-5.09 23.29 1.593 3.508 4.922 6.705 8.526 8.186 2.53 1.04 9.535-.066 12.06-1.903zm67.627-23.72v-40.313h18.75v80.625h-18.75V175.76zm123.514 39.028c-5.134-1.91-9.565-5.612-11.585-9.678-1.51-3.04-1.816-6.176-2.064-21.147l-.291-17.578h-7.386v-11.25h7.5v-18.75h16.875v18.75h14.062v11.25h-14.062v15.792c0 14.109.182 15.958 1.714 17.344 2.162 1.956 7.044 1.998 9.963.086 2.185-1.432 2.295-1.366 4.765 2.848 1.39 2.373 2.584 4.974 2.652 5.781.185 2.187-8.734 6.886-14.069 7.412-2.703.266-5.987-.083-8.074-.86zm52.267-.028c-13.851-3.405-21.935-13.238-22.772-27.7-.817-14.111 5.068-24.486 17.126-30.19 15.408-7.29 36.161.099 41.115 14.637.934 2.743 1.563 7.534 1.563 11.92v7.333h-22.032c-12.117 0-22.03.36-22.03.799 0 1.98 4.559 7.322 7.518 8.809 4.963 2.493 12.775 2.168 18.286-.762l4.521-2.404 4.653 4.653 4.653 4.653-5.05 3.338c-5.363 3.544-14.056 6.278-19.544 6.146-1.826-.043-5.429-.598-8.007-1.232zm20.157-37.64c0-5.06-6.094-9.798-12.601-9.798-6.191 0-13.65 5.36-13.65 9.811 0 1.225 1.95 1.44 13.126 1.44 11.228 0 13.125-.21 13.125-1.454zm96.884 38.029c-8.764-1.853-16.748-7.77-20.773-15.399-2.29-4.34-2.518-5.703-2.518-15.084 0-9.797.146-10.57 2.905-15.469 3.302-5.86 9.986-11.448 16.247-13.584 5.352-1.826 16.39-1.816 21.697.02 11.848 4.098 17.844 12.792 18.516 26.848l.396 8.279h-22.146c-24.432 0-24.4-.01-19.69 5.586 3.481 4.138 6.982 5.664 12.996 5.664 4.945 0 9.104-1.27 12.98-3.966 1.508-1.049 2.21-.644 5.897 3.396l4.185 4.586-1.988 2.116c-5.07 5.398-19.57 8.937-28.704 7.007zm18.942-39.155c-2.726-11.215-21.8-11.383-25.689-.226l-.977 2.804h27.293l-.627-2.578zm47.073 38.798c-5.32-1.98-7.961-4.006-10.792-8.28-2.554-3.856-2.579-4.047-2.882-22.009l-.306-18.118h-7.357v-11.25h7.5v-18.75h15.938v18.75h15v11.25h-15v14.001c0 13.535.767 18.463 3.105 19.95 1.896 1.205 7.163.808 9.489-.716 2.175-1.425 2.272-1.353 5.271 3.889 2.962 5.177 3.001 5.382 1.267 6.681-6.668 5-15.198 6.848-21.233 4.602zM369.13 185.134v-30h15.938v2.812c0 2.773 1.202 3.721 2.354 1.857.325-.525 2.656-2.002 5.18-3.28 11.553-5.855 25.267-.802 30.586 11.267 1.382 3.137 1.71 7.31 2.01 25.547l.358 21.797h-17.051v-19.718c0-22.821-.573-25.38-6.211-27.736-6.58-2.75-14.346 1.027-16.256 7.905-.528 1.9-.962 11.576-.965 21.502l-.005 18.047H369.13v-30zm190.313 0v-30h15.937v7.405l5.463-3.77c3.355-2.316 6.972-3.973 9.375-4.295l3.911-.525v15.009l-4.634.445c-5.859.563-8.852 2.525-11.503 7.541-1.904 3.604-2.13 5.554-2.445 21.08l-.347 17.11h-15.759v-30zM302.62 159.687c1.067-2.709 2.152-5.268 2.41-5.686.26-.418-.4-1.868-1.465-3.222-4.58-5.822.06-14.395 7.79-14.395 1.274 0 3.616 1.092 5.202 2.427 2.404 2.023 2.885 3.104 2.885 6.491 0 3.347-.87 5.36-4.922 11.401-4.892 7.292-4.95 7.339-9.382 7.623l-4.46.286 1.942-4.925zm204.91-15.1c1.667-2.792 12.73-17.578 13.152-17.578.256 0 4.001 1.519 8.323 3.375l7.857 3.376-7.226 5.971-7.226 5.971-7.79.029c-5.985.021-7.627-.244-7.09-1.144zm103.111 0c.377-.645 3.007-4.442 5.845-8.438l5.159-7.265h20.843l5.813 8.203 5.813 8.203-6.241.28-6.242.281-4.33-4.265c-2.381-2.345-4.755-4.265-5.275-4.265-.519 0-2.807 1.899-5.084 4.219-4.11 4.187-4.19 4.219-10.563 4.219-4.879 0-6.258-.282-5.738-1.172zm-59.637-52.735V53.884h12.188v9.44l2.958-3.37c4.376-4.983 9.017-7.012 15.989-6.987 17.15.06 29.262 15.855 26.029 33.946-2.437 13.632-12.922 23.152-25.553 23.2-6.212.024-10.53-1.53-15.756-5.67l-3.667-2.904v28.282h-12.188V91.852zm36.47 6.61c12.029-6.22 12.944-25.37 1.583-33.134-5.79-3.957-14.054-3.587-19.74.885-10.388 8.172-7.814 28.422 4.187 32.932 2.822 1.06 11.412.64 13.97-.682zm-174.783 10.36c-3.704-1.614-8.107-6.327-9.5-10.17-.682-1.88-1.134-9.434-1.178-19.69l-.071-16.64h-7.5v-8.439h7.5V36.07h11.25v17.814h15v8.438h-15v32.956l2.856 2.856c2.441 2.442 3.342 2.777 6.21 2.312 1.844-.3 4.097-1.217 5.005-2.04 1.54-1.392 1.81-1.21 3.988 2.686l2.337 4.18-4.466 2.431c-5.027 2.737-11.677 3.19-16.43 1.118zm88.347.014c-12.327-4.586-18.471-13.65-18.471-27.247 0-12.655 4.768-20.632 15.487-25.91 5.628-2.77 6.557-2.943 13.8-2.562 16.761.88 26.025 10.724 26.025 27.656v5.923H515.85c-20.82 0-22.031.096-22.031 1.737 0 2.874 3.98 7.82 7.968 9.9 5.895 3.076 15.519 2.754 21.421-.715l4.546-2.672 3.216 3.116 3.215 3.117-2.136 1.698c-5.887 4.68-11.386 6.646-19.48 6.967-5.279.21-9.171-.13-11.53-1.008zm25.229-34.562c-1.328-6.78-6.777-11.217-14.39-11.718-4.287-.283-6.275.092-9.615 1.814-4.594 2.367-8.445 7.268-8.445 10.746v2.205h33.046l-.596-3.047zm153.829 34.506c-12.376-4.414-19.115-15.27-18.27-29.43.49-8.187 2.627-13.227 7.803-18.404 5.169-5.169 10.22-7.313 18.369-7.8 8.828-.528 14.844 1.265 20.502 6.108 5.838 4.997 8.421 11.177 8.432 20.177l.01 7.265h-44.266l.612 2.442c1.06 4.225 3.344 6.767 8.291 9.232 7.256 3.616 16.519 2.875 22.744-1.82l2.85-2.149 3.039 3.62 3.04 3.62-3.934 2.85c-2.163 1.567-6.05 3.477-8.638 4.246-5.799 1.722-15.818 1.743-20.584.043zm25.292-34.84c-.805-4.96-3.066-7.806-7.904-9.946-8.429-3.728-20.217-.048-23.272 7.265-2.612 6.25-3.084 6.062 15.196 6.062h16.529l-.549-3.38zm108.374 34.697c-5.752-2.115-12.74-8.795-15.211-14.54-3.018-7.015-3.464-13.692-1.422-21.25 1.455-5.384 2.47-7.072 6.93-11.533 6.13-6.13 11.575-8.368 20.358-8.368 11.105 0 20.92 5.808 24.886 14.726.964 2.17 2.015 7.338 2.335 11.484l.582 7.54h-22.64c-12.45 0-22.638.225-22.638.5 0 1.99 3.065 7.046 5.526 9.117 6.882 5.791 19.457 5.882 26.222.19l2.743-2.309 2.968 3.38c2.83 3.224 2.893 3.462 1.355 5.161-.886.98-3.937 2.919-6.778 4.309-6.457 3.159-18.833 3.941-25.216 1.593zm25.989-33.894c-.008-6.425-7.431-12.357-15.516-12.401-6.04-.033-13.033 3.958-15.362 8.768-1.062 2.195-1.931 4.49-1.931 5.1 0 .814 4.391 1.111 16.406 1.111h16.406l-.004-2.578zm35.541 33.21c-5.251-2.773-9.014-8.144-10.219-14.588-.519-2.777-.944-12.797-.944-22.265V53.884h12.188v18.374c0 20.493.699 23.61 5.901 26.3 4.086 2.113 12.534 1.345 16.532-1.502 5.087-3.622 5.692-6.362 5.692-25.798V53.884h11.25v55.312h-11.25v-9.802l-2.812 3.41c-6.037 7.325-17.844 9.633-26.338 5.148zm-612.1-35.32V36.072h51.562v11.25H275.38V67.01h35.625v11.25H275.38v19.686h41.25v11.25h-53.437V72.634zm68.437 8.907V53.884h11.25v9.44l2.854-3.25c4.608-5.249 10.1-7.402 17.772-6.969 8.153.461 13.258 3.679 16.823 10.604 2.315 4.497 2.406 5.33 2.721 25.07l.326 20.417h-12.37V90.822c0-20.338-.714-23.618-5.705-26.198-4.151-2.147-12.171-1.764-15.953.763-5.827 3.893-6.464 6.475-6.465 26.231l-.001 17.578H331.63V81.54zm111.563 0V53.884h12.188v10.318l3.452-3.821c3.68-4.073 9.308-7.435 12.448-7.435 1.713 0 1.913.589 1.913 5.625 0 5.335-.118 5.625-2.283 5.625-5.675 0-10.96 3.782-13.758 9.844-1.461 3.166-1.734 6.195-1.751 19.453l-.02 15.703h-12.189V81.54zm180 0V53.884h11.25v10.65l3.283-3.837c3.238-3.782 9.869-7.75 12.95-7.75 1.301 0 1.58.968 1.58 5.504v5.506l-3.59.574c-4.914.785-9.458 4.087-11.798 8.571-1.72 3.299-1.992 5.7-2.251 19.922l-.295 16.172h-11.128V81.54zm107.812 0V53.884h11.25v9.802l2.811-3.41c3.904-4.736 9.66-7.33 16.265-7.33 8.888 0 14.777 3.388 18.743 10.781 1.85 3.451 2.037 5.414 2.33 24.61l.32 20.86h-11.237l-.319-18.516c-.287-16.652-.513-18.846-2.245-21.795-2.447-4.165-5.306-5.596-11.214-5.613-6.414-.02-10.724 2.41-13.345 7.52-1.96 3.823-2.109 5.322-2.109 21.258v17.145h-11.25V81.54zm202.5 0V53.884h12.188v10.318l3.451-3.821c3.68-4.073 9.309-7.435 12.449-7.435 1.712 0 1.912.589 1.912 5.625 0 5.335-.118 5.625-2.283 5.625-5.674 0-10.96 3.782-13.757 9.844-1.462 3.166-1.734 6.195-1.752 19.453l-.02 15.703h-12.188V81.54zm70.295-13.365c-1.227-1.533-2.74-2.817-4.542-3.852-1.802-1.036-4.006-1.553-6.613-1.553-2.453 0-4.58.517-6.382 1.553-1.802 1.035-2.703 2.549-2.703 4.542 0 1.61.517 2.913 1.553 3.91 1.035.997 2.261 1.802 3.68 2.415a21.579 21.579 0 0 0 4.542 1.38c1.61.307 2.99.575 4.14.805a48.012 48.012 0 0 1 6.267 1.955c1.956.767 3.642 1.763 5.06 2.99 1.419 1.227 2.53 2.722 3.336 4.485.804 1.763 1.207 3.91 1.207 6.44 0 3.067-.652 5.692-1.955 7.877-1.303 2.186-2.99 3.968-5.06 5.348-2.07 1.38-4.427 2.377-7.072 2.99-2.646.613-5.31.92-7.993.92-4.523 0-8.49-.69-11.903-2.07-3.411-1.38-6.459-3.91-9.142-7.59l7.82-6.44a32.197 32.197 0 0 0 5.635 4.485c2.07 1.303 4.6 1.955 7.59 1.955 1.303 0 2.626-.134 3.967-.403 1.342-.268 2.53-.69 3.566-1.264 1.035-.576 1.878-1.304 2.53-2.185.651-.882.977-1.898.977-3.048 0-1.533-.48-2.798-1.438-3.795-.958-.997-2.108-1.782-3.45-2.358a25.112 25.112 0 0 0-4.255-1.38 139.963 139.963 0 0 0-3.967-.862 68.406 68.406 0 0 1-6.325-1.84c-1.993-.69-3.757-1.61-5.29-2.76-1.533-1.15-2.76-2.607-3.68-4.37-.92-1.763-1.38-3.948-1.38-6.555 0-2.837.594-5.31 1.783-7.418a15.841 15.841 0 0 1 4.715-5.232c1.955-1.38 4.178-2.415 6.67-3.105a28.104 28.104 0 0 1 7.532-1.035c3.68 0 7.207.69 10.58 2.07s6.057 3.68 8.05 6.9l-8.05 6.095z"
        fill="#1C419B" fill-rule="nonzero"></path>
      <circle stroke="#EB1C24" stroke-width="10" stroke-linecap="square" transform="matrix(1 0 0 -1 0 227.609)" cx="151.704" cy="113.804" r="20.5"></circle>
      <circle stroke="#1C419B" stroke-width="10" stroke-linecap="square" transform="matrix(1 0 0 -1 0 261.185)" cx="74.804" cy="130.593" r="20.5"></circle>
      <path stroke="#1C419B" stroke-width="10" stroke-linecap="round" d="M75.617 69.56V44.947L151.215.782l75.18 43.405v86.868l-75.781 44.152-57.775-33.756"></path>
      <path stroke="#EB1C24" stroke-width="10" stroke-linecap="round" d="M133.746 102.353L75.81 68.903 0 112.674v87.7l74.563 43.05 76.025-43.893v-25.15"></path>
      <path d="M75.617 69.56V44.947" stroke="#1C419B" stroke-width="10" stroke-linecap="round"></path>
    </g>
  </symbol>
  <symbol xmlns="http://www.w3.org/2000/svg" viewBox="0 0 600 660" id="ign">
    <path d="M.422 272.584h51.5V8.8H.422v263.784zM552.15 8.806V166.83C543.46 157.17 401.998 0 401.998 0h-7.867v272.59h47.83V116.709c8.71 9.564 149.821 164.68 149.821 164.68H600V8.806h-47.85zm-266.863 187.54l-2.732-.105v27.423c-17.164 6.515-30.29 9.11-46.12 9.11-56.314 0-92.693-37.735-92.693-96.123 0-55.413 34.26-89.872 89.393-89.872 31.178 0 56.9 11.562 76.446 34.326l4.265 4.943 3.783-60.082-1.173-.862c-8.293-6.051-12.19-7.983-22.11-12.405C273.685 3.675 256.143.001 233.864.001c-40.058 0-76.23 13.939-101.847 39.26-25.647 25.33-39.756 61.095-39.756 100.695 0 81.966 58.31 141.433 138.68 141.433 20.134 0 42.886-3.513 62.386-9.659 13.636-4.166 21.277-7.3 38.866-15.946l1.485-.71v-66.73l-3.537 1.278c-14.024 4.972-29.098 7.235-44.853 6.724"
      fill="#676c70"></path>
    <path d="M275.19 111.66c-.113-.047-.255-.066-.359-.113-32.804-8.523-66.148-3.684-90.783 12.613 13.656 26.106 40.37 46.418 73.09 54.93.095.02.265.067.265.067 32.814 8.513 66.11 3.684 90.736-12.594-13.599-26.097-40.257-46.418-72.948-54.903" fill="#80cc28"></path>
    <path d="M52.598 380.87c0 1.487-.482 2.718-1.446 3.684-1.06 1.099-2.478 1.657-4.265 1.657-1.674 0-2.96-.426-3.878-1.26-.397-.368-1.097-1.42-2.118-3.18L24.57 354.128v31.524h-6.695v-33.569c0-3.816 1.91-5.729 5.712-5.729 1.74 0 3.054.407 3.952 1.222.492.445 1.21 1.496 2.185 3.172l16.17 27.612v-31.655h6.705v34.165zm40.927-28.789H75.548c-2.94 0-4.775.606-5.494 1.809-.425.73-.643 2.396-.643 4.98 0 1.355.549 2.425 1.665 3.173.917.606 2.402.909 4.472.909h7.433c3.178 0 5.712.7 7.613 2.112 1.9 1.41 2.856 3.4 2.856 5.965v6.193c0 2.69-.974 4.763-2.922 6.202-1.948 1.44-4.625 2.15-8 2.15H62.47v-5.72h17.977c2.988 0 4.842-.653 5.57-1.96.33-.681.492-2.452.492-5.302 0-2.661-1.948-3.996-5.845-3.996h-7.442c-3.083 0-5.608-.654-7.584-1.96-2.156-1.44-3.244-3.4-3.244-5.89v-6.108c0-2.756 1.173-4.933 3.528-6.553 1.645-1.145 4.028-1.733 7.158-1.733h20.445v5.73zm39.06-.117h-11.982v33.616h-7.016v-33.616H101.67v-5.729h30.914v5.729zm14.499 33.616h-7.017v-39.335h7.017v39.336zm38.386-33.616h-11.982v33.616h-7.017v-33.616h-11.915v-5.729h30.914v5.729zm42.132 23.726c0 1.78-.17 3.134-.502 4.081-.435 1.279-1.295 2.443-2.572 3.494-1.267 1.042-2.6 1.724-4.01 2.036-.964.19-2.553.275-4.766.275h-10.96c-2.118 0-3.678-.114-4.68-.35a9.119 9.119 0 0 1-4.058-1.96c-1.342-1.127-2.231-2.292-2.685-3.495-.274-.833-.416-2.187-.416-4.081v-29.336h7.007v28.285c0 2.036.482 3.409 1.447 4.128.964.73 2.723 1.08 5.258 1.08h7.224c2.488 0 4.228-.34 5.22-1.042.984-.681 1.476-2.026 1.476-4.015v-28.436h7.017v29.336zm38.422-23.726h-11.982v33.616h-7.017v-33.616H235.11v-5.729h30.914v5.729zm59.521 28.906c0 1.487-.482 2.718-1.447 3.684-1.059 1.099-2.487 1.657-4.265 1.657-1.664 0-2.96-.426-3.877-1.26-.397-.368-1.106-1.42-2.118-3.18l-16.322-27.642v31.524h-6.695v-33.569c0-3.816 1.91-5.729 5.711-5.729 1.75 0 3.055.407 3.953 1.222.492.445 1.22 1.496 2.185 3.172l16.17 27.612v-31.655h6.705v34.165zm35.465-10.277l-7.65-17.452-6.94 17.452h14.59zm13.921 14.98h-7.509l-4.198-9.611h-19.017l-4.2 9.611H332.5l15.642-35.642c1.059-2.358 2.922-3.532 5.57-3.532 2.657 0 4.52 1.174 5.57 3.532l15.65 35.642zm30.854-33.609h-11.982v33.616h-7.016v-33.616H374.87v-5.729h30.914v5.729zm14.489 33.616h-7.017v-39.335h7.017v39.336zM458 375.264v-18.276c0-1.837-.482-3.106-1.447-3.825-.955-.72-2.553-1.08-4.756-1.08h-7.367c-2.26 0-3.868.36-4.832 1.08-.955.72-1.447 1.988-1.447 3.825v18.115c0 1.62.539 2.87 1.589 3.721.87.692 2.43 1.023 4.69 1.023h7.367c2.156 0 3.735-.331 4.719-1.023.993-.672 1.484-1.865 1.484-3.56m6.904 1.41c0 5.929-3.84 8.902-11.528 8.902h-10.6c-3.717 0-6.488-.653-8.323-1.96-2.212-1.572-3.31-3.854-3.31-6.865v-21.41c0-2.983 1.116-5.294 3.377-6.941 1.787-1.364 4.539-2.046 8.255-2.046h10.677c7.631 0 11.452 3.002 11.452 8.987v21.334zm45.687 4.196c0 1.487-.473 2.718-1.437 3.684-1.06 1.099-2.478 1.657-4.265 1.657-1.674 0-2.96-.426-3.877-1.26-.407-.368-1.107-1.42-2.119-3.18l-16.322-27.642v31.524h-6.686v-33.569c0-3.816 1.892-5.729 5.703-5.729 1.74 0 3.054.407 3.943 1.222.492.445 1.22 1.496 2.194 3.172l16.17 27.612v-31.655h6.696v34.165zm35.469-10.277l-7.641-17.452-6.95 17.452h14.59zm13.93 14.98h-7.51l-4.198-9.611h-19.036l-4.19 9.611h-7.508l15.65-35.642c1.06-2.358 2.904-3.532 5.57-3.532 2.658 0 4.512 1.174 5.57 3.532l15.651 35.642zm38.25.003h-18.658c-4.085 0-7.215-.7-9.409-2.093-2.184-1.401-3.272-3.835-3.272-7.32v-29.847h7.007v28.474c0 2.008.577 3.419 1.731 4.195.87.606 2.733.91 5.57.91h17.031v5.68zM27.955 466.19v-18.039c0-3.143-1.93-4.715-5.778-4.715H7.008v27.925h15.169c3.848 0 5.778-1.724 5.778-5.17m6.912 1.884c0 2.746-.908 4.924-2.704 6.543-1.797 1.629-4.36 2.434-7.707 2.434H0v-39.26h24.322c7.026 0 10.544 2.926 10.544 8.778v21.505zm41.147-7.772H53.138v6.629c0 2.926 2.043 4.393 6.128 4.393h18.119v5.73h-20.02c-3.451 0-6.146-.673-8.066-1.999-2.128-1.496-3.177-3.607-3.177-6.325v-22.082c0-2.709.936-4.849 2.818-6.402 1.872-1.562 4.473-2.338 7.792-2.338h20.653v5.728H59.2c-4.047 0-6.062 1.44-6.062 4.318v6.705h22.876v5.643zm70.417 16.747h-18.639c-4.094 0-7.234-.7-9.419-2.092-2.193-1.402-3.28-3.835-3.28-7.32v-29.847h7.016v28.474c0 2.017.577 3.409 1.73 4.195.86.606 2.724.909 5.57.909h17.022v5.682zm6.362-40.782c0 .834-.141 1.6-.425 2.311l-3.073 7.216h-3.726l2.534-6.155c-1.324-1.516-1.976-2.737-1.976-3.646 0-1.127.33-2.083.993-2.84.652-.787 1.465-1.166 2.42-1.166.927 0 1.693.417 2.317 1.26.624.833.936 1.837.936 3.02m20.031 40.785h-7.016v-39.335h7.016v39.335zm45.943-4.71c0 1.487-.482 2.718-1.447 3.684-1.059 1.098-2.477 1.657-4.265 1.657-1.664 0-2.96-.426-3.867-1.26-.407-.369-1.107-1.42-2.128-3.181l-16.313-27.64v31.522h-6.704v-33.568c0-3.816 1.91-5.729 5.711-5.729 1.75 0 3.064.407 3.953 1.222.501.445 1.22 1.496 2.185 3.172l16.18 27.612v-31.646h6.695v34.155zm42.601-12h-24.322v16.704h-7.017v-31.173c0-2.538 1.078-4.593 3.244-6.164 1.74-1.203 4.312-1.8 7.716-1.8h20.38v5.73h-18.47c-3.905 0-5.853 1.344-5.853 4.033v7.026h24.322v5.644zm39.176 6.395v-18.276c0-1.837-.483-3.106-1.447-3.826-.965-.72-2.553-1.079-4.757-1.079h-7.376c-2.25 0-3.858.36-4.823 1.08-.964.72-1.447 1.988-1.447 3.825v18.115c0 1.619.53 2.869 1.59 3.721.87.691 2.43 1.023 4.68 1.023h7.376c2.156 0 3.736-.332 4.72-1.023.992-.672 1.484-1.865 1.484-3.56m6.903 1.41c0 5.928-3.84 8.902-11.518 8.902h-10.62c-3.716 0-6.478-.654-8.312-1.96-2.213-1.572-3.31-3.854-3.31-6.866v-21.42c0-2.972 1.125-5.283 3.376-6.93 1.797-1.364 4.53-2.046 8.246-2.046h10.686c7.632 0 11.452 3.002 11.452 8.977v21.344zm45.699 8.902h-8.738l-17.173-15.065c-.586-.492-.88-1.316-.88-2.462 0-2.197 1.447-3.295 4.341-3.295l10.25-.076c3.415 0 5.117-1.316 5.117-3.93v-4.507c0-2.746-1.93-4.12-5.778-4.12h-14.497v33.456h-7.007v-39.184h23.547c7.158 0 10.742 2.784 10.742 8.352v6.79c0 2.433-.927 4.393-2.78 5.88-1.853 1.486-4.303 2.234-7.329 2.234h-8.076l18.26 15.928zm58.453.197h-6.705v-30.87l-12.36 27.499c-1.2 2.689-2.884 4.043-5.04 4.043-1.296 0-2.355-.398-3.168-1.184-.501-.52-1.021-1.392-1.598-2.623l-12.653-27.735v30.87h-6.695V443.09c0-1.496.53-2.737 1.588-3.702 1.06-.985 2.525-1.478 4.407-1.478 2.847 0 4.795 1.222 5.854 3.646l12.199 27.802 12.407-27.84c1.097-2.462 3.026-3.693 5.778-3.693 1.92 0 3.404.502 4.435 1.515 1.04 1.004 1.55 2.301 1.55 3.864v34.042zm35.831-15.182l-7.65-17.443-6.942 17.443h14.592zm13.92 14.99h-7.509l-4.189-9.612h-19.036l-4.19 9.611h-7.517l15.66-35.66c1.05-2.35 2.903-3.523 5.57-3.523 2.657 0 4.51 1.174 5.57 3.522l15.64 35.661zm31.213-33.619h-11.981v33.616h-7.017v-33.616H461.65v-5.72h30.913v5.72zm14.853 33.617H500.4v-39.335h7.016v39.335zm38.083-10.315v-18.276c0-1.837-.482-3.106-1.447-3.826-.955-.72-2.544-1.079-4.757-1.079h-7.366c-2.26 0-3.868.36-4.832 1.08-.956.72-1.447 1.988-1.447 3.825v18.115c0 1.619.539 2.869 1.598 3.721.86.691 2.42 1.023 4.68 1.023h7.367c2.166 0 3.736-.332 4.729-1.023.983-.672 1.475-1.865 1.475-3.56m6.913 1.41c0 5.928-3.85 8.902-11.537 8.902h-10.601c-3.716 0-6.487-.654-8.322-1.96-2.213-1.572-3.31-3.854-3.31-6.866v-21.42c0-2.972 1.126-5.283 3.386-6.93 1.778-1.364 4.53-2.046 8.246-2.046h10.676c7.641 0 11.462 3.002 11.462 8.977v21.344zm46.048 4.195c0 1.487-.482 2.718-1.446 3.684-1.06 1.098-2.478 1.657-4.265 1.657-1.674 0-2.96-.426-3.877-1.26-.398-.369-1.097-1.42-2.11-3.181l-16.321-27.64v31.522h-6.696v-33.568c0-3.816 1.901-5.729 5.703-5.729 1.74 0 3.054.407 3.953 1.222.482.445 1.22 1.496 2.184 3.172l16.17 27.612v-31.646h6.705v34.155zM34.37 559.036c0 3.03-.898 5.312-2.685 6.865-1.929 1.743-4.52 2.623-7.783 2.623H11.703c-3.801 0-6.695-.748-8.671-2.234-1.343-.995-2.241-2.197-2.676-3.608-.237-.815-.35-2.225-.35-4.233v-19.885c0-1.837.18-3.23.558-4.195.548-1.231 1.55-2.31 3.026-3.258 1.882-1.202 4.586-1.799 8.113-1.799h20.124v5.644H13.15c-2.213 0-3.754.293-4.624.9-1.002.672-1.513 1.884-1.513 3.607v18.759c0 1.742.548 3.002 1.664 3.76.86.577 2.308.851 4.331.851h9.098c3.546 0 5.314-1.467 5.314-4.384v-11.61h6.95v12.197zm43.435-40.004l-5.353 7.017h-5.22l4.72-7.017h5.853zm7.924 49.487H65.72c-3.46 0-6.156-.673-8.076-2.027-2.118-1.477-3.168-3.589-3.168-6.363V537.97c0-2.737.937-4.886 2.819-6.43 1.872-1.534 4.472-2.31 7.782-2.31H85.73v5.681H67.544c-4.037 0-6.061 1.496-6.061 4.48v6.666h24.246v5.643H61.483v6.629c0 2.954 2.052 4.431 6.128 4.431h18.118v5.758zm46.331-10.301v-18.285c0-1.828-.482-3.106-1.447-3.826-.964-.71-2.544-1.08-4.757-1.08h-7.366c-2.26 0-3.868.37-4.833 1.08-.955.72-1.446 1.998-1.446 3.826v18.124c0 1.62.539 2.86 1.588 3.721.87.682 2.43 1.023 4.69 1.023h7.367c2.166 0 3.736-.34 4.729-1.023.983-.672 1.475-1.865 1.475-3.56m6.913 1.401c0 5.938-3.85 8.902-11.537 8.902h-10.601c-3.717 0-6.487-.654-8.322-1.951-2.213-1.581-3.31-3.864-3.31-6.875v-21.41c0-2.973 1.126-5.293 3.386-6.94 1.778-1.355 4.53-2.037 8.246-2.037h10.676c7.641 0 11.462 2.993 11.462 8.977v21.334zm54.499-.583c0 3.03-.899 5.312-2.676 6.865-1.93 1.743-4.53 2.623-7.793 2.623h-12.199c-3.801 0-6.695-.748-8.671-2.234-1.343-.995-2.232-2.197-2.676-3.608-.237-.815-.35-2.225-.35-4.233v-19.885c0-1.837.18-3.23.567-4.195.54-1.231 1.541-2.31 3.026-3.258 1.873-1.202 4.577-1.799 8.104-1.799h20.124v5.644h-18.677c-2.213 0-3.744.293-4.624.9-1.002.672-1.513 1.884-1.513 3.607v18.759c0 1.742.558 3.002 1.664 3.76.86.577 2.308.851 4.331.851h9.098c3.546 0 5.324-1.467 5.324-4.384v-11.61h6.94v12.197zm54.466 9.485H239.2l-17.164-15.065c-.595-.483-.889-1.307-.889-2.462 0-2.187 1.447-3.295 4.341-3.295l10.26-.076c3.405 0 5.107-1.307 5.107-3.92v-4.508c0-2.746-1.92-4.119-5.778-4.119h-14.488v33.445h-7.016v-39.174h23.547c7.168 0 10.752 2.784 10.752 8.352v6.78c0 2.434-.927 4.403-2.79 5.88-1.854 1.497-4.293 2.235-7.329 2.235h-8.076l18.26 15.927zm43.62-14.981l-7.66-17.452-6.94 17.452h14.6zm13.92 14.98h-7.508l-4.199-9.601h-19.027l-4.198 9.602h-7.509l15.65-35.652c1.06-2.348 2.913-3.523 5.57-3.523 2.649 0 4.511 1.175 5.57 3.523l15.651 35.652zm43.644-25.011v-4.669c0-2.642-1.863-3.967-5.598-3.967h-14.951v13.058h14.771c3.858 0 5.778-1.468 5.778-4.422m7.017 1.837c0 2.623-.927 4.677-2.78 6.183-1.854 1.496-4.398 2.244-7.613 2.244h-17.173v14.753h-7.017v-39.335h23.84c3.074 0 5.58.634 7.5 1.922 2.06 1.402 3.12 3.343 3.167 5.805.057 2.632.076 5.445.076 8.428m54.823 23.175h-6.979V551.78h-21.078v16.741h-7.017V529.31h7.017v16.827h21.078V529.31h6.98v39.212zm27.072.005h-7.017v-39.335h7.017v39.335zm47.176-9.922v-18.91c0-1.799-.51-3.02-1.522-3.683-1.002-.644-2.638-.976-4.889-.976h-7.376c-2.203 0-3.811.332-4.823.976-1.012.663-1.513 1.884-1.513 3.683v18.683c0 1.79.53 3.011 1.58 3.636.917.625 2.505.947 4.756.947h7.376c2.203 0 3.83-.303 4.86-.909 1.031-.606 1.552-1.742 1.552-3.447m7.007 1.298c0 4.62-2.374 7.433-7.15 8.427l6.942 5.994h-9.551l-6.837-5.72h-5.92c-3.67 0-6.421-.567-8.246-1.685-2.26-1.572-3.386-3.91-3.386-7.016V538.17c0-3.239 1.126-5.615 3.386-7.102 1.882-1.203 4.624-1.8 8.246-1.8h10.894c3.622 0 6.355.597 8.218 1.8 2.27 1.487 3.404 3.863 3.404 7.102v21.732zm54.83-1.257c0 1.77-.16 3.134-.501 4.072-.445 1.288-1.305 2.443-2.572 3.494-1.268 1.042-2.601 1.733-4.01 2.036-.974.19-2.553.274-4.766.274h-10.96c-2.119 0-3.679-.113-4.69-.35a9.133 9.133 0 0 1-4.048-1.96c-1.343-1.117-2.241-2.282-2.686-3.494-.283-.833-.416-2.188-.416-4.072V529.31h7.007v28.276c0 2.035.483 3.418 1.447 4.138.974.72 2.714 1.08 5.258 1.08h7.225c2.487 0 4.227-.351 5.22-1.043.983-.69 1.475-2.035 1.475-4.014V529.31h7.017v29.336zm49.953-6.866h-22.875v6.638c0 2.916 2.043 4.384 6.137 4.384h18.119v5.72h-20.029c-3.452 0-6.147-.663-8.066-1.989-2.119-1.496-3.178-3.598-3.178-6.325v-22.073c0-2.718.946-4.858 2.818-6.42 1.882-1.553 4.483-2.33 7.792-2.33h20.663v5.73h-18.194c-4.038 0-6.062 1.438-6.062 4.308v6.713H597v5.644zM29.892 643.255H7.007v6.628c0 2.926 2.052 4.384 6.138 4.384h18.118v5.73h-20.01c-3.46 0-6.156-.664-8.076-1.999C1.06 656.512 0 654.41 0 651.682V629.6c0-2.718.946-4.858 2.818-6.41 1.882-1.554 4.482-2.33 7.792-2.33h20.653v5.729H13.078c-4.038 0-6.07 1.44-6.07 4.308v6.714h22.884v5.644zm50.302-16.863H68.212v33.606h-7.017v-33.606H49.28v-5.73h30.914v5.73zm81.258 16.903H137.13V660h-7.017v-31.182c0-2.538 1.078-4.583 3.253-6.155 1.73-1.203 4.303-1.8 7.707-1.8h20.379v5.73h-18.469c-3.896 0-5.853 1.344-5.853 4.033v7.027h24.322v5.643zm47.766 6.388v-18.275c0-1.828-.482-3.106-1.447-3.826-.964-.72-2.544-1.08-4.757-1.08h-7.366c-2.26 0-3.868.36-4.833 1.08-.964.72-1.446 1.998-1.446 3.826v18.124c0 1.61.53 2.86 1.588 3.721.87.682 2.43 1.013 4.69 1.013h7.367c2.166 0 3.736-.331 4.729-1.013.983-.682 1.475-1.865 1.475-3.57m6.913 1.402c0 5.946-3.84 8.91-11.528 8.91h-10.62c-3.707 0-6.477-.653-8.312-1.96-2.203-1.562-3.31-3.854-3.31-6.865v-21.41c0-2.973 1.126-5.293 3.386-6.941 1.787-1.364 4.53-2.036 8.236-2.036h10.686c7.641 0 11.462 2.992 11.462 8.977v21.325zm54.283 8.912h-8.738l-17.163-15.065c-.596-.483-.89-1.317-.89-2.462 0-2.197 1.448-3.296 4.332-3.296l10.27-.075c3.395 0 5.106-1.307 5.106-3.92v-4.518c0-2.746-1.929-4.11-5.787-4.11h-14.478v33.446h-7.017v-39.174h23.547c7.168 0 10.752 2.784 10.752 8.352v6.78c0 2.433-.936 4.403-2.79 5.88-1.853 1.496-4.302 2.235-7.329 2.235h-8.075l18.26 15.927zm48.719-16.742h-22.875v6.628c0 2.926 2.052 4.384 6.128 4.384h18.119v5.73h-20.02c-3.452 0-6.147-.664-8.066-1.999-2.119-1.486-3.178-3.589-3.178-6.316V629.6c0-2.718.946-4.858 2.818-6.41 1.882-1.554 4.473-2.33 7.793-2.33h20.653v5.729H302.32c-4.038 0-6.062 1.44-6.062 4.308v6.714h22.875v5.644zm52.813-16.748h-17.977c-2.941 0-4.776.606-5.504 1.8-.426.729-.643 2.395-.643 4.99 0 1.354.558 2.405 1.664 3.172.917.597 2.402.9 4.483.9h7.432c3.178 0 5.712.71 7.613 2.12 1.9 1.412 2.856 3.4 2.856 5.957v6.202c0 2.69-.974 4.754-2.922 6.193-1.958 1.43-4.624 2.159-8.01 2.159h-20.057v-5.729h17.977c2.988 0 4.841-.653 5.57-1.96.33-.672.5-2.443.5-5.293 0-2.67-1.957-4.006-5.853-4.006h-7.433c-3.083 0-5.617-.653-7.584-1.96-2.165-1.44-3.243-3.39-3.243-5.88v-6.117c0-2.747 1.172-4.924 3.527-6.544 1.645-1.155 4.028-1.733 7.158-1.733h20.446v5.73zm48.003-.115h-11.982v33.606h-7.016v-33.606h-11.916v-5.73h30.914v5.73zm23.447 33.607h-7.008v-39.335h7.008v39.335zm43.147-42.359h-5.22l-5.352-7.017h5.853l4.719 7.016zm7.934 42.355h-20.029c-3.442 0-6.137-.682-8.066-2.036-2.119-1.467-3.178-3.55-3.178-6.268v-22.206c0-2.689.946-4.829 2.828-6.391 1.882-1.572 4.473-2.349 7.782-2.349h20.663v5.805h-18.185c-4.047 0-6.071 1.458-6.071 4.384v6.638h24.256v5.682h-24.256v6.628c0 2.955 2.052 4.432 6.137 4.432h18.12v5.681zm53.619.002h-8.748l-17.163-15.065c-.587-.483-.88-1.317-.88-2.462 0-2.197 1.438-3.296 4.331-3.296l10.27-.075c3.395 0 5.107-1.307 5.107-3.92v-4.518c0-2.746-1.93-4.11-5.788-4.11h-14.478v33.446h-7.016v-39.174h23.546c7.16 0 10.753 2.784 10.753 8.352v6.78c0 2.433-.937 4.403-2.8 5.88-1.853 1.496-4.293 2.235-7.328 2.235h-8.067l18.26 15.927zm48.711-16.742H573.93v6.628c0 2.926 2.052 4.384 6.137 4.384h18.12v5.73h-20.03c-3.451 0-6.137-.664-8.066-1.999-2.119-1.486-3.168-3.589-3.168-6.316V629.6c0-2.718.936-4.858 2.808-6.41 1.882-1.554 4.483-2.33 7.802-2.33h20.653v5.729h-18.194c-4.038 0-6.062 1.44-6.062 4.308v6.714h22.876v5.644zM7.018 385.58H0v-39.335h7.017v39.336z"
      fill="#676c70"></path>
  </symbol>
  <symbol viewBox="0 40 268 190" xmlns="http://www.w3.org/2000/svg" id="investir-avenir">
    <title>LOGO_Investirlavenir_CMJN</title>
    <g fill="none" fill-rule="evenodd">
      <path d="M133.956 39.42c52.191 0 94.5 42.309 94.5 94.5 0 52.19-42.309 94.5-94.5 94.5s-94.5-42.31-94.5-94.5c0-52.191 42.309-94.5 94.5-94.5" fill="#D8232A"></path>
      <path d="M133.956 47.337c47.818 0 86.582 38.765 86.582 86.583s-38.764 86.582-86.582 86.582c-47.818 0-86.582-38.764-86.582-86.582 0-47.818 38.764-86.583 86.582-86.583" fill="#FFFFFE"></path>
      <path d="M133.956 80.535c-29.484 0-53.385 23.901-53.385 53.385 0 29.483 23.901 53.385 53.385 53.385 29.484 0 53.385-23.902 53.385-53.385 0-29.484-23.901-53.385-53.385-53.385" fill="#174489"></path>
      <path d="M92.764 168.174a53.804 53.804 0 0 1-2.49-3.229c3.956-.904 8.225-1.023 12.043-2.364.495-.333.992-.661 1.486-.99.829-.333 1.49-1.159 2.482-1.654 1.321-.994 2.314-2.152 2.811-3.804 0-.165-.167-.33-.167-.33a25.4 25.4 0 0 1-7.275 5.455c-3.471 1.819-7.273 1.491-10.911 1.984.165-.33.496-.33.828-.33 0-.497.332-.664.66-.992h.498c.164 0 .164-.329.329-.329.331 0 .827-.167.661-.167-.494-.661-1.488.496-2.314 0 .331-.33.166-.826.498-.992h.658c0-.331.332-.66.332-.66 2.478-1.488 4.796-2.648 7.109-3.969-.496 0-.827.496-1.322.165.33 0 0-.496.33-.496 1.819-.496 3.307-1.484 5.126-2.148-.662 0-1.159.496-1.819 0 .329-.169.495-.496.992-.496v-.496c0-.165.165-.165.33-.165-.165 0-.33-.168-.33-.168.165-.33.661-.163.989-.493-.162 0-.495 0-.495-.166.495-.661 1.324-.829 2.149-.994-.163-.33-.659 0-.659-.33 0-.165.164-.165.33-.165h-.33c-.331-.164-.166-.497-.166-.658.993-1.161.993-2.648 1.486-3.97-.161 0-.328 0-.328-.168-1.653 1.821-4.299 2.482-6.779 3.143h-.826c-.828.332-1.984.332-2.811-.166-.663-.33-.991-.826-1.654-1.319-1.322-.828-2.644-1.49-4.132-1.988-2.915-.933-5.914-1.536-8.936-1.752a60.82 60.82 0 0 1-.193-1.209c.727-.15 1.459-.296 2.185-.509 2.812-.827 5.457-1.819 8.432-1.656-.497-.163-1.157 0-1.653 0-2.314-.163-4.629.496-7.11.995-.669.133-1.31.32-1.945.519a54.107 54.107 0 0 1-.275-2.5 5.681 5.681 0 0 1 1.063-.169c2.976-.495 5.787 0 8.763.331 2.147.166 4.133.661 6.282 1.16.825 0 .993 1.32 1.653 1.484.992.331 1.983 0 2.976.661 0-.33-.165-.661 0-.988.661-.664 1.487.163 2.149-.168 1.324-.829-1.157-2.317-1.82-3.473 0-.163.167-.331.167-.331 1.321 1.159 2.315 2.479 3.968 3.308.824.331 2.81.827 2.478-.165-.825-1.819-2.478-3.306-3.801-4.961v-.661c-.33 0-.33-.165-.496-.333v-.656c-.661-.333-.496-.997-.828-1.49-.496-.826-.165-1.986-.496-2.978-.329-.989-.496-1.817-.66-2.809-.495-2.809-1.157-5.289-1.487-7.935-.331-3.14 1.818-5.621 3.304-8.431 1.159-1.983 2.482-3.966 4.629-5.291.497-1.983 1.82-3.636 3.143-5.288 1.319-1.615 3.288-2.447 5.1-3.309 12.607-5.688 28.325-4.527 40.687 0 1.212.635 2.389 1.431 3.148 2.648.332.492.827 1.485.497 2.146-.331.828-.497 2.148-1.323 2.481-.991.499-2.315.499-3.473.331-.661 0-1.321-.166-1.982-.331 2.478.992 4.793 2.148 6.447 4.465.166.328.827.495 1.487.495.167 0 .167.331.167.494-.333.333-.663.498-.497.991h.497c.825-.331.66-1.98 1.817-1.485.827.494 1.157 1.653.661 2.479-.661.661-1.321 1.157-1.983 1.653a1.41 1.41 0 0 0 0 1.159c.496.659.662 1.32.825 1.981.497 1.159.662 2.481 1.158 3.639.663 2.478 1.324 4.957 1.157 7.441 0 1.32-.661 2.476-.164 3.8.331 1.324 1.157 2.315 1.818 3.474.662.99 1.323 1.653 1.821 2.645.99 1.652 2.808 3.308 1.982 5.288-.494 1.16-2.315.992-3.471 1.653-.993.829-.165 2.151.33 2.977.826 1.487-.993 2.479-2.149 2.975.329.496.99.331 1.156.661.165.829.993 1.325.498 2.151-.664.992-2.646 1.488-1.654 2.975.662 1.158.232 2.443-.167 3.636-.494 1.489-1.818 2.151-2.975 2.481-.993.329-2.148.329-3.14.167-.33-.167-.662-.333-.993-.333-2.81-.33-5.62-1.157-8.43-1.157-.829.166-1.655.331-2.315.662-2.794 2.019-4.571 4.915-5.597 7.999-.527 2.566-.902 4.818-1.148 6.779-2.43.392-1.663.6-7.463.6s-17.276-2.598-24.418-7.088l.301-.291c2.285-2.589 4.49-5.023 7.409-7.171.164-.167.164-.497.331-.663-.827.33-1.324.992-2.15 1.32-.167 0-.328-.163-.167-.328.664-.496 1.326-.992 1.986-1.488 0 .166-.165.166-.333.166-.163 0-.163-.166-.163-.331-2.15-.33-3.802 1.157-5.291 2.482-.33.163-.66-.168-.826-.168-2.48.826-4.298 2.977-6.78 3.966v-.328c-.991.328-1.953.93-2.974 1.157-1.488.331-2.812.165-4.133.165-1.311.132-2.622.366-3.932.633zm-7.586-12.07a53.168 53.168 0 0 1-3.016-8.45c4.463 1.241 9.016 2.496 12.716 5.34-3.114 1.555-6.346 2.384-9.7 3.11zm-4.757-20.226l-.013-.332c.085.028.169.058.251.089a1.25 1.25 0 0 1-.238.243zm79.263-9.503c-.976-.244-1.819 0-2.811 0-1.323.333-2.479.496-3.636.992.992-.659 1.983-1.322 3.14-1.652.827-.169 1.653-.662 2.48-.662.993-.165 1.985-.495 2.81-.165.826.331 2.15.331 2.317.827.328.993-.497 1.983-1.491 2.644-.163.331.497.495.497.825-.165.334-.66.499-.993.499-.33.164-.66.661-.99.992.33 0 0 .496.33.496-.661.826.33 2.481-.661 2.811-1.156.326-2.478.326-3.803 0 .661-.167 1.488.163 1.984-.498v-.661c0-.168-.164-.168-.331-.168a.504.504 0 0 1-.328.168c0-.327-.333-.661-.498-.661-.993.166-1.82-.33-2.48-.991.495-.168.991-.328 1.487-.168.497 0 .331-.827.827-1.156h.496c.992-1.323 2.977-1.652 3.307-2.976 0-.33-.992-.33-1.653-.496z"
        fill="#FFFFFE"></path>
      <path d="M83.974 96.967l-9.667-7.598 1.625-2.068 9.668 7.597-1.626 2.069zm7.54-8.713l-7.598-9.669 2.148-1.687 8.701 2.265c.246.062.557.178.932.35.373.173.794.393 1.262.66a11.258 11.258 0 0 1-.775-.769 17.43 17.43 0 0 1-.864-1.03l-4.251-5.409 1.974-1.551 7.598 9.667-2.028 1.594-8.905-2.276a5.285 5.285 0 0 1-.927-.355 16.774 16.774 0 0 1-1.275-.67c.267.242.522.493.766.76.246.267.538.616.876 1.047l4.34 5.521-1.974 1.552zm19.928-12.319l-8.243-10.191 2.75-.931 4.728 6.494c.091.136.253.389.478.761.227.374.48.8.754 1.279a17.97 17.97 0 0 1-.221-1.405c-.05-.416-.076-.761-.082-1.037l-.132-7.962 2.72-.921-.39 13.114-2.362.799zm13.979-3.672l-.933-12.261 7.219-.55.169 2.213-4.596.35.192 2.52 4.595-.35.169 2.23-4.594.349.232 3.07 4.596-.35.17 2.23-7.219.549zm15.369-1.828l1.733-1.37c.104.478.331.883.688 1.212.355.328.784.536 1.286.625.604.108 1.11.051 1.513-.172.404-.225.648-.58.735-1.065.103-.573-.383-1.248-1.452-2.027a27.111 27.111 0 0 1-.82-.606c-.96-.739-1.598-1.409-1.909-2.01-.316-.597-.408-1.261-.277-1.988.178-.999.718-1.747 1.624-2.249.905-.499 1.989-.638 3.25-.412.731.13 1.341.37 1.828.722.484.352.884.836 1.193 1.453l-1.79 1.189a1.915 1.915 0 0 0-.581-.919c-.269-.226-.614-.378-1.038-.454-.513-.091-.948-.038-1.306.163-.36.201-.577.506-.65.912-.114.641.402 1.336 1.552 2.088.229.149.404.264.525.351.941.651 1.606 1.314 1.994 1.991.389.678.514 1.397.379 2.15-.203 1.137-.751 1.974-1.647 2.51-.895.536-1.996.688-3.302.455-.926-.165-1.69-.468-2.296-.905-.603-.436-1.015-.985-1.232-1.644zm24.048-1.791l-4.145 9.166-2.397-1.084 4.144-9.166-2.743-1.241.922-2.037 7.882 3.564-.921 2.037-2.742-1.239zm5.186 14.684l7.125-10.021 2.145 1.525-7.125 10.02-2.145-1.524zm14.58 14.17l-1.985-2.293 2.226-6.198-4.339 3.759-1.723-1.988 9.294-8.051 2.466 2.846c.978 1.128 1.491 2.163 1.539 3.107.048.94-.366 1.793-1.248 2.556-.639.554-1.353.834-2.137.842-.789.009-1.483-.257-2.086-.801l-2.007 6.221zm1.232-9.348l.258.299c.695.801 1.243 1.255 1.642 1.361.399.106.815-.031 1.251-.409.456-.396.661-.816.614-1.26-.046-.442-.4-1.045-1.063-1.81l-.259-.298-2.443 2.117zM81.002 187.737l8.52-8.865 1.897 1.823-6.971 7.253 3.026 2.908-1.55 1.612-4.922-4.731zm14.423 2.789L99.654 187l2.159 1.406-5.045 2.994-1.343-.874zm14.395 10.016l.212-4.2c.009-.123.038-.331.088-.617.049-.289.122-.636.214-1.048-.216.342-.417.648-.595.916a6.86 6.86 0 0 1-.38.53l-2.701 3.14 3.162 1.279zm-9.013 1.4l8.95-9.644 2.787 1.127-.211 13.179-2.771-1.121.053-2.799-4.416-1.786-1.775 2.102-2.617-1.058zm21.551 6.609l-3.066-12.744 2.883.34 1.481 7.896c.023.161.06.46.104.892.045.435.09.929.131 1.479.134-.515.268-.97.404-1.364.134-.396.259-.72.372-.971l3.3-7.248 2.853.337-5.985 11.675-2.477-.292zm14.427.826l-.934-12.26 7.218-.551.169 2.212-4.595.351.192 2.52 4.595-.35.17 2.229-4.595.351.234 3.068 4.595-.349.17 2.229-7.219.55zm15.773-2.046l-3.984-11.634 2.584-.885 7.468 5.009c.212.139.466.352.764.638.295.287.62.633.974 1.039a11.239 11.239 0 0 1-.479-.982 17.763 17.763 0 0 1-.475-1.257l-2.229-6.508 2.375-.814 3.984 11.633-2.44.836-7.656-5.086a5.329 5.329 0 0 1-.758-.64 16.797 16.797 0 0 1-.983-1.055c.172.318.331.638.473.972.144.332.305.759.482 1.276l2.275 6.645-2.375.813zm18.85-7.872l-6.219-10.608 2.27-1.331 6.219 10.608-2.27 1.331zm16.288-12.207l-2.306 1.969-6.182-2.271 3.727 4.367-2.001 1.708-7.984-9.352 2.865-2.446c1.135-.969 2.174-1.474 3.118-1.515.94-.043 1.79.378 2.547 1.265.549.644.824 1.359.827 2.144.003.789-.269 1.481-.817 2.08l6.206 2.051zm-9.339-1.298l.301-.257c.806-.689 1.264-1.234 1.373-1.632.109-.398-.025-.815-.4-1.253-.392-.46-.81-.668-1.255-.624-.442.042-1.048.393-1.817 1.05l-.301.257 2.099 2.459z"
        fill="#174489"></path>
    </g>
  </symbol>
  <symbol viewBox="0 0 117 40" xmlns="http://www.w3.org/2000/svg" fill-rule="evenodd" clip-rule="evenodd" stroke-linejoin="round" stroke-miterlimit="1.414" id="betagouvfr">
    <g fill="#373c42" fill-rule="nonzero">
      <path d="M4.573 25.052V12.784h2.343V16.7c.459-.427.92-.731 1.383-.912.462-.181 1.012-.272 1.649-.272.931 0 1.772.211 2.524.633a4.562 4.562 0 0 1 1.766 1.747c.425.743.638 1.574.638 2.493 0 1.249-.382 2.338-1.146 3.268-.896 1.076-2.102 1.614-3.618 1.614-.724 0-1.344-.106-1.861-.316-.517-.211-1.028-.571-1.533-1.079v1.176H4.573zm5.005-7.509c-.816 0-1.486.271-2.012.811-.525.541-.788 1.23-.788 2.068 0 .827.27 1.504.81 2.031.54.527 1.232.791 2.076.791.838 0 1.522-.261 2.05-.783.529-.521.793-1.201.793-2.039 0-.849-.272-1.541-.814-2.076-.543-.535-1.248-.803-2.115-.803zm17.266 3.892h-7.572c.144.557.457.998.939 1.322.483.324 1.071.487 1.766.487.483 0 .885-.069 1.206-.207.322-.138.635-.374.939-.71h2.559c-.138.417-.396.844-.776 1.282-1.01 1.108-2.302 1.662-3.876 1.662a5.84 5.84 0 0 1-2.085-.373 5.255 5.255 0 0 1-1.684-1.01 4.71 4.71 0 0 1-1.115-1.524 4.39 4.39 0 0 1-.414-1.877c0-.887.228-1.702.685-2.445a4.908 4.908 0 0 1 1.869-1.76 5.356 5.356 0 0 1 2.598-.644c.959 0 1.823.212 2.593.636a4.612 4.612 0 0 1 1.804 1.768c.434.754.651 1.601.651 2.542 0 .303-.029.587-.087.851zm-7.64-1.946h5.418c-.149-.589-.457-1.04-.922-1.354-.465-.313-1.059-.47-1.783-.47-.701 0-1.282.155-1.744.466-.463.311-.786.764-.969 1.358zm10.323 5.563V17.86h-1.146v-2.011h1.146v-3.065h2.343v3.065h1.413v2.011H31.87v7.192h-2.343zm15.604-9.203v9.203h-2.145V23.86c-.471.503-.958.863-1.46 1.082-.503.219-1.098.329-1.788.329-.941 0-1.787-.204-2.536-.612a4.448 4.448 0 0 1-1.758-1.707c-.422-.73-.633-1.552-.633-2.465 0-.925.213-1.756.637-2.494a4.519 4.519 0 0 1 1.775-1.731c.758-.416 1.614-.624 2.567-.624.707 0 1.315.115 1.826.344.512.23.968.596 1.37 1.099v-1.232h2.145zm-5.134 1.816c-.816 0-1.489.27-2.02.811-.531.54-.797 1.227-.797 2.059 0 .806.268 1.459.805 1.959s1.234.75 2.089.75c.85 0 1.535-.254 2.055-.763.52-.508.78-1.173.78-1.994 0-.833-.272-1.511-.815-2.035-.542-.525-1.241-.787-2.097-.787zm9.178 5.726a.957.957 0 0 0-.971.947c0 .481.441.897.953.897.547 0 1.006-.399 1.006-.897 0-.515-.459-.947-.988-.947zm11.589-7.542h2.24v7.46c0 .913-.085 1.671-.254 2.274a3.858 3.858 0 0 1-.823 1.545c-.93 1.065-2.259 1.597-3.988 1.597-1.195 0-2.231-.257-3.11-.77a4.491 4.491 0 0 1-1.912-2.157h2.662c.344.357.703.609 1.076.758.374.149.833.223 1.379.223.873 0 1.536-.243 1.99-.73.453-.486.7-1.224.74-2.213-.459.508-.937.874-1.434 1.098-.497.225-1.09.337-1.779.337-.919 0-1.744-.208-2.476-.625a4.38 4.38 0 0 1-1.71-1.739c-.408-.743-.612-1.582-.612-2.518 0-1.362.457-2.494 1.37-3.397.913-.903 2.061-1.354 3.445-1.354 1.402 0 2.467.459 3.196 1.378v-1.167zm-2.963 1.816c-.804 0-1.451.258-1.942.774-.491.517-.737 1.199-.737 2.048 0 .838.248 1.507.745 2.007.497.5 1.165.75 2.003.75.85 0 1.528-.253 2.033-.759.505-.505.758-1.182.758-2.031 0-.832-.263-1.505-.788-2.019-.526-.513-1.216-.77-2.072-.77zm12.77-2.027c.93 0 1.792.216 2.584.649a4.942 4.942 0 0 1 1.878 1.763c.46.743.689 1.55.689 2.421 0 .864-.231 1.666-.693 2.404a4.958 4.958 0 0 1-1.891 1.751 5.397 5.397 0 0 1-2.601.645 5.443 5.443 0 0 1-2.615-.645 4.981 4.981 0 0 1-1.899-1.751 4.418 4.418 0 0 1-.698-2.404c0-.66.136-1.288.409-1.886a4.735 4.735 0 0 1 1.111-1.54 5.305 5.305 0 0 1 1.676-1.026 5.573 5.573 0 0 1 2.05-.381zm-.095 2.027c-.758 0-1.411.274-1.959.823-.549.549-.823 1.204-.823 1.966 0 .768.275 1.425.827 1.971a2.725 2.725 0 0 0 1.99.819c.781 0 1.45-.272 2.007-.815.557-.544.835-1.196.835-1.958 0-.79-.278-1.455-.835-1.995-.557-.541-1.238-.811-2.042-.811zm16.225-1.816v9.203H84.53v-.884c-.448.405-.88.691-1.297.855-.416.165-.917.248-1.503.248-.66 0-1.252-.126-1.774-.377a3.201 3.201 0 0 1-1.267-1.075 3.631 3.631 0 0 1-.534-1.232c-.103-.449-.155-1.049-.155-1.8v-4.938h2.352v4.5c0 .638.037 1.136.112 1.496.074.359.201.642.379.847.339.368.792.552 1.361.552.408 0 .771-.077 1.09-.231.318-.155.561-.372.728-.653.126-.206.213-.472.262-.799.049-.327.073-.785.073-1.374v-4.338h2.344zm5.818 9.203l-3.937-9.203h2.61l2.257 6.097 2.223-6.097h2.653l-3.937 9.203h-1.869zm7.042-1.66c-.498 0-.913.415-.913.946 0 .481.415.896.896.896.515 0 .946-.398.946-.896 0-.515-.431-.946-.929-.946z"></path>
      <path d="M102.675 16.537h1.928l-1.949 9.023c-.508 2.33-1.207 3.495-2.118 3.495-.254 0-.424-.148-.424-.36 0-.063.022-.106.085-.212a.63.63 0 0 0 .106-.36.832.832 0 0 0-.847-.826c-.445 0-.784.403-.784.911 0 .72.741 1.292 1.673 1.292 1.928 0 3.432-2.118 4.364-6.079l1.588-6.884h2.352l.127-.678h-2.309c.635-3.389 1.461-4.893 2.648-4.893.296 0 .466.106.466.275 0 .043-.022.106-.085.212a.72.72 0 0 0-.127.445c0 .508.318.847.784.847.487 0 .91-.402.91-.868 0-.784-.783-1.377-1.842-1.377-1.038 0-1.886.466-2.669 1.462-.636.847-1.081 1.821-1.737 3.897h-1.991l-.149.678zm7.478 8.515c1.165-3.707 1.525-4.575 2.499-6.206.741-1.208 1.334-1.864 1.694-1.864.149 0 .255.084.361.296.169.36.338.466.762.466.636 0 .996-.381.996-1.059 0-.678-.403-1.101-.996-1.101-.487 0-1.08.317-1.631.91-.89.89-1.779 2.182-2.118 3.008l-.318.784 1.186-4.66-.063-.042c-1.546.275-1.779.317-3.326.572v.36c.466-.085.551-.106.721-.106.466 0 .741.212.741.593 0 .275-.17 1.144-.339 1.779l-1.8 6.27h1.631z"></path>
    </g>
  </symbol>
  <symbol viewBox="0 0 246 130" xmlns="http://www.w3.org/2000/svg" fill-rule="evenodd" clip-rule="evenodd" stroke-linejoin="round" stroke-miterlimit="1.414" id="marianne">
    <clipPath id="a">
      <path d="M0 0h245.808v130H0z"></path>
    </clipPath>
    <g clip-path="url(#a)" fill-rule="nonzero">
      <path fill="#fff" d="M0 0h244.558v74.613H0z"></path>
      <path d="M195.292 129.916c-.134-.049-.143-.183-.029-.475.142-.371.21-.401.762-.335.498.062.646.019.848-.252.404-.517.094-.891-.646-.768-.566.095-.566.089-.458-.298.337-1.232.364-1.163-.646-1.346a6.175 6.175 0 0 1-3.273-1.728c-1.346-1.346-1.804-2.707-1.67-4.896.068-1.114.162-1.549.553-2.325 1.185-2.372 3.905-3.58 7.568-3.365.794.047 1.791.17 2.235.271l.794.183.081 2.639h-.485c-.282 0-.484-.079-.484-.183 0-.379-.983-1.241-1.67-1.476-.889-.314-2.613-.236-3.488.143-1.979.863-2.882 3.097-2.276 5.658.283 1.175.741 1.972 1.616 2.795.835.771 1.684 1.085 2.949 1.085 1.334 0 2.263-.484 2.855-1.49.404-.679.539-.77.929-.548.175.104.175.339.014 1.424l-.202 1.306-.727.222c-.404.118-1.32.262-2.034.314-1.252.078-1.319.105-1.319.418 0 .248.094.34.363.34.525 0 1.024.366 1.145.849.134.562-.31 1.385-.889 1.659-.417.196-2.06.275-2.478.118l.062.061zm-94.605-.603c-1.373-.366-2.558-.919-3.986-1.856l-1.225-.812-1.899-.089c-2.114-.098-2.854-.311-4.215-1.218-3.016-1.996-3.124-7.079-.202-9.55 2.209-1.865 6.074-2.248 8.848-.882 3.757 1.844 4.161 7.286.74 10.138-.525.442-1.037.804-1.144.804-.323 0 3.42 1.846 4.511 2.224 1.212.418 2.612.473 3.649.143.754-.239.889-.209 1.01.225.081.255-.054.362-.808.679-1.198.502-3.703.595-5.211.194h-.068zm-4.659-4.435c2.666-1.254 3.178-5.274.997-7.841-2.02-2.378-5.562-2.019-6.895.701-1.198 2.456.175 6.256 2.626 7.262.996.405 2.262.361 3.286-.122h-.014zm-83.572 1.487c-.727-.287-1.53-1.182-2.795-3.122-1.946-2.985-2.311-3.424-2.855-3.424h-.472l.004 1.617c.007 2.946.337 3.953 1.365 4.187.274.062.382.186.382.442v.356H1.567v-.326c0-.248.122-.366.499-.471.276-.065.651-.313.835-.535.327-.392.334-.536.334-5.971 0-5.435-.007-5.579-.334-5.971-.184-.222-.559-.457-.835-.536-.364-.091-.499-.209-.499-.444 0-.313.017-.313 4.038-.405 4.279-.091 5.222-.026 6.428.51 1.053.457 1.933 1.855 1.934 3.07.003 1.398-1.145 2.966-2.66 3.645l-.794.353 1.755 2.365c2.06 2.796 2.706 3.541 3.312 3.828.566.261.62.849.095.967-.647.157-2.734.091-3.219-.105v-.03zm-3.976-7.996c2.131-.535 2.85-3.206 1.238-4.599-.759-.653-1.564-.892-2.593-.764l-.781.098v5.425h.754c.417 0 1.05-.072 1.387-.16H8.48zm36.635 7.996c-.871-.279-1.692-.78-2.127-1.293-.791-.937-.875-1.428-.884-5.233-.01-3.977-.094-4.416-.902-4.753-.323-.136-.514-.32-.517-.503-.003-.274.102-.288 2.7-.288 2.697 0 2.704 0 2.704.324 0 .217-.094.323-.291.323-.159 0-.463.167-.676.37l-.385.371v3.899c0 3.668.019 3.932.33 4.465.485.837 1.454 1.264 2.696 1.197 1.333-.073 2.06-.5 2.585-1.536.404-.795.418-.834.418-4.325 0-3.122-.027-3.564-.283-3.906-.162-.213-.458-.428-.673-.476-.256-.056-.404-.192-.404-.362 0-.252.148-.27 2.141-.27s2.141.018 2.141.27c0 .17-.148.306-.39.361-.741.156-.795.47-.876 4.612l-.081 3.88-.484.836c-.566.993-1.482 1.686-2.653 1.999-.997.262-3.326.275-4.121.013l.032.025zm62.015 0c-.881-.282-1.694-.781-2.144-1.314-.75-.889-.858-1.542-.867-5.289-.014-3.893-.108-4.338-.903-4.677-.336-.135-.525-.319-.525-.502-.013-.274.094-.288 2.693-.288 2.667 0 2.694.004 2.694.314 0 .209-.122.327-.35.359-.189.026-.499.228-.674.451-.31.379-.336.614-.39 3.76-.068 3.864.054 4.678.781 5.348 1.306 1.215 4.04.875 4.807-.588.485-.928.606-2.077.552-5.122-.067-3.214-.175-3.619-1.01-3.802-.256-.052-.404-.183-.404-.352 0-.249.148-.262 2.141-.262s2.155.026 2.155.275c0 .17-.189.339-.471.444-.256.104-.526.287-.593.418-.067.131-.161 1.986-.215 4.129l-.095 3.893-.484.849c-.566.993-1.482 1.686-2.667 1.999-.996.275-3.326.288-4.12.026l.089-.069zm50.332-.004c-.636-.251-1.391-1.1-2.561-2.881-1.511-2.299-1.684-2.508-2.077-2.508-.35-.003-.357.026-.357 1.795 0 2.145.198 2.75.947 2.885.377.068.485.163.485.428v.34h-5.408v-.34c0-.265.107-.36.485-.428.906-.163.969-.551.915-5.546l-.048-4.423-.385-.371c-.212-.203-.516-.37-.676-.37-.179 0-.29-.104-.29-.274 0-.235.162-.288 1.172-.374.646-.065 2.41-.078 3.932-.052 2.478.039 2.841.078 3.434.366 1.05.496 1.642 1.476 1.642 2.704 0 1.176-.74 2.208-2.1 2.901-.431.222-.714.444-.62.496.095.053.795.941 1.562 1.986 1.509 2.051 2.344 2.966 2.694 2.966.309 0 .282.666-.027.771-.445.157-2.195.078-2.694-.118l-.025.047zm-2.938-6.751c.632-.294 1.252-1.003 1.368-1.563.151-.719-.202-1.66-.808-2.182-.562-.471-1.104-.614-2.044-.51l-.573.065v4.416h.803c.431 0 .996-.091 1.252-.209l.002-.017zm70.777 6.726c-.475-.117-.894-.235-.929-.267-.033-.026-.151-.667-.256-1.424l-.196-1.372h.448c.247 0 .449.052.449.117 0 .379 1.043 1.477 1.648 1.738 1.636.719 3.599.039 3.598-1.228 0-.836-.45-1.333-1.982-2.195-2.149-1.215-2.98-1.855-3.407-2.639-.431-.771-.505-1.986-.183-2.862.213-.575 1.212-1.45 2.053-1.777.846-.339 3.496-.326 4.592.014l.835.261v2.561h-.458c-.358 0-.482-.079-.56-.353-.165-.601-1.018-1.346-1.732-1.516-1.898-.457-3.433 1.307-2.235 2.587.229.248 1.266.967 2.303 1.607 2.02 1.228 2.76 1.908 3.016 2.705.552 1.777-.363 3.358-2.329 4.011-1.051.366-3.327.392-4.66.065l-.015-.033zm-208.311-.3c0-.256.089-.332.385-.332.229 0 .521-.157.717-.379.316-.363.328-.542.328-4.886 0-3.154-.067-4.606-.188-4.824-.243-.402-.62-.662-.97-.666-.188-.005-.283-.122-.283-.366v-.358h9.548v3.031l-.418-.044c-.323-.034-.471-.166-.606-.536-.323-.854-.848-1.074-2.733-1.137l-1.67-.055v4.087l1.279-.065c1.387-.075 2.088-.379 2.182-.954.027-.228.161-.309.471-.309h.418v3.736h-.431c-.35 0-.445-.065-.445-.34 0-.64-.538-.875-2.087-.927l-1.414-.052v2.025c0 2.43.014 2.469 1.832 2.469 1.79 0 2.72-.405 3.191-1.398.229-.496.781-.64.956-.248.108.261-.337 1.947-.673 2.535l-.243.418-4.605-.027-4.605-.026v-.326l.064-.046zm12.244.044c0-.261.107-.359.457-.424.835-.152.876-.366.93-4.974.053-4.799-.014-5.232-.889-5.596-.364-.152-.512-.314-.525-.551v-.338l3.609.061c3.905.065 4.228.13 5.292.927 1.158.889 1.468 2.652.673 3.959-.687 1.15-1.885 1.751-3.77 1.921l-.997.091-.242-.549-.256-.548.579-.079c.74-.091 1.548-.522 1.979-1.045.243-.287.337-.601.324-1.15-.027-1.398-.889-2.247-2.411-2.365l-.862-.065.041 4.795c.054 5.226.08 5.37.969 5.54.323.065.431.17.431.431v.34h-5.4v-.34l.068-.041zm26.393-.052c0-.222.094-.324.296-.324.162 0 .472-.124.674-.274l.377-.275.04-4.447c.054-4.978-.013-5.354-.929-5.665-.296-.098-.485-.267-.485-.418 0-.233.216-.262 2.424-.293 4.632-.068 5.615-.021 6.37.308.969.428 1.427 1.046 1.508 2.052.027.453.013.982-.041 1.176-.161.561-.902 1.251-1.723 1.594l-.768.316.647.173a3.1 3.1 0 0 1 2.302 3.411c-.175 1.306-.794 2.051-2.249 2.652-.767.313-.969.326-4.645.326h-3.81v-.326l.012.014zm7.003-1.08c.807-.489 1.131-1.154 1.036-2.156-.134-1.503-1.306-2.398-3.137-2.398h-.97l.041 2.167c.04 2.074.067 2.176.417 2.439.539.4 1.872.374 2.572-.052h.041zm-.66-5.962c.969-.34 1.481-1.028 1.387-1.864-.135-1.124-1.145-1.749-2.815-1.749h-.956v3.874l.835-.008c.458-.004 1.145-.117 1.535-.253h.014zm6.517 7.05c0-.231.108-.327.418-.358.229-.026.565-.222.754-.451.323-.392.336-.562.336-4.808 0-3.527-.053-4.472-.228-4.76-.283-.448-.647-.705-1.01-.712-.189-.013-.283-.117-.283-.339 0-.327 0-.327 2.855-.327 2.854 0 2.854 0 2.854.314 0 .222-.094.313-.309.313-.175 0-.512.157-.754.34l-.404.379-.054 4.52-.041 4.521.404.235c.324.183.66.222 1.643.17 1.508-.078 2.222-.418 2.64-1.267.269-.562.579-.693.996-.458.148.092.121.353-.121 1.242-.175.614-.431 1.28-.566 1.463l-.256.34-4.443-.053-4.444-.052v-.313l.013.061zm11.123.044c0-.265.108-.36.485-.428.875-.157.943-.549.943-5.36 0-3.995-.027-4.303-.31-4.736-.175-.254-.498-.504-.714-.554-.283-.052-.404-.183-.404-.392 0-.3.041-.3 2.707-.3s2.693.013 2.693.313c0 .209-.134.34-.39.405a1.328 1.328 0 0 0-.674.484c-.255.353-.282.823-.282 4.769 0 4.873.067 5.265.888 5.422.337.065.445.17.445.431v.34h-5.4v-.34l.013-.054zm38.002-.026c0-.235.121-.337.484-.402.876-.157.943-.549.943-5.375 0-4.228-.013-4.295-.364-4.776-.202-.267-.525-.509-.713-.533-.256-.032-.35-.143-.35-.394v-.349h9.372v1.506c0 1.49-.013 1.503-.39 1.503-.31 0-.404-.092-.485-.497-.189-.849-.835-1.136-2.734-1.202l-1.602-.052-.108.68c-.054.365-.108 1.293-.108 2.038v1.358l1.347-.078c1.481-.091 2.074-.327 2.235-.901.068-.262.202-.366.472-.366h.377v3.723h-.391c-.269 0-.404-.078-.404-.248-.013-.718-.781-1.045-2.383-1.045h-1.307l.054 2.012c.068 2.443.054 2.43 1.953 2.43 1.683 0 2.558-.366 3.016-1.254.229-.457.404-.614.66-.614.189 0 .404.065.458.157.148.209-.566 2.547-.848 2.796-.189.169-.997.196-4.741.169l-4.511-.026v-.313l.068.053zm17.492.034c0-.235.148-.392.498-.538.283-.112.647-.387.835-.61.323-.392.323-.569.323-5.812 0-6.088-.013-6.153-1.117-6.48-.431-.131-.566-.248-.566-.523v-.352H146.2v3.593h-.485c-.39 0-.484-.066-.484-.327 0-.536-.593-1.254-1.239-1.503-.377-.143-1.239-.261-2.37-.3l-1.791-.065v4.912l1.306-.013c1.751-.013 2.343-.209 2.72-.888.242-.445.377-.549.754-.549h.471v4.324l-.511-.052c-.35-.039-.539-.143-.593-.339-.256-.85-1.225-1.229-3.164-1.229h-1.024l.068 2.548c.067 2.901.202 3.332 1.158 3.632.417.131.552.262.552.51v.326h-6.518v-.326l.054.061zm25.438-.026c0-.261.08-.358.309-.358.485 0 1.037-.895 2.249-3.619 1.616-3.653 3.151-7.365 3.151-7.63 0-.179.162-.23.754-.227l.754.002 2.142 4.961c2.329 5.387 2.76 6.224 3.299 6.441.215.085.35.265.35.464 0 .327 0 .327-2.707.327h-2.707v-.343c0-.261.108-.36.472-.426.687-.122.727-.54.202-1.959l-.458-1.219h-3.757l-.377 1.006c-.485 1.267-.458 2.129.067 2.208.256.039.35.143.35.392v.352h-4.134v-.352l.041-.02zm7.312-5.024c0-.209-1.172-3.083-1.266-3.083-.067 0-.229.274-.364.614l-.673 1.581-.404.967h1.347c.74 0 1.346-.026 1.346-.065l.014-.014zm6.84 5.044c0-.249.108-.353.431-.418.862-.157.889-.353.956-5.044.068-4.834 0-5.239-.929-5.552-.282-.092-.484-.262-.484-.418 0-.223.175-.249 1.791-.249h1.777l1.037 1.189c.566.654 2.033 2.247 3.259 3.554a165.61 165.61 0 0 1 2.585 2.809l.364.431-.054-3.24c-.054-3.528-.148-3.893-.997-4.089-.255-.053-.404-.196-.404-.366 0-.248.149-.275 2.142-.275 2.02 0 2.141.027 2.141.288 0 .183-.135.3-.35.326-.189.027-.499.236-.674.458-.323.392-.336.588-.39 5.709l-.054 5.305h-.7c-.633 0-.754-.052-1.226-.601-.431-.484-7.164-8.022-7.42-8.284-.04-.039-.04 1.542 0 3.515.068 4.011.175 4.481.93 4.625.35.065.457.157.457.418v.34H174.6v-.34l.094-.091zm27.821-.013c0-.209.081-.353.216-.353.31 0 .902-.666 1.32-1.516.579-1.163 3.299-7.499 3.77-8.78l.431-1.189 1.427.105 2.101 4.886c1.158 2.692 2.235 5.109 2.397 5.383.35.641.875 1.15 1.145 1.15.121 0 .215.157.215.366v.366h-5.413v-.366c0-.248.081-.353.283-.353.767 0 .834-.601.255-2.182l-.417-1.11h-3.73l-.337.967c-.633 1.829-.606 2.338.148 2.338.216 0 .297.105.297.366v.366h-4.134v-.366l.026-.078zm6.747-6.415c-.31-.81-.593-1.568-.646-1.686-.054-.131-.377.418-.795 1.372-.39.875-.7 1.633-.7 1.685 0 .066.592.118 1.333.118h1.333l-.552-1.463.027-.026zm7.245 6.428c0-.275.081-.353.363-.353.202 0 .512-.131.674-.301.269-.274.296-.614.336-4.768.027-2.457.014-4.612-.04-4.782-.108-.405-.7-.902-1.064-.902-.202 0-.296-.104-.296-.313 0-.314 0-.314 2.693-.314 2.599 0 2.707.013 2.707.287 0 .183-.175.366-.472.471-.255.104-.525.366-.619.575-.229.548-.364 5.03-.216 7.447.095 1.685.162 2.09.418 2.339.162.169.431.3.592.3.202 0 .283.105.283.366v.366h-5.4v-.366l.041-.052zm17.802-.026c0-.249.094-.327.39-.327.229 0 .512-.157.714-.379.31-.366.323-.536.323-4.886 0-3.149-.054-4.599-.188-4.821-.243-.392-.62-.654-.97-.667-.188 0-.283-.117-.283-.366v-.352h9.534v3.031l-.417-.039c-.31-.027-.458-.157-.593-.536-.309-.849-.834-1.071-2.733-1.137l-1.67-.052v4.05h.997c1.373-.013 2.046-.235 2.343-.81.175-.34.336-.457.633-.457h.39v3.723h-.404c-.363 0-.444-.065-.444-.339 0-.64-.525-.876-2.088-.928l-1.413-.052v2.012c0 2.43.026 2.469 1.844 2.469 1.791 0 2.721-.405 3.192-1.398.229-.496.781-.64.956-.248.108.261-.337 1.947-.673 2.535l-.243.418-4.605-.026-4.606-.026v-.34l.014-.052zM21.29 112.95l-.387-.271.946-1.293c.52-.719 1.046-1.307 1.171-1.307.536 0 2.249.327 2.206.431-.086.207-3.224 2.731-3.387 2.727-.087 0-.334-.123-.548-.274l-.001-.013zm-20.199-9.914h242.174v1.287H1.088v-1.291l.003.004zm92.169-2.94c-1.272-.41-1.988-1.476-1.756-2.626.161-.771.646-1.314 1.508-1.672l.754-.314-.458-.235c-.256-.137-.458-.362-.458-.523 0-.261 1.172-1.306 1.454-1.306.068 0-.026-.239-.215-.531-.808-1.246-.162-3.047 1.36-3.752.822-.383 1.104-.399 3.986-.233 1.656.097 1.724.113 1.629.405-.04.17-.08.356-.094.416 0 .059-.269.107-.619.107h-.62l.081.834c.189 1.82-1.252 3.066-3.568 3.1-1.199.017-1.778.248-1.307.52.135.076.916.333 1.724.572 2.639.771 3.124 1.159 3.016 2.391-.107 1.287-1.252 2.404-2.908 2.855-.943.257-2.653.255-3.461-.005l-.048-.003zm3.541-.888c1.29-.579 1.849-1.686 1.145-2.261-.477-.388-2.543-.985-3.079-.888-1.09.196-2.114 1.398-1.925 2.26.256 1.189 2.195 1.637 3.851.891l.008-.002zm.426-6.494c.969-.53 1.346-2.045.7-2.792-.889-1.024-2.586.118-2.599 1.751 0 .507.081.686.444.967.539.418.835.431 1.482.078l-.027-.004zm6.032 3.332c-.7-.131-1.063-.549-1.144-1.294-.202-1.907 1.575-4.708 3.568-5.611 1.037-.471 3.084-.518 4.444-.105.121.039.041.529-.283 1.538-.606 1.973-.969 3.948-.767 4.289.134.223.229.24.66.108.39-.131.525-.118.633.039.228.326.094.444-.822.731-1.212.379-1.777.301-1.966-.261l-.135-.444-.646.327c-1.091.561-2.599.849-3.501.679l-.041.004zm2.748-1.29c.471-.198.942-.503 1.077-.679.215-.291.862-2.443 1.118-3.698.107-.513.094-.531-.485-.675-1.064-.272-2.141.431-2.99 1.96-.889 1.594-1.117 3.02-.538 3.39.404.254.646.209 1.844-.3l-.026.002zm75.289 1.248c-.714-.157-.957-.379-1.159-1.032-.296-.993.391-2.871 1.563-4.259 1.4-1.66 2.949-2.222 5.238-1.895.606.086 1.144.203 1.198.257.068.053-.134.971-.444 2.039-.296 1.064-.566 2.355-.579 2.869l-.027.938.673-.026c.606-.026.674.013.674.3 0 .275-.149.366-.916.575-1.252.353-1.845.275-1.912-.235-.027-.209-.081-.392-.108-.392-.027 0-.444.157-.916.34-.754.3-2.302.692-2.612.653-.054 0-.337-.065-.62-.118l-.053-.014zm2.666-1.228c.39-.183.835-.444.983-.588.35-.366.983-2.234 1.32-3.88.094-.445.067-.471-.539-.615-.512-.13-.727-.117-1.185.079-1.01.431-2.007 1.894-2.532 3.697-.498 1.728.121 2.135 1.98 1.299l-.027.008zm-172.447.901c-.041-.183.242-1.515.633-2.965.781-2.862.781-3.097-.081-2.875-.417.105-.458.079-.458-.209 0-.274.148-.366.916-.572.498-.131 1.171-.256 1.468-.274.525-.031.565-.004.606.449.027.265-.243 1.577-.606 2.914-.364 1.34-.62 2.534-.566 2.657.081.176.242.201.821.123.687-.096.728-.084.674.228-.041.262-.243.379-.929.575-.472.131-1.212.249-1.63.249-.646 0-.754-.04-.835-.314l-.013.014zm6.113.066l-.363-.275 1.239-4.886c.673-2.688 1.212-5.069 1.185-5.297-.054-.422-.108-.444-.727-.274-.297.082-.35.044-.35-.261 0-.419.565-.621 2.114-.758.888-.079.915-.075.915.261 0 .191-.242 1.372-.552 2.624-.309 1.254-.552 2.358-.552 2.46 0 .144.175.117.687-.086 1.777-.706 3.313-.667 3.878.091.525.719.256 2.561-.592 4.076-.431.797-1.737 2.026-2.451 2.313-.929.379-3.865.392-4.39 0l-.041.012zm4.027-.915c.808-.509 1.697-2.234 1.939-3.75.256-1.528-.862-1.829-2.639-.718a2.13 2.13 0 0 0-.835.954c-.283.705-.876 2.992-.876 3.399 0 .601 1.549.672 2.424.105l-.013.01zm6.073.732c-.431-.405-.458-.523-.458-1.477.027-2.425 1.549-4.592 3.65-5.187 1.05-.3 1.979-.195 2.598.281.364.277.431.45.431 1.036 0 1.477-1.481 2.6-3.635 2.731-.62.039-1.185.144-1.239.231-.175.246-.135 1.072.067 1.424.404.68.97.699 2.33.066.848-.392 1.023-.431 1.158-.248.283.401.148.527-1.078 1.051-1.023.434-1.414.523-2.275.523-.943 0-1.078-.037-1.509-.439l-.04.008zm2.855-3.449c1.36-.34 2.249-1.647 1.562-2.274-.431-.394-.835-.381-1.401.046-.444.34-1.171 1.415-1.387 2.056-.08.262-.04.314.27.314.202 0 .646-.078.983-.157l-.027.015zm5.359 3.834c0-.021.283-1.136.633-2.469.35-1.337.647-2.712.647-3.057v-.628l-.633.092c-.566.078-.633.057-.633-.196 0-.314.512-.555 1.804-.847.889-.196 1.226-.061 1.226.497v.337l.565-.345c.997-.601 1.603-.719 2.316-.418.351.144.606.326.58.418-.431 1.372-.674 1.803-1.024 1.803-.31 0-.363-.065-.363-.483 0-1.046-.997-1.046-1.738-.014-.444.654-.915 2.117-1.292 4.064-.108.588-.283 1.071-.364 1.097-.283.079-1.683.209-1.683.17l-.041-.021zm7.986-.136c-.175-.183-.081-.705.835-4.442l.377-1.542h-.539c-.296 0-.539-.039-.539-.078 0-.222.364-.64.553-.64.39 0 1.131-.68 1.454-1.32.35-.705.485-.823 1.01-.823.35 0 .377.052.283.47-.054.262-.148.719-.202 1.007l-.095.535h.741c.754 0 .862.118.646.64-.067.17-.309.236-.848.236-.889 0-.741-.288-1.441 2.861-.512 2.312-.485 2.521.377 2.299.727-.183.781-.169.727.196-.04.249-.242.379-.848.562-.97.301-2.195.34-2.437.079l-.054-.04zm6.423-.183c-1.158-1.123-.323-4.35 1.535-5.853.754-.614 1.939-1.084 2.707-1.084.498 0 1.575.457 1.737.731.256.432.175 1.464-.148 1.947-.66.993-2.114 1.633-3.69 1.633h-.929v.758c0 1.476.687 1.725 2.464.941.566-.248 1.064-.431 1.105-.392.04.039.094.196.134.353.041.235-.175.392-1.117.823-1.024.47-1.32.535-2.276.535-.983 0-1.145-.039-1.481-.365l-.041-.027zm2.801-3.514c.848-.248 1.427-.693 1.683-1.241.216-.458.216-.536-.067-.876-.431-.522-.862-.535-1.522-.013-.511.405-1.373 1.751-1.373 2.143 0 .209.606.196 1.279-.013zm59.722 3.802c-.215-.196-.081-1.045.687-3.972 1.037-3.972 1.589-6.324 1.589-6.703 0-.274-.067-.3-.552-.222-.498.079-.552.053-.552-.261 0-.353.404-.523 1.979-.797.822-.131 1.051-.039 1.051.431 0 .222-.525 2.483-1.185 5.043-.66 2.561-1.199 4.874-1.199 5.135v.484l.727-.079c.687-.078.728-.065.674.235-.041.249-.243.379-.916.562-.889.261-2.087.34-2.276.17l-.027-.026zm5.993-.079c-.189-.287-.081-.901.592-3.305.364-1.241.62-2.378.593-2.509-.068-.248-.108-.261-.795-.117-.363.078-.444.052-.444-.196 0-.34.687-.64 1.925-.862.889-.144 1.266-.066 1.266.261 0 .117-.323 1.437-.713 2.926-.391 1.49-.674 2.783-.606 2.862.067.091.377.117.808.065.673-.078.713-.065.659.235-.04.249-.242.379-.929.562-1.023.301-2.154.34-2.316.092l-.04-.014zm5.871-.065c-.054-.131-.014-.601.094-1.032.364-1.437 1.131-4.756 1.131-4.821 0-.039-.215-.065-.484-.065-.687 0-.553-.405.255-.784.485-.222.768-.51 1.158-1.189.458-.771.593-.889.984-.889h.444l-.216.902c-.121.496-.215.94-.215 1.006 0 .052.35.104.794.104.835 0 .862.013.701.536-.081.287-.202.327-.916.327h-.821l-.539 2.417c-.296 1.332-.498 2.521-.444 2.652.08.183.202.209.619.091.727-.182.768-.169.768.209 0 .288-.135.379-.93.575-1.225.314-2.222.314-2.356 0l-.027-.039zm6.558-.078c-.391-.301-.471-.471-.525-1.281-.121-1.803.794-3.841 2.154-4.782 1.508-1.032 3.151-1.162 4.067-.339.431.392.471.496.391 1.149-.149 1.425-1.657 2.457-3.731 2.548-1.292.066-1.427.209-1.171 1.215.283 1.098.781 1.215 2.37.536 1.05-.444 1.293-.444 1.293 0 0 .457-1.899 1.202-3.273 1.267-1.01.053-1.171.026-1.575-.3v-.013zm3.366-3.841c.997-.458 1.428-1.464.862-2.026-.713-.705-2.02.223-2.68 1.895l-.228.614.713-.091a5.94 5.94 0 0 0 1.347-.379l-.014-.013zm38.015 4.115c0-.026.283-1.137.633-2.469.35-1.333.647-2.705.647-3.058v-.627l-.633.092c-.566.078-.633.065-.633-.196 0-.34.282-.484 1.575-.784 1.118-.261 1.455-.157 1.455.444v.34l.565-.34c.997-.601 1.603-.718 2.316-.431.35.144.62.3.62.34 0 .052-.148.496-.35.98-.297.744-.418.901-.714.901s-.364-.078-.364-.483c0-.98-.929-1.059-1.629-.131-.525.706-.795 1.476-1.239 3.488-.188.915-.39 1.699-.444 1.738-.095.092-1.764.301-1.764.222l-.041-.026zm18.341-.17c-.121-.3.027-1.189.633-3.723l.525-2.156-.444-.039c-.525-.053-.62-.523-.121-.667.565-.156 1.212-.744 1.521-1.385.35-.705.485-.823 1.01-.823.35 0 .377.053.283.471-.054.261-.148.718-.202 1.006l-.094.535h.74c.754 0 .862.118.647.641-.068.169-.31.235-.849.235-.875 0-.74-.288-1.44 2.861-.512 2.313-.485 2.522.377 2.3.727-.183.781-.17.727.196-.041.248-.243.378-.849.561-1.05.327-2.275.34-2.41.04l-.054-.053zm6.423-.143c-1.198-1.085-.363-4.338 1.509-5.854.754-.614 1.939-1.084 2.706-1.084.499 0 1.576.457 1.737.732.256.431.175 1.463-.148 1.959-.673 1.006-2.114 1.633-3.703 1.633h-.943l.081.889c.121 1.398.687 1.594 2.424.81.566-.248 1.064-.431 1.104-.392.041.039.095.196.135.353.054.235-.175.392-1.118.823-1.01.47-1.319.536-2.235.536-.929 0-1.118-.04-1.481-.366l-.068-.039zm3.34-3.737c1.118-.497 1.616-1.646.916-2.13-.458-.313-.795-.261-1.401.222-.511.405-1.373 1.751-1.373 2.156 0 .235 1.09.092 1.845-.248h.013zm4.834 3.998c0-.065.297-1.228.647-2.587.363-1.359.633-2.678.606-2.927-.041-.418-.081-.444-.633-.418-.445.013-.593-.039-.66-.248-.054-.222.081-.327.741-.549a13.29 13.29 0 0 1 1.414-.379c.619-.104.605-.117.996.732.013.013.431-.17.943-.405 1.104-.497 1.279-.523 1.952-.144l.512.275-.337.927c-.283.784-.404.941-.7.941-.296 0-.364-.078-.364-.47 0-1.255-1.319-1.006-2.033.379-.175.339-.539 1.541-.794 2.665-.256 1.123-.499 2.051-.526 2.077-.134.105-1.723.196-1.723.105l-.041.026zm7.959 0c0-.065.256-1.019.579-2.117.337-1.202.579-2.391.592-2.992l.027-1.006-.565.053c-.445.039-.593-.014-.647-.223-.067-.222.068-.313.728-.496 1.44-.405 1.777-.431 2.06-.17a.885.885 0 0 1 .256.575c0 .183.027.34.067.34.027 0 .498-.196 1.05-.431 1.28-.549 2.976-.837 3.488-.588.323.156.35.235.256.901-.067.392-.323 1.503-.579 2.456-.256.954-.485 1.96-.512 2.235-.04.496-.04.496.62.483.457-.013.7.052.754.196.121.3-.027.392-1.024.653-1.131.301-2.181.301-2.302 0-.054-.13.188-1.372.538-2.783.7-2.822.741-3.148.404-3.253-.35-.118-1.562.418-2.289 1.006-.606.483-.673.64-1.05 2.051-.216.85-.445 1.843-.512 2.221-.067.379-.202.719-.296.745-.485.131-1.697.196-1.697.092l.054.052zm10.907-.105c-.054-.13.229-1.45.633-2.952.404-1.49.7-2.796.647-2.914-.054-.144-.202-.157-.606-.052a7.761 7.761 0 0 1-.566.143c-.013 0-.04-.143-.04-.326 0-.275.148-.366.835-.549 1.885-.509 2.464-.418 2.275.34-.04.196-.377 1.437-.727 2.77-.35 1.332-.606 2.521-.552 2.639.067.157.269.196.822.117.673-.078.713-.065.673.236-.108.614-3.151 1.149-3.38.601l-.014-.053zm6.006 0c-.107-.248.027-.927.647-3.423.686-2.757.686-2.508.107-2.508-.7 0-.579-.392.229-.771.472-.222.754-.51 1.131-1.15.418-.692.593-.862.943-.901.485-.053.485-.013.148 1.528l-.094.471h.835c.7 0 .821.039.74.222a1.4 1.4 0 0 0-.094.431c0 .157-.215.209-.848.209h-.849l-.525 2.417c-.283 1.333-.471 2.522-.417 2.652.081.196.202.209.633.105.727-.183.767-.17.767.209 0 .3-.134.379-.929.575-1.212.313-2.222.313-2.356 0l-.068-.066zm6.545-.104c-.445-.353-.458-.392-.458-1.777 0-1.346.027-1.463.606-2.509.714-1.28 1.508-1.972 2.814-2.404 2.263-.757 3.879.536 2.882 2.3-.566 1.006-2.06 1.724-3.595 1.724-.916 0-.983.027-1.078.379-.134.484.041 1.202.35 1.529.364.379.983.314 2.101-.209.835-.379 1.01-.418 1.131-.248.283.405.148.562-.915 1.019-.822.366-1.347.483-2.195.522-1.024.053-1.172.027-1.589-.3l-.054-.026zm3.474-3.868c1.077-.535 1.441-1.607.687-2.051-.283-.17-.498-.196-.835-.091-.552.157-1.36 1.097-1.683 1.973l-.256.679.74-.091c.404-.053 1.018-.236 1.367-.419h-.02zM.013 95.612c.027-.14.192-.274.364-.304.471-.079.875-.458 1.199-1.106.417-.862 1.737-6.846 1.777-8.087.027-1.058.027-1.071-.485-1.359-.983-.562-.713-.653 2.034-.653 2.181 0 2.545.039 2.545.222 0 .131-.202.261-.485.313-1.01.183-1.4 1.085-2.357 5.527-.888 4.155-.888 4.077-.484 4.442.309.275.471.301 1.71.249 1.67-.079 2.276-.327 2.855-1.202.457-.68.484-.693.808-.51.188.105.175.248-.041.823a7.105 7.105 0 0 1-.619 1.281l-.364.574-4.255.04c-3.986.026-4.255.013-4.202-.223v-.027zm80.425.043c0-.112.27-.321.606-.466.418-.183.701-.458.943-.91.458-.842 1.831-6.953 1.858-8.244.027-.974.014-1.006-.484-1.291-1.064-.614-.822-.653 4.026-.653 4.444 0 4.538.008 4.444.284-.054.143-.189.718-.296 1.254-.162.823-.243.98-.539 1.019-.283.039-.35-.026-.35-.34 0-.954-.62-1.228-2.855-1.228h-1.535l-.431 1.829a136.79 136.79 0 0 1-.512 2.078c-.067.222.068.248 1.333.248 1.589 0 2.061-.157 2.518-.823.418-.601.957-.64.835-.079l-.363 1.712c-.216 1.045-.337 1.32-.539 1.32-.161 0-.296-.157-.363-.432-.054-.235-.256-.509-.458-.601-.377-.183-2.882-.274-3.057-.104-.108.091-.579 2.156-.781 3.449-.094.614-.067.693.296.915.323.196.687.222 1.805.183 1.656-.079 2.248-.314 2.93-1.189.296-.379.579-.601.704-.549.31.104.275.366-.194 1.372-.7 1.502-.31 1.398-5.184 1.398-3.569 0-4.269-.039-4.269-.209l-.088.057zm80.784.003c0-.114.242-.28.525-.366 1.01-.31 1.346-1.128 2.343-5.772.862-3.998.848-4.638-.162-4.929-.175-.052-.296-.169-.256-.261.054-.117 1.293-.176 4.485-.204 4.336-.039 4.417-.039 4.309.236-.054.156-.189.718-.296 1.254-.162.823-.243.98-.539 1.019-.296.039-.35-.026-.35-.405 0-.915-.768-1.202-2.936-1.137l-1.252.039-.445 1.856c-.242 1.019-.444 1.946-.444 2.038 0 .261 2.424.235 3.003-.039.242-.118.539-.405.646-.654.122-.274.324-.444.499-.444.377 0 .377-.104-.041 1.829-.283 1.359-.39 1.62-.633 1.62-.175 0-.282-.104-.282-.261 0-.666-1.482-1.176-2.855-.967l-.606.092-.323 1.607c-.566 2.822-.539 3.083.323 3.397.956.352.404.483-2.141.522-2.088.04-2.492.013-2.492-.17l-.08.1zm-93.28-3.086c-.714-.292-1.333-1.193-1.333-1.929 0-1.14 1.117-2.159 2.37-2.155 1.495.005 2.41.825 2.41 2.147.014 1.686-1.697 2.653-3.434 1.947l-.013-.01zm80.945.068c-.27-.109-.701-.437-.943-.732-.364-.435-.444-.672-.431-1.28.027-1.317.929-2.13 2.384-2.13.727 0 .969.072 1.454.431 1.104.797 1.279 2.13.404 3.07-.727.79-1.831 1.037-2.841.641h-.027zm-95.076-5.102c-.31-.311-.337-.279 1.467-2.135l.609-.627.905.183c.498.102.906.227.906.279 0 .097-3.407 2.585-3.537 2.585-.041 0-.202-.127-.364-.284l.014-.001zm80.893 0l-.354-.256 1.198-1.236c.66-.68 1.253-1.236 1.334-1.236.39 0 1.75.352 1.723.444-.04.094-3.003 2.244-3.38 2.456-.094.047-.323-.03-.511-.17l-.01-.002zm105.704.002l-.384-.261 1.244-1.235c.683-.679 1.3-1.234 1.37-1.234.323 0 1.75.345 1.737.418 0 .078-3.003 2.264-3.394 2.476-.094.052-.35-.02-.556-.164h-.017zm-226.931-.737c-.646-.582-.016-1.706.956-1.706.679 0 1.031.32 1.031.934 0 .958-1.246 1.443-1.988.771l.001.001zm107.309.102c-.391-.266-.368-1.153.04-1.522.654-.588 1.907-.196 1.907.601 0 .863-1.199 1.437-1.939.941l-.008-.02zm105.606-.102c-.66-.593-.013-1.706.983-1.706.997 0 1.428 1.006.7 1.657-.494.441-1.238.464-1.696.049h.013zm-139.32-4.102c-.243-.243-.189-.331.961-1.459l1.226-1.203.909.196c.498.105.902.223.902.275-.014.144-3.205 2.352-3.488 2.417-.148.039-.377-.052-.511-.196l.001-.03z"></path>
      <path d="M139.945 74.613l.372-.864c.629-1.564 1.279-2.757 2.222-4.068.996-1.387 3.191-3.431 4.103-3.821 1.122-.481 2.515-.65 4.242-.515 1.481.118 6.028.788 7.864 1.163 1.398.282 3.445.309 4.407.056 1.855-.486 2.953-1.428 3.475-2.976.401-1.189.397-2.274-.01-2.992-.547-.967-.454-1.228.875-2.365.655-.575 1.192-1.098 1.194-1.163 0-.392-.916-1.921-1.145-1.934-.148 0-.431-.13-.633-.274l-.377-.274.781-.366c1.077-.497 1.872-1.268 1.872-1.816 0-.235-.229-.81-.512-1.281-.539-.901-.673-1.764-.377-2.273.189-.34.539-.483 2.209-.915 1.4-.365 1.912-.744 2.114-1.554.161-.693.08-1.137-.377-1.973-.377-.68-2.828-4.064-3.528-4.887-.957-1.11-2.128-3.031-2.465-4.063-.336-1.019-.35-1.084-.094-2.391.525-2.783.215-5.082-1.279-9.564-1.118-3.345-1.414-4.155-1.751-4.782-.633-1.123-.552-1.385.741-2.338.619-.458 1.185-.941 1.266-1.085.39-.653-.054-1.92-.782-2.273-.471-.222-.727-.066-1.198.718-.364.601-.512.706-.889.706-.633 0-.74-.235-.336-.719.457-.575.431-.666-.31-.757-.552-.066-.835-.262-2.034-1.359-1.589-1.464-2.666-2.143-4.793-3.031-.983-.405-1.32-.601-.97-.549.31.039 1.387.117 2.41.17 2.95.13 3.663-.222 4.35-2.143.458-1.307.687-1.908-.391-2.822L156.342 0h88.213v74.613h-104.61z"
        fill="#e2011c"></path>
      <path d="M64.722 74.613c-.639-.06-1.194-.086-1.233-.121-.068-.06.655-.48 3.967-2.3 1.064-.585 1.5-.898 1.352-.97-.121-.058-1.047-.149-2.061-.204-1.505-.079-1.941-.058-2.383.127-.3.124-1.492.449-2.65.723-2.882.68-3.838 1.148-4.767 2.3l-.35.444H0V0h112.315l-2.176 1.28c-1.198.539-2.591 1.285-3.094 1.66-1.708 1.267-4.009 4.157-4.583 5.755-.215.588-.404.806-1.05 1.206-.997.609-2.182 1.769-3.165 3.091-1.333 1.795-3.878 5.84-4.376 6.961-.781 1.741-.714 3.067.431 8.268.498 2.29 1.037 4.617 1.198 5.17.162.553.337 1.49.391 2.081.094 1.059.175 1.287.862 2.585.188.355.336.757.336.896 0 .138.135.331.31.431a.67.67 0 0 1 .31.54c0 .248.363.721 1.158 1.509 1.818 1.803 3.137 3.493 3.137 4.028 0 .439-.713.552-1.871.296-1.347-.3-2.451-.946-4.148-2.435-.727-.634-1.306-1.058-1.306-.946 0 .112.485.702 1.091 1.307 1.198 1.209 1.387 1.539 1.131 1.976-.229.385-.781.497-1.535.31-.876-.216-1.374.085-1.239.728.081.405.067.444-.189.366-.485-.17-1.562-.366-2.518-.458-.889-.078-.956-.117-1.481-.784-.404-.509-.727-.744-1.145-.849-1.575-.392-5.507-1.019-8.133-1.28-4.633-.458-5.75-.497-7.972-.248-1.71.182-2.168.3-3.098.718-1.656.758-4.524 3.136-4.524 3.75 0 .287.633.196 1.346-.209 2.182-1.215 9.683-2.94 13.359-3.071 1.818-.065 1.724.014-.471.379-.606.105-2.034.432-3.178.745-1.145.314-3.125.784-4.39 1.058-1.266.262-2.707.614-3.178.771l-.876.288 1.347.013c6.895.065 14.732 2.038 17.937 4.507 1.373 1.059 1.872 1.189 3.891.993 2.774-.261 6.356-1.45 7.932-2.639.687-.51 1.239-.719 1.239-.444 0 .47-.902 2.992-1.293 3.606-.431.705-.458.797-.229.954.135.091.216.209.162.248-.054.052.054.131.242.183.525.157.391.3-.444.483-.808.196-1.455.523-1.455.745 0 .078.108.144.243.144.404 0 .108.261-.431.365-.364.079-.431.131-.269.223.161.091.161.13.013.13-.108 0-.202.144-.202.327 0 .222-.161.379-.485.509-.794.327-.579.497.512.405.552-.052.889-.052.754 0-.135.04-1.023.405-1.979.81-.97.392-2.222.876-2.788 1.059-.646.209-1.05.418-1.091.575-.053.248.243.235.997-.026.135-.053.256-.027.256.039 0 .065-1.657.927-3.677 1.92-2.033.993-3.918 2.012-4.214 2.261-.297.261-.66.47-.835.47-.162 0-.377.17-.485.366-.31.614-.256.692.485.575 1.09-.17 1.602-.157 1.67.039.04.104-.068.183-.243.183a.747.747 0 0 0-.498.209c-.108.117-.377.235-.606.248-.283.039-.539.209-.754.51-.175.248-.458.496-.633.535-.175.039.071.053.552.013 7.15-.483 8.484-.718 11.369-2.038 2.459-1.123 5.01-2.809 6.828-4.481.525-.484 1.01-.876 1.077-.876.246 0 .112.797-.252 1.516-.633 1.228-1.952 2.352-4.673 3.985-1.373.823-2.854 1.607-3.293 1.725-1.366.391-3.569.81-5.885 1.11-7.532.98-10.415 1.725-13.27 3.436-.482.275-.983.497-1.117.471-.135-.013-.498.156-.795.392-.848.666-.229.548 1.549-.275 1.831-.849 2.68-.98 1.239-.196-1.764.967-3.097 1.581-4.417 1.581h-7.023l.085-.148zm-9.356-8.322c.285-.109 1.231-.588 2.101-1.064.871-.475 1.904-.998 2.298-1.159l2.465-1.006c2.015-.82 4.975-1.594 5.144-1.345.06.086.502.183.983.213.669.041.786.081.511.169-.196.062-.358.17-.358.241 0 .259 1.488.183 2.114-.111.247-.118.802-.248 1.234-.301.538-.065.786-.156.786-.3 0-.17.138-.196.622-.118.67.105 2.106-.143 5.979-1.019 2.62-.601 4.606-1.202 6.35-1.92l1.261-.523-1.261-.732c-3.077-1.777-6.168-2.874-12.951-4.586-1.181-.3-2.218-.614-2.305-.692-.105-.092-.054-.105.159-.039.677.222 1.193.261 1.193.091 0-.209-.512-.379-1.519-.509-.92-.118-1.514-.366-.875-.366.989 0-.711-.575-2.616-.863-1.409-.222-1.49-.274-.902-.535.512-.222 1.064-1.072.92-1.411-.121-.301-.269-.262-1.037.196-1.468.888-2.814 2.351-3.568 3.867-.431.862-.283.941 1.939 1.032 1.831.066 1.858.079 1.387.301a4.987 4.987 0 0 1-1.172.326c-1.293.17-2.006.732-1.36 1.059.189.091.121.169-.35.379-.525.222-.552.274-.31.391.162.079.62.118 1.024.092.565-.039.821.013 1.09.222l.351.274-.701.392c-.39.222-.821.614-.969.863-.148.248-.674.849-1.185 1.332-.499.484-.916.98-.916 1.111 0 .118-.727.758-1.629 1.398-2.411 1.738-3.461 2.704-3.461 3.162 0 .248-.135.457-.377.601-.754.444-1.145.953-.727.953.094 0 .404-.091.686-.195l-.048.129zm18.601-1.678c.595-.072 1.286-.239 1.532-.371l.45-.24-.768-.345-.767-.345-.765.28c-.422.154-1.005.361-1.296.461-1.174.401-1.326.94-.226.792a131.98 131.98 0 0 1 1.84-.223v-.009zm-26.923-6.53c3.541-3.345 6.043-5.33 9.217-7.316 1.078-.675 1.84-1.065 1.878-.963.102.274.565.196 1.317-.235.864-.497 1.296-1.006 2.375-2.757 1.118-1.829 1.543-2.287 3.158-3.41.767-.523 1.872-1.32 2.478-1.751.875-.627 1.077-.732 1.01-.483-.054.182-.014.313.107.313.364 0 2.074-.666 2.128-.823.094-.261-1.63-.523-2.909-.444-.983.052-1.319.157-2.545.744-2.855 1.398-4.928 2.901-8.874 6.468-2.841 2.561-5.077 4.285-6.208 4.769-.364.156-.646.496-1.091 1.306-.862 1.594-2.424 3.881-3.891 5.736-1.387 1.751-1.684 2.352-.606 1.228a139.07 139.07 0 0 1 2.504-2.43l-.048.048zm35.459 15.71c4.255-.8 4.726-.86 7.712-.977 3.353-.134 3.781-.212 5.798-1.068.647-.274.9-.324.99-.196.156.226 1.252-.313 3.39-1.666.875-.552 2.11-1.26 2.747-1.571.96-.471 1.252-.549 1.715-.471.493.083.64.026 1.269-.47 1.745-1.389 3.234-2.03 4.722-2.034.445 0 .597.057.597.228 0 .147.087.202.238.149.445-.156.243.013-.897.784-1.319.876-1.198 1.15.148.301 1.293-.81 1.307-.81 1.307-.484 0 .183-.499.654-1.401 1.333-2.06 1.542-3.514 2.822-5.723 5.03l-1.979 1.921H77.969l4.531-.823.003.014zm.04-29.23c.154-.036.404-.036.556 0 .154.037.027.066-.277.066-.307 0-.431-.029-.279-.066z"
        fill="#003189"></path>
      <path d="M156.719 39.105c-.695-.097-.337-.33.505-.33.843 0 1.287-.292 1.287-.846 0-.262-.054-.303-.323-.226-.229.065-.391.01-.552-.187-.135-.183-.485-.314-.997-.375-.902-.109-2.37-.899-2.114-1.137.094-.081.566-.178 1.037-.213.835-.063.889-.091 1.05-.551.135-.344.31-.51.606-.575.243-.05.606-.239.822-.422.229-.183.942-.653 1.589-1.032 1.104-.654 1.791-1.346 1.548-1.568-.256-.235-2.639-.484-3.77-.405-1.307.091-3.555.523-4.485.849-.956.327-.686.039.647-.666 1.791-.967 5.238-1.855 7.137-1.855.741 0 3.218.522 3.515.744.579.431-.054 1.947-1.118 2.705l-.445.313.728.706-.377.274c-.202.144-.485.275-.62.275s-.485.196-.767.444c-.431.379-.485.496-.364.797.094.222.094.444-.027.64-.108.183-.135.588-.067 1.058.134.954-.054 1.294-.835 1.49-.566.143-2.666.17-3.582.039l-.028.054z"
        fill="#7f7f7f"></path>
    </g>
  </symbol>
</svg>
