<svg width="243" height="392" xmlns="http://www.w3.org/2000/svg">
  <g transform="translate(.22 .35)" fill-rule="nonzero" fill="none">
    <path fill="#ADC90E" d="M0 376.29h242.17v14.4H0zM121.09 169.61c48.78 0 90.29-31.09 105.84-74.52-63.49-14.14-125.81 39.47-131.32 55.02C108.96 81.8 68.98 18.54 24.36 0 14.42 16.76 8.7 36.32 8.7 57.22c-.01 62.07 50.31 112.39 112.39 112.39Z"/>
    <g fill="#006E38">
      <path d="M.08 183.31h3.79v37.95h17.29v3.49H.08zM16.25 198.46l4.8-15.16h4.03l-5.62 15.16zM43.01 183.31h5.15l17.05 41.44h-4.03l-5.33-13.02H35.31l-5.33 13.02H25.9l17.11-41.44Zm11.48 25.04-8.88-21.91-8.94 21.91h17.82ZM99.9 215.93v-10.6H86.99v-3.32h16.7v15.39c-3.85 5.15-10.18 8.53-17.88 8.53-13.26 0-22.26-10.06-22.26-21.91s8.76-21.91 21.67-21.91c7.34 0 13.5 3.43 17.29 8.58l-3.14 2.37c-3.08-4.44-8.11-7.4-14.15-7.4-10.36 0-17.7 8.29-17.7 18.35 0 10.06 7.58 18.35 18.29 18.35 5.92.02 10.89-2.46 14.09-6.43ZM109.6 183.31h21.08v3.32h-17.29v15.39h14.92v3.26h-14.92v16.16h17.29v3.32H109.6zM137.43 183.31h5.09l26.52 37.12v-37.12h3.79v41.44h-5.09l-26.52-37.12v37.12h-3.79zM213.56 214.98l3.08 2.43c-3.79 5.09-9.89 8.53-17.29 8.53-12.91 0-21.67-10.06-21.67-21.91s8.76-21.91 21.67-21.91c7.34 0 13.5 3.43 17.29 8.58l-3.14 2.37c-3.08-4.44-8.11-7.4-14.15-7.4-10.36 0-17.7 8.29-17.7 18.35 0 10.06 7.34 18.35 17.7 18.35 6.1.01 11.07-2.95 14.21-7.39ZM221.1 183.31h21.08v3.32h-17.29v15.39h14.92v3.26h-14.92v16.16h17.29v3.32H221.1z"/>
    </g>
    <path d="M242.17 296.39c0 35.17-26.2 65.07-64.54 65.07-38.51 0-64.72-29.9-64.72-65.07 0-35.17 26.2-65.07 64.72-65.07 38.34 0 64.54 29.89 64.54 65.07Zm-17.05 0c0-27.43-19.87-49.59-47.48-49.59-27.79 0-47.66 22.16-47.66 49.59 0 27.43 19.87 49.59 47.66 49.59 27.6 0 47.48-22.16 47.48-49.59Z" fill="#006E38"/>
    <circle fill="#006E38" cx="93.48" cy="244.15" r="10.38"/>
    <path fill="#006E38" d="M86 269.3h14.95v88.63H86V269.3zM.01 234.84h30.42c23.56 0 37.81 12.49 37.81 32.01 0 11.08-5.1 20.05-14.77 25.32 14.42 5.1 22.16 16.35 22.16 30.42 0 21.63-16 35.35-42.21 35.35H.01v-123.1Zm16.53 14.06v37.11h14.07c13.01 0 20.58-6.68 20.58-18.82 0-11.61-7.56-18.29-20.58-18.29H16.54Zm0 51.18v43.79h17.59c15.3 0 24.44-8.09 24.44-21.98s-9.14-21.81-24.44-21.81H16.54Z"/>
  </g>
</svg>
