<svg id="bfedc4e5-bbe8-4960-9437-35791fa98f91" data-name="Calque 1" xmlns="http://www.w3.org/2000/svg" width="3.7rem" viewBox="0 0 226.8 256.3">
  <g>
    <g>
      <path d="M58.1,62.1a21.6,21.6,0,0,1,4.6,4.2,49.1,49.1,0,0,1,6.2,8.8,112.1,112.1,0,0,1,6.7,13.8,207.9,207.9,0,0,1,6.9,20.4c2.4,8.1,3.8,12.5,4.1,13.1a9.3,9.3,0,0,0,1.6,2.2c.8.8,1.4,1.2,2,1.2l4.2-.3,4.3-.3h3.8a18.4,18.4,0,0,0,1.9,2.2l.9,1.1a28.2,28.2,0,0,1,1.4,2.5,6.9,6.9,0,0,1-1.5,1.5,11.7,11.7,0,0,1-3.2,1.2l-2.7.9-1.2.4a31.6,31.6,0,0,0-5.2,1.8,31.7,31.7,0,0,0-4.9,2,5.7,5.7,0,0,0-1.1,1.1,2.2,2.2,0,0,0-.6,1.4c0,.5.5,6,1.6,16.5s1.6,16,1.6,16.5a7.7,7.7,0,0,0,.2,1.5,10.3,10.3,0,0,1,.2,2,26.3,26.3,0,0,1,.1,3,43.7,43.7,0,0,1-.7,4.9,13,13,0,0,1-3.7-5.1c-.9-2.1-2.1-7.1-3.5-15.1a170.5,170.5,0,0,0-3.8-17.6c-1-3.8-1.7-6.3-2.1-7.6l-3.8.8c-1.3.2-4.5,1.3-9.8,3.3a92.2,92.2,0,0,0-10.9,4.5,30.8,30.8,0,0,0-3.6,2l-2.2,1.8a14.7,14.7,0,0,1-.4,2.7,78.8,78.8,0,0,0-.5,9.3,73.1,73.1,0,0,1-1.5,13.2A29.1,29.1,0,0,1,37,191.1a15.5,15.5,0,0,1-2.4,1.9c-.9.6-2.9,1.2-6,1.9a34.3,34.3,0,0,1-.4-8.7c.3-3.2.6-6.5.8-9.9a80.7,80.7,0,0,1,1.9-11.5l3.6-14.9c1.4-5.6,3-11.4,4.8-17.3s3.8-11.5,5.8-16.8a71.1,71.1,0,0,0,4.2-13.7c.7-3.9,1.3-8.3,2-13.1s1.2-8.7,1.7-11.6a75.9,75.9,0,0,1,2-8.2A29.5,29.5,0,0,1,58.1,62.1ZM62,76.7c-.2-.1-1.2,1.3-3,4.4a60.8,60.8,0,0,0-4.4,9.4,90.9,90.9,0,0,0-3.4,12.6c-1,5.3-1.8,9.9-2.2,13.9a93.3,93.3,0,0,0-.3,13.1h2c.7,0,3.3-.5,8-1.4s7.6-1.7,9-2.2a15.1,15.1,0,0,0,3.6-1.8,8.6,8.6,0,0,0,2.1-1.7l1-1.5a4.9,4.9,0,0,0,.6-1.7,7.4,7.4,0,0,0-.3-2.8c-.4-1.2-1.1-4-2.3-8.5s-2.4-9.2-3.9-14a123.8,123.8,0,0,0-4.2-12.3A37.2,37.2,0,0,0,62,76.7Z" transform="translate(-28.1 -13.6)" fill="#e02755"></path>
      <path d="M188.7,31.3a14.7,14.7,0,0,1,4.4,3.1,13.3,13.3,0,0,1,2.1,3.3,14.3,14.3,0,0,1,1.4,4.9,10.4,10.4,0,0,1-.4,5.1,26.4,26.4,0,0,0-11-6.4,27.1,27.1,0,0,0-13.3-.3,33.6,33.6,0,0,0-17.8,10.3c-4.8,5.3-6.6,10.7-5.4,16.3a17.2,17.2,0,0,0,4.8,8.1,32.2,32.2,0,0,0,11.1,6.5c13.9,5.5,22.1,13.6,24.6,24.5,1.8,8.3.3,17.7-4.7,28.4-3.4,7.4-8.8,14.5-16.2,21.4s-16.5,12.3-24.6,14.1a24.8,24.8,0,0,1-13-.1,23.2,23.2,0,0,1-11.5-8.2c-3.1-4.1-5.1-7.8-5.9-11.4q-3.6-16.5,22.5-31.5c9.4-5.3,22.6-11,39.7-17-2.2-3.5-6.7-7.1-13.5-10.6s-11.5-6-17.2-9.1-9.7-8.1-10.7-12.8a18.4,18.4,0,0,1,0-7.4c1.6-7.6,6.6-14.5,14.9-20.6a94.9,94.9,0,0,1,26.2-10.2l2.8-.8C183.9,30.7,187.5,30.9,188.7,31.3Zm-43,91.2a61.9,61.9,0,0,0-16.6,12.2c-6.1,6.5-8.6,12.3-7.4,17.4a12.8,12.8,0,0,0,5.2,7.5,23.1,23.1,0,0,0,9.1,4.6,20.8,20.8,0,0,0,9.6.2c9.6-2.2,18-9.2,25.2-21.2s9.7-22.5,7.7-31.6a16.2,16.2,0,0,0-.6-2.2,102.2,102.2,0,0,0-20.6,7.4Z" transform="translate(-28.1 -13.6)" fill="#e02755"></path>
      <path d="M236.5,17.1a7.9,7.9,0,0,1,2.6-2.6,6.7,6.7,0,0,1,2.6-.9,5.2,5.2,0,0,1,2.5.3,8.6,8.6,0,0,1,2,1.3l1.4,1.2c.3.3.6.9,1.1,1.6a25.7,25.7,0,0,1,1.8,3.7,24.9,24.9,0,0,1,1.6,5.3c.4,1.7.7,3.6,1.1,5.4a56.2,56.2,0,0,1,.6,5.6c.1,1.8.1,3.4.1,5a45.9,45.9,0,0,1-.4,5.9,57.3,57.3,0,0,1-1,6.4c-.5,2-1,4.3-1.6,6.7s-1.5,5.1-2.4,7.8a47.4,47.4,0,0,1-3.8,8.3c-1.5,2.8-3.4,6-5.7,9.7a99.5,99.5,0,0,1-7.4,10.9,87,87,0,0,1-6.8,8c-1.9,1.9-3.6,3.4-5,4.7a34.5,34.5,0,0,0-3.3,3.2,18.6,18.6,0,0,0-1.7,2.5c-.3.7-.7,1.9-1.2,3.5a35,35,0,0,0-1.2,6.4q-.5,3.9-.6,4.5a5.6,5.6,0,0,0-.2,2.1,5.8,5.8,0,0,1-.1,2c0,.4-.1,1.1-.1,2a9.8,9.8,0,0,1-.2,2.1,8.8,8.8,0,0,0-.2,2,4.4,4.4,0,0,1-.3,1.9l-.3,1.3a6.9,6.9,0,0,1-.2,1.3l-.3,1.3a26.5,26.5,0,0,1-1,2.8,10.9,10.9,0,0,1-1.3,2.7,8.6,8.6,0,0,1-.7,1l-1.1,1.3a2.6,2.6,0,0,1-1.6,1.1l-1.3.3-.7-.2a1.2,1.2,0,0,1-.6-.8,14.3,14.3,0,0,1-.8-2.5,25.5,25.5,0,0,1-.8-2.6c-.1-.4-.2-1.1-.5-2.3a40.1,40.1,0,0,1-.5-6.7c-.1-3.2-.1-5.1.1-5.5a3.2,3.2,0,0,0,.1-1.4v-1.3c0-.5.4-2.2,1-5.1a28.2,28.2,0,0,1,1.1-5,2.1,2.1,0,0,0,.3-1.2,9.3,9.3,0,0,1,.6-2.5,14.8,14.8,0,0,0,.5-2.5c0-.5.3-1.7.7-3.8a20.7,20.7,0,0,1,.9-3.7,5.4,5.4,0,0,0,.1-2,5.3,5.3,0,0,1,.2-2c.1-.5.1-2.8.1-7.1s.1-6.8.2-7.6a24.5,24.5,0,0,0,0-5.6,73.6,73.6,0,0,1,.2-8.2c.3-2.7.5-4.2.6-4.6a4.2,4.2,0,0,0,.3-1.2c.1-.5.2-1.1.4-1.9a5.8,5.8,0,0,1,.7-1.9,1.8,1.8,0,0,1,1-.8,3.5,3.5,0,0,1,1.4.7,16.3,16.3,0,0,1,2.3,1.9,10.8,10.8,0,0,1,1.7,1.9q.3.6.6.6a.5.5,0,0,0,.4-.3,5.6,5.6,0,0,0,.5-.8,5,5,0,0,0,.4-1.3c.1-.4.3-1.2.7-2.4s1-3.2,2-6.1,1.8-5.7,2.7-8.4,1.9-5.6,3-8.6l2.9-7.7,2.9-6.5c1.1-2.3,1.9-3.8,2.4-4.7s1.1-2,1.9-3.6S235.6,18.4,236.5,17.1Zm2.8,9.4c-.5,1.4-1.5,3.9-3,7.4l-2.6,5.8a5.4,5.4,0,0,0-.5,1.1c-.1.4-1.4,3.9-3.8,10.6s-3.7,10.2-3.8,10.6-.3.8-.4,1.1-1.1,3.3-2.6,8.7-2.4,8.4-2.4,8.8a2.2,2.2,0,0,1-.2,1.2,2.7,2.7,0,0,0-.3,1.2,5,5,0,0,1-.2,1.2,23.2,23.2,0,0,0-.7,4.4,36.2,36.2,0,0,0-.5,4.5,2.8,2.8,0,0,1-.1,1.3,6.5,6.5,0,0,0,0,2,10.4,10.4,0,0,1,0,2.5c-.1.7.1.9.5.4l1.2-1.2.9-.8a6,6,0,0,1,.8-.8l4.5-5.4c2.7-3.3,4.3-5.2,4.7-5.9l.9-1.5a3.1,3.1,0,0,1,.7-.9,5.3,5.3,0,0,0,.6-1,39.5,39.5,0,0,1,2.4-4.7,34.1,34.1,0,0,1,2.5-4.6c.2-.3.7-1.7,1.7-4.3l1.7-4.4a5.6,5.6,0,0,0,.4-1.2l.3-1.2.3-1.1a3.5,3.5,0,0,1,.3-1.2c.1-.4.3-1.4.7-2.9s.6-2.7.7-3.1a2.1,2.1,0,0,1,.3-1.2,2.8,2.8,0,0,0,.1-1.3c0-.5.1-1.4.2-2.6a7.4,7.4,0,0,0,.1-2.5,7.1,7.1,0,0,1,.1-1.4,20.2,20.2,0,0,0-.2-3.8,29.8,29.8,0,0,0-.4-3.4l-.9-3-1-3.5a11.8,11.8,0,0,1-.7-2l-1-2.5C240.3,25,239.8,25.2,239.3,26.5Z" transform="translate(-28.1 -13.6)" fill="#e02755"></path>
    </g>
    <g>
      <path d="M41.6,238.3l-1.3-3.7H33l-1.3,3.7h-3l6.8-18.6h2.3l6.8,18.6Zm-4.9-14.4-2.9,8.3h5.7Z" transform="translate(-28.1 -13.6)" fill="#e02755"></path>
      <path d="M51.4,243.8a6.1,6.1,0,0,1-4.7-1.7l1.7-1.7a3.7,3.7,0,0,0,2.9,1.2c2.2,0,3.1-1.6,3.1-3.4v-1.7A4.3,4.3,0,0,1,51,238a4.1,4.1,0,0,1-3.2-1.2c-1.3-1.2-1.5-3.1-1.5-5.3s.2-4.1,1.5-5.4a4.6,4.6,0,0,1,3.2-1.2,4.2,4.2,0,0,1,3.5,1.6v-1.4H57v13.1A5.2,5.2,0,0,1,51.4,243.8Zm.3-16.5c-2.4,0-2.7,2.1-2.7,4.2s.3,4.1,2.7,4.1,2.7-2.1,2.7-4.1S54.1,227.3,51.7,227.3Z" transform="translate(-28.1 -13.6)" fill="#e02755"></path>
      <path d="M63.2,232.5c0,2.2,1.2,3.7,3.4,3.7a3.7,3.7,0,0,0,3.2-1.4l1.7,1.6a6.1,6.1,0,0,1-5,2.1c-3.3,0-5.9-1.8-5.9-6.8s2.2-6.8,5.6-6.8,5.6,2.6,5.6,6.4v1.2Zm5.6-3.7a2.6,2.6,0,0,0-2.6-1.6,2.7,2.7,0,0,0-2.6,1.6,4.8,4.8,0,0,0-.4,1.8h6A3.4,3.4,0,0,0,68.8,228.8Z" transform="translate(-28.1 -13.6)" fill="#e02755"></path>
      <path d="M83.4,238.3v-8c0-2.1-1.2-3-2.6-3a2.7,2.7,0,0,0-2.8,3v8H75.4V225.1H78v1.3a4.7,4.7,0,0,1,3.5-1.5,4.6,4.6,0,0,1,3.2,1.2,4.8,4.8,0,0,1,1.4,3.8v8.4Z" transform="translate(-28.1 -13.6)" fill="#e02755"></path>
      <path d="M95.4,238.5c-3,0-5.9-1.8-5.9-6.8s2.9-6.8,5.9-6.8a5.8,5.8,0,0,1,4.4,1.9l-1.9,1.8a2.9,2.9,0,0,0-2.5-1.3,3,3,0,0,0-2.5,1.2,7.7,7.7,0,0,0,0,6.4,3.2,3.2,0,0,0,5,0l1.9,1.7A5.8,5.8,0,0,1,95.4,238.5Z" transform="translate(-28.1 -13.6)" fill="#e02755"></path>
      <path d="M104.4,232.5c0,2.2,1.2,3.7,3.3,3.7a3.7,3.7,0,0,0,3.2-1.4l1.7,1.6a5.9,5.9,0,0,1-4.9,2.1c-3.3,0-6-1.8-6-6.8s2.2-6.8,5.6-6.8,5.6,2.6,5.6,6.4v1.2Zm5.5-3.7a2.6,2.6,0,0,0-2.6-1.6,2.7,2.7,0,0,0-2.6,1.6,3.4,3.4,0,0,0-.3,1.8h5.9A3.4,3.4,0,0,0,109.9,228.8Z" transform="translate(-28.1 -13.6)" fill="#e02755"></path>
      <path d="M130.3,238.3v-1.4a4,4,0,0,1-3.5,1.6,4.6,4.6,0,0,1-3.2-1.2c-1.3-1.3-1.5-3.6-1.5-5.6s.2-4.3,1.5-5.6a4.6,4.6,0,0,1,3.2-1.2,4.4,4.4,0,0,1,3.5,1.5v-6.7h2.6v18.6Zm-2.8-11c-2.4,0-2.7,2-2.7,4.4s.3,4.4,2.7,4.4,2.8-2.1,2.8-4.4S129.9,227.3,127.5,227.3Z" transform="translate(-28.1 -13.6)" fill="#e02755"></path>
      <path d="M139.1,232.5c0,2.2,1.2,3.7,3.4,3.7a3.7,3.7,0,0,0,3.2-1.4l1.7,1.6a6,6,0,0,1-5,2.1c-3.3,0-5.9-1.8-5.9-6.8s2.2-6.8,5.6-6.8,5.6,2.6,5.6,6.4v1.2Zm5.6-3.7a2.6,2.6,0,0,0-2.6-1.6,2.7,2.7,0,0,0-2.6,1.6,4.8,4.8,0,0,0-.4,1.8h6A3.4,3.4,0,0,0,144.7,228.8Z" transform="translate(-28.1 -13.6)" fill="#e02755"></path>
      <path d="M162.8,238.5a8.5,8.5,0,0,1-6.6-2.5l1.9-1.8a6.1,6.1,0,0,0,4.7,1.7c2.4,0,3.9-1,3.9-2.8a2.4,2.4,0,0,0-.8-1.9c-.4-.5-.9-.7-2-.8l-2.2-.3a6.7,6.7,0,0,1-3.5-1.5,4.7,4.7,0,0,1-1.4-3.6c0-3.2,2.4-5.4,6.2-5.4a7.7,7.7,0,0,1,5.8,2.1l-1.8,1.8a5.6,5.6,0,0,0-4.1-1.5c-2.1,0-3.3,1.3-3.3,2.9a2.4,2.4,0,0,0,.7,1.8,3.7,3.7,0,0,0,2,.8l2.2.3a6.3,6.3,0,0,1,3.4,1.4,4.9,4.9,0,0,1,1.5,3.8C169.4,236.4,166.7,238.5,162.8,238.5Z" transform="translate(-28.1 -13.6)" fill="#e02755"></path>
      <path d="M174.9,232.5c0,2.2,1.2,3.7,3.3,3.7a4,4,0,0,0,3.3-1.4l1.7,1.6a6.3,6.3,0,0,1-5,2.1c-3.3,0-6-1.8-6-6.8s2.3-6.8,5.7-6.8,5.6,2.6,5.6,6.4v1.2Zm5.6-3.7a2.8,2.8,0,0,0-2.6-1.6,2.7,2.7,0,0,0-2.7,1.6,4.8,4.8,0,0,0-.3,1.8h5.9A4.8,4.8,0,0,0,180.5,228.8Z" transform="translate(-28.1 -13.6)" fill="#e02755"></path>
      <path d="M194.3,228.2a2.5,2.5,0,0,0-2-.9,2.8,2.8,0,0,0-2.6,3v8H187V225.1h2.6v1.4a4.5,4.5,0,0,1,3.5-1.6,4.2,4.2,0,0,1,3.2,1.3Z" transform="translate(-28.1 -13.6)" fill="#e02755"></path>
      <path d="M203.6,238.3h-2.2l-4.8-13.2h2.8l3.1,9.3,3.1-9.3h2.8Z" transform="translate(-28.1 -13.6)" fill="#e02755"></path>
      <path d="M210.7,222.5v-2.8h2.8v2.8Zm.1,15.8V225.1h2.6v13.2Z" transform="translate(-28.1 -13.6)" fill="#e02755"></path>
      <path d="M222.9,238.5c-3,0-5.9-1.8-5.9-6.8s2.9-6.8,5.9-6.8a5.4,5.4,0,0,1,4.3,1.9l-1.8,1.8a2.9,2.9,0,0,0-2.5-1.3,3,3,0,0,0-2.5,1.2,6.8,6.8,0,0,0,0,6.4,3.2,3.2,0,0,0,5,0l1.8,1.7A5.4,5.4,0,0,1,222.9,238.5Z" transform="translate(-28.1 -13.6)" fill="#e02755"></path>
      <path d="M231.8,232.5c0,2.2,1.2,3.7,3.4,3.7a3.7,3.7,0,0,0,3.2-1.4l1.7,1.6a6.1,6.1,0,0,1-5,2.1c-3.3,0-5.9-1.8-5.9-6.8s2.2-6.8,5.6-6.8,5.6,2.6,5.6,6.4v1.2Zm5.6-3.7a2.9,2.9,0,0,0-5.2,0,4.8,4.8,0,0,0-.4,1.8h6A3.4,3.4,0,0,0,237.4,228.8Z" transform="translate(-28.1 -13.6)" fill="#e02755"></path>
      <path d="M248.2,238.5a7.3,7.3,0,0,1-5.5-1.9l1.7-1.8a5.2,5.2,0,0,0,3.8,1.4c1.6,0,2.9-.6,2.9-1.8s-.5-1.5-1.8-1.6l-2.1-.2c-2.4-.2-3.9-1.3-3.9-3.6s2.2-4.1,5-4.1a7.5,7.5,0,0,1,4.9,1.5l-1.7,1.7a4.8,4.8,0,0,0-3.2-.9c-1.6,0-2.4.7-2.4,1.7s.4,1.3,1.8,1.5h2.1c2.5.3,3.9,1.4,3.9,3.8S251.4,238.5,248.2,238.5Z" transform="translate(-28.1 -13.6)" fill="#e02755"></path>
      <path d="M57.9,263.8c0,2.3,1.2,3.7,3.3,3.7a4.3,4.3,0,0,0,3.3-1.3l1.7,1.6a6.5,6.5,0,0,1-5,2c-3.3,0-6-1.7-6-6.8s2.3-6.7,5.7-6.7,5.6,2.6,5.6,6.3v1.2Zm5.6-3.6a2.9,2.9,0,0,0-2.6-1.7,2.8,2.8,0,0,0-2.7,1.7,4.5,4.5,0,0,0-.3,1.8h5.9A4.5,4.5,0,0,0,63.5,260.2Z" transform="translate(-28.1 -13.6)" fill="#e02755"></path>
      <path d="M73.9,269.7a3.5,3.5,0,0,1-3.6-3.7v-7.3H68.8v-2h1.5v-4.1H73v4.1h2.5v2H73v7.1c0,1,.4,1.6,1.4,1.6h1.1v2.3Z" transform="translate(-28.1 -13.6)" fill="#e02755"></path>
      <path d="M92.8,269.7v-1.5a4.2,4.2,0,0,1-3.5,1.6,4.2,4.2,0,0,1-3.2-1.2c-1.4-1.3-1.5-3.6-1.5-5.6s.1-4.2,1.5-5.6a4.4,4.4,0,0,1,3.2-1.1,3.8,3.8,0,0,1,3.4,1.5v-6.7h2.7v18.6ZM90,258.6c-2.4,0-2.8,2.1-2.8,4.4s.4,4.4,2.8,4.4,2.7-2,2.7-4.4S92.4,258.6,90,258.6Z" transform="translate(-28.1 -13.6)" fill="#e02755"></path>
      <path d="M101.6,263.8c0,2.3,1.2,3.7,3.4,3.7a4.2,4.2,0,0,0,3.2-1.3l1.7,1.6a6.5,6.5,0,0,1-5,2c-3.3,0-5.9-1.7-5.9-6.8s2.2-6.7,5.6-6.7,5.6,2.6,5.6,6.3v1.2Zm5.6-3.6a2.8,2.8,0,0,0-2.6-1.7,2.8,2.8,0,0,0-2.7,1.7,4.5,4.5,0,0,0-.3,1.8h5.9A4.5,4.5,0,0,0,107.2,260.2Z" transform="translate(-28.1 -13.6)" fill="#e02755"></path>
      <path d="M127.3,262.4h-4.2v7.3h-2.8V251.1h7c3.7,0,6,2.4,6,5.6S131,262.4,127.3,262.4Zm-.1-8.8h-4.1v6.2h4.1a3,3,0,0,0,3.3-3.1A3,3,0,0,0,127.2,253.6Z" transform="translate(-28.1 -13.6)" fill="#e02755"></path>
      <path d="M143.3,269.7v-1.2a4.7,4.7,0,0,1-3.6,1.3,4.6,4.6,0,0,1-3.5-1.2,3.9,3.9,0,0,1-1.1-2.8c0-2.2,1.6-3.8,4.6-3.8h3.5v-1c0-1.7-.8-2.5-2.9-2.5a3.1,3.1,0,0,0-2.9,1.3l-1.7-1.6c1.2-1.5,2.5-1.9,4.7-1.9s5.5,1.5,5.5,4.5v8.9Zm-.1-5.9h-3.1c-1.6,0-2.4.7-2.4,1.9s.8,1.9,2.5,1.9a3,3,0,0,0,2.4-.8,2.5,2.5,0,0,0,.6-1.9Z" transform="translate(-28.1 -13.6)" fill="#e02755"></path>
      <path d="M149.9,253.8V251h2.8v2.8Zm.1,15.9V256.4h2.6v13.3Z" transform="translate(-28.1 -13.6)" fill="#e02755"></path>
      <path d="M158.8,263.8c0,2.3,1.2,3.7,3.4,3.7a3.9,3.9,0,0,0,3.2-1.3l1.7,1.6a6.4,6.4,0,0,1-5,2c-3.3,0-5.9-1.7-5.9-6.8s2.2-6.7,5.6-6.7,5.6,2.6,5.6,6.3v1.2Zm5.6-3.6a2.8,2.8,0,0,0-5.2,0,3.2,3.2,0,0,0-.4,1.8h6A4.4,4.4,0,0,0,164.4,260.2Z" transform="translate(-28.1 -13.6)" fill="#e02755"></path>
      <path d="M187.1,269.7v-8.1c0-2.1-1.2-3-2.7-3a2.7,2.7,0,0,0-2.7,2.9v8.2H179v-8.1c0-2.1-1.2-3-2.7-3a2.7,2.7,0,0,0-2.7,3v8.1h-2.7V256.4h2.6v1.4a4.8,4.8,0,0,1,3.6-1.5,4.1,4.1,0,0,1,3.7,1.9,5.1,5.1,0,0,1,4.2-1.9,4.6,4.6,0,0,1,3.3,1.2,4.9,4.9,0,0,1,1.4,3.7v8.5Z" transform="translate(-28.1 -13.6)" fill="#e02755"></path>
      <path d="M195.8,263.8c0,2.3,1.2,3.7,3.4,3.7a4.2,4.2,0,0,0,3.2-1.3l1.7,1.6a6.5,6.5,0,0,1-5,2c-3.3,0-5.9-1.7-5.9-6.8s2.2-6.7,5.6-6.7,5.6,2.6,5.6,6.3v1.2Zm5.6-3.6a2.8,2.8,0,0,0-2.6-1.7,2.9,2.9,0,0,0-2.7,1.7,4.5,4.5,0,0,0-.3,1.8h5.9A4.5,4.5,0,0,0,201.4,260.2Z" transform="translate(-28.1 -13.6)" fill="#e02755"></path>
      <path d="M216,269.7v-8.1c0-2.1-1.2-3-2.7-3s-2.7,1-2.7,3v8.1h-2.7V256.4h2.6v1.4a4.7,4.7,0,0,1,3.5-1.5,4.5,4.5,0,0,1,3.3,1.2,4.8,4.8,0,0,1,1.3,3.7v8.5Z" transform="translate(-28.1 -13.6)" fill="#e02755"></path>
      <path d="M226.7,269.7a3.4,3.4,0,0,1-3.6-3.7v-7.3h-1.6v-2h1.6v-4.1h2.6v4.1h2.6v2h-2.6v7.1a1.4,1.4,0,0,0,1.5,1.6h1.1v2.3Z" transform="translate(-28.1 -13.6)" fill="#e02755"></path>
    </g>
    <line x1="0.4" y1="191.8" x2="226.8" y2="191.8" fill="none" stroke="#e02755" stroke-miterlimit="10" stroke-width="1.44"></line>
  </g>
</svg>
