<svg version="1.1" id="Calque_1" xmlns="http://www.w3.org/2000/svg" xmlns:xlink="http://www.w3.org/1999/xlink" x="0px" y="0px" viewBox="0 0 559.9 207.1" style="enable-background:new 0 0 559.9 207.1;" xml:space="preserve">
<style type="text/css">
	.st0{fill:#13A4DE;}
	.st1{fill:#0AA244;}
	.st2{fill:#58C3EF;}
	.st3{fill:#BBD795;}
	.st4{fill:#1D3C6F;}
	.st5{fill:#93D5F3;}
	.st6{fill:#1081C4;}
	.st7{fill:#94C77B;}
	.st8{fill:#088036;}
	.st9{fill:#60B66C;}
</style>
<g>
	<path class="st0" d="M64.2,86.7c-0.1,0.1-0.2,0.1-0.3,0.2c-18,14.8-35.9,16.7-40.5,16.7h41.7c0,0,16.8,0,50.4-33.5   C92.9,70.9,79.3,74.4,64.2,86.7z"/>
	<path class="st1" d="M158,145.7c0.8,1.9,1.6,3.8,2.4,5.5c-18.5-3.8-33.4-11.2-44.6-22.4c-25.3-25.3-50.6-25.3-50.6-25.3h50.6   C115.9,103.5,141.2,103.5,158,145.7z"/>
	<path class="st2" d="M115.6,70c0.1-0.1,0.2-0.2,0.3-0.3c15.4-15.4,37.9-30.8,67.4-33.4c8.6,9.7,15.3,21,19.7,33.4h-70.2   C126.5,69.8,120.8,69.8,115.6,70z"/>
	<path class="st3" d="M23.1,103.5c1.3,0,42.6,0.8,67.5,50.6c7.9,15.7,22.4,35.7,49.7,45.2c-10.3,3.5-21.3,5.5-32.8,5.5   c-55.9,0-101.2-45.3-101.2-101.2L23.1,103.5C23.1,103.5,23.1,103.5,23.1,103.5z"/>
	<g>
		<path class="st4" d="M107.4,2.3C51.5,2.3,6.2,47.6,6.2,103.5h17.3c4.5,0,22.4-1.9,40.5-16.7c9.3-7.5,18.8-18.3,26.6-34    c7.9-15.7,22.4-35.7,49.7-45.2C130,4.2,118.9,2.3,107.4,2.3z"/>
	</g>
	<path class="st5" d="M65.2,103.5c0,0,16.8,0,50.4-33.5c5.2-0.2,10.9-0.3,17.1-0.3h70.2c3.7,10.6,5.8,21.9,5.8,33.7h-92.8H65.2z"/>
	<path class="st6" d="M183.2,36.4c-29.5,2.6-51.9,18-67.4,33.4c-0.1,0.1-0.2,0.2-0.3,0.3c-22.7,0.9-36.3,4.3-51.4,16.6   c-0.1,0.1-0.2,0.1-0.3,0.2c9.3-7.5,18.8-18.3,26.6-34c7.9-15.7,22.4-35.7,49.7-45.2C157,13.5,171.7,23.5,183.2,36.4z"/>
	<path class="st7" d="M90.6,154.1c-24.9-49.8-66.1-50.6-67.5-50.6c0,0,0.1,0,0.1,0h42.1c0,0,25.3,0,50.6,25.3   c11.2,11.2,26,18.6,44.6,22.4c5.1,11.1,10.9,19,17.9,24.6c-10.7,10.4-23.6,18.6-38,23.5C113,189.8,98.4,169.8,90.6,154.1z"/>
	<path class="st8" d="M160.4,151.2c-0.8-1.8-1.6-3.6-2.4-5.5c-16.9-42.2-42.2-42.2-42.2-42.2h92.8c0,18.4-4.9,35.7-13.5,50.6h-3.3   C180.4,154.1,169.9,153.2,160.4,151.2z"/>
	<path class="st9" d="M160.4,151.2c9.5,1.9,19.9,2.9,31.4,2.9h3.3c-4.6,8-10.3,15.3-16.8,21.7C171.4,170.3,165.5,162.4,160.4,151.2z   "/>
</g>
<g>
	<g>
		<g>
			<path class="st4" d="M291.3,139.6c-5.3,0-9.2,4-9.2,8.9c0,4.9,3.9,8.9,9.2,8.9c5.3,0,9.2-4,9.2-8.9S296.6,139.6,291.3,139.6z      M291.3,153.1c-2.6,0-4.4-2.2-4.4-4.6c0-2.5,1.7-4.6,4.4-4.6c2.6,0,4.4,2.2,4.4,4.6C295.7,150.9,293.9,153.1,291.3,153.1z"/>
			<path class="st4" d="M304.3,139.9H318v4.2H309v2.9h8.1v3.9H309v6.1h-4.7V139.9z"/>
			<path class="st4" d="M321.9,139.9h13.7v4.2h-8.9v2.9h8.1v3.9h-8.1v6.1h-4.7V139.9z"/>
			<path class="st4" d="M339.5,139.9h4.7V157h-4.7V139.9z"/>
			<path class="st4" d="M361.1,150.9c-1,1.2-2.1,2.1-3.9,2.1c-2.4,0-4.1-2-4.1-4.6c0-2.5,1.7-4.6,4.1-4.6c1.6,0,2.8,0.8,3.7,2     l3.6-2.8c-1.5-2.1-3.8-3.5-7.3-3.5c-5.2,0-9,3.9-9,8.9c0,5.1,3.9,8.9,8.8,8.9c3.8,0,5.9-1.6,7.6-3.9L361.1,150.9z"/>
			<path class="st4" d="M368.3,139.9h13.8v4H373v2.6h8.2v3.7H373v2.7h9.2v4h-13.9V139.9z"/>
			<path class="st4" d="M395.2,139.9h13.7v4.2H400v2.9h8.1v3.9H400v6.1h-4.7V139.9z"/>
			<path class="st4" d="M424.8,151c2.1-0.9,3.5-2.7,3.5-5.3c0-1.7-0.5-3-1.5-4c-1.1-1.1-3-1.8-5.6-1.8h-8.1V157h4.7v-5.2h2.1     l3.4,5.2h5.5L424.8,151z M421,148.1h-3.2V144h3.1c1.6,0,2.6,0.7,2.6,2.1C423.6,147.3,422.6,148.1,421,148.1z"/>
			<path class="st4" d="M438.1,139.8h4.6l7.3,17.2h-5.1l-1.2-3.1H437l-1.2,3.1h-5L438.1,139.8z M442.2,150.2l-1.9-4.8l-1.9,4.8     H442.2z"/>
			<path class="st4" d="M453,139.9h4.4l7,9v-9h4.7V157h-4.1l-7.3-9.4v9.4H453V139.9z"/>
			<path class="st4" d="M486.1,150.9c-1,1.2-2.1,2.1-3.9,2.1c-2.4,0-4.1-2-4.1-4.6c0-2.5,1.7-4.6,4.1-4.6c1.6,0,2.8,0.8,3.7,2     l3.6-2.8c-1.5-2.1-3.8-3.5-7.3-3.5c-5.2,0-9,3.9-9,8.9c0,4.3,2.8,7.7,6.6,8.6l-1.9,2.6l3.7,1.6l1.4-3.9c3.2-0.2,5.2-1.8,6.7-3.8     L486.1,150.9z"/>
			<path class="st4" d="M498.1,139.8h4.6l7.3,17.2h-5.1l-1.2-3.1H497l-1.2,3.1h-5L498.1,139.8z M502.2,150.2l-1.9-4.8l-1.9,4.8     H502.2z"/>
			<path class="st4" d="M512.6,139.9h4.7V157h-4.7V139.9z"/>
			<path class="st4" d="M529.4,146.4c-2.4-0.5-3-0.9-3-1.7c0-0.6,0.6-1.1,1.7-1.1c1.5,0,3.2,0.6,4.8,1.7l2.4-3.3     c-1.9-1.5-4.1-2.3-7-2.3c-4.1,0-6.6,2.3-6.6,5.5c0,3.5,2.8,4.5,6.5,5.4c2.3,0.6,2.9,1,2.9,1.7s-0.7,1.2-2,1.2     c-2,0-3.8-0.7-5.5-2.1l-2.6,3.2c2.1,1.9,5,2.8,8,2.8c4.2,0,6.9-2.1,6.9-5.6C535.7,148.5,533.3,147.2,529.4,146.4z"/>
		</g>
		<g>
			<path class="st4" d="M270.8,167.1h-6.6v17.1h6.5c6.1,0,9.7-3.7,9.7-8.6C280.4,170.6,276.9,167.1,270.8,167.1z M270.8,180h-1.9     v-8.7h1.9c2.9,0,4.7,1.6,4.7,4.4C275.6,178.4,273.7,180,270.8,180z"/>
			<path class="st4" d="M284.3,167.1h13.8v4H289v2.6h8.2v3.7H289v2.7h9.2v4h-13.9V167.1z"/>
			<path class="st4" d="M311.4,167.1h4.7v13h8.3v4.2h-13V167.1z"/>
			<path class="st4" d="M333.9,166.9h4.6l7.3,17.2h-5.1l-1.2-3.1h-6.6l-1.2,3.1h-5L333.9,166.9z M338.1,177.4l-1.9-4.8l-1.9,4.8     H338.1z"/>
			<path class="st4" d="M369,175.2c1.5-0.7,2.6-1.9,2.6-3.8c0-1.2-0.4-2.1-1.1-2.8c-1-1-2.5-1.5-4.7-1.5h-8.8v17.1h8.8     c4.1,0,6.5-1.8,6.5-4.7C372.4,177.1,371,175.9,369,175.2z M361.7,170.9h3.1c1.4,0,2.2,0.5,2.2,1.5c0,1-0.8,1.5-2.3,1.5h-3V170.9z      M365.3,180.4h-3.7v-3.2h3.6c1.6,0,2.3,0.6,2.3,1.6C367.6,179.8,366.8,180.4,365.3,180.4z"/>
			<path class="st4" d="M376.1,167.1h4.7v17.1h-4.7V167.1z"/>
			<path class="st4" d="M394,166.7c-5.3,0-9.2,4-9.2,8.9c0,4.9,3.9,8.9,9.2,8.9c5.3,0,9.2-4,9.2-8.9     C403.2,170.7,399.3,166.7,394,166.7z M394,180.2c-2.6,0-4.4-2.2-4.4-4.6c0-2.5,1.7-4.6,4.4-4.6c2.6,0,4.4,2.2,4.4,4.6     C398.3,178.1,396.6,180.2,394,180.2z"/>
			<path class="st4" d="M413.7,167.1h-6.6v17.1h6.5c6.1,0,9.7-3.7,9.7-8.6C423.4,170.6,419.8,167.1,413.7,167.1z M413.8,180h-1.9     v-8.7h1.9c2.9,0,4.7,1.6,4.7,4.4C418.5,178.4,416.6,180,413.8,180z"/>
			<path class="st4" d="M427.6,167.1h4.7v17.1h-4.7V167.1z"/>
			<path class="st4" d="M435.6,167.1h5.3l3.9,10.8l3.9-10.8h5.2l-6.9,17.2h-4.4L435.6,167.1z"/>
			<path class="st4" d="M457.1,167.1h13.8v4h-9.1v2.6h8.2v3.7h-8.2v2.7h9.2v4h-13.9V167.1z"/>
			<path class="st4" d="M487.5,178.2c2.1-0.9,3.5-2.7,3.5-5.3c0-1.7-0.5-3-1.5-4c-1.1-1.1-3-1.8-5.6-1.8h-8.1v17.1h4.7V179h2.1     l3.4,5.2h5.5L487.5,178.2z M483.8,175.3h-3.2v-4.1h3.1c1.6,0,2.6,0.7,2.6,2.1C486.3,174.5,485.4,175.3,483.8,175.3z"/>
			<path class="st4" d="M502.6,173.5c-2.4-0.5-3-0.9-3-1.7c0-0.6,0.6-1.1,1.7-1.1c1.5,0,3.2,0.6,4.8,1.7l2.4-3.3     c-1.9-1.5-4.1-2.3-7-2.3c-4.1,0-6.6,2.3-6.6,5.5c0,3.5,2.8,4.5,6.5,5.4c2.3,0.6,2.9,1,2.9,1.7c0,0.7-0.7,1.2-2,1.2     c-2,0-3.8-0.7-5.5-2.1l-2.6,3.2c2.1,1.9,5,2.8,8,2.8c4.2,0,6.9-2.1,6.9-5.6C509,175.7,506.5,174.4,502.6,173.5z"/>
			<path class="st4" d="M513,167.1h4.7v17.1H513V167.1z"/>
			<path class="st4" d="M526.5,171.2h-5.1v-4.2h15v4.2h-5.1v13h-4.7V171.2z"/>
			<path class="st4" d="M539.8,167.1h13.8v4h-9.1v2.6h8.2v3.7h-8.2v2.7h9.2v4h-13.9V167.1z M547.6,161.9l4.4,1.3l-3.6,2.6h-3.4     L547.6,161.9z"/>
		</g>
	</g>
</g>
<g>
	<path class="st4" d="M458.9,47.7h-45.4v21h35.4v21.8h-35.4v33.9h-25.8V25.3h71.1V47.7z"/>
	<path class="st4" d="M374.1,74.9c0,29.4-22.8,52.3-55,52.3s-55-22.9-55-52.3s22.8-52.3,55-52.3S374.1,45.5,374.1,74.9z M319.1,47.5   c-15.2,0-28,11.7-28,27.4c0,15.6,12.8,27.4,28,27.4c15.2,0,28-11.7,28-27.4C347.1,59.3,334.4,47.5,319.1,47.5z"/>
	<path class="st4" d="M475.1,25.3h39.6c23.6,0,29.7,13.1,29.7,24.9c0,11.7-5.7,17.8-11.7,21.4c9.1,2,21,7.3,21,23.8   c0,16.4-9.6,29.1-35.6,29.1h-43V25.3z M500.9,64.2h7.7c6.6,0,12.1-2.4,12.1-9.6c0-6.3-4.3-9.6-12.1-9.6h-7.7V64.2z M500.9,104.5   h11.8c13,0,15-6.1,15-10.5c0-5.2-2.8-10.5-15-10.5h-11.8V104.5z"/>
</g>
</svg>